M48
; DRILL file {KiCad 8.0.7} date 2025-03-12T01:10:00-0400
; FORMAT={-:-/ absolute / metric / decimal}
; #@! TF.CreationDate,2025-03-12T01:10:00-04:00
; #@! TF.GenerationSoftware,Kicad,Pcbnew,8.0.7
; #@! TF.FileFunction,Plated,1,2,PTH
FMAT,2
METRIC
; #@! TA.AperFunction,Plated,PTH,ViaDrill
T1C0.200
; #@! TA.AperFunction,Plated,PTH,ViaDrill
T2C0.300
; #@! TA.AperFunction,Plated,PTH,ComponentDrill
T3C1.000
; #@! TA.AperFunction,Plated,PTH,ComponentDrill
T4C1.020
; #@! TA.AperFunction,Plated,PTH,ComponentDrill
T5C1.100
%
G90
G05
T1
X142.494Y-85.471
X142.494Y-86.106
X142.494Y-86.741
X142.494Y-87.376
X142.494Y-88.011
X142.494Y-88.646
X142.494Y-89.281
X142.494Y-89.916
X143.129Y-85.471
X143.129Y-86.106
X143.129Y-86.741
X143.129Y-87.376
X143.129Y-88.011
X143.129Y-88.646
X143.129Y-89.281
X143.129Y-89.916
X143.764Y-85.471
X143.764Y-86.106
X143.764Y-86.741
X143.764Y-87.376
X143.764Y-88.011
X143.764Y-88.646
X143.764Y-89.281
X143.764Y-89.916
X144.399Y-88.011
X144.399Y-88.646
X144.399Y-89.281
X144.399Y-89.916
X145.034Y-88.011
X145.034Y-88.646
X145.034Y-89.281
X145.034Y-89.916
X145.669Y-88.011
X145.669Y-88.646
X145.669Y-89.281
X145.669Y-89.916
X146.304Y-88.011
X146.304Y-88.646
X146.304Y-89.281
X146.304Y-89.916
X146.939Y-88.011
X146.939Y-88.646
X146.939Y-89.281
X146.939Y-89.916
X147.574Y-88.011
X147.574Y-88.646
X147.574Y-89.281
X147.574Y-89.916
X147.701Y-101.346
X147.701Y-101.981
X147.701Y-102.616
X147.701Y-103.251
X148.209Y-88.011
X148.209Y-88.646
X148.209Y-89.281
X148.209Y-89.916
X148.336Y-101.346
X148.336Y-101.981
X148.336Y-102.616
X148.336Y-103.251
X148.336Y-108.966
X148.336Y-109.601
X148.336Y-110.236
X148.336Y-110.871
X148.844Y-88.011
X148.844Y-88.646
X148.844Y-89.281
X148.844Y-89.916
X148.971Y-101.346
X148.971Y-101.981
X148.971Y-102.616
X148.971Y-103.251
X148.971Y-108.966
X148.971Y-109.601
X148.971Y-110.236
X148.971Y-110.871
X149.479Y-88.011
X149.479Y-88.646
X149.479Y-89.281
X149.479Y-89.916
X149.606Y-101.346
X149.606Y-101.981
X149.606Y-102.616
X149.606Y-103.251
X149.606Y-108.966
X149.606Y-109.601
X149.606Y-110.236
X149.606Y-110.871
X150.241Y-108.966
X150.241Y-109.601
X150.241Y-110.236
X150.241Y-110.871
X167.513Y-82.55
X168.656Y-75.692
X168.656Y-76.327
X168.656Y-76.962
X168.656Y-77.597
X168.656Y-78.232
X168.656Y-78.867
X168.656Y-79.502
X168.656Y-80.137
X169.291Y-75.692
X169.291Y-76.327
X169.291Y-76.962
X169.291Y-77.597
X169.291Y-78.232
X169.291Y-78.867
X169.291Y-79.502
X169.291Y-80.137
X169.545Y-107.188
X169.545Y-107.823
X169.545Y-108.458
X169.545Y-109.093
X169.545Y-109.728
X169.545Y-110.363
X169.545Y-110.998
X169.545Y-111.633
X169.926Y-75.692
X169.926Y-76.327
X169.926Y-76.962
X169.926Y-77.597
X169.926Y-78.232
X169.926Y-78.867
X169.926Y-79.502
X169.926Y-80.137
X170.18Y-107.188
X170.18Y-107.823
X170.18Y-108.458
X170.18Y-109.093
X170.18Y-109.728
X170.18Y-110.363
X170.18Y-110.998
X170.18Y-111.633
X170.561Y-75.692
X170.561Y-76.327
X170.561Y-76.962
X170.561Y-77.597
X170.561Y-78.232
X170.561Y-78.867
X170.561Y-79.502
X171.196Y-75.692
X171.196Y-76.327
X171.196Y-76.962
X171.196Y-77.597
X171.196Y-78.232
X171.196Y-78.867
X171.831Y-75.692
X171.831Y-76.327
X171.831Y-76.962
X171.831Y-77.597
X171.831Y-78.232
X172.466Y-75.692
X172.466Y-76.327
X172.466Y-76.962
X172.466Y-77.597
X173.101Y-75.692
X173.101Y-76.327
X173.101Y-76.962
X174.244Y-109.855
X177.546Y-107.569
X178.562Y-107.569
X180.34Y-111.379
X180.975Y-111.379
X181.61Y-111.379
X182.245Y-111.379
X184.277Y-109.347
X184.277Y-109.982
X184.277Y-110.617
X184.277Y-111.252
X184.912Y-109.347
X184.912Y-109.982
X184.912Y-110.617
X184.912Y-111.252
X185.547Y-109.347
X185.547Y-109.982
X185.547Y-110.617
X185.547Y-111.252
X186.182Y-109.347
X186.182Y-109.982
X186.182Y-110.617
X186.182Y-111.252
X189.23Y-75.311
X189.865Y-75.311
X190.5Y-75.311
X191.135Y-75.311
X192.659Y-109.982
X192.659Y-110.617
X192.659Y-111.252
X192.659Y-111.887
X193.294Y-109.982
X193.294Y-110.617
X193.294Y-111.252
X193.294Y-111.887
X193.929Y-109.982
X193.929Y-110.617
X193.929Y-111.252
X193.929Y-111.887
X194.564Y-109.982
X194.564Y-110.617
X194.564Y-111.252
X194.564Y-111.887
X195.199Y-109.982
X195.199Y-110.617
X195.199Y-111.252
X195.199Y-111.887
X195.834Y-109.982
X195.834Y-110.617
X195.834Y-111.252
X195.834Y-111.887
X196.469Y-109.982
X196.469Y-110.617
X196.469Y-111.252
X196.469Y-111.887
X197.104Y-109.982
X197.104Y-110.617
X197.104Y-111.252
X197.104Y-111.887
X197.993Y-110.871
X211.201Y-75.819
X211.201Y-76.454
X211.201Y-77.089
X211.201Y-77.724
X211.201Y-78.359
X211.201Y-78.994
X211.201Y-79.629
X211.201Y-80.264
X211.836Y-75.819
X211.836Y-76.454
X211.836Y-77.089
X211.836Y-77.724
X211.836Y-78.359
X211.836Y-78.994
X211.836Y-79.629
X211.836Y-80.264
X212.471Y-75.819
X212.471Y-76.454
X212.471Y-77.089
X212.471Y-77.724
X212.471Y-78.359
X212.471Y-78.994
X212.471Y-79.629
X212.471Y-80.264
X213.106Y-75.819
X213.106Y-76.454
X213.106Y-77.089
X213.106Y-77.724
X213.106Y-78.359
X213.106Y-78.994
X213.106Y-79.629
X213.106Y-80.264
X213.741Y-75.819
X213.741Y-76.454
X213.741Y-77.089
X213.741Y-77.724
X213.741Y-78.359
X213.741Y-78.994
X213.741Y-79.629
X213.741Y-80.264
T2
X160.274Y-85.598
X161.671Y-84.963
X163.83Y-85.598
X165.735Y-89.154
X166.751Y-86.868
X167.005Y-88.301
X177.546Y-87.884
X182.318Y-109.674
X183.007Y-99.949
X184.15Y-106.299
X184.947Y-78.232
X185.166Y-107.315
X187.579Y-78.486
X187.579Y-92.202
X189.738Y-93.091
X189.738Y-98.679
X190.627Y-86.106
X190.627Y-100.076
X193.167Y-86.106
X193.802Y-91.059
X194.056Y-105.537
X197.358Y-100.076
X199.517Y-99.568
X201.422Y-104.902
X201.803Y-87.122
X202.184Y-108.204
X202.311Y-99.06
X202.819Y-105.41
X202.819Y-111.125
X205.105Y-99.949
X205.359Y-105.791
X205.486Y-107.569
X206.375Y-97.155
X206.756Y-100.457
X207.645Y-98.044
X208.407Y-99.568
X209.423Y-96.266
X209.931Y-85.598
X209.931Y-105.156
X210.185Y-88.011
X210.312Y-106.426
X211.201Y-85.979
X211.455Y-108.204
X213.36Y-111.887
T3
X172.339Y-73.533
X174.879Y-73.533
X177.419Y-73.533
X179.959Y-73.533
X182.499Y-73.533
X185.039Y-73.533
X187.579Y-73.533
X190.119Y-73.533
X192.659Y-73.533
X195.199Y-73.533
X197.739Y-73.533
X200.279Y-73.533
X202.819Y-73.533
X205.359Y-73.533
X207.899Y-73.533
X210.439Y-73.533
T4
X145.542Y-73.279
X145.542Y-75.819
X145.542Y-78.359
X145.542Y-80.899
X145.542Y-83.439
X145.542Y-85.979
X148.082Y-73.279
X148.082Y-75.819
X148.082Y-78.359
X148.082Y-80.899
X148.082Y-83.439
X148.082Y-85.979
X150.622Y-73.279
X150.622Y-75.819
X150.622Y-78.359
X150.622Y-80.899
X150.622Y-83.439
X150.622Y-85.979
T5
X145.923Y-104.982
X145.923Y-109.982
M30
