G04 #@! TF.GenerationSoftware,KiCad,Pcbnew,8.0.7*
G04 #@! TF.CreationDate,2025-03-12T01:08:21-04:00*
G04 #@! TF.ProjectId,combat-pcb,636f6d62-6174-42d7-9063-622e6b696361,rev?*
G04 #@! TF.SameCoordinates,Original*
G04 #@! TF.FileFunction,Copper,L2,Bot*
G04 #@! TF.FilePolarity,Positive*
%FSLAX46Y46*%
G04 Gerber Fmt 4.6, Leading zero omitted, Abs format (unit mm)*
G04 Created by KiCad (PCBNEW 8.0.7) date 2025-03-12 01:08:21*
%MOMM*%
%LPD*%
G01*
G04 APERTURE LIST*
G04 #@! TA.AperFunction,ComponentPad*
%ADD10R,1.370000X1.370000*%
G04 #@! TD*
G04 #@! TA.AperFunction,ComponentPad*
%ADD11C,1.370000*%
G04 #@! TD*
G04 #@! TA.AperFunction,ComponentPad*
%ADD12R,2.100000X2.100000*%
G04 #@! TD*
G04 #@! TA.AperFunction,ComponentPad*
%ADD13C,2.100000*%
G04 #@! TD*
G04 #@! TA.AperFunction,ComponentPad*
%ADD14R,1.700000X1.700000*%
G04 #@! TD*
G04 #@! TA.AperFunction,ComponentPad*
%ADD15O,1.700000X1.700000*%
G04 #@! TD*
G04 #@! TA.AperFunction,ViaPad*
%ADD16C,0.500000*%
G04 #@! TD*
G04 #@! TA.AperFunction,ViaPad*
%ADD17C,0.600000*%
G04 #@! TD*
G04 #@! TA.AperFunction,ViaPad*
%ADD18C,0.300000*%
G04 #@! TD*
G04 #@! TA.AperFunction,Conductor*
%ADD19C,0.200000*%
G04 #@! TD*
G04 #@! TA.AperFunction,Conductor*
%ADD20C,0.508000*%
G04 #@! TD*
G04 APERTURE END LIST*
D10*
X145542000Y-73279000D03*
D11*
X148082000Y-73279000D03*
X150622000Y-73279000D03*
X145542000Y-75819000D03*
X148082000Y-75819000D03*
X150622000Y-75819000D03*
X145542000Y-78359000D03*
X148082000Y-78359000D03*
X150622000Y-78359000D03*
X145542000Y-80899000D03*
X148082000Y-80899000D03*
X150622000Y-80899000D03*
X145542000Y-83439000D03*
X148082000Y-83439000D03*
X150622000Y-83439000D03*
X145542000Y-85979000D03*
X148082000Y-85979000D03*
X150622000Y-85979000D03*
D12*
X145923000Y-109982000D03*
D13*
X145923000Y-104982000D03*
D14*
X172339000Y-73533000D03*
D15*
X174879000Y-73533000D03*
X177419000Y-73533000D03*
X179959000Y-73533000D03*
X182499000Y-73533000D03*
X185039000Y-73533000D03*
X187579000Y-73533000D03*
X190119000Y-73533000D03*
X192659000Y-73533000D03*
X195199000Y-73533000D03*
X197739000Y-73533000D03*
X200279000Y-73533000D03*
X202819000Y-73533000D03*
X205359000Y-73533000D03*
X207899000Y-73533000D03*
X210439000Y-73533000D03*
D16*
X211455000Y-108204000D03*
D17*
X161671000Y-84963000D03*
X167005000Y-88301500D03*
X193167000Y-86106000D03*
X202184000Y-108204000D03*
X202819000Y-111125000D03*
X185166000Y-107315000D03*
X207645000Y-98044000D03*
X209931000Y-105156000D03*
D18*
X195199000Y-109982000D03*
X171831000Y-76962000D03*
X169545000Y-110998000D03*
X196469000Y-110617000D03*
X212471000Y-76454000D03*
X184912000Y-109982000D03*
X171196000Y-76962000D03*
X211836000Y-78359000D03*
X148844000Y-89281000D03*
X148971000Y-109601000D03*
X142494000Y-86741000D03*
X148971000Y-101981000D03*
X185547000Y-109982000D03*
X144399000Y-88646000D03*
X173101000Y-75692000D03*
X149606000Y-103251000D03*
X169291000Y-77597000D03*
X149606000Y-102616000D03*
X195834000Y-109982000D03*
X170180000Y-109093000D03*
X142494000Y-88646000D03*
X185547000Y-110617000D03*
X169926000Y-80137000D03*
X145669000Y-89916000D03*
X169545000Y-109728000D03*
X184912000Y-110617000D03*
X169545000Y-107188000D03*
X168656000Y-79502000D03*
X145669000Y-88011000D03*
X149479000Y-88011000D03*
X169926000Y-76327000D03*
X150241000Y-110871000D03*
X184277000Y-110617000D03*
X185547000Y-111252000D03*
X143764000Y-89281000D03*
X145034000Y-89281000D03*
X144399000Y-89916000D03*
X143764000Y-85471000D03*
X146939000Y-89916000D03*
X143764000Y-88646000D03*
X170180000Y-111633000D03*
X142494000Y-89916000D03*
X169291000Y-76327000D03*
X170180000Y-107823000D03*
X148336000Y-103251000D03*
X170561000Y-77597000D03*
X145034000Y-88646000D03*
X147574000Y-89916000D03*
X193929000Y-109982000D03*
X170561000Y-76962000D03*
X148336000Y-109601000D03*
X147701000Y-101981000D03*
X170561000Y-76327000D03*
X212471000Y-79629000D03*
X148336000Y-101346000D03*
X190500000Y-75311000D03*
X171196000Y-78867000D03*
X143764000Y-89916000D03*
X148209000Y-88646000D03*
X174244000Y-109855000D03*
X192659000Y-109982000D03*
X171196000Y-78232000D03*
X148209000Y-89916000D03*
X171831000Y-78232000D03*
X148209000Y-88011000D03*
X148971000Y-110871000D03*
X170180000Y-107188000D03*
X169926000Y-77597000D03*
X180340000Y-111379000D03*
X213106000Y-78994000D03*
X186182000Y-109347000D03*
X146939000Y-88646000D03*
X143129000Y-85471000D03*
X149606000Y-110871000D03*
X211201000Y-78359000D03*
X148844000Y-88646000D03*
X147574000Y-88646000D03*
X195199000Y-110617000D03*
X148336000Y-102616000D03*
X195834000Y-111887000D03*
X192659000Y-111887000D03*
X143129000Y-86106000D03*
X211201000Y-75819000D03*
X194564000Y-110617000D03*
X146304000Y-88646000D03*
X211201000Y-80264000D03*
X197993000Y-110871000D03*
X168656000Y-77597000D03*
X170561000Y-79502000D03*
X148971000Y-110236000D03*
X149479000Y-88646000D03*
X147701000Y-103251000D03*
X177546000Y-107569000D03*
X194564000Y-111887000D03*
X213741000Y-77724000D03*
X143129000Y-89916000D03*
X169291000Y-80137000D03*
X184912000Y-111252000D03*
X211201000Y-77089000D03*
X184277000Y-109982000D03*
X150241000Y-108966000D03*
X168656000Y-80137000D03*
X169291000Y-78867000D03*
X189865000Y-75311000D03*
X196469000Y-111887000D03*
X171831000Y-76327000D03*
X146304000Y-88011000D03*
X142494000Y-89281000D03*
X170180000Y-110998000D03*
X170180000Y-109728000D03*
X150241000Y-110236000D03*
X168656000Y-78867000D03*
X212471000Y-78994000D03*
X195199000Y-111252000D03*
X212471000Y-77089000D03*
X142494000Y-88011000D03*
X144399000Y-88011000D03*
X169291000Y-76962000D03*
X142494000Y-86106000D03*
X143129000Y-86741000D03*
X169926000Y-76962000D03*
X211201000Y-78994000D03*
X170180000Y-108458000D03*
X149479000Y-89281000D03*
X195834000Y-111252000D03*
X196469000Y-111252000D03*
X213106000Y-76454000D03*
X148336000Y-108966000D03*
X148336000Y-110871000D03*
X169545000Y-108458000D03*
X212471000Y-75819000D03*
X193294000Y-109982000D03*
X149479000Y-89916000D03*
X195199000Y-111887000D03*
X171196000Y-75692000D03*
X147574000Y-89281000D03*
X213106000Y-75819000D03*
X213741000Y-78359000D03*
X142494000Y-85471000D03*
X197104000Y-109982000D03*
X185547000Y-109347000D03*
X143764000Y-86106000D03*
X193294000Y-111887000D03*
X213741000Y-78994000D03*
X171196000Y-76327000D03*
X148971000Y-103251000D03*
X173101000Y-76327000D03*
X196469000Y-109982000D03*
X171196000Y-77597000D03*
X147701000Y-101346000D03*
X181610000Y-111379000D03*
X193929000Y-110617000D03*
X189230000Y-75311000D03*
X169926000Y-75692000D03*
X146939000Y-89281000D03*
X211836000Y-80264000D03*
X213106000Y-77089000D03*
X193294000Y-111252000D03*
X211836000Y-79629000D03*
X211836000Y-75819000D03*
X148844000Y-88011000D03*
X169291000Y-79502000D03*
X147574000Y-88011000D03*
X169545000Y-111633000D03*
X150241000Y-109601000D03*
X167513000Y-82550000D03*
X197104000Y-111252000D03*
X186182000Y-110617000D03*
X169545000Y-110363000D03*
X168656000Y-76327000D03*
X169291000Y-75692000D03*
X143764000Y-87376000D03*
X148336000Y-101981000D03*
X143764000Y-88011000D03*
X149606000Y-101981000D03*
X146304000Y-89916000D03*
X213741000Y-80264000D03*
X172466000Y-76962000D03*
X169545000Y-109093000D03*
X143129000Y-88646000D03*
X173101000Y-76962000D03*
X149606000Y-108966000D03*
X169926000Y-79502000D03*
X143129000Y-88011000D03*
X145669000Y-88646000D03*
X143764000Y-86741000D03*
X148971000Y-102616000D03*
X172466000Y-77597000D03*
X146304000Y-89281000D03*
X169291000Y-78232000D03*
X197104000Y-111887000D03*
X211201000Y-76454000D03*
X171831000Y-75692000D03*
X184277000Y-109347000D03*
X148336000Y-110236000D03*
X211836000Y-77724000D03*
X168656000Y-75692000D03*
X145034000Y-88011000D03*
X170561000Y-78867000D03*
X212471000Y-78359000D03*
X211201000Y-77724000D03*
X149606000Y-101346000D03*
X192659000Y-111252000D03*
X172466000Y-76327000D03*
X170561000Y-75692000D03*
X213106000Y-78359000D03*
X148209000Y-89281000D03*
X195834000Y-110617000D03*
X211201000Y-79629000D03*
X145034000Y-89916000D03*
X213106000Y-80264000D03*
X142494000Y-87376000D03*
X186182000Y-109982000D03*
X171831000Y-77597000D03*
X193294000Y-110617000D03*
X182245000Y-111379000D03*
X194564000Y-111252000D03*
X145669000Y-89281000D03*
X212471000Y-80264000D03*
X193929000Y-111252000D03*
X213741000Y-75819000D03*
X213741000Y-77089000D03*
X184912000Y-109347000D03*
X170561000Y-78232000D03*
X146939000Y-88011000D03*
X211836000Y-76454000D03*
X193929000Y-111887000D03*
X178562000Y-107569000D03*
X172466000Y-75692000D03*
X170180000Y-110363000D03*
X148844000Y-89916000D03*
X168656000Y-76962000D03*
X169926000Y-78867000D03*
X212471000Y-77724000D03*
X211836000Y-77089000D03*
X148971000Y-108966000D03*
X213741000Y-79629000D03*
X144399000Y-89281000D03*
D17*
X183007000Y-99949000D03*
D18*
X186182000Y-111252000D03*
X148971000Y-101346000D03*
X169926000Y-78232000D03*
X192659000Y-110617000D03*
X169545000Y-107823000D03*
X168656000Y-78232000D03*
X149606000Y-110236000D03*
X147701000Y-102616000D03*
X180975000Y-111379000D03*
X213106000Y-79629000D03*
X143129000Y-89281000D03*
X213106000Y-77724000D03*
X197104000Y-110617000D03*
X191135000Y-75311000D03*
X211836000Y-78994000D03*
X143129000Y-87376000D03*
X184277000Y-111252000D03*
X213741000Y-76454000D03*
X149606000Y-109601000D03*
X194564000Y-109982000D03*
D17*
X184150000Y-106299000D03*
X202819000Y-105410000D03*
X205486000Y-107569000D03*
X182318106Y-109674106D03*
X208407000Y-99568000D03*
X190627000Y-86106000D03*
X187579000Y-78486000D03*
X199517000Y-99568000D03*
X202311000Y-99060000D03*
X205105000Y-99949000D03*
X210185000Y-88011000D03*
X201422000Y-104902000D03*
X206756000Y-100457000D03*
X210312000Y-106426000D03*
X205359000Y-105791000D03*
X213360000Y-111887000D03*
X209423000Y-96266000D03*
X211201000Y-85979000D03*
X209931000Y-85598000D03*
X194056000Y-105537000D03*
X206375000Y-97155000D03*
X184947000Y-78232000D03*
X160274000Y-85598000D03*
X165735000Y-89154000D03*
X166751000Y-86868000D03*
X163830000Y-85598000D03*
X177546000Y-87884000D03*
X197358000Y-100076000D03*
X201803000Y-87122000D03*
X189738000Y-93091000D03*
X189738000Y-98679000D03*
X190627000Y-100076000D03*
X193802000Y-91059000D03*
X187579000Y-92202000D03*
D19*
X204597000Y-108458000D02*
X205486000Y-107569000D01*
X204597000Y-110363000D02*
X204597000Y-108458000D01*
X203235000Y-111725000D02*
X204597000Y-110363000D01*
X200792471Y-111725000D02*
X203235000Y-111725000D01*
X183642000Y-108331000D02*
X197398471Y-108331000D01*
X197398471Y-108331000D02*
X200792471Y-111725000D01*
X182318106Y-109654894D02*
X183642000Y-108331000D01*
X182318106Y-109674106D02*
X182318106Y-109654894D01*
X211455000Y-108204000D02*
X210820000Y-107569000D01*
X210820000Y-107569000D02*
X205486000Y-107569000D01*
X165009500Y-88301500D02*
X167005000Y-88301500D01*
X161671000Y-84963000D02*
X165009500Y-88301500D01*
X193167000Y-86106000D02*
X193167000Y-86123283D01*
X174879000Y-82550000D02*
X174879000Y-73533000D01*
X180467000Y-88138000D02*
X174879000Y-82550000D01*
X193167000Y-86123283D02*
X191152283Y-88138000D01*
X191152283Y-88138000D02*
X180467000Y-88138000D01*
X202184000Y-110490000D02*
X202819000Y-111125000D01*
X202184000Y-108204000D02*
X202184000Y-110490000D01*
X204683529Y-107315000D02*
X206842529Y-105156000D01*
X185166000Y-107315000D02*
X204683529Y-107315000D01*
X206842529Y-105156000D02*
X209931000Y-105156000D01*
X207391000Y-97790000D02*
X207391000Y-78105000D01*
X207391000Y-78105000D02*
X202819000Y-73533000D01*
X207645000Y-98044000D02*
X207391000Y-97790000D01*
X201930000Y-106299000D02*
X202819000Y-105410000D01*
X184150000Y-106299000D02*
X201930000Y-106299000D01*
X208407000Y-99568000D02*
X208407000Y-76581000D01*
X208407000Y-76581000D02*
X205359000Y-73533000D01*
X177419000Y-83693000D02*
X177419000Y-73533000D01*
X180721000Y-86995000D02*
X177419000Y-83693000D01*
X190627000Y-86106000D02*
X189738000Y-86995000D01*
X189738000Y-86995000D02*
X180721000Y-86995000D01*
X187579000Y-78486000D02*
X187579000Y-73533000D01*
X200152000Y-99568000D02*
X199517000Y-99568000D01*
X205740000Y-93980000D02*
X200152000Y-99568000D01*
X205740000Y-81534000D02*
X205740000Y-93980000D01*
X197739000Y-73533000D02*
X205740000Y-81534000D01*
X206629000Y-79883000D02*
X200279000Y-73533000D01*
X202311000Y-99060000D02*
X206629000Y-94742000D01*
X206629000Y-94742000D02*
X206629000Y-79883000D01*
X206121000Y-105029000D02*
X206121000Y-101092000D01*
X210601000Y-88427000D02*
X210185000Y-88011000D01*
X205359000Y-105791000D02*
X206121000Y-105029000D01*
X210312000Y-106426000D02*
X210601000Y-106137000D01*
X210601000Y-106137000D02*
X210601000Y-88427000D01*
X206121000Y-101092000D02*
X206756000Y-100457000D01*
X201422000Y-104902000D02*
X205105000Y-101219000D01*
X205105000Y-101219000D02*
X205105000Y-99949000D01*
X209931000Y-85598000D02*
X209482471Y-86046529D01*
X209482471Y-86046529D02*
X209423000Y-86106000D01*
X213614000Y-97790000D02*
X211582000Y-99822000D01*
X213614000Y-88392000D02*
X213614000Y-97790000D01*
X209423000Y-86106000D02*
X209423000Y-96266000D01*
X194056000Y-105537000D02*
X197993000Y-105537000D01*
X214122000Y-111125000D02*
X213360000Y-111887000D01*
X214122000Y-105283000D02*
X214122000Y-111125000D01*
X211582000Y-99822000D02*
X211582000Y-102743000D01*
X211582000Y-102743000D02*
X214122000Y-105283000D01*
X211201000Y-85979000D02*
X213614000Y-88392000D01*
X197993000Y-105537000D02*
X206375000Y-97155000D01*
X185039000Y-78140000D02*
X184947000Y-78232000D01*
X185039000Y-73533000D02*
X185039000Y-78140000D01*
X165735000Y-89154000D02*
X163830000Y-89154000D01*
X163830000Y-89154000D02*
X160274000Y-85598000D01*
D20*
X166751000Y-86868000D02*
X165100000Y-86868000D01*
X195072000Y-75946000D02*
X195072000Y-85655686D01*
X192659000Y-73533000D02*
X195072000Y-75946000D01*
X191573686Y-89154000D02*
X178816000Y-89154000D01*
X195072000Y-85655686D02*
X191573686Y-89154000D01*
X182499000Y-73533000D02*
X182499000Y-77470000D01*
X182499000Y-77470000D02*
X185039000Y-80010000D01*
X165100000Y-86868000D02*
X163830000Y-85598000D01*
X189865000Y-80010000D02*
X192659000Y-77216000D01*
X178816000Y-89154000D02*
X177546000Y-87884000D01*
X185039000Y-80010000D02*
X189865000Y-80010000D01*
X192659000Y-77216000D02*
X192659000Y-73533000D01*
D19*
X204851000Y-92583000D02*
X197358000Y-100076000D01*
X204851000Y-83185000D02*
X204851000Y-92583000D01*
X195199000Y-73533000D02*
X204851000Y-83185000D01*
X154713000Y-77370000D02*
X150622000Y-73279000D01*
X201803000Y-87122000D02*
X196522894Y-87122000D01*
X196522894Y-87122000D02*
X192458894Y-91186000D01*
X154713000Y-81277842D02*
X154713000Y-77370000D01*
X164621158Y-91186000D02*
X154713000Y-81277842D01*
X192458894Y-91186000D02*
X164621158Y-91186000D01*
X152527000Y-80264000D02*
X150622000Y-78359000D01*
X189738000Y-93091000D02*
X163703000Y-93091000D01*
X163703000Y-93091000D02*
X152527000Y-81915000D01*
X152527000Y-81915000D02*
X152527000Y-80264000D01*
X189738000Y-98679000D02*
X186182000Y-98679000D01*
X186182000Y-98679000D02*
X184531000Y-97028000D01*
X184531000Y-97028000D02*
X161671000Y-97028000D01*
X161671000Y-97028000D02*
X150622000Y-85979000D01*
X150622000Y-83439000D02*
X162560000Y-95377000D01*
X188087000Y-95377000D02*
X190627000Y-97917000D01*
X162560000Y-95377000D02*
X188087000Y-95377000D01*
X190627000Y-97917000D02*
X190627000Y-100076000D01*
X193802000Y-91059000D02*
X190754000Y-94107000D01*
X190754000Y-94107000D02*
X163195000Y-94107000D01*
X150622000Y-81534000D02*
X150622000Y-80899000D01*
X163195000Y-94107000D02*
X150622000Y-81534000D01*
X153670000Y-78867000D02*
X150622000Y-75819000D01*
X187579000Y-92202000D02*
X164084000Y-92202000D01*
X164084000Y-92202000D02*
X153670000Y-81788000D01*
X153670000Y-81788000D02*
X153670000Y-78867000D01*
G04 #@! TA.AperFunction,Conductor*
G36*
X154755539Y-71648185D02*
G01*
X154801294Y-71700989D01*
X154812500Y-71752500D01*
X154812500Y-76320902D01*
X154792815Y-76387941D01*
X154740011Y-76433696D01*
X154670853Y-76443640D01*
X154607297Y-76414615D01*
X154600819Y-76408583D01*
X151821173Y-73628938D01*
X151787688Y-73567615D01*
X151789588Y-73507320D01*
X151792307Y-73497768D01*
X151812579Y-73279000D01*
X151792307Y-73060232D01*
X151732182Y-72848913D01*
X151634251Y-72652241D01*
X151554138Y-72546155D01*
X151501846Y-72476909D01*
X151339485Y-72328898D01*
X151339484Y-72328897D01*
X151152687Y-72213237D01*
X151152685Y-72213236D01*
X151050252Y-72173554D01*
X150947817Y-72133871D01*
X150731853Y-72093500D01*
X150512147Y-72093500D01*
X150296183Y-72133871D01*
X150296180Y-72133871D01*
X150296180Y-72133872D01*
X150091314Y-72213236D01*
X150091312Y-72213237D01*
X149904514Y-72328898D01*
X149742153Y-72476909D01*
X149609749Y-72652240D01*
X149511819Y-72848909D01*
X149511818Y-72848913D01*
X149471265Y-72991439D01*
X149433987Y-73050531D01*
X149370678Y-73080089D01*
X149301438Y-73070727D01*
X149248252Y-73025418D01*
X149232734Y-72991441D01*
X149192182Y-72848913D01*
X149094251Y-72652241D01*
X149014138Y-72546155D01*
X148961846Y-72476909D01*
X148799485Y-72328898D01*
X148799484Y-72328897D01*
X148612687Y-72213237D01*
X148612685Y-72213236D01*
X148510252Y-72173554D01*
X148407817Y-72133871D01*
X148191853Y-72093500D01*
X147972147Y-72093500D01*
X147756183Y-72133871D01*
X147756180Y-72133871D01*
X147756180Y-72133872D01*
X147551314Y-72213236D01*
X147551312Y-72213237D01*
X147364514Y-72328898D01*
X147202153Y-72476909D01*
X147069749Y-72652240D01*
X146971818Y-72848911D01*
X146971817Y-72848913D01*
X146970266Y-72854366D01*
X146932986Y-72913459D01*
X146869675Y-72943016D01*
X146800436Y-72933652D01*
X146747250Y-72888342D01*
X146727004Y-72821470D01*
X146727000Y-72820430D01*
X146727000Y-72546172D01*
X146726999Y-72546155D01*
X146720598Y-72486627D01*
X146720596Y-72486620D01*
X146670354Y-72351913D01*
X146670350Y-72351906D01*
X146584190Y-72236812D01*
X146584187Y-72236809D01*
X146469093Y-72150649D01*
X146469086Y-72150645D01*
X146334379Y-72100403D01*
X146334372Y-72100401D01*
X146274844Y-72094000D01*
X145792000Y-72094000D01*
X145792000Y-72834439D01*
X145738853Y-72803755D01*
X145609143Y-72769000D01*
X145474857Y-72769000D01*
X145345147Y-72803755D01*
X145292000Y-72834439D01*
X145292000Y-72094000D01*
X144809155Y-72094000D01*
X144749627Y-72100401D01*
X144749620Y-72100403D01*
X144614913Y-72150645D01*
X144614906Y-72150649D01*
X144499812Y-72236809D01*
X144499809Y-72236812D01*
X144413649Y-72351906D01*
X144413645Y-72351913D01*
X144363403Y-72486620D01*
X144363401Y-72486627D01*
X144357000Y-72546155D01*
X144357000Y-73029000D01*
X145097440Y-73029000D01*
X145066755Y-73082147D01*
X145032000Y-73211857D01*
X145032000Y-73346143D01*
X145066755Y-73475853D01*
X145097440Y-73529000D01*
X144357000Y-73529000D01*
X144357000Y-74011844D01*
X144363401Y-74071372D01*
X144363403Y-74071379D01*
X144413645Y-74206086D01*
X144413649Y-74206093D01*
X144499809Y-74321187D01*
X144499812Y-74321190D01*
X144614906Y-74407350D01*
X144614913Y-74407354D01*
X144749620Y-74457596D01*
X144749627Y-74457598D01*
X144809155Y-74463999D01*
X144809172Y-74464000D01*
X145095963Y-74464000D01*
X145163002Y-74483685D01*
X145208757Y-74536489D01*
X145218701Y-74605647D01*
X145189676Y-74669203D01*
X145140757Y-74703627D01*
X145011540Y-74753685D01*
X144899567Y-74823014D01*
X145404425Y-75327871D01*
X145345147Y-75343755D01*
X145228853Y-75410898D01*
X145133898Y-75505853D01*
X145066755Y-75622147D01*
X145050871Y-75681424D01*
X144543847Y-75174400D01*
X144530173Y-75192509D01*
X144432290Y-75389084D01*
X144432284Y-75389099D01*
X144372186Y-75600322D01*
X144372185Y-75600324D01*
X144351923Y-75818999D01*
X144351923Y-75819000D01*
X144372185Y-76037675D01*
X144372186Y-76037677D01*
X144432284Y-76248900D01*
X144432290Y-76248915D01*
X144530176Y-76445496D01*
X144543846Y-76463598D01*
X144543847Y-76463598D01*
X145050871Y-75956574D01*
X145066755Y-76015853D01*
X145133898Y-76132147D01*
X145228853Y-76227102D01*
X145345147Y-76294245D01*
X145404424Y-76310128D01*
X144899567Y-76814984D01*
X144899568Y-76814985D01*
X145011533Y-76884311D01*
X145011539Y-76884314D01*
X145216322Y-76963646D01*
X145234854Y-76967111D01*
X145297135Y-76998779D01*
X145332408Y-77059092D01*
X145329474Y-77128900D01*
X145289265Y-77186040D01*
X145234854Y-77210889D01*
X145216322Y-77214353D01*
X145216321Y-77214353D01*
X145011540Y-77293685D01*
X144899567Y-77363014D01*
X145404425Y-77867871D01*
X145345147Y-77883755D01*
X145228853Y-77950898D01*
X145133898Y-78045853D01*
X145066755Y-78162147D01*
X145050871Y-78221424D01*
X144543847Y-77714400D01*
X144530173Y-77732509D01*
X144432290Y-77929084D01*
X144432284Y-77929099D01*
X144372186Y-78140322D01*
X144372185Y-78140324D01*
X144351923Y-78358999D01*
X144351923Y-78359000D01*
X144372185Y-78577675D01*
X144372186Y-78577677D01*
X144432284Y-78788900D01*
X144432290Y-78788915D01*
X144530176Y-78985496D01*
X144543846Y-79003598D01*
X144543847Y-79003598D01*
X145050871Y-78496574D01*
X145066755Y-78555853D01*
X145133898Y-78672147D01*
X145228853Y-78767102D01*
X145345147Y-78834245D01*
X145404424Y-78850128D01*
X144899567Y-79354984D01*
X144899568Y-79354985D01*
X145011533Y-79424311D01*
X145011539Y-79424314D01*
X145216322Y-79503646D01*
X145234854Y-79507111D01*
X145297135Y-79538779D01*
X145332408Y-79599092D01*
X145329474Y-79668900D01*
X145289265Y-79726040D01*
X145234854Y-79750889D01*
X145216322Y-79754353D01*
X145216321Y-79754353D01*
X145011540Y-79833685D01*
X144899567Y-79903014D01*
X145404425Y-80407871D01*
X145345147Y-80423755D01*
X145228853Y-80490898D01*
X145133898Y-80585853D01*
X145066755Y-80702147D01*
X145050871Y-80761424D01*
X144543847Y-80254400D01*
X144530173Y-80272509D01*
X144432290Y-80469084D01*
X144432284Y-80469099D01*
X144372186Y-80680322D01*
X144372185Y-80680324D01*
X144351923Y-80898999D01*
X144351923Y-80899000D01*
X144372185Y-81117675D01*
X144372186Y-81117677D01*
X144432284Y-81328900D01*
X144432290Y-81328915D01*
X144530176Y-81525496D01*
X144543846Y-81543598D01*
X144543847Y-81543598D01*
X145050871Y-81036574D01*
X145066755Y-81095853D01*
X145133898Y-81212147D01*
X145228853Y-81307102D01*
X145345147Y-81374245D01*
X145404424Y-81390128D01*
X144899567Y-81894984D01*
X144899568Y-81894985D01*
X145011533Y-81964311D01*
X145011539Y-81964314D01*
X145216322Y-82043646D01*
X145234854Y-82047111D01*
X145297135Y-82078779D01*
X145332408Y-82139092D01*
X145329474Y-82208900D01*
X145289265Y-82266040D01*
X145234854Y-82290889D01*
X145216322Y-82294353D01*
X145216321Y-82294353D01*
X145011540Y-82373685D01*
X144899567Y-82443014D01*
X145404425Y-82947871D01*
X145345147Y-82963755D01*
X145228853Y-83030898D01*
X145133898Y-83125853D01*
X145066755Y-83242147D01*
X145050871Y-83301424D01*
X144543847Y-82794400D01*
X144530173Y-82812509D01*
X144432290Y-83009084D01*
X144432284Y-83009099D01*
X144372186Y-83220322D01*
X144372185Y-83220324D01*
X144351923Y-83438999D01*
X144351923Y-83439000D01*
X144372185Y-83657675D01*
X144372186Y-83657677D01*
X144432284Y-83868900D01*
X144432290Y-83868915D01*
X144530176Y-84065496D01*
X144543846Y-84083598D01*
X144543847Y-84083598D01*
X145050871Y-83576574D01*
X145066755Y-83635853D01*
X145133898Y-83752147D01*
X145228853Y-83847102D01*
X145345147Y-83914245D01*
X145404424Y-83930128D01*
X144899567Y-84434984D01*
X144899568Y-84434985D01*
X145011533Y-84504311D01*
X145011539Y-84504314D01*
X145216322Y-84583646D01*
X145234854Y-84587111D01*
X145297135Y-84618779D01*
X145332408Y-84679092D01*
X145329474Y-84748900D01*
X145289265Y-84806040D01*
X145234854Y-84830889D01*
X145216322Y-84834353D01*
X145216321Y-84834353D01*
X145011540Y-84913685D01*
X144899567Y-84983014D01*
X145404425Y-85487871D01*
X145345147Y-85503755D01*
X145228853Y-85570898D01*
X145133898Y-85665853D01*
X145066755Y-85782147D01*
X145050871Y-85841424D01*
X144543847Y-85334400D01*
X144530173Y-85352509D01*
X144432290Y-85549084D01*
X144432284Y-85549099D01*
X144372186Y-85760322D01*
X144372185Y-85760324D01*
X144351923Y-85978999D01*
X144351923Y-85979000D01*
X144372185Y-86197675D01*
X144372186Y-86197677D01*
X144432284Y-86408900D01*
X144432290Y-86408915D01*
X144530176Y-86605496D01*
X144543846Y-86623598D01*
X144543847Y-86623598D01*
X145050871Y-86116574D01*
X145066755Y-86175853D01*
X145133898Y-86292147D01*
X145228853Y-86387102D01*
X145345147Y-86454245D01*
X145404424Y-86470128D01*
X144899567Y-86974984D01*
X144899568Y-86974985D01*
X145011533Y-87044311D01*
X145011539Y-87044314D01*
X145216321Y-87123646D01*
X145432197Y-87164000D01*
X145651803Y-87164000D01*
X145867677Y-87123646D01*
X145867687Y-87123643D01*
X146072462Y-87044313D01*
X146072464Y-87044312D01*
X146184431Y-86974984D01*
X145679575Y-86470127D01*
X145738853Y-86454245D01*
X145855147Y-86387102D01*
X145950102Y-86292147D01*
X146017245Y-86175853D01*
X146033128Y-86116575D01*
X146540152Y-86623599D01*
X146553822Y-86605497D01*
X146553827Y-86605489D01*
X146651709Y-86408915D01*
X146651715Y-86408900D01*
X146692474Y-86265648D01*
X146729753Y-86206554D01*
X146793063Y-86176997D01*
X146862302Y-86186359D01*
X146915489Y-86231669D01*
X146931005Y-86265644D01*
X146971765Y-86408900D01*
X146971819Y-86409090D01*
X147069749Y-86605759D01*
X147202153Y-86781090D01*
X147323122Y-86891367D01*
X147364516Y-86929103D01*
X147551313Y-87044763D01*
X147756183Y-87124129D01*
X147972147Y-87164500D01*
X147972149Y-87164500D01*
X148191851Y-87164500D01*
X148191853Y-87164500D01*
X148407817Y-87124129D01*
X148612687Y-87044763D01*
X148799484Y-86929103D01*
X148961848Y-86781088D01*
X149094251Y-86605759D01*
X149192182Y-86409087D01*
X149232734Y-86266560D01*
X149270012Y-86207468D01*
X149333322Y-86177910D01*
X149402561Y-86187272D01*
X149455748Y-86232581D01*
X149471265Y-86266558D01*
X149489014Y-86328938D01*
X149511818Y-86409089D01*
X149609749Y-86605759D01*
X149742153Y-86781090D01*
X149863122Y-86891367D01*
X149904516Y-86929103D01*
X150091313Y-87044763D01*
X150296183Y-87124129D01*
X150512147Y-87164500D01*
X150512149Y-87164500D01*
X150731850Y-87164500D01*
X150731853Y-87164500D01*
X150858359Y-87140851D01*
X150927872Y-87147882D01*
X150968823Y-87175058D01*
X161302284Y-97508520D01*
X161302286Y-97508521D01*
X161302290Y-97508524D01*
X161371161Y-97548286D01*
X161439216Y-97587577D01*
X161591943Y-97628501D01*
X161591945Y-97628501D01*
X161757654Y-97628501D01*
X161757670Y-97628500D01*
X184230903Y-97628500D01*
X184297942Y-97648185D01*
X184318583Y-97664818D01*
X185813284Y-99159520D01*
X185813286Y-99159521D01*
X185813290Y-99159524D01*
X185950209Y-99238573D01*
X185950216Y-99238577D01*
X186102943Y-99279501D01*
X186102945Y-99279501D01*
X186268654Y-99279501D01*
X186268670Y-99279500D01*
X189155588Y-99279500D01*
X189222627Y-99299185D01*
X189232903Y-99306555D01*
X189235736Y-99308814D01*
X189235738Y-99308816D01*
X189388478Y-99404789D01*
X189541781Y-99458432D01*
X189558745Y-99464368D01*
X189558750Y-99464369D01*
X189737996Y-99484565D01*
X189738000Y-99484565D01*
X189738004Y-99484565D01*
X189821362Y-99475173D01*
X189890184Y-99487228D01*
X189941563Y-99534577D01*
X189959187Y-99602187D01*
X189940239Y-99664365D01*
X189901211Y-99726476D01*
X189841631Y-99896745D01*
X189841630Y-99896750D01*
X189821435Y-100075996D01*
X189821435Y-100076003D01*
X189841630Y-100255249D01*
X189841631Y-100255254D01*
X189901211Y-100425523D01*
X189921089Y-100457158D01*
X189997184Y-100578262D01*
X190124738Y-100705816D01*
X190215080Y-100762582D01*
X190259702Y-100790620D01*
X190277478Y-100801789D01*
X190447745Y-100861368D01*
X190447750Y-100861369D01*
X190626996Y-100881565D01*
X190627000Y-100881565D01*
X190627004Y-100881565D01*
X190806249Y-100861369D01*
X190806252Y-100861368D01*
X190806255Y-100861368D01*
X190976522Y-100801789D01*
X191129262Y-100705816D01*
X191256816Y-100578262D01*
X191352789Y-100425522D01*
X191412368Y-100255255D01*
X191412369Y-100255249D01*
X191432565Y-100076003D01*
X191432565Y-100075996D01*
X191412369Y-99896750D01*
X191412368Y-99896745D01*
X191394390Y-99845366D01*
X191352789Y-99726478D01*
X191344546Y-99713360D01*
X191280619Y-99611621D01*
X191256816Y-99573738D01*
X191256814Y-99573736D01*
X191256813Y-99573734D01*
X191254550Y-99570896D01*
X191253659Y-99568715D01*
X191253111Y-99567842D01*
X191253264Y-99567745D01*
X191228144Y-99506209D01*
X191227500Y-99493587D01*
X191227500Y-97837945D01*
X191227500Y-97837943D01*
X191186577Y-97685216D01*
X191174801Y-97664819D01*
X191107524Y-97548290D01*
X191107521Y-97548286D01*
X191107520Y-97548284D01*
X190995716Y-97436480D01*
X190995715Y-97436479D01*
X190991385Y-97432149D01*
X190991374Y-97432139D01*
X188574590Y-95015355D01*
X188574588Y-95015352D01*
X188478417Y-94919181D01*
X188444932Y-94857858D01*
X188449916Y-94788166D01*
X188491788Y-94732233D01*
X188557252Y-94707816D01*
X188566098Y-94707500D01*
X190667331Y-94707500D01*
X190667347Y-94707501D01*
X190674943Y-94707501D01*
X190833054Y-94707501D01*
X190833057Y-94707501D01*
X190985785Y-94666577D01*
X191035904Y-94637639D01*
X191122716Y-94587520D01*
X191234520Y-94475716D01*
X191234520Y-94475714D01*
X191244728Y-94465507D01*
X191244730Y-94465504D01*
X193820535Y-91889698D01*
X193881856Y-91856215D01*
X193894311Y-91854163D01*
X193981255Y-91844368D01*
X194151522Y-91784789D01*
X194304262Y-91688816D01*
X194431816Y-91561262D01*
X194527789Y-91408522D01*
X194587368Y-91238255D01*
X194607565Y-91059000D01*
X194587368Y-90879745D01*
X194527789Y-90709478D01*
X194431816Y-90556738D01*
X194304262Y-90429184D01*
X194304261Y-90429183D01*
X194288949Y-90419562D01*
X194242658Y-90367228D01*
X194232009Y-90298174D01*
X194260384Y-90234326D01*
X194267227Y-90226900D01*
X196735310Y-87758819D01*
X196796633Y-87725334D01*
X196822991Y-87722500D01*
X201220588Y-87722500D01*
X201287627Y-87742185D01*
X201297903Y-87749555D01*
X201300736Y-87751814D01*
X201300738Y-87751816D01*
X201453478Y-87847789D01*
X201556952Y-87883996D01*
X201623745Y-87907368D01*
X201623750Y-87907369D01*
X201802996Y-87927565D01*
X201803000Y-87927565D01*
X201803004Y-87927565D01*
X201982249Y-87907369D01*
X201982252Y-87907368D01*
X201982255Y-87907368D01*
X202152522Y-87847789D01*
X202305262Y-87751816D01*
X202432816Y-87624262D01*
X202528789Y-87471522D01*
X202588368Y-87301255D01*
X202597114Y-87223631D01*
X202608565Y-87122003D01*
X202608565Y-87121996D01*
X202588369Y-86942750D01*
X202588368Y-86942745D01*
X202562215Y-86868003D01*
X202528789Y-86772478D01*
X202432816Y-86619738D01*
X202305262Y-86492184D01*
X202287880Y-86481262D01*
X202152523Y-86396211D01*
X201982254Y-86336631D01*
X201982249Y-86336630D01*
X201803004Y-86316435D01*
X201802996Y-86316435D01*
X201623750Y-86336630D01*
X201623745Y-86336631D01*
X201453476Y-86396211D01*
X201300736Y-86492185D01*
X201297903Y-86494445D01*
X201295724Y-86495334D01*
X201294842Y-86495889D01*
X201294744Y-86495734D01*
X201233217Y-86520855D01*
X201220588Y-86521500D01*
X196609563Y-86521500D01*
X196609547Y-86521499D01*
X196601951Y-86521499D01*
X196443837Y-86521499D01*
X196336481Y-86550265D01*
X196291104Y-86562424D01*
X196291103Y-86562425D01*
X196255960Y-86582716D01*
X196255958Y-86582717D01*
X196154184Y-86641475D01*
X196154176Y-86641481D01*
X196090869Y-86704789D01*
X196042374Y-86753284D01*
X196042372Y-86753286D01*
X194129920Y-88665739D01*
X192246478Y-90549181D01*
X192185155Y-90582666D01*
X192158797Y-90585500D01*
X164921255Y-90585500D01*
X164854216Y-90565815D01*
X164833574Y-90549181D01*
X164250574Y-89966181D01*
X164217089Y-89904858D01*
X164222073Y-89835166D01*
X164263945Y-89779233D01*
X164329409Y-89754816D01*
X164338255Y-89754500D01*
X165152588Y-89754500D01*
X165219627Y-89774185D01*
X165229903Y-89781555D01*
X165232736Y-89783814D01*
X165232738Y-89783816D01*
X165314461Y-89835166D01*
X165385027Y-89879506D01*
X165385478Y-89879789D01*
X165555745Y-89939368D01*
X165555750Y-89939369D01*
X165734996Y-89959565D01*
X165735000Y-89959565D01*
X165735004Y-89959565D01*
X165914249Y-89939369D01*
X165914252Y-89939368D01*
X165914255Y-89939368D01*
X166084522Y-89879789D01*
X166237262Y-89783816D01*
X166364816Y-89656262D01*
X166460789Y-89503522D01*
X166520368Y-89333255D01*
X166540565Y-89154000D01*
X166540564Y-89153997D01*
X166541249Y-89147925D01*
X166568315Y-89083511D01*
X166625910Y-89043956D01*
X166695747Y-89041818D01*
X166705423Y-89044766D01*
X166816151Y-89083511D01*
X166825745Y-89086868D01*
X166825746Y-89086868D01*
X166825750Y-89086869D01*
X167004996Y-89107065D01*
X167005000Y-89107065D01*
X167005004Y-89107065D01*
X167184249Y-89086869D01*
X167184252Y-89086868D01*
X167184255Y-89086868D01*
X167354522Y-89027289D01*
X167507262Y-88931316D01*
X167634816Y-88803762D01*
X167730789Y-88651022D01*
X167790368Y-88480755D01*
X167802310Y-88374767D01*
X167810565Y-88301503D01*
X167810565Y-88301496D01*
X167790369Y-88122250D01*
X167790368Y-88122245D01*
X167730789Y-87951978D01*
X167634816Y-87799238D01*
X167507262Y-87671684D01*
X167507260Y-87671682D01*
X167376156Y-87589303D01*
X167329865Y-87536968D01*
X167319218Y-87467915D01*
X167347593Y-87404067D01*
X167354425Y-87396652D01*
X167380816Y-87370262D01*
X167476789Y-87217522D01*
X167536368Y-87047255D01*
X167536649Y-87044762D01*
X167556565Y-86868003D01*
X167556565Y-86867996D01*
X167536369Y-86688750D01*
X167536368Y-86688745D01*
X167519829Y-86641480D01*
X167476789Y-86518478D01*
X167462595Y-86495889D01*
X167407946Y-86408915D01*
X167380816Y-86365738D01*
X167253262Y-86238184D01*
X167244345Y-86232581D01*
X167100523Y-86142211D01*
X166930254Y-86082631D01*
X166930249Y-86082630D01*
X166751004Y-86062435D01*
X166750996Y-86062435D01*
X166571750Y-86082630D01*
X166571737Y-86082633D01*
X166503415Y-86106541D01*
X166462460Y-86113500D01*
X165463886Y-86113500D01*
X165396847Y-86093815D01*
X165376205Y-86077181D01*
X164986035Y-85687011D01*
X164578385Y-85279360D01*
X164562796Y-85257389D01*
X171746500Y-85257389D01*
X171746500Y-85430610D01*
X171772190Y-85592816D01*
X171773598Y-85601701D01*
X171827127Y-85766445D01*
X171905768Y-85920788D01*
X172007586Y-86060928D01*
X172130072Y-86183414D01*
X172270212Y-86285232D01*
X172424555Y-86363873D01*
X172589299Y-86417402D01*
X172760389Y-86444500D01*
X172760390Y-86444500D01*
X172933610Y-86444500D01*
X172933611Y-86444500D01*
X173104701Y-86417402D01*
X173269445Y-86363873D01*
X173423788Y-86285232D01*
X173563928Y-86183414D01*
X173686414Y-86060928D01*
X173788232Y-85920788D01*
X173866873Y-85766445D01*
X173920402Y-85601701D01*
X173947500Y-85430611D01*
X173947500Y-85257389D01*
X173920402Y-85086299D01*
X173866873Y-84921555D01*
X173788232Y-84767212D01*
X173686414Y-84627072D01*
X173563928Y-84504586D01*
X173423788Y-84402768D01*
X173269445Y-84324127D01*
X173104701Y-84270598D01*
X173104699Y-84270597D01*
X173104698Y-84270597D01*
X172973271Y-84249781D01*
X172933611Y-84243500D01*
X172760389Y-84243500D01*
X172720728Y-84249781D01*
X172589302Y-84270597D01*
X172424552Y-84324128D01*
X172270211Y-84402768D01*
X172225869Y-84434985D01*
X172130072Y-84504586D01*
X172130070Y-84504588D01*
X172130069Y-84504588D01*
X172007588Y-84627069D01*
X172007588Y-84627070D01*
X172007586Y-84627072D01*
X171977050Y-84669101D01*
X171905768Y-84767211D01*
X171827128Y-84921552D01*
X171827127Y-84921554D01*
X171827127Y-84921555D01*
X171824328Y-84930169D01*
X171773597Y-85086302D01*
X171746500Y-85257389D01*
X164562796Y-85257389D01*
X164560298Y-85253868D01*
X164559494Y-85254374D01*
X164508636Y-85173435D01*
X164459816Y-85095738D01*
X164332262Y-84968184D01*
X164324012Y-84963000D01*
X164179523Y-84872211D01*
X164009254Y-84812631D01*
X164009249Y-84812630D01*
X163830004Y-84792435D01*
X163829996Y-84792435D01*
X163650750Y-84812630D01*
X163650745Y-84812631D01*
X163480476Y-84872211D01*
X163327737Y-84968184D01*
X163200184Y-85095737D01*
X163104209Y-85248479D01*
X163092014Y-85283332D01*
X163051292Y-85340107D01*
X162986339Y-85365854D01*
X162917778Y-85352397D01*
X162887292Y-85330057D01*
X162501700Y-84944465D01*
X162468215Y-84883142D01*
X162466163Y-84870686D01*
X162456368Y-84783745D01*
X162396789Y-84613478D01*
X162300816Y-84460738D01*
X162173262Y-84333184D01*
X162020523Y-84237211D01*
X161850254Y-84177631D01*
X161850249Y-84177630D01*
X161671004Y-84157435D01*
X161670996Y-84157435D01*
X161491750Y-84177630D01*
X161491745Y-84177631D01*
X161321476Y-84237211D01*
X161168737Y-84333184D01*
X161041184Y-84460737D01*
X160945211Y-84613476D01*
X160885631Y-84783745D01*
X160885630Y-84783749D01*
X160881088Y-84824064D01*
X160854020Y-84888478D01*
X160796425Y-84928032D01*
X160726588Y-84930169D01*
X160691896Y-84915173D01*
X160623523Y-84872211D01*
X160453254Y-84812631D01*
X160453249Y-84812630D01*
X160274004Y-84792435D01*
X160273996Y-84792435D01*
X160094750Y-84812630D01*
X160094745Y-84812631D01*
X159924476Y-84872211D01*
X159771737Y-84968184D01*
X159644182Y-85095739D01*
X159625015Y-85126243D01*
X159572679Y-85172533D01*
X159503625Y-85183179D01*
X159439777Y-85154802D01*
X159432342Y-85147949D01*
X156030574Y-81746181D01*
X155997089Y-81684858D01*
X156002073Y-81615166D01*
X156043945Y-81559233D01*
X156109409Y-81534816D01*
X156118255Y-81534500D01*
X167452943Y-81534500D01*
X167452945Y-81534500D01*
X167582274Y-81499847D01*
X167698226Y-81432901D01*
X167792901Y-81338226D01*
X167859847Y-81222274D01*
X167894500Y-81092945D01*
X167894500Y-71752500D01*
X167914185Y-71685461D01*
X167966989Y-71639706D01*
X168018500Y-71628500D01*
X214124500Y-71628500D01*
X214191539Y-71648185D01*
X214237294Y-71700989D01*
X214248500Y-71752500D01*
X214248500Y-84294541D01*
X214228815Y-84361580D01*
X214176011Y-84407335D01*
X214106853Y-84417279D01*
X214068798Y-84403665D01*
X214068129Y-84404980D01*
X214036968Y-84389103D01*
X213909445Y-84324127D01*
X213744701Y-84270598D01*
X213744699Y-84270597D01*
X213744698Y-84270597D01*
X213613271Y-84249781D01*
X213573611Y-84243500D01*
X213400389Y-84243500D01*
X213360728Y-84249781D01*
X213229302Y-84270597D01*
X213064552Y-84324128D01*
X212910211Y-84402768D01*
X212865869Y-84434985D01*
X212770072Y-84504586D01*
X212770070Y-84504588D01*
X212770069Y-84504588D01*
X212647588Y-84627069D01*
X212647588Y-84627070D01*
X212647586Y-84627072D01*
X212617050Y-84669101D01*
X212545768Y-84767211D01*
X212467128Y-84921552D01*
X212467127Y-84921554D01*
X212467127Y-84921555D01*
X212464328Y-84930169D01*
X212413597Y-85086302D01*
X212386500Y-85257389D01*
X212386500Y-85430610D01*
X212412190Y-85592816D01*
X212413598Y-85601701D01*
X212467127Y-85766445D01*
X212545768Y-85920788D01*
X212647586Y-86060928D01*
X212770072Y-86183414D01*
X212910212Y-86285232D01*
X213064555Y-86363873D01*
X213229299Y-86417402D01*
X213400389Y-86444500D01*
X213400390Y-86444500D01*
X213573610Y-86444500D01*
X213573611Y-86444500D01*
X213744701Y-86417402D01*
X213909445Y-86363873D01*
X214063788Y-86285232D01*
X214063788Y-86285231D01*
X214068129Y-86283020D01*
X214069265Y-86285251D01*
X214126651Y-86269477D01*
X214193339Y-86290321D01*
X214238171Y-86343911D01*
X214248500Y-86393458D01*
X214248500Y-87877901D01*
X214228815Y-87944940D01*
X214176011Y-87990695D01*
X214106853Y-88000639D01*
X214043297Y-87971614D01*
X214036819Y-87965582D01*
X213978397Y-87907160D01*
X213978374Y-87907139D01*
X212031700Y-85960465D01*
X211998215Y-85899142D01*
X211996163Y-85886686D01*
X211986368Y-85799745D01*
X211926789Y-85629478D01*
X211830816Y-85476738D01*
X211703262Y-85349184D01*
X211550523Y-85253211D01*
X211380254Y-85193631D01*
X211380249Y-85193630D01*
X211201004Y-85173435D01*
X211200996Y-85173435D01*
X211021750Y-85193630D01*
X211021745Y-85193631D01*
X210851475Y-85253211D01*
X210819020Y-85273604D01*
X210751783Y-85292603D01*
X210684948Y-85272234D01*
X210648058Y-85234583D01*
X210560816Y-85095738D01*
X210433262Y-84968184D01*
X210425012Y-84963000D01*
X210280523Y-84872211D01*
X210110254Y-84812631D01*
X210110249Y-84812630D01*
X209931004Y-84792435D01*
X209930996Y-84792435D01*
X209751750Y-84812630D01*
X209751745Y-84812631D01*
X209581476Y-84872211D01*
X209428737Y-84968184D01*
X209301184Y-85095737D01*
X209236494Y-85198691D01*
X209184159Y-85244982D01*
X209115105Y-85255630D01*
X209051257Y-85227255D01*
X209012885Y-85168865D01*
X209007500Y-85132719D01*
X209007500Y-76670059D01*
X209007501Y-76670046D01*
X209007501Y-76501945D01*
X209007501Y-76501943D01*
X208966577Y-76349215D01*
X208936806Y-76297651D01*
X208936805Y-76297649D01*
X208936805Y-76297648D01*
X208887522Y-76212287D01*
X208887521Y-76212286D01*
X208887520Y-76212284D01*
X208775716Y-76100480D01*
X208775715Y-76100479D01*
X208771385Y-76096149D01*
X208771374Y-76096139D01*
X207772666Y-75097431D01*
X207739181Y-75036108D01*
X207744165Y-74966416D01*
X207786037Y-74910483D01*
X207851501Y-74886066D01*
X207871144Y-74886221D01*
X207899000Y-74888659D01*
X208134408Y-74868063D01*
X208362663Y-74806903D01*
X208576830Y-74707035D01*
X208770401Y-74571495D01*
X208937495Y-74404401D01*
X209067730Y-74218405D01*
X209122307Y-74174781D01*
X209191805Y-74167587D01*
X209254160Y-74199110D01*
X209270879Y-74218405D01*
X209400890Y-74404078D01*
X209567917Y-74571105D01*
X209761421Y-74706600D01*
X209975507Y-74806429D01*
X209975516Y-74806433D01*
X210189000Y-74863634D01*
X210189000Y-73966012D01*
X210246007Y-73998925D01*
X210373174Y-74033000D01*
X210504826Y-74033000D01*
X210631993Y-73998925D01*
X210689000Y-73966012D01*
X210689000Y-74863633D01*
X210902483Y-74806433D01*
X210902492Y-74806429D01*
X211116578Y-74706600D01*
X211310082Y-74571105D01*
X211477105Y-74404082D01*
X211612600Y-74210578D01*
X211712429Y-73996492D01*
X211712432Y-73996486D01*
X211769636Y-73783000D01*
X210872012Y-73783000D01*
X210904925Y-73725993D01*
X210939000Y-73598826D01*
X210939000Y-73467174D01*
X210904925Y-73340007D01*
X210872012Y-73283000D01*
X211769636Y-73283000D01*
X211769635Y-73282999D01*
X211712432Y-73069513D01*
X211712429Y-73069507D01*
X211612600Y-72855422D01*
X211612599Y-72855420D01*
X211477113Y-72661926D01*
X211477108Y-72661920D01*
X211310082Y-72494894D01*
X211116578Y-72359399D01*
X210902492Y-72259570D01*
X210902486Y-72259567D01*
X210689000Y-72202364D01*
X210689000Y-73099988D01*
X210631993Y-73067075D01*
X210504826Y-73033000D01*
X210373174Y-73033000D01*
X210246007Y-73067075D01*
X210189000Y-73099988D01*
X210189000Y-72202364D01*
X210188999Y-72202364D01*
X209975513Y-72259567D01*
X209975507Y-72259570D01*
X209761422Y-72359399D01*
X209761420Y-72359400D01*
X209567926Y-72494886D01*
X209567920Y-72494891D01*
X209400891Y-72661920D01*
X209400890Y-72661922D01*
X209270880Y-72847595D01*
X209216303Y-72891219D01*
X209146804Y-72898412D01*
X209084450Y-72866890D01*
X209067730Y-72847594D01*
X208937494Y-72661597D01*
X208770402Y-72494506D01*
X208770395Y-72494501D01*
X208576834Y-72358967D01*
X208576830Y-72358965D01*
X208505727Y-72325809D01*
X208362663Y-72259097D01*
X208362659Y-72259096D01*
X208362655Y-72259094D01*
X208134413Y-72197938D01*
X208134403Y-72197936D01*
X207899001Y-72177341D01*
X207898999Y-72177341D01*
X207663596Y-72197936D01*
X207663586Y-72197938D01*
X207435344Y-72259094D01*
X207435335Y-72259098D01*
X207221171Y-72358964D01*
X207221169Y-72358965D01*
X207027597Y-72494505D01*
X206860505Y-72661597D01*
X206730575Y-72847158D01*
X206675998Y-72890783D01*
X206606500Y-72897977D01*
X206544145Y-72866454D01*
X206527425Y-72847158D01*
X206397494Y-72661597D01*
X206230402Y-72494506D01*
X206230395Y-72494501D01*
X206036834Y-72358967D01*
X206036830Y-72358965D01*
X205965727Y-72325809D01*
X205822663Y-72259097D01*
X205822659Y-72259096D01*
X205822655Y-72259094D01*
X205594413Y-72197938D01*
X205594403Y-72197936D01*
X205359001Y-72177341D01*
X205358999Y-72177341D01*
X205123596Y-72197936D01*
X205123586Y-72197938D01*
X204895344Y-72259094D01*
X204895335Y-72259098D01*
X204681171Y-72358964D01*
X204681169Y-72358965D01*
X204487597Y-72494505D01*
X204320505Y-72661597D01*
X204190575Y-72847158D01*
X204135998Y-72890783D01*
X204066500Y-72897977D01*
X204004145Y-72866454D01*
X203987425Y-72847158D01*
X203857494Y-72661597D01*
X203690402Y-72494506D01*
X203690395Y-72494501D01*
X203496834Y-72358967D01*
X203496830Y-72358965D01*
X203425727Y-72325809D01*
X203282663Y-72259097D01*
X203282659Y-72259096D01*
X203282655Y-72259094D01*
X203054413Y-72197938D01*
X203054403Y-72197936D01*
X202819001Y-72177341D01*
X202818999Y-72177341D01*
X202583596Y-72197936D01*
X202583586Y-72197938D01*
X202355344Y-72259094D01*
X202355335Y-72259098D01*
X202141171Y-72358964D01*
X202141169Y-72358965D01*
X201947597Y-72494505D01*
X201780505Y-72661597D01*
X201650575Y-72847158D01*
X201595998Y-72890783D01*
X201526500Y-72897977D01*
X201464145Y-72866454D01*
X201447425Y-72847158D01*
X201317494Y-72661597D01*
X201150402Y-72494506D01*
X201150395Y-72494501D01*
X200956834Y-72358967D01*
X200956830Y-72358965D01*
X200885727Y-72325809D01*
X200742663Y-72259097D01*
X200742659Y-72259096D01*
X200742655Y-72259094D01*
X200514413Y-72197938D01*
X200514403Y-72197936D01*
X200279001Y-72177341D01*
X200278999Y-72177341D01*
X200043596Y-72197936D01*
X200043586Y-72197938D01*
X199815344Y-72259094D01*
X199815335Y-72259098D01*
X199601171Y-72358964D01*
X199601169Y-72358965D01*
X199407597Y-72494505D01*
X199240505Y-72661597D01*
X199110575Y-72847158D01*
X199055998Y-72890783D01*
X198986500Y-72897977D01*
X198924145Y-72866454D01*
X198907425Y-72847158D01*
X198777494Y-72661597D01*
X198610402Y-72494506D01*
X198610395Y-72494501D01*
X198416834Y-72358967D01*
X198416830Y-72358965D01*
X198345727Y-72325809D01*
X198202663Y-72259097D01*
X198202659Y-72259096D01*
X198202655Y-72259094D01*
X197974413Y-72197938D01*
X197974403Y-72197936D01*
X197739001Y-72177341D01*
X197738999Y-72177341D01*
X197503596Y-72197936D01*
X197503586Y-72197938D01*
X197275344Y-72259094D01*
X197275335Y-72259098D01*
X197061171Y-72358964D01*
X197061169Y-72358965D01*
X196867597Y-72494505D01*
X196700505Y-72661597D01*
X196570575Y-72847158D01*
X196515998Y-72890783D01*
X196446500Y-72897977D01*
X196384145Y-72866454D01*
X196367425Y-72847158D01*
X196237494Y-72661597D01*
X196070402Y-72494506D01*
X196070395Y-72494501D01*
X195876834Y-72358967D01*
X195876830Y-72358965D01*
X195805727Y-72325809D01*
X195662663Y-72259097D01*
X195662659Y-72259096D01*
X195662655Y-72259094D01*
X195434413Y-72197938D01*
X195434403Y-72197936D01*
X195199001Y-72177341D01*
X195198999Y-72177341D01*
X194963596Y-72197936D01*
X194963586Y-72197938D01*
X194735344Y-72259094D01*
X194735335Y-72259098D01*
X194521171Y-72358964D01*
X194521169Y-72358965D01*
X194327597Y-72494505D01*
X194160505Y-72661597D01*
X194030575Y-72847158D01*
X193975998Y-72890783D01*
X193906500Y-72897977D01*
X193844145Y-72866454D01*
X193827425Y-72847158D01*
X193697494Y-72661597D01*
X193530402Y-72494506D01*
X193530395Y-72494501D01*
X193336834Y-72358967D01*
X193336830Y-72358965D01*
X193265727Y-72325809D01*
X193122663Y-72259097D01*
X193122659Y-72259096D01*
X193122655Y-72259094D01*
X192894413Y-72197938D01*
X192894403Y-72197936D01*
X192659001Y-72177341D01*
X192658999Y-72177341D01*
X192423596Y-72197936D01*
X192423586Y-72197938D01*
X192195344Y-72259094D01*
X192195335Y-72259098D01*
X191981171Y-72358964D01*
X191981169Y-72358965D01*
X191787597Y-72494505D01*
X191620508Y-72661594D01*
X191490269Y-72847595D01*
X191435692Y-72891219D01*
X191366193Y-72898412D01*
X191303839Y-72866890D01*
X191287119Y-72847594D01*
X191157113Y-72661926D01*
X191157108Y-72661920D01*
X190990082Y-72494894D01*
X190796578Y-72359399D01*
X190582492Y-72259570D01*
X190582486Y-72259567D01*
X190369000Y-72202364D01*
X190369000Y-73099988D01*
X190311993Y-73067075D01*
X190184826Y-73033000D01*
X190053174Y-73033000D01*
X189926007Y-73067075D01*
X189869000Y-73099988D01*
X189869000Y-72202364D01*
X189868999Y-72202364D01*
X189655513Y-72259567D01*
X189655507Y-72259570D01*
X189441422Y-72359399D01*
X189441420Y-72359400D01*
X189247926Y-72494886D01*
X189247920Y-72494891D01*
X189080891Y-72661920D01*
X189080890Y-72661922D01*
X188950880Y-72847595D01*
X188896303Y-72891219D01*
X188826804Y-72898412D01*
X188764450Y-72866890D01*
X188747730Y-72847594D01*
X188617494Y-72661597D01*
X188450402Y-72494506D01*
X188450395Y-72494501D01*
X188256834Y-72358967D01*
X188256830Y-72358965D01*
X188185727Y-72325809D01*
X188042663Y-72259097D01*
X188042659Y-72259096D01*
X188042655Y-72259094D01*
X187814413Y-72197938D01*
X187814403Y-72197936D01*
X187579001Y-72177341D01*
X187578999Y-72177341D01*
X187343596Y-72197936D01*
X187343586Y-72197938D01*
X187115344Y-72259094D01*
X187115335Y-72259098D01*
X186901171Y-72358964D01*
X186901169Y-72358965D01*
X186707597Y-72494505D01*
X186540505Y-72661597D01*
X186410575Y-72847158D01*
X186355998Y-72890783D01*
X186286500Y-72897977D01*
X186224145Y-72866454D01*
X186207425Y-72847158D01*
X186077494Y-72661597D01*
X185910402Y-72494506D01*
X185910395Y-72494501D01*
X185716834Y-72358967D01*
X185716830Y-72358965D01*
X185645727Y-72325809D01*
X185502663Y-72259097D01*
X185502659Y-72259096D01*
X185502655Y-72259094D01*
X185274413Y-72197938D01*
X185274403Y-72197936D01*
X185039001Y-72177341D01*
X185038999Y-72177341D01*
X184803596Y-72197936D01*
X184803586Y-72197938D01*
X184575344Y-72259094D01*
X184575335Y-72259098D01*
X184361171Y-72358964D01*
X184361169Y-72358965D01*
X184167597Y-72494505D01*
X184000505Y-72661597D01*
X183870575Y-72847158D01*
X183815998Y-72890783D01*
X183746500Y-72897977D01*
X183684145Y-72866454D01*
X183667425Y-72847158D01*
X183537494Y-72661597D01*
X183370402Y-72494506D01*
X183370395Y-72494501D01*
X183176834Y-72358967D01*
X183176830Y-72358965D01*
X183105727Y-72325809D01*
X182962663Y-72259097D01*
X182962659Y-72259096D01*
X182962655Y-72259094D01*
X182734413Y-72197938D01*
X182734403Y-72197936D01*
X182499001Y-72177341D01*
X182498999Y-72177341D01*
X182263596Y-72197936D01*
X182263586Y-72197938D01*
X182035344Y-72259094D01*
X182035335Y-72259098D01*
X181821171Y-72358964D01*
X181821169Y-72358965D01*
X181627597Y-72494505D01*
X181460505Y-72661597D01*
X181330575Y-72847158D01*
X181275998Y-72890783D01*
X181206500Y-72897977D01*
X181144145Y-72866454D01*
X181127425Y-72847158D01*
X180997494Y-72661597D01*
X180830402Y-72494506D01*
X180830395Y-72494501D01*
X180636834Y-72358967D01*
X180636830Y-72358965D01*
X180565727Y-72325809D01*
X180422663Y-72259097D01*
X180422659Y-72259096D01*
X180422655Y-72259094D01*
X180194413Y-72197938D01*
X180194403Y-72197936D01*
X179959001Y-72177341D01*
X179958999Y-72177341D01*
X179723596Y-72197936D01*
X179723586Y-72197938D01*
X179495344Y-72259094D01*
X179495335Y-72259098D01*
X179281171Y-72358964D01*
X179281169Y-72358965D01*
X179087597Y-72494505D01*
X178920505Y-72661597D01*
X178790575Y-72847158D01*
X178735998Y-72890783D01*
X178666500Y-72897977D01*
X178604145Y-72866454D01*
X178587425Y-72847158D01*
X178457494Y-72661597D01*
X178290402Y-72494506D01*
X178290395Y-72494501D01*
X178096834Y-72358967D01*
X178096830Y-72358965D01*
X178025727Y-72325809D01*
X177882663Y-72259097D01*
X177882659Y-72259096D01*
X177882655Y-72259094D01*
X177654413Y-72197938D01*
X177654403Y-72197936D01*
X177419001Y-72177341D01*
X177418999Y-72177341D01*
X177183596Y-72197936D01*
X177183586Y-72197938D01*
X176955344Y-72259094D01*
X176955335Y-72259098D01*
X176741171Y-72358964D01*
X176741169Y-72358965D01*
X176547597Y-72494505D01*
X176380505Y-72661597D01*
X176250575Y-72847158D01*
X176195998Y-72890783D01*
X176126500Y-72897977D01*
X176064145Y-72866454D01*
X176047425Y-72847158D01*
X175917494Y-72661597D01*
X175750402Y-72494506D01*
X175750395Y-72494501D01*
X175556834Y-72358967D01*
X175556830Y-72358965D01*
X175485727Y-72325809D01*
X175342663Y-72259097D01*
X175342659Y-72259096D01*
X175342655Y-72259094D01*
X175114413Y-72197938D01*
X175114403Y-72197936D01*
X174879001Y-72177341D01*
X174878999Y-72177341D01*
X174643596Y-72197936D01*
X174643586Y-72197938D01*
X174415344Y-72259094D01*
X174415335Y-72259098D01*
X174201171Y-72358964D01*
X174201169Y-72358965D01*
X174007600Y-72494503D01*
X173885284Y-72616819D01*
X173823961Y-72650303D01*
X173754269Y-72645319D01*
X173698336Y-72603447D01*
X173681421Y-72572470D01*
X173632354Y-72440913D01*
X173632350Y-72440906D01*
X173546190Y-72325812D01*
X173546187Y-72325809D01*
X173431093Y-72239649D01*
X173431086Y-72239645D01*
X173296379Y-72189403D01*
X173296372Y-72189401D01*
X173236844Y-72183000D01*
X172589000Y-72183000D01*
X172589000Y-73099988D01*
X172531993Y-73067075D01*
X172404826Y-73033000D01*
X172273174Y-73033000D01*
X172146007Y-73067075D01*
X172089000Y-73099988D01*
X172089000Y-72183000D01*
X171441155Y-72183000D01*
X171381627Y-72189401D01*
X171381620Y-72189403D01*
X171246913Y-72239645D01*
X171246906Y-72239649D01*
X171131812Y-72325809D01*
X171131809Y-72325812D01*
X171045649Y-72440906D01*
X171045645Y-72440913D01*
X170995403Y-72575620D01*
X170995401Y-72575627D01*
X170989000Y-72635155D01*
X170989000Y-73283000D01*
X171905988Y-73283000D01*
X171873075Y-73340007D01*
X171839000Y-73467174D01*
X171839000Y-73598826D01*
X171873075Y-73725993D01*
X171905988Y-73783000D01*
X170989000Y-73783000D01*
X170989000Y-74430844D01*
X170995401Y-74490372D01*
X170995403Y-74490379D01*
X171045645Y-74625086D01*
X171045649Y-74625093D01*
X171131809Y-74740187D01*
X171131812Y-74740190D01*
X171246906Y-74826350D01*
X171246913Y-74826354D01*
X171381620Y-74876596D01*
X171381627Y-74876598D01*
X171441155Y-74882999D01*
X171441172Y-74883000D01*
X172089000Y-74883000D01*
X172089000Y-73966012D01*
X172146007Y-73998925D01*
X172273174Y-74033000D01*
X172404826Y-74033000D01*
X172531993Y-73998925D01*
X172589000Y-73966012D01*
X172589000Y-74883000D01*
X173236828Y-74883000D01*
X173236844Y-74882999D01*
X173296372Y-74876598D01*
X173296379Y-74876596D01*
X173431086Y-74826354D01*
X173431093Y-74826350D01*
X173546187Y-74740190D01*
X173546190Y-74740187D01*
X173632350Y-74625093D01*
X173632354Y-74625086D01*
X173681422Y-74493529D01*
X173723293Y-74437595D01*
X173788757Y-74413178D01*
X173857030Y-74428030D01*
X173885285Y-74449181D01*
X174007599Y-74571495D01*
X174056373Y-74605647D01*
X174201165Y-74707032D01*
X174201167Y-74707033D01*
X174201170Y-74707035D01*
X174206898Y-74709706D01*
X174259339Y-74755872D01*
X174278500Y-74822090D01*
X174278500Y-82463330D01*
X174278499Y-82463348D01*
X174278499Y-82629054D01*
X174278498Y-82629054D01*
X174319423Y-82781785D01*
X174326963Y-82794844D01*
X174326964Y-82794846D01*
X174398477Y-82918712D01*
X174398481Y-82918717D01*
X174517349Y-83037585D01*
X174517355Y-83037590D01*
X179667584Y-88187819D01*
X179701069Y-88249142D01*
X179696085Y-88318834D01*
X179654213Y-88374767D01*
X179588749Y-88399184D01*
X179579903Y-88399500D01*
X179179886Y-88399500D01*
X179112847Y-88379815D01*
X179092205Y-88363181D01*
X178700638Y-87971614D01*
X178294385Y-87565360D01*
X178276298Y-87539868D01*
X178275494Y-87540374D01*
X178175815Y-87381737D01*
X178048262Y-87254184D01*
X177895523Y-87158211D01*
X177725254Y-87098631D01*
X177725249Y-87098630D01*
X177546004Y-87078435D01*
X177545996Y-87078435D01*
X177366750Y-87098630D01*
X177366745Y-87098631D01*
X177196476Y-87158211D01*
X177043737Y-87254184D01*
X176916184Y-87381737D01*
X176820211Y-87534476D01*
X176760631Y-87704745D01*
X176760630Y-87704750D01*
X176740435Y-87883996D01*
X176740435Y-87884003D01*
X176760630Y-88063249D01*
X176760631Y-88063254D01*
X176820211Y-88233523D01*
X176892108Y-88347945D01*
X176916184Y-88386262D01*
X177043738Y-88513816D01*
X177047308Y-88516059D01*
X177202374Y-88613494D01*
X177201868Y-88614298D01*
X177227360Y-88632385D01*
X178225600Y-89630624D01*
X178225621Y-89630647D01*
X178335028Y-89740054D01*
X178335035Y-89740060D01*
X178458608Y-89822628D01*
X178458609Y-89822628D01*
X178458610Y-89822629D01*
X178595920Y-89879505D01*
X178741683Y-89908499D01*
X178741687Y-89908500D01*
X178741688Y-89908500D01*
X178890312Y-89908500D01*
X191493240Y-89908500D01*
X191493260Y-89908501D01*
X191499374Y-89908501D01*
X191648000Y-89908501D01*
X191769580Y-89884315D01*
X191769580Y-89884316D01*
X191769586Y-89884313D01*
X191793766Y-89879505D01*
X191829628Y-89864649D01*
X191850630Y-89855951D01*
X191850633Y-89855949D01*
X191850641Y-89855946D01*
X191931075Y-89822630D01*
X192054652Y-89740059D01*
X195658059Y-86136652D01*
X195740629Y-86013076D01*
X195767095Y-85949182D01*
X195797505Y-85875766D01*
X195806651Y-85829785D01*
X195812627Y-85799743D01*
X195826501Y-85730000D01*
X195826501Y-85576264D01*
X195826500Y-85576238D01*
X195826500Y-75871687D01*
X195826499Y-75871683D01*
X195816020Y-75819000D01*
X195797505Y-75725920D01*
X195740629Y-75588610D01*
X195721628Y-75560173D01*
X195658060Y-75465035D01*
X195658054Y-75465028D01*
X195548647Y-75355621D01*
X195548624Y-75355600D01*
X195279153Y-75086129D01*
X195245668Y-75024806D01*
X195250652Y-74955114D01*
X195292524Y-74899181D01*
X195356024Y-74874920D01*
X195434408Y-74868063D01*
X195562757Y-74833672D01*
X195632606Y-74835335D01*
X195682531Y-74865766D01*
X204214181Y-83397416D01*
X204247666Y-83458739D01*
X204250500Y-83485097D01*
X204250500Y-92282902D01*
X204230815Y-92349941D01*
X204214181Y-92370583D01*
X197339465Y-99245298D01*
X197278142Y-99278783D01*
X197265668Y-99280837D01*
X197178750Y-99290630D01*
X197008478Y-99350210D01*
X196855737Y-99446184D01*
X196728184Y-99573737D01*
X196632211Y-99726476D01*
X196572631Y-99896745D01*
X196572630Y-99896750D01*
X196552435Y-100075996D01*
X196552435Y-100076003D01*
X196572630Y-100255249D01*
X196572631Y-100255254D01*
X196632211Y-100425523D01*
X196652089Y-100457158D01*
X196728184Y-100578262D01*
X196855738Y-100705816D01*
X196946080Y-100762582D01*
X196990702Y-100790620D01*
X197008478Y-100801789D01*
X197178745Y-100861368D01*
X197178750Y-100861369D01*
X197357996Y-100881565D01*
X197358000Y-100881565D01*
X197358004Y-100881565D01*
X197537249Y-100861369D01*
X197537252Y-100861368D01*
X197537255Y-100861368D01*
X197707522Y-100801789D01*
X197860262Y-100705816D01*
X197987816Y-100578262D01*
X198083789Y-100425522D01*
X198143368Y-100255255D01*
X198153161Y-100168329D01*
X198180226Y-100103918D01*
X198188690Y-100094543D01*
X198541374Y-99741859D01*
X198602695Y-99708376D01*
X198672387Y-99713360D01*
X198728320Y-99755232D01*
X198746095Y-99788588D01*
X198791210Y-99917521D01*
X198847566Y-100007211D01*
X198887184Y-100070262D01*
X199014738Y-100197816D01*
X199167478Y-100293789D01*
X199260395Y-100326302D01*
X199337745Y-100353368D01*
X199337750Y-100353369D01*
X199516996Y-100373565D01*
X199517000Y-100373565D01*
X199517004Y-100373565D01*
X199696249Y-100353369D01*
X199696252Y-100353368D01*
X199696255Y-100353368D01*
X199866522Y-100293789D01*
X200019262Y-100197816D01*
X200019266Y-100197811D01*
X200022097Y-100195555D01*
X200024275Y-100194665D01*
X200025158Y-100194111D01*
X200025255Y-100194265D01*
X200086784Y-100169146D01*
X200099411Y-100168501D01*
X200231054Y-100168501D01*
X200231057Y-100168501D01*
X200383785Y-100127577D01*
X200451842Y-100088284D01*
X200520716Y-100048520D01*
X200632520Y-99936716D01*
X200632520Y-99936714D01*
X200642724Y-99926511D01*
X200642728Y-99926506D01*
X201335374Y-99233859D01*
X201396695Y-99200376D01*
X201466387Y-99205360D01*
X201522320Y-99247232D01*
X201540095Y-99280588D01*
X201585210Y-99409521D01*
X201648721Y-99510597D01*
X201681184Y-99562262D01*
X201808738Y-99689816D01*
X201838276Y-99708376D01*
X201935950Y-99769749D01*
X201961478Y-99785789D01*
X202131739Y-99845366D01*
X202131745Y-99845368D01*
X202131750Y-99845369D01*
X202310996Y-99865565D01*
X202311000Y-99865565D01*
X202311004Y-99865565D01*
X202490249Y-99845369D01*
X202490251Y-99845368D01*
X202490255Y-99845368D01*
X202490258Y-99845366D01*
X202490262Y-99845366D01*
X202508379Y-99839027D01*
X202578158Y-99835465D01*
X202638785Y-99870193D01*
X202671013Y-99932186D01*
X202664608Y-100001762D01*
X202637015Y-100043749D01*
X197780584Y-104900181D01*
X197719261Y-104933666D01*
X197692903Y-104936500D01*
X194638412Y-104936500D01*
X194571373Y-104916815D01*
X194561097Y-104909445D01*
X194558263Y-104907185D01*
X194558262Y-104907184D01*
X194501496Y-104871515D01*
X194405523Y-104811211D01*
X194235254Y-104751631D01*
X194235249Y-104751630D01*
X194056004Y-104731435D01*
X194055996Y-104731435D01*
X193876750Y-104751630D01*
X193876745Y-104751631D01*
X193706476Y-104811211D01*
X193553737Y-104907184D01*
X193426184Y-105034737D01*
X193330211Y-105187476D01*
X193270631Y-105357745D01*
X193270630Y-105357750D01*
X193251028Y-105531735D01*
X193250435Y-105537000D01*
X193251690Y-105548142D01*
X193253096Y-105560615D01*
X193241042Y-105629437D01*
X193193694Y-105680817D01*
X193129876Y-105698500D01*
X184732412Y-105698500D01*
X184665373Y-105678815D01*
X184655097Y-105671445D01*
X184652263Y-105669185D01*
X184652262Y-105669184D01*
X184570539Y-105617834D01*
X184499523Y-105573211D01*
X184329254Y-105513631D01*
X184329249Y-105513630D01*
X184150004Y-105493435D01*
X184149996Y-105493435D01*
X183970750Y-105513630D01*
X183970745Y-105513631D01*
X183800476Y-105573211D01*
X183647737Y-105669184D01*
X183520184Y-105796737D01*
X183424211Y-105949476D01*
X183364631Y-106119745D01*
X183364630Y-106119750D01*
X183344435Y-106298996D01*
X183344435Y-106299003D01*
X183364630Y-106478249D01*
X183364631Y-106478254D01*
X183424211Y-106648523D01*
X183496329Y-106763297D01*
X183520184Y-106801262D01*
X183647738Y-106928816D01*
X183800478Y-107024789D01*
X183891712Y-107056713D01*
X183970745Y-107084368D01*
X183970750Y-107084369D01*
X184149996Y-107104565D01*
X184150000Y-107104565D01*
X184150004Y-107104565D01*
X184232642Y-107095254D01*
X184301463Y-107107308D01*
X184352843Y-107154658D01*
X184370467Y-107222268D01*
X184369745Y-107232356D01*
X184360435Y-107314994D01*
X184360435Y-107315003D01*
X184380630Y-107494249D01*
X184380632Y-107494257D01*
X184405577Y-107565546D01*
X184409138Y-107635325D01*
X184374409Y-107695952D01*
X184312415Y-107728179D01*
X184288535Y-107730500D01*
X183728669Y-107730500D01*
X183728653Y-107730499D01*
X183721057Y-107730499D01*
X183562943Y-107730499D01*
X183448397Y-107761192D01*
X183410214Y-107771423D01*
X183368480Y-107795519D01*
X183368479Y-107795519D01*
X183273287Y-107850477D01*
X183273282Y-107850481D01*
X183161478Y-107962286D01*
X182277920Y-108845843D01*
X182216597Y-108879328D01*
X182204124Y-108881382D01*
X182138856Y-108888736D01*
X181968584Y-108948316D01*
X181815843Y-109044290D01*
X181688290Y-109171843D01*
X181592317Y-109324582D01*
X181532737Y-109494851D01*
X181532736Y-109494856D01*
X181512541Y-109674102D01*
X181512541Y-109674109D01*
X181532736Y-109853355D01*
X181532737Y-109853360D01*
X181592317Y-110023629D01*
X181649268Y-110114265D01*
X181688290Y-110176368D01*
X181815844Y-110303922D01*
X181872673Y-110339630D01*
X181967493Y-110399210D01*
X181968584Y-110399895D01*
X182032071Y-110422110D01*
X182138851Y-110459474D01*
X182138856Y-110459475D01*
X182318102Y-110479671D01*
X182318106Y-110479671D01*
X182318110Y-110479671D01*
X182497355Y-110459475D01*
X182497358Y-110459474D01*
X182497361Y-110459474D01*
X182667628Y-110399895D01*
X182820368Y-110303922D01*
X182947922Y-110176368D01*
X183043895Y-110023628D01*
X183103474Y-109853361D01*
X183115707Y-109744785D01*
X183142773Y-109680371D01*
X183151236Y-109670997D01*
X183854416Y-108967819D01*
X183915739Y-108934334D01*
X183942097Y-108931500D01*
X197098374Y-108931500D01*
X197165413Y-108951185D01*
X197186055Y-108967819D01*
X200307610Y-112089374D01*
X200307620Y-112089385D01*
X200311950Y-112093715D01*
X200311951Y-112093716D01*
X200423755Y-112205520D01*
X200423757Y-112205521D01*
X200477453Y-112236522D01*
X200477452Y-112236522D01*
X200477455Y-112236523D01*
X200567725Y-112288642D01*
X200566480Y-112290796D01*
X200611132Y-112326777D01*
X200633199Y-112393071D01*
X200615922Y-112460771D01*
X200564786Y-112508382D01*
X200509278Y-112521500D01*
X141983500Y-112521500D01*
X141916461Y-112501815D01*
X141870706Y-112449011D01*
X141859500Y-112397500D01*
X141859500Y-108884155D01*
X144373000Y-108884155D01*
X144373000Y-109732000D01*
X145432252Y-109732000D01*
X145410482Y-109769708D01*
X145373000Y-109909591D01*
X145373000Y-110054409D01*
X145410482Y-110194292D01*
X145432252Y-110232000D01*
X144373000Y-110232000D01*
X144373000Y-111079844D01*
X144379401Y-111139372D01*
X144379403Y-111139379D01*
X144429645Y-111274086D01*
X144429649Y-111274093D01*
X144515809Y-111389187D01*
X144515812Y-111389190D01*
X144630906Y-111475350D01*
X144630913Y-111475354D01*
X144765620Y-111525596D01*
X144765627Y-111525598D01*
X144825155Y-111531999D01*
X144825172Y-111532000D01*
X145673000Y-111532000D01*
X145673000Y-110472747D01*
X145710708Y-110494518D01*
X145850591Y-110532000D01*
X145995409Y-110532000D01*
X146135292Y-110494518D01*
X146173000Y-110472747D01*
X146173000Y-111532000D01*
X147020828Y-111532000D01*
X147020844Y-111531999D01*
X147080372Y-111525598D01*
X147080379Y-111525596D01*
X147215086Y-111475354D01*
X147215093Y-111475350D01*
X147330187Y-111389190D01*
X147330190Y-111389187D01*
X147416350Y-111274093D01*
X147416354Y-111274086D01*
X147466596Y-111139379D01*
X147466598Y-111139372D01*
X147472999Y-111079844D01*
X147473000Y-111079827D01*
X147473000Y-110232000D01*
X146413748Y-110232000D01*
X146435518Y-110194292D01*
X146473000Y-110054409D01*
X146473000Y-109909591D01*
X146435518Y-109769708D01*
X146413748Y-109732000D01*
X147473000Y-109732000D01*
X147473000Y-108884172D01*
X147472999Y-108884155D01*
X147466598Y-108824627D01*
X147466596Y-108824620D01*
X147416354Y-108689913D01*
X147416350Y-108689906D01*
X147330190Y-108574812D01*
X147330187Y-108574809D01*
X147215093Y-108488649D01*
X147215086Y-108488645D01*
X147080379Y-108438403D01*
X147080372Y-108438401D01*
X147020844Y-108432000D01*
X146173000Y-108432000D01*
X146173000Y-109491252D01*
X146135292Y-109469482D01*
X145995409Y-109432000D01*
X145850591Y-109432000D01*
X145710708Y-109469482D01*
X145673000Y-109491252D01*
X145673000Y-108432000D01*
X144825155Y-108432000D01*
X144765627Y-108438401D01*
X144765620Y-108438403D01*
X144630913Y-108488645D01*
X144630906Y-108488649D01*
X144515812Y-108574809D01*
X144515809Y-108574812D01*
X144429649Y-108689906D01*
X144429645Y-108689913D01*
X144379403Y-108824620D01*
X144379401Y-108824627D01*
X144373000Y-108884155D01*
X141859500Y-108884155D01*
X141859500Y-104982000D01*
X144367706Y-104982000D01*
X144386853Y-105225297D01*
X144386853Y-105225300D01*
X144386854Y-105225302D01*
X144431197Y-105410003D01*
X144443830Y-105462619D01*
X144537222Y-105688089D01*
X144664737Y-105896173D01*
X144664738Y-105896176D01*
X144718449Y-105959063D01*
X144823241Y-106081759D01*
X144956259Y-106195367D01*
X145008823Y-106240261D01*
X145008826Y-106240262D01*
X145216910Y-106367777D01*
X145442381Y-106461169D01*
X145442378Y-106461169D01*
X145442384Y-106461170D01*
X145442388Y-106461172D01*
X145679698Y-106518146D01*
X145923000Y-106537294D01*
X146166302Y-106518146D01*
X146403612Y-106461172D01*
X146629089Y-106367777D01*
X146837179Y-106240259D01*
X147022759Y-106081759D01*
X147181259Y-105896179D01*
X147308777Y-105688089D01*
X147402172Y-105462612D01*
X147459146Y-105225302D01*
X147478294Y-104982000D01*
X147459146Y-104738698D01*
X147402172Y-104501388D01*
X147394560Y-104483011D01*
X147308777Y-104275910D01*
X147181262Y-104067826D01*
X147181261Y-104067823D01*
X147145453Y-104025897D01*
X147022759Y-103882241D01*
X146900063Y-103777449D01*
X146837176Y-103723738D01*
X146837173Y-103723737D01*
X146629089Y-103596222D01*
X146403618Y-103502830D01*
X146403621Y-103502830D01*
X146297992Y-103477470D01*
X146166302Y-103445854D01*
X146166300Y-103445853D01*
X146166297Y-103445853D01*
X145923000Y-103426706D01*
X145679702Y-103445853D01*
X145442380Y-103502830D01*
X145216910Y-103596222D01*
X145008826Y-103723737D01*
X145008823Y-103723738D01*
X144823241Y-103882241D01*
X144664738Y-104067823D01*
X144664737Y-104067826D01*
X144537222Y-104275910D01*
X144443830Y-104501380D01*
X144386853Y-104738702D01*
X144367706Y-104982000D01*
X141859500Y-104982000D01*
X141859500Y-100497389D01*
X171746500Y-100497389D01*
X171746500Y-100670610D01*
X171770104Y-100819645D01*
X171773598Y-100841701D01*
X171827127Y-101006445D01*
X171905768Y-101160788D01*
X172007586Y-101300928D01*
X172130072Y-101423414D01*
X172270212Y-101525232D01*
X172424555Y-101603873D01*
X172589299Y-101657402D01*
X172760389Y-101684500D01*
X172760390Y-101684500D01*
X172933610Y-101684500D01*
X172933611Y-101684500D01*
X173104701Y-101657402D01*
X173269445Y-101603873D01*
X173423788Y-101525232D01*
X173563928Y-101423414D01*
X173686414Y-101300928D01*
X173788232Y-101160788D01*
X173866873Y-101006445D01*
X173920402Y-100841701D01*
X173947500Y-100670611D01*
X173947500Y-100497389D01*
X173920402Y-100326299D01*
X173866873Y-100161555D01*
X173788232Y-100007212D01*
X173686414Y-99867072D01*
X173563928Y-99744586D01*
X173423788Y-99642768D01*
X173269445Y-99564127D01*
X173104701Y-99510598D01*
X173104699Y-99510597D01*
X173104698Y-99510597D01*
X172973271Y-99489781D01*
X172933611Y-99483500D01*
X172760389Y-99483500D01*
X172720728Y-99489781D01*
X172589302Y-99510597D01*
X172424552Y-99564128D01*
X172270211Y-99642768D01*
X172205456Y-99689816D01*
X172130072Y-99744586D01*
X172130070Y-99744588D01*
X172130069Y-99744588D01*
X172007588Y-99867069D01*
X172007588Y-99867070D01*
X172007586Y-99867072D01*
X171986024Y-99896750D01*
X171905768Y-100007211D01*
X171827128Y-100161552D01*
X171773597Y-100326302D01*
X171746500Y-100497389D01*
X141859500Y-100497389D01*
X141859500Y-71752500D01*
X141879185Y-71685461D01*
X141931989Y-71639706D01*
X141983500Y-71628500D01*
X154688500Y-71628500D01*
X154755539Y-71648185D01*
G37*
G04 #@! TD.AperFunction*
G04 #@! TA.AperFunction,Conductor*
G36*
X146540152Y-84083599D02*
G01*
X146553822Y-84065497D01*
X146553827Y-84065489D01*
X146651709Y-83868915D01*
X146651715Y-83868900D01*
X146692474Y-83725648D01*
X146729753Y-83666554D01*
X146793063Y-83636997D01*
X146862302Y-83646359D01*
X146915489Y-83691669D01*
X146931005Y-83725644D01*
X146965563Y-83847102D01*
X146971819Y-83869090D01*
X147069749Y-84065759D01*
X147202153Y-84241090D01*
X147293241Y-84324127D01*
X147364516Y-84389103D01*
X147551313Y-84504763D01*
X147756183Y-84584129D01*
X147772141Y-84587112D01*
X147834419Y-84618780D01*
X147869692Y-84679092D01*
X147866758Y-84748900D01*
X147826549Y-84806040D01*
X147772141Y-84830887D01*
X147756183Y-84833871D01*
X147756181Y-84833871D01*
X147756179Y-84833872D01*
X147551314Y-84913236D01*
X147551312Y-84913237D01*
X147364514Y-85028898D01*
X147202153Y-85176909D01*
X147069749Y-85352240D01*
X146971818Y-85548911D01*
X146971815Y-85548917D01*
X146931006Y-85692351D01*
X146893727Y-85751444D01*
X146830418Y-85781002D01*
X146761178Y-85771640D01*
X146707992Y-85726331D01*
X146692474Y-85692351D01*
X146651715Y-85549099D01*
X146651709Y-85549084D01*
X146553827Y-85352511D01*
X146553819Y-85352498D01*
X146540151Y-85334399D01*
X146033127Y-85841423D01*
X146017245Y-85782147D01*
X145950102Y-85665853D01*
X145855147Y-85570898D01*
X145738853Y-85503755D01*
X145679574Y-85487871D01*
X146184431Y-84983014D01*
X146184430Y-84983013D01*
X146072466Y-84913689D01*
X146072460Y-84913685D01*
X145867678Y-84834353D01*
X145867676Y-84834352D01*
X145849146Y-84830889D01*
X145786865Y-84799221D01*
X145751591Y-84738909D01*
X145754524Y-84669101D01*
X145794733Y-84611961D01*
X145849146Y-84587111D01*
X145867676Y-84583647D01*
X145867687Y-84583643D01*
X146072462Y-84504313D01*
X146072464Y-84504312D01*
X146184431Y-84434984D01*
X145679575Y-83930127D01*
X145738853Y-83914245D01*
X145855147Y-83847102D01*
X145950102Y-83752147D01*
X146017245Y-83635853D01*
X146033128Y-83576575D01*
X146540152Y-84083599D01*
G37*
G04 #@! TD.AperFunction*
G04 #@! TA.AperFunction,Conductor*
G36*
X146540152Y-81543599D02*
G01*
X146553822Y-81525497D01*
X146553827Y-81525489D01*
X146651709Y-81328915D01*
X146651715Y-81328900D01*
X146692474Y-81185648D01*
X146729753Y-81126554D01*
X146793063Y-81096997D01*
X146862302Y-81106359D01*
X146915489Y-81151669D01*
X146931005Y-81185644D01*
X146965563Y-81307102D01*
X146971819Y-81329090D01*
X147069749Y-81525759D01*
X147202153Y-81701090D01*
X147291714Y-81782735D01*
X147364516Y-81849103D01*
X147551313Y-81964763D01*
X147756183Y-82044129D01*
X147772141Y-82047112D01*
X147834419Y-82078780D01*
X147869692Y-82139092D01*
X147866758Y-82208900D01*
X147826549Y-82266040D01*
X147772141Y-82290887D01*
X147756183Y-82293871D01*
X147756181Y-82293871D01*
X147756179Y-82293872D01*
X147551314Y-82373236D01*
X147551312Y-82373237D01*
X147364514Y-82488898D01*
X147202153Y-82636909D01*
X147069749Y-82812240D01*
X146971818Y-83008911D01*
X146971815Y-83008917D01*
X146931006Y-83152351D01*
X146893727Y-83211444D01*
X146830418Y-83241002D01*
X146761178Y-83231640D01*
X146707992Y-83186331D01*
X146692474Y-83152351D01*
X146651715Y-83009099D01*
X146651709Y-83009084D01*
X146553827Y-82812511D01*
X146553819Y-82812498D01*
X146540151Y-82794399D01*
X146033127Y-83301423D01*
X146017245Y-83242147D01*
X145950102Y-83125853D01*
X145855147Y-83030898D01*
X145738853Y-82963755D01*
X145679574Y-82947871D01*
X146184431Y-82443014D01*
X146184430Y-82443013D01*
X146072466Y-82373689D01*
X146072460Y-82373685D01*
X145867678Y-82294353D01*
X145867676Y-82294352D01*
X145849146Y-82290889D01*
X145786865Y-82259221D01*
X145751591Y-82198909D01*
X145754524Y-82129101D01*
X145794733Y-82071961D01*
X145849146Y-82047111D01*
X145867676Y-82043647D01*
X145867687Y-82043643D01*
X146072462Y-81964313D01*
X146072464Y-81964312D01*
X146184431Y-81894984D01*
X145679575Y-81390127D01*
X145738853Y-81374245D01*
X145855147Y-81307102D01*
X145950102Y-81212147D01*
X146017245Y-81095853D01*
X146033128Y-81036575D01*
X146540152Y-81543599D01*
G37*
G04 #@! TD.AperFunction*
G04 #@! TA.AperFunction,Conductor*
G36*
X146540152Y-79003599D02*
G01*
X146553822Y-78985497D01*
X146553827Y-78985489D01*
X146651709Y-78788915D01*
X146651715Y-78788900D01*
X146692474Y-78645648D01*
X146729753Y-78586554D01*
X146793063Y-78556997D01*
X146862302Y-78566359D01*
X146915489Y-78611669D01*
X146931005Y-78645644D01*
X146956219Y-78734262D01*
X146971819Y-78789090D01*
X147069749Y-78985759D01*
X147202153Y-79161090D01*
X147341830Y-79288422D01*
X147364516Y-79309103D01*
X147551313Y-79424763D01*
X147756183Y-79504129D01*
X147772141Y-79507112D01*
X147834419Y-79538780D01*
X147869692Y-79599092D01*
X147866758Y-79668900D01*
X147826549Y-79726040D01*
X147772141Y-79750887D01*
X147756183Y-79753871D01*
X147756181Y-79753871D01*
X147756179Y-79753872D01*
X147551314Y-79833236D01*
X147551312Y-79833237D01*
X147364514Y-79948898D01*
X147202153Y-80096909D01*
X147069749Y-80272240D01*
X146971818Y-80468911D01*
X146971815Y-80468917D01*
X146931006Y-80612351D01*
X146893727Y-80671444D01*
X146830418Y-80701002D01*
X146761178Y-80691640D01*
X146707992Y-80646331D01*
X146692474Y-80612351D01*
X146651715Y-80469099D01*
X146651709Y-80469084D01*
X146553827Y-80272511D01*
X146553819Y-80272498D01*
X146540151Y-80254399D01*
X146033127Y-80761423D01*
X146017245Y-80702147D01*
X145950102Y-80585853D01*
X145855147Y-80490898D01*
X145738853Y-80423755D01*
X145679574Y-80407871D01*
X146184431Y-79903014D01*
X146184430Y-79903013D01*
X146072466Y-79833689D01*
X146072460Y-79833685D01*
X145867678Y-79754353D01*
X145867676Y-79754352D01*
X145849146Y-79750889D01*
X145786865Y-79719221D01*
X145751591Y-79658909D01*
X145754524Y-79589101D01*
X145794733Y-79531961D01*
X145849146Y-79507111D01*
X145867676Y-79503647D01*
X145867687Y-79503643D01*
X146072462Y-79424313D01*
X146072464Y-79424312D01*
X146184431Y-79354984D01*
X145679575Y-78850127D01*
X145738853Y-78834245D01*
X145855147Y-78767102D01*
X145950102Y-78672147D01*
X146017245Y-78555853D01*
X146033128Y-78496575D01*
X146540152Y-79003599D01*
G37*
G04 #@! TD.AperFunction*
G04 #@! TA.AperFunction,Conductor*
G36*
X190369000Y-74863633D02*
G01*
X190582483Y-74806433D01*
X190582492Y-74806429D01*
X190796578Y-74706600D01*
X190990082Y-74571105D01*
X191157105Y-74404082D01*
X191287119Y-74218405D01*
X191341696Y-74174781D01*
X191411195Y-74167588D01*
X191473549Y-74199110D01*
X191490269Y-74218405D01*
X191497760Y-74229103D01*
X191620505Y-74404401D01*
X191620506Y-74404402D01*
X191787597Y-74571493D01*
X191787603Y-74571498D01*
X191851623Y-74616325D01*
X191895248Y-74670901D01*
X191904500Y-74717900D01*
X191904500Y-76852113D01*
X191884815Y-76919152D01*
X191868181Y-76939794D01*
X189588794Y-79219181D01*
X189527471Y-79252666D01*
X189501113Y-79255500D01*
X188240940Y-79255500D01*
X188173901Y-79235815D01*
X188128146Y-79183011D01*
X188118202Y-79113853D01*
X188147227Y-79050297D01*
X188153259Y-79043819D01*
X188179710Y-79017368D01*
X188208816Y-78988262D01*
X188304789Y-78835522D01*
X188364368Y-78665255D01*
X188366356Y-78647615D01*
X188384565Y-78486003D01*
X188384565Y-78485996D01*
X188364369Y-78306750D01*
X188364368Y-78306745D01*
X188346127Y-78254616D01*
X188304789Y-78136478D01*
X188208816Y-77983738D01*
X188208814Y-77983736D01*
X188208813Y-77983734D01*
X188206550Y-77980896D01*
X188205659Y-77978715D01*
X188205111Y-77977842D01*
X188205264Y-77977745D01*
X188180144Y-77916209D01*
X188179500Y-77903587D01*
X188179500Y-74822090D01*
X188199185Y-74755051D01*
X188251101Y-74709706D01*
X188256830Y-74707035D01*
X188450401Y-74571495D01*
X188617495Y-74404401D01*
X188747730Y-74218405D01*
X188802307Y-74174781D01*
X188871805Y-74167587D01*
X188934160Y-74199110D01*
X188950879Y-74218405D01*
X189080890Y-74404078D01*
X189247917Y-74571105D01*
X189441421Y-74706600D01*
X189655507Y-74806429D01*
X189655516Y-74806433D01*
X189869000Y-74863634D01*
X189869000Y-73966012D01*
X189926007Y-73998925D01*
X190053174Y-74033000D01*
X190184826Y-74033000D01*
X190311993Y-73998925D01*
X190369000Y-73966012D01*
X190369000Y-74863633D01*
G37*
G04 #@! TD.AperFunction*
G04 #@! TA.AperFunction,Conductor*
G36*
X146540152Y-76463599D02*
G01*
X146553822Y-76445497D01*
X146553827Y-76445489D01*
X146651709Y-76248915D01*
X146651715Y-76248900D01*
X146692474Y-76105648D01*
X146729753Y-76046554D01*
X146793063Y-76016997D01*
X146862302Y-76026359D01*
X146915489Y-76071669D01*
X146931005Y-76105644D01*
X146965563Y-76227102D01*
X146971819Y-76249090D01*
X147069749Y-76445759D01*
X147202153Y-76621090D01*
X147255870Y-76670059D01*
X147364516Y-76769103D01*
X147551313Y-76884763D01*
X147756183Y-76964129D01*
X147772141Y-76967112D01*
X147834419Y-76998780D01*
X147869692Y-77059092D01*
X147866758Y-77128900D01*
X147826549Y-77186040D01*
X147772141Y-77210887D01*
X147756183Y-77213871D01*
X147756181Y-77213871D01*
X147756179Y-77213872D01*
X147551314Y-77293236D01*
X147551312Y-77293237D01*
X147364514Y-77408898D01*
X147202153Y-77556909D01*
X147069749Y-77732240D01*
X146971818Y-77928911D01*
X146971815Y-77928917D01*
X146931006Y-78072351D01*
X146893727Y-78131444D01*
X146830418Y-78161002D01*
X146761178Y-78151640D01*
X146707992Y-78106331D01*
X146692474Y-78072351D01*
X146651715Y-77929099D01*
X146651709Y-77929084D01*
X146553827Y-77732511D01*
X146553819Y-77732498D01*
X146540151Y-77714399D01*
X146033127Y-78221423D01*
X146017245Y-78162147D01*
X145950102Y-78045853D01*
X145855147Y-77950898D01*
X145738853Y-77883755D01*
X145679574Y-77867871D01*
X146184431Y-77363014D01*
X146184430Y-77363013D01*
X146072466Y-77293689D01*
X146072460Y-77293685D01*
X145867678Y-77214353D01*
X145867676Y-77214352D01*
X145849146Y-77210889D01*
X145786865Y-77179221D01*
X145751591Y-77118909D01*
X145754524Y-77049101D01*
X145794733Y-76991961D01*
X145849146Y-76967111D01*
X145867676Y-76963647D01*
X145867687Y-76963643D01*
X146072462Y-76884313D01*
X146072464Y-76884312D01*
X146184431Y-76814984D01*
X145679575Y-76310127D01*
X145738853Y-76294245D01*
X145855147Y-76227102D01*
X145950102Y-76132147D01*
X146017245Y-76015853D01*
X146033128Y-75956575D01*
X146540152Y-76463599D01*
G37*
G04 #@! TD.AperFunction*
G04 #@! TA.AperFunction,Conductor*
G36*
X146932203Y-73643856D02*
G01*
X146969977Y-73702634D01*
X146970267Y-73703636D01*
X146971818Y-73709089D01*
X147069749Y-73905759D01*
X147202153Y-74081090D01*
X147304928Y-74174781D01*
X147364516Y-74229103D01*
X147551313Y-74344763D01*
X147756183Y-74424129D01*
X147772141Y-74427112D01*
X147834419Y-74458780D01*
X147869692Y-74519092D01*
X147866758Y-74588900D01*
X147826549Y-74646040D01*
X147772141Y-74670887D01*
X147756183Y-74673871D01*
X147756181Y-74673871D01*
X147756179Y-74673872D01*
X147551314Y-74753236D01*
X147551312Y-74753237D01*
X147364514Y-74868898D01*
X147202153Y-75016909D01*
X147069749Y-75192240D01*
X146971818Y-75388911D01*
X146971815Y-75388917D01*
X146931006Y-75532351D01*
X146893727Y-75591444D01*
X146830418Y-75621002D01*
X146761178Y-75611640D01*
X146707992Y-75566331D01*
X146692474Y-75532351D01*
X146651715Y-75389099D01*
X146651709Y-75389084D01*
X146553827Y-75192511D01*
X146553819Y-75192498D01*
X146540151Y-75174399D01*
X146033127Y-75681423D01*
X146017245Y-75622147D01*
X145950102Y-75505853D01*
X145855147Y-75410898D01*
X145738853Y-75343755D01*
X145679574Y-75327871D01*
X146184431Y-74823014D01*
X146184430Y-74823013D01*
X146072466Y-74753689D01*
X146072460Y-74753685D01*
X145943243Y-74703627D01*
X145887842Y-74661054D01*
X145864251Y-74595287D01*
X145879962Y-74527207D01*
X145929986Y-74478428D01*
X145988037Y-74464000D01*
X146274828Y-74464000D01*
X146274844Y-74463999D01*
X146334372Y-74457598D01*
X146334379Y-74457596D01*
X146469086Y-74407354D01*
X146469093Y-74407350D01*
X146584187Y-74321190D01*
X146584190Y-74321187D01*
X146670350Y-74206093D01*
X146670354Y-74206086D01*
X146720596Y-74071379D01*
X146720598Y-74071372D01*
X146726999Y-74011844D01*
X146727000Y-74011827D01*
X146727000Y-73737569D01*
X146746685Y-73670530D01*
X146799489Y-73624775D01*
X146868647Y-73614831D01*
X146932203Y-73643856D01*
G37*
G04 #@! TD.AperFunction*
M02*
