M48
; DRILL file {KiCad 9.0.0} date 2025-04-06T11:42:08-0400
; FORMAT={-:-/ absolute / metric / decimal}
; #@! TF.CreationDate,2025-04-06T11:42:08-04:00
; #@! TF.GenerationSoftware,Kicad,Pcbnew,9.0.0
; #@! TF.FileFunction,Plated,1,2,PTH
FMAT,2
METRIC
; #@! TA.AperFunction,Plated,PTH,ViaDrill
T1C0.300
; #@! TA.AperFunction,Plated,PTH,ComponentDrill
T2C1.000
; #@! TA.AperFunction,Plated,PTH,ComponentDrill
T3C1.020
; #@! TA.AperFunction,Plated,PTH,ComponentDrill
T4C1.300
%
G90
G05
T1
X143.191Y-100.58
X143.191Y-103.58
X143.191Y-106.58
X144.191Y-70.58
X144.191Y-72.58
X144.691Y-76.83
X144.691Y-78.83
X144.691Y-80.83
X144.691Y-82.83
X146.191Y-70.58
X146.191Y-72.58
X146.191Y-100.58
X146.191Y-103.58
X146.191Y-106.58
X148.191Y-70.58
X148.191Y-72.58
X148.191Y-78.58
X149.191Y-100.58
X149.191Y-103.58
X149.191Y-106.58
X150.191Y-70.58
X150.191Y-72.58
X152.191Y-73.58
X152.191Y-85.58
X154.391Y-83.63
X155.191Y-85.58
X155.691Y-95.58
X156.191Y-77.58
X157.191Y-82.58
X157.191Y-89.58
X157.691Y-93.08
X159.191Y-86.58
X160.191Y-74.58
X161.191Y-75.58
X161.191Y-80.58
X161.191Y-85.58
X164.191Y-81.58
X165.191Y-79.58
X167.191Y-100.58
X167.33Y-77.441
X169.191Y-63.58
X169.191Y-92.58
X169.191Y-100.58
X169.191Y-105.58
X169.191Y-107.58
X169.191Y-109.58
X172.191Y-68.58
X172.191Y-100.58
X172.191Y-103.33
X174.941Y-103.33
X176.191Y-71.58
X177.191Y-72.58
X178.191Y-71.58
X178.191Y-73.58
X179.191Y-72.58
X179.191Y-74.58
X180.191Y-73.58
X180.191Y-75.58
X181.191Y-74.58
X181.191Y-76.58
X182.136Y-101.635
X182.191Y-75.58
X182.941Y-103.33
X183.191Y-76.58
X183.191Y-107.58
X183.191Y-109.58
X184.191Y-104.58
X185.191Y-69.58
X185.191Y-107.58
X185.191Y-109.58
X185.691Y-101.33
X187.191Y-110.58
X188.191Y-100.58
X188.441Y-106.58
X189.191Y-69.58
X189.191Y-71.58
X189.191Y-110.58
X189.691Y-93.58
X189.691Y-96.08
X189.691Y-98.58
X189.941Y-88.33
X189.941Y-91.08
X190.169Y-81.906
X190.191Y-72.58
X190.191Y-83.33
X190.191Y-86.08
X190.191Y-104.58
X190.691Y-105.83
X190.691Y-108.83
X191.191Y-87.58
X192.191Y-69.58
X192.191Y-71.58
X194.191Y-65.58
X196.191Y-65.58
X196.211Y-78.8
X196.281Y-81.71
X197.191Y-93.58
X197.191Y-105.58
X197.231Y-78.08
X197.241Y-81.61
X197.941Y-108.698
X198.191Y-65.58
X198.381Y-77.54
X198.421Y-81.85
X198.431Y-103.37
X199.191Y-72.58
X199.191Y-100.58
X200.191Y-65.58
X200.251Y-93.23
X200.931Y-92.16
X202.011Y-91.26
X202.191Y-65.58
X202.191Y-67.58
X203.191Y-104.58
X204.191Y-65.58
X204.191Y-67.58
X205.191Y-70.58
X205.191Y-73.58
X205.191Y-76.58
X205.761Y-86.69
X206.191Y-65.58
X206.191Y-67.58
X206.651Y-86.02
X207.191Y-78.58
X207.191Y-91.58
X207.671Y-84.84
X208.111Y-82.81
X208.191Y-65.58
X208.191Y-67.58
X208.191Y-70.58
X208.191Y-73.58
X208.191Y-76.58
X208.191Y-100.58
X208.316Y-103.955
X209.691Y-74.83
X219.191Y-73.58
X219.191Y-77.58
X219.191Y-81.58
X219.191Y-85.58
X219.191Y-89.58
T2
X152.081Y-65.58
X154.621Y-65.58
X157.161Y-65.58
X159.701Y-65.58
X162.241Y-65.58
X164.781Y-65.58
X167.321Y-65.58
X169.861Y-65.58
X172.401Y-65.58
X174.941Y-65.58
X177.481Y-65.58
X180.021Y-65.58
X182.561Y-65.58
X185.101Y-65.58
X187.641Y-65.58
X190.181Y-65.58
T3
X151.341Y-103.23
X151.341Y-105.77
X151.341Y-108.31
X153.881Y-103.23
X153.881Y-105.77
X153.881Y-108.31
X156.421Y-103.23
X156.421Y-105.77
X156.421Y-108.31
X158.961Y-103.23
X158.961Y-105.77
X158.961Y-108.31
X161.501Y-103.23
X161.501Y-105.77
X161.501Y-108.31
X164.041Y-103.23
X164.041Y-105.77
X164.041Y-108.31
T4
X174.191Y-107.58
X179.191Y-107.58
M30
