%TF.GenerationSoftware,KiCad,Pcbnew,9.0.0*%
%TF.CreationDate,2025-04-06T11:42:08-04:00*%
%TF.ProjectId,combat-pcb,636f6d62-6174-42d7-9063-622e6b696361,rev?*%
%TF.SameCoordinates,Original*%
%TF.FileFunction,Drillmap*%
%TF.FilePolarity,Positive*%
%FSLAX45Y45*%
G04 Gerber Fmt 4.5, Leading zero omitted, Abs format (unit mm)*
G04 Created by KiCad (PCBNEW 9.0.0) date 2025-04-06 11:42:08*
%MOMM*%
%LPD*%
G01*
G04 APERTURE LIST*
%ADD10C,0.050000*%
%ADD11C,0.200000*%
%ADD12C,0.100000*%
%ADD13C,0.102000*%
%ADD14C,0.130000*%
G04 APERTURE END LIST*
D10*
X14119100Y-6258000D02*
X22119100Y-6258000D01*
X22119100Y-11258000D02*
X22119100Y-6258000D01*
X14119100Y-9783000D02*
X14119100Y-11258000D01*
X14119100Y-11258000D02*
X22119100Y-11258000D01*
X15119100Y-9783000D02*
X15119100Y-8583000D01*
X15119100Y-8583000D02*
X14119100Y-8583000D01*
X15119100Y-9783000D02*
X14119100Y-9783000D01*
X14119100Y-8583000D02*
X14119100Y-6258000D01*
D11*
D12*
X14304100Y-10043000D02*
X14334100Y-10073000D01*
X14334100Y-10043000D02*
X14304100Y-10073000D01*
X14304100Y-10343000D02*
X14334100Y-10373000D01*
X14334100Y-10343000D02*
X14304100Y-10373000D01*
X14304100Y-10643000D02*
X14334100Y-10673000D01*
X14334100Y-10643000D02*
X14304100Y-10673000D01*
X14404100Y-7043000D02*
X14434100Y-7073000D01*
X14434100Y-7043000D02*
X14404100Y-7073000D01*
X14404100Y-7243000D02*
X14434100Y-7273000D01*
X14434100Y-7243000D02*
X14404100Y-7273000D01*
X14454100Y-7668000D02*
X14484100Y-7698000D01*
X14484100Y-7668000D02*
X14454100Y-7698000D01*
X14454100Y-7868000D02*
X14484100Y-7898000D01*
X14484100Y-7868000D02*
X14454100Y-7898000D01*
X14454100Y-8068000D02*
X14484100Y-8098000D01*
X14484100Y-8068000D02*
X14454100Y-8098000D01*
X14454100Y-8268000D02*
X14484100Y-8298000D01*
X14484100Y-8268000D02*
X14454100Y-8298000D01*
X14604100Y-7043000D02*
X14634100Y-7073000D01*
X14634100Y-7043000D02*
X14604100Y-7073000D01*
X14604100Y-7243000D02*
X14634100Y-7273000D01*
X14634100Y-7243000D02*
X14604100Y-7273000D01*
X14604100Y-10043000D02*
X14634100Y-10073000D01*
X14634100Y-10043000D02*
X14604100Y-10073000D01*
X14604100Y-10343000D02*
X14634100Y-10373000D01*
X14634100Y-10343000D02*
X14604100Y-10373000D01*
X14604100Y-10643000D02*
X14634100Y-10673000D01*
X14634100Y-10643000D02*
X14604100Y-10673000D01*
X14804100Y-7043000D02*
X14834100Y-7073000D01*
X14834100Y-7043000D02*
X14804100Y-7073000D01*
X14804100Y-7243000D02*
X14834100Y-7273000D01*
X14834100Y-7243000D02*
X14804100Y-7273000D01*
X14804100Y-7843000D02*
X14834100Y-7873000D01*
X14834100Y-7843000D02*
X14804100Y-7873000D01*
X14904100Y-10043000D02*
X14934100Y-10073000D01*
X14934100Y-10043000D02*
X14904100Y-10073000D01*
X14904100Y-10343000D02*
X14934100Y-10373000D01*
X14934100Y-10343000D02*
X14904100Y-10373000D01*
X14904100Y-10643000D02*
X14934100Y-10673000D01*
X14934100Y-10643000D02*
X14904100Y-10673000D01*
X15004100Y-7043000D02*
X15034100Y-7073000D01*
X15034100Y-7043000D02*
X15004100Y-7073000D01*
X15004100Y-7243000D02*
X15034100Y-7273000D01*
X15034100Y-7243000D02*
X15004100Y-7273000D01*
X15204100Y-7343000D02*
X15234100Y-7373000D01*
X15234100Y-7343000D02*
X15204100Y-7373000D01*
X15204100Y-8543000D02*
X15234100Y-8573000D01*
X15234100Y-8543000D02*
X15204100Y-8573000D01*
X15424100Y-8347994D02*
X15454100Y-8377994D01*
X15454100Y-8347994D02*
X15424100Y-8377994D01*
X15504100Y-8543000D02*
X15534100Y-8573000D01*
X15534100Y-8543000D02*
X15504100Y-8573000D01*
X15554100Y-9543000D02*
X15584100Y-9573000D01*
X15584100Y-9543000D02*
X15554100Y-9573000D01*
X15604100Y-7743000D02*
X15634100Y-7773000D01*
X15634100Y-7743000D02*
X15604100Y-7773000D01*
X15704100Y-8243000D02*
X15734100Y-8273000D01*
X15734100Y-8243000D02*
X15704100Y-8273000D01*
X15704100Y-8943000D02*
X15734100Y-8973000D01*
X15734100Y-8943000D02*
X15704100Y-8973000D01*
X15754100Y-9293000D02*
X15784100Y-9323000D01*
X15784100Y-9293000D02*
X15754100Y-9323000D01*
X15904100Y-8643000D02*
X15934100Y-8673000D01*
X15934100Y-8643000D02*
X15904100Y-8673000D01*
X16004100Y-7443000D02*
X16034100Y-7473000D01*
X16034100Y-7443000D02*
X16004100Y-7473000D01*
X16104100Y-7543000D02*
X16134100Y-7573000D01*
X16134100Y-7543000D02*
X16104100Y-7573000D01*
X16104100Y-8043000D02*
X16134100Y-8073000D01*
X16134100Y-8043000D02*
X16104100Y-8073000D01*
X16104100Y-8543000D02*
X16134100Y-8573000D01*
X16134100Y-8543000D02*
X16104100Y-8573000D01*
X16404100Y-8143000D02*
X16434100Y-8173000D01*
X16434100Y-8143000D02*
X16404100Y-8173000D01*
X16504100Y-7943000D02*
X16534100Y-7973000D01*
X16534100Y-7943000D02*
X16504100Y-7973000D01*
X16704100Y-10043000D02*
X16734100Y-10073000D01*
X16734100Y-10043000D02*
X16704100Y-10073000D01*
X16718026Y-7729073D02*
X16748026Y-7759073D01*
X16748026Y-7729073D02*
X16718026Y-7759073D01*
X16904100Y-6343000D02*
X16934100Y-6373000D01*
X16934100Y-6343000D02*
X16904100Y-6373000D01*
X16904100Y-9243000D02*
X16934100Y-9273000D01*
X16934100Y-9243000D02*
X16904100Y-9273000D01*
X16904100Y-10043000D02*
X16934100Y-10073000D01*
X16934100Y-10043000D02*
X16904100Y-10073000D01*
X16904100Y-10543000D02*
X16934100Y-10573000D01*
X16934100Y-10543000D02*
X16904100Y-10573000D01*
X16904100Y-10743000D02*
X16934100Y-10773000D01*
X16934100Y-10743000D02*
X16904100Y-10773000D01*
X16904100Y-10943000D02*
X16934100Y-10973000D01*
X16934100Y-10943000D02*
X16904100Y-10973000D01*
X17204100Y-6843000D02*
X17234100Y-6873000D01*
X17234100Y-6843000D02*
X17204100Y-6873000D01*
X17204100Y-10043000D02*
X17234100Y-10073000D01*
X17234100Y-10043000D02*
X17204100Y-10073000D01*
X17204100Y-10318000D02*
X17234100Y-10348000D01*
X17234100Y-10318000D02*
X17204100Y-10348000D01*
X17479100Y-10318000D02*
X17509100Y-10348000D01*
X17509100Y-10318000D02*
X17479100Y-10348000D01*
X17604100Y-7143000D02*
X17634100Y-7173000D01*
X17634100Y-7143000D02*
X17604100Y-7173000D01*
X17704100Y-7243000D02*
X17734100Y-7273000D01*
X17734100Y-7243000D02*
X17704100Y-7273000D01*
X17804100Y-7143000D02*
X17834100Y-7173000D01*
X17834100Y-7143000D02*
X17804100Y-7173000D01*
X17804100Y-7343000D02*
X17834100Y-7373000D01*
X17834100Y-7343000D02*
X17804100Y-7373000D01*
X17904100Y-7243000D02*
X17934100Y-7273000D01*
X17934100Y-7243000D02*
X17904100Y-7273000D01*
X17904100Y-7443000D02*
X17934100Y-7473000D01*
X17934100Y-7443000D02*
X17904100Y-7473000D01*
X18004100Y-7343000D02*
X18034100Y-7373000D01*
X18034100Y-7343000D02*
X18004100Y-7373000D01*
X18004100Y-7543000D02*
X18034100Y-7573000D01*
X18034100Y-7543000D02*
X18004100Y-7573000D01*
X18104100Y-7443000D02*
X18134100Y-7473000D01*
X18134100Y-7443000D02*
X18104100Y-7473000D01*
X18104100Y-7643000D02*
X18134100Y-7673000D01*
X18134100Y-7643000D02*
X18104100Y-7673000D01*
X18198647Y-10148453D02*
X18228647Y-10178453D01*
X18228647Y-10148453D02*
X18198647Y-10178453D01*
X18204100Y-7543000D02*
X18234100Y-7573000D01*
X18234100Y-7543000D02*
X18204100Y-7573000D01*
X18279100Y-10318000D02*
X18309100Y-10348000D01*
X18309100Y-10318000D02*
X18279100Y-10348000D01*
X18304100Y-7643000D02*
X18334100Y-7673000D01*
X18334100Y-7643000D02*
X18304100Y-7673000D01*
X18304100Y-10743000D02*
X18334100Y-10773000D01*
X18334100Y-10743000D02*
X18304100Y-10773000D01*
X18304100Y-10943000D02*
X18334100Y-10973000D01*
X18334100Y-10943000D02*
X18304100Y-10973000D01*
X18404100Y-10443000D02*
X18434100Y-10473000D01*
X18434100Y-10443000D02*
X18404100Y-10473000D01*
X18504100Y-6943000D02*
X18534100Y-6973000D01*
X18534100Y-6943000D02*
X18504100Y-6973000D01*
X18504100Y-10743000D02*
X18534100Y-10773000D01*
X18534100Y-10743000D02*
X18504100Y-10773000D01*
X18504100Y-10943000D02*
X18534100Y-10973000D01*
X18534100Y-10943000D02*
X18504100Y-10973000D01*
X18554100Y-10118000D02*
X18584100Y-10148000D01*
X18584100Y-10118000D02*
X18554100Y-10148000D01*
X18704100Y-11043000D02*
X18734100Y-11073000D01*
X18734100Y-11043000D02*
X18704100Y-11073000D01*
X18804100Y-10043000D02*
X18834100Y-10073000D01*
X18834100Y-10043000D02*
X18804100Y-10073000D01*
X18829100Y-10643000D02*
X18859100Y-10673000D01*
X18859100Y-10643000D02*
X18829100Y-10673000D01*
X18904100Y-6943000D02*
X18934100Y-6973000D01*
X18934100Y-6943000D02*
X18904100Y-6973000D01*
X18904100Y-7143000D02*
X18934100Y-7173000D01*
X18934100Y-7143000D02*
X18904100Y-7173000D01*
X18904100Y-11043000D02*
X18934100Y-11073000D01*
X18934100Y-11043000D02*
X18904100Y-11073000D01*
X18954100Y-9343000D02*
X18984100Y-9373000D01*
X18984100Y-9343000D02*
X18954100Y-9373000D01*
X18954100Y-9593000D02*
X18984100Y-9623000D01*
X18984100Y-9593000D02*
X18954100Y-9623000D01*
X18954100Y-9843000D02*
X18984100Y-9873000D01*
X18984100Y-9843000D02*
X18954100Y-9873000D01*
X18979100Y-8818000D02*
X19009100Y-8848000D01*
X19009100Y-8818000D02*
X18979100Y-8848000D01*
X18979100Y-9093000D02*
X19009100Y-9123000D01*
X19009100Y-9093000D02*
X18979100Y-9123000D01*
X19001930Y-8175610D02*
X19031930Y-8205610D01*
X19031930Y-8175610D02*
X19001930Y-8205610D01*
X19004100Y-7243000D02*
X19034100Y-7273000D01*
X19034100Y-7243000D02*
X19004100Y-7273000D01*
X19004100Y-8318000D02*
X19034100Y-8348000D01*
X19034100Y-8318000D02*
X19004100Y-8348000D01*
X19004100Y-8593000D02*
X19034100Y-8623000D01*
X19034100Y-8593000D02*
X19004100Y-8623000D01*
X19004100Y-10443000D02*
X19034100Y-10473000D01*
X19034100Y-10443000D02*
X19004100Y-10473000D01*
X19054100Y-10568000D02*
X19084100Y-10598000D01*
X19084100Y-10568000D02*
X19054100Y-10598000D01*
X19054100Y-10868000D02*
X19084100Y-10898000D01*
X19084100Y-10868000D02*
X19054100Y-10898000D01*
X19104100Y-8743000D02*
X19134100Y-8773000D01*
X19134100Y-8743000D02*
X19104100Y-8773000D01*
X19204100Y-6943000D02*
X19234100Y-6973000D01*
X19234100Y-6943000D02*
X19204100Y-6973000D01*
X19204100Y-7143000D02*
X19234100Y-7173000D01*
X19234100Y-7143000D02*
X19204100Y-7173000D01*
X19404100Y-6543000D02*
X19434100Y-6573000D01*
X19434100Y-6543000D02*
X19404100Y-6573000D01*
X19604100Y-6543000D02*
X19634100Y-6573000D01*
X19634100Y-6543000D02*
X19604100Y-6573000D01*
X19606100Y-7865000D02*
X19636100Y-7895000D01*
X19636100Y-7865000D02*
X19606100Y-7895000D01*
X19613100Y-8156000D02*
X19643100Y-8186000D01*
X19643100Y-8156000D02*
X19613100Y-8186000D01*
X19704100Y-9343000D02*
X19734100Y-9373000D01*
X19734100Y-9343000D02*
X19704100Y-9373000D01*
X19704100Y-10543000D02*
X19734100Y-10573000D01*
X19734100Y-10543000D02*
X19704100Y-10573000D01*
X19708100Y-7793000D02*
X19738100Y-7823000D01*
X19738100Y-7793000D02*
X19708100Y-7823000D01*
X19709100Y-8146000D02*
X19739100Y-8176000D01*
X19739100Y-8146000D02*
X19709100Y-8176000D01*
X19779100Y-10854800D02*
X19809100Y-10884800D01*
X19809100Y-10854800D02*
X19779100Y-10884800D01*
X19804100Y-6543000D02*
X19834100Y-6573000D01*
X19834100Y-6543000D02*
X19804100Y-6573000D01*
X19823100Y-7739000D02*
X19853100Y-7769000D01*
X19853100Y-7739000D02*
X19823100Y-7769000D01*
X19827100Y-8170000D02*
X19857100Y-8200000D01*
X19857100Y-8170000D02*
X19827100Y-8200000D01*
X19828100Y-10322000D02*
X19858100Y-10352000D01*
X19858100Y-10322000D02*
X19828100Y-10352000D01*
X19904100Y-7243000D02*
X19934100Y-7273000D01*
X19934100Y-7243000D02*
X19904100Y-7273000D01*
X19904100Y-10043000D02*
X19934100Y-10073000D01*
X19934100Y-10043000D02*
X19904100Y-10073000D01*
X20004100Y-6543000D02*
X20034100Y-6573000D01*
X20034100Y-6543000D02*
X20004100Y-6573000D01*
X20010100Y-9308000D02*
X20040100Y-9338000D01*
X20040100Y-9308000D02*
X20010100Y-9338000D01*
X20078100Y-9201000D02*
X20108100Y-9231000D01*
X20108100Y-9201000D02*
X20078100Y-9231000D01*
X20186100Y-9111000D02*
X20216100Y-9141000D01*
X20216100Y-9111000D02*
X20186100Y-9141000D01*
X20204100Y-6543000D02*
X20234100Y-6573000D01*
X20234100Y-6543000D02*
X20204100Y-6573000D01*
X20204100Y-6743000D02*
X20234100Y-6773000D01*
X20234100Y-6743000D02*
X20204100Y-6773000D01*
X20304100Y-10443000D02*
X20334100Y-10473000D01*
X20334100Y-10443000D02*
X20304100Y-10473000D01*
X20404100Y-6543000D02*
X20434100Y-6573000D01*
X20434100Y-6543000D02*
X20404100Y-6573000D01*
X20404100Y-6743000D02*
X20434100Y-6773000D01*
X20434100Y-6743000D02*
X20404100Y-6773000D01*
X20504100Y-7043000D02*
X20534100Y-7073000D01*
X20534100Y-7043000D02*
X20504100Y-7073000D01*
X20504100Y-7343000D02*
X20534100Y-7373000D01*
X20534100Y-7343000D02*
X20504100Y-7373000D01*
X20504100Y-7643000D02*
X20534100Y-7673000D01*
X20534100Y-7643000D02*
X20504100Y-7673000D01*
X20561100Y-8654000D02*
X20591100Y-8684000D01*
X20591100Y-8654000D02*
X20561100Y-8684000D01*
X20604100Y-6543000D02*
X20634100Y-6573000D01*
X20634100Y-6543000D02*
X20604100Y-6573000D01*
X20604100Y-6743000D02*
X20634100Y-6773000D01*
X20634100Y-6743000D02*
X20604100Y-6773000D01*
X20650100Y-8587000D02*
X20680100Y-8617000D01*
X20680100Y-8587000D02*
X20650100Y-8617000D01*
X20704100Y-7843000D02*
X20734100Y-7873000D01*
X20734100Y-7843000D02*
X20704100Y-7873000D01*
X20704100Y-9143000D02*
X20734100Y-9173000D01*
X20734100Y-9143000D02*
X20704100Y-9173000D01*
X20752100Y-8469000D02*
X20782100Y-8499000D01*
X20782100Y-8469000D02*
X20752100Y-8499000D01*
X20796100Y-8266000D02*
X20826100Y-8296000D01*
X20826100Y-8266000D02*
X20796100Y-8296000D01*
X20804100Y-6543000D02*
X20834100Y-6573000D01*
X20834100Y-6543000D02*
X20804100Y-6573000D01*
X20804100Y-6743000D02*
X20834100Y-6773000D01*
X20834100Y-6743000D02*
X20804100Y-6773000D01*
X20804100Y-7043000D02*
X20834100Y-7073000D01*
X20834100Y-7043000D02*
X20804100Y-7073000D01*
X20804100Y-7343000D02*
X20834100Y-7373000D01*
X20834100Y-7343000D02*
X20804100Y-7373000D01*
X20804100Y-7643000D02*
X20834100Y-7673000D01*
X20834100Y-7643000D02*
X20804100Y-7673000D01*
X20804100Y-10043000D02*
X20834100Y-10073000D01*
X20834100Y-10043000D02*
X20804100Y-10073000D01*
X20816600Y-10380500D02*
X20846600Y-10410500D01*
X20846600Y-10380500D02*
X20816600Y-10410500D01*
X20954100Y-7468000D02*
X20984100Y-7498000D01*
X20984100Y-7468000D02*
X20954100Y-7498000D01*
X21904100Y-7343000D02*
X21934100Y-7373000D01*
X21934100Y-7343000D02*
X21904100Y-7373000D01*
X21904100Y-7743000D02*
X21934100Y-7773000D01*
X21934100Y-7743000D02*
X21904100Y-7773000D01*
X21904100Y-8143000D02*
X21934100Y-8173000D01*
X21934100Y-8143000D02*
X21904100Y-8173000D01*
X21904100Y-8543000D02*
X21934100Y-8573000D01*
X21934100Y-8543000D02*
X21904100Y-8573000D01*
X21904100Y-8943000D02*
X21934100Y-8973000D01*
X21934100Y-8943000D02*
X21904100Y-8973000D01*
X15258100Y-6558000D02*
G75*
G02*
X15158100Y-6558000I-50000J0D01*
G01*
X15158100Y-6558000D02*
G75*
G02*
X15258100Y-6558000I50000J0D01*
G01*
X15512100Y-6558000D02*
G75*
G02*
X15412100Y-6558000I-50000J0D01*
G01*
X15412100Y-6558000D02*
G75*
G02*
X15512100Y-6558000I50000J0D01*
G01*
X15766100Y-6558000D02*
G75*
G02*
X15666100Y-6558000I-50000J0D01*
G01*
X15666100Y-6558000D02*
G75*
G02*
X15766100Y-6558000I50000J0D01*
G01*
X16020100Y-6558000D02*
G75*
G02*
X15920100Y-6558000I-50000J0D01*
G01*
X15920100Y-6558000D02*
G75*
G02*
X16020100Y-6558000I50000J0D01*
G01*
X16274100Y-6558000D02*
G75*
G02*
X16174100Y-6558000I-50000J0D01*
G01*
X16174100Y-6558000D02*
G75*
G02*
X16274100Y-6558000I50000J0D01*
G01*
X16528100Y-6558000D02*
G75*
G02*
X16428100Y-6558000I-50000J0D01*
G01*
X16428100Y-6558000D02*
G75*
G02*
X16528100Y-6558000I50000J0D01*
G01*
X16782100Y-6558000D02*
G75*
G02*
X16682100Y-6558000I-50000J0D01*
G01*
X16682100Y-6558000D02*
G75*
G02*
X16782100Y-6558000I50000J0D01*
G01*
X17036100Y-6558000D02*
G75*
G02*
X16936100Y-6558000I-50000J0D01*
G01*
X16936100Y-6558000D02*
G75*
G02*
X17036100Y-6558000I50000J0D01*
G01*
X17290100Y-6558000D02*
G75*
G02*
X17190100Y-6558000I-50000J0D01*
G01*
X17190100Y-6558000D02*
G75*
G02*
X17290100Y-6558000I50000J0D01*
G01*
X17544100Y-6558000D02*
G75*
G02*
X17444100Y-6558000I-50000J0D01*
G01*
X17444100Y-6558000D02*
G75*
G02*
X17544100Y-6558000I50000J0D01*
G01*
X17798100Y-6558000D02*
G75*
G02*
X17698100Y-6558000I-50000J0D01*
G01*
X17698100Y-6558000D02*
G75*
G02*
X17798100Y-6558000I50000J0D01*
G01*
X18052100Y-6558000D02*
G75*
G02*
X17952100Y-6558000I-50000J0D01*
G01*
X17952100Y-6558000D02*
G75*
G02*
X18052100Y-6558000I50000J0D01*
G01*
X18306100Y-6558000D02*
G75*
G02*
X18206100Y-6558000I-50000J0D01*
G01*
X18206100Y-6558000D02*
G75*
G02*
X18306100Y-6558000I50000J0D01*
G01*
X18560100Y-6558000D02*
G75*
G02*
X18460100Y-6558000I-50000J0D01*
G01*
X18460100Y-6558000D02*
G75*
G02*
X18560100Y-6558000I50000J0D01*
G01*
X18814100Y-6558000D02*
G75*
G02*
X18714100Y-6558000I-50000J0D01*
G01*
X18714100Y-6558000D02*
G75*
G02*
X18814100Y-6558000I50000J0D01*
G01*
X19068100Y-6558000D02*
G75*
G02*
X18968100Y-6558000I-50000J0D01*
G01*
X18968100Y-6558000D02*
G75*
G02*
X19068100Y-6558000I50000J0D01*
G01*
D13*
X15134100Y-10272000D02*
X15134100Y-10374000D01*
X15083100Y-10323000D02*
X15185100Y-10323000D01*
X15134100Y-10526000D02*
X15134100Y-10628000D01*
X15083100Y-10577000D02*
X15185100Y-10577000D01*
X15134100Y-10780000D02*
X15134100Y-10882000D01*
X15083100Y-10831000D02*
X15185100Y-10831000D01*
X15388100Y-10272000D02*
X15388100Y-10374000D01*
X15337100Y-10323000D02*
X15439100Y-10323000D01*
X15388100Y-10526000D02*
X15388100Y-10628000D01*
X15337100Y-10577000D02*
X15439100Y-10577000D01*
X15388100Y-10780000D02*
X15388100Y-10882000D01*
X15337100Y-10831000D02*
X15439100Y-10831000D01*
X15642100Y-10272000D02*
X15642100Y-10374000D01*
X15591100Y-10323000D02*
X15693100Y-10323000D01*
X15642100Y-10526000D02*
X15642100Y-10628000D01*
X15591100Y-10577000D02*
X15693100Y-10577000D01*
X15642100Y-10780000D02*
X15642100Y-10882000D01*
X15591100Y-10831000D02*
X15693100Y-10831000D01*
X15896100Y-10272000D02*
X15896100Y-10374000D01*
X15845100Y-10323000D02*
X15947100Y-10323000D01*
X15896100Y-10526000D02*
X15896100Y-10628000D01*
X15845100Y-10577000D02*
X15947100Y-10577000D01*
X15896100Y-10780000D02*
X15896100Y-10882000D01*
X15845100Y-10831000D02*
X15947100Y-10831000D01*
X16150100Y-10272000D02*
X16150100Y-10374000D01*
X16099100Y-10323000D02*
X16201100Y-10323000D01*
X16150100Y-10526000D02*
X16150100Y-10628000D01*
X16099100Y-10577000D02*
X16201100Y-10577000D01*
X16150100Y-10780000D02*
X16150100Y-10882000D01*
X16099100Y-10831000D02*
X16201100Y-10831000D01*
X16404100Y-10272000D02*
X16404100Y-10374000D01*
X16353100Y-10323000D02*
X16455100Y-10323000D01*
X16404100Y-10526000D02*
X16404100Y-10628000D01*
X16353100Y-10577000D02*
X16455100Y-10577000D01*
X16404100Y-10780000D02*
X16404100Y-10882000D01*
X16353100Y-10831000D02*
X16455100Y-10831000D01*
D14*
X17465062Y-10803962D02*
X17465062Y-10712038D01*
X17373138Y-10712038D01*
X17373138Y-10803962D01*
X17465062Y-10803962D01*
X17965062Y-10803962D02*
X17965062Y-10712038D01*
X17873138Y-10712038D01*
X17873138Y-10803962D01*
X17965062Y-10803962D01*
D11*
X14377377Y-11571984D02*
X14377377Y-11371984D01*
X14377377Y-11371984D02*
X14424996Y-11371984D01*
X14424996Y-11371984D02*
X14453567Y-11381508D01*
X14453567Y-11381508D02*
X14472615Y-11400555D01*
X14472615Y-11400555D02*
X14482139Y-11419603D01*
X14482139Y-11419603D02*
X14491662Y-11457698D01*
X14491662Y-11457698D02*
X14491662Y-11486269D01*
X14491662Y-11486269D02*
X14482139Y-11524365D01*
X14482139Y-11524365D02*
X14472615Y-11543412D01*
X14472615Y-11543412D02*
X14453567Y-11562460D01*
X14453567Y-11562460D02*
X14424996Y-11571984D01*
X14424996Y-11571984D02*
X14377377Y-11571984D01*
X14577377Y-11571984D02*
X14577377Y-11438650D01*
X14577377Y-11476746D02*
X14586901Y-11457698D01*
X14586901Y-11457698D02*
X14596424Y-11448174D01*
X14596424Y-11448174D02*
X14615472Y-11438650D01*
X14615472Y-11438650D02*
X14634520Y-11438650D01*
X14701186Y-11571984D02*
X14701186Y-11438650D01*
X14701186Y-11371984D02*
X14691662Y-11381508D01*
X14691662Y-11381508D02*
X14701186Y-11391031D01*
X14701186Y-11391031D02*
X14710710Y-11381508D01*
X14710710Y-11381508D02*
X14701186Y-11371984D01*
X14701186Y-11371984D02*
X14701186Y-11391031D01*
X14824996Y-11571984D02*
X14805948Y-11562460D01*
X14805948Y-11562460D02*
X14796424Y-11543412D01*
X14796424Y-11543412D02*
X14796424Y-11371984D01*
X14929758Y-11571984D02*
X14910710Y-11562460D01*
X14910710Y-11562460D02*
X14901186Y-11543412D01*
X14901186Y-11543412D02*
X14901186Y-11371984D01*
X15158329Y-11571984D02*
X15158329Y-11371984D01*
X15158329Y-11371984D02*
X15224996Y-11514841D01*
X15224996Y-11514841D02*
X15291662Y-11371984D01*
X15291662Y-11371984D02*
X15291662Y-11571984D01*
X15472615Y-11571984D02*
X15472615Y-11467222D01*
X15472615Y-11467222D02*
X15463091Y-11448174D01*
X15463091Y-11448174D02*
X15444043Y-11438650D01*
X15444043Y-11438650D02*
X15405948Y-11438650D01*
X15405948Y-11438650D02*
X15386901Y-11448174D01*
X15472615Y-11562460D02*
X15453567Y-11571984D01*
X15453567Y-11571984D02*
X15405948Y-11571984D01*
X15405948Y-11571984D02*
X15386901Y-11562460D01*
X15386901Y-11562460D02*
X15377377Y-11543412D01*
X15377377Y-11543412D02*
X15377377Y-11524365D01*
X15377377Y-11524365D02*
X15386901Y-11505317D01*
X15386901Y-11505317D02*
X15405948Y-11495793D01*
X15405948Y-11495793D02*
X15453567Y-11495793D01*
X15453567Y-11495793D02*
X15472615Y-11486269D01*
X15567853Y-11438650D02*
X15567853Y-11638650D01*
X15567853Y-11448174D02*
X15586901Y-11438650D01*
X15586901Y-11438650D02*
X15624996Y-11438650D01*
X15624996Y-11438650D02*
X15644043Y-11448174D01*
X15644043Y-11448174D02*
X15653567Y-11457698D01*
X15653567Y-11457698D02*
X15663091Y-11476746D01*
X15663091Y-11476746D02*
X15663091Y-11533888D01*
X15663091Y-11533888D02*
X15653567Y-11552936D01*
X15653567Y-11552936D02*
X15644043Y-11562460D01*
X15644043Y-11562460D02*
X15624996Y-11571984D01*
X15624996Y-11571984D02*
X15586901Y-11571984D01*
X15586901Y-11571984D02*
X15567853Y-11562460D01*
X15748805Y-11552936D02*
X15758329Y-11562460D01*
X15758329Y-11562460D02*
X15748805Y-11571984D01*
X15748805Y-11571984D02*
X15739282Y-11562460D01*
X15739282Y-11562460D02*
X15748805Y-11552936D01*
X15748805Y-11552936D02*
X15748805Y-11571984D01*
X15748805Y-11448174D02*
X15758329Y-11457698D01*
X15758329Y-11457698D02*
X15748805Y-11467222D01*
X15748805Y-11467222D02*
X15739282Y-11457698D01*
X15739282Y-11457698D02*
X15748805Y-11448174D01*
X15748805Y-11448174D02*
X15748805Y-11467222D01*
D12*
X14086600Y-11885500D02*
X14116600Y-11915500D01*
X14116600Y-11885500D02*
X14086600Y-11915500D01*
D11*
X14415472Y-11791984D02*
X14434520Y-11791984D01*
X14434520Y-11791984D02*
X14453567Y-11801508D01*
X14453567Y-11801508D02*
X14463091Y-11811031D01*
X14463091Y-11811031D02*
X14472615Y-11830079D01*
X14472615Y-11830079D02*
X14482139Y-11868174D01*
X14482139Y-11868174D02*
X14482139Y-11915793D01*
X14482139Y-11915793D02*
X14472615Y-11953888D01*
X14472615Y-11953888D02*
X14463091Y-11972936D01*
X14463091Y-11972936D02*
X14453567Y-11982460D01*
X14453567Y-11982460D02*
X14434520Y-11991984D01*
X14434520Y-11991984D02*
X14415472Y-11991984D01*
X14415472Y-11991984D02*
X14396424Y-11982460D01*
X14396424Y-11982460D02*
X14386901Y-11972936D01*
X14386901Y-11972936D02*
X14377377Y-11953888D01*
X14377377Y-11953888D02*
X14367853Y-11915793D01*
X14367853Y-11915793D02*
X14367853Y-11868174D01*
X14367853Y-11868174D02*
X14377377Y-11830079D01*
X14377377Y-11830079D02*
X14386901Y-11811031D01*
X14386901Y-11811031D02*
X14396424Y-11801508D01*
X14396424Y-11801508D02*
X14415472Y-11791984D01*
X14567853Y-11972936D02*
X14577377Y-11982460D01*
X14577377Y-11982460D02*
X14567853Y-11991984D01*
X14567853Y-11991984D02*
X14558329Y-11982460D01*
X14558329Y-11982460D02*
X14567853Y-11972936D01*
X14567853Y-11972936D02*
X14567853Y-11991984D01*
X14644043Y-11791984D02*
X14767853Y-11791984D01*
X14767853Y-11791984D02*
X14701186Y-11868174D01*
X14701186Y-11868174D02*
X14729758Y-11868174D01*
X14729758Y-11868174D02*
X14748805Y-11877698D01*
X14748805Y-11877698D02*
X14758329Y-11887222D01*
X14758329Y-11887222D02*
X14767853Y-11906269D01*
X14767853Y-11906269D02*
X14767853Y-11953888D01*
X14767853Y-11953888D02*
X14758329Y-11972936D01*
X14758329Y-11972936D02*
X14748805Y-11982460D01*
X14748805Y-11982460D02*
X14729758Y-11991984D01*
X14729758Y-11991984D02*
X14672615Y-11991984D01*
X14672615Y-11991984D02*
X14653567Y-11982460D01*
X14653567Y-11982460D02*
X14644043Y-11972936D01*
X14891662Y-11791984D02*
X14910710Y-11791984D01*
X14910710Y-11791984D02*
X14929758Y-11801508D01*
X14929758Y-11801508D02*
X14939282Y-11811031D01*
X14939282Y-11811031D02*
X14948805Y-11830079D01*
X14948805Y-11830079D02*
X14958329Y-11868174D01*
X14958329Y-11868174D02*
X14958329Y-11915793D01*
X14958329Y-11915793D02*
X14948805Y-11953888D01*
X14948805Y-11953888D02*
X14939282Y-11972936D01*
X14939282Y-11972936D02*
X14929758Y-11982460D01*
X14929758Y-11982460D02*
X14910710Y-11991984D01*
X14910710Y-11991984D02*
X14891662Y-11991984D01*
X14891662Y-11991984D02*
X14872615Y-11982460D01*
X14872615Y-11982460D02*
X14863091Y-11972936D01*
X14863091Y-11972936D02*
X14853567Y-11953888D01*
X14853567Y-11953888D02*
X14844043Y-11915793D01*
X14844043Y-11915793D02*
X14844043Y-11868174D01*
X14844043Y-11868174D02*
X14853567Y-11830079D01*
X14853567Y-11830079D02*
X14863091Y-11811031D01*
X14863091Y-11811031D02*
X14872615Y-11801508D01*
X14872615Y-11801508D02*
X14891662Y-11791984D01*
X15082139Y-11791984D02*
X15101186Y-11791984D01*
X15101186Y-11791984D02*
X15120234Y-11801508D01*
X15120234Y-11801508D02*
X15129758Y-11811031D01*
X15129758Y-11811031D02*
X15139282Y-11830079D01*
X15139282Y-11830079D02*
X15148805Y-11868174D01*
X15148805Y-11868174D02*
X15148805Y-11915793D01*
X15148805Y-11915793D02*
X15139282Y-11953888D01*
X15139282Y-11953888D02*
X15129758Y-11972936D01*
X15129758Y-11972936D02*
X15120234Y-11982460D01*
X15120234Y-11982460D02*
X15101186Y-11991984D01*
X15101186Y-11991984D02*
X15082139Y-11991984D01*
X15082139Y-11991984D02*
X15063091Y-11982460D01*
X15063091Y-11982460D02*
X15053567Y-11972936D01*
X15053567Y-11972936D02*
X15044043Y-11953888D01*
X15044043Y-11953888D02*
X15034520Y-11915793D01*
X15034520Y-11915793D02*
X15034520Y-11868174D01*
X15034520Y-11868174D02*
X15044043Y-11830079D01*
X15044043Y-11830079D02*
X15053567Y-11811031D01*
X15053567Y-11811031D02*
X15063091Y-11801508D01*
X15063091Y-11801508D02*
X15082139Y-11791984D01*
X15234520Y-11991984D02*
X15234520Y-11858650D01*
X15234520Y-11877698D02*
X15244043Y-11868174D01*
X15244043Y-11868174D02*
X15263091Y-11858650D01*
X15263091Y-11858650D02*
X15291663Y-11858650D01*
X15291663Y-11858650D02*
X15310710Y-11868174D01*
X15310710Y-11868174D02*
X15320234Y-11887222D01*
X15320234Y-11887222D02*
X15320234Y-11991984D01*
X15320234Y-11887222D02*
X15329758Y-11868174D01*
X15329758Y-11868174D02*
X15348805Y-11858650D01*
X15348805Y-11858650D02*
X15377377Y-11858650D01*
X15377377Y-11858650D02*
X15396424Y-11868174D01*
X15396424Y-11868174D02*
X15405948Y-11887222D01*
X15405948Y-11887222D02*
X15405948Y-11991984D01*
X15501186Y-11991984D02*
X15501186Y-11858650D01*
X15501186Y-11877698D02*
X15510710Y-11868174D01*
X15510710Y-11868174D02*
X15529758Y-11858650D01*
X15529758Y-11858650D02*
X15558329Y-11858650D01*
X15558329Y-11858650D02*
X15577377Y-11868174D01*
X15577377Y-11868174D02*
X15586901Y-11887222D01*
X15586901Y-11887222D02*
X15586901Y-11991984D01*
X15586901Y-11887222D02*
X15596424Y-11868174D01*
X15596424Y-11868174D02*
X15615472Y-11858650D01*
X15615472Y-11858650D02*
X15644043Y-11858650D01*
X15644043Y-11858650D02*
X15663091Y-11868174D01*
X15663091Y-11868174D02*
X15672615Y-11887222D01*
X15672615Y-11887222D02*
X15672615Y-11991984D01*
X16063091Y-11782460D02*
X15891663Y-12039603D01*
X16320234Y-11791984D02*
X16339282Y-11791984D01*
X16339282Y-11791984D02*
X16358329Y-11801508D01*
X16358329Y-11801508D02*
X16367853Y-11811031D01*
X16367853Y-11811031D02*
X16377377Y-11830079D01*
X16377377Y-11830079D02*
X16386901Y-11868174D01*
X16386901Y-11868174D02*
X16386901Y-11915793D01*
X16386901Y-11915793D02*
X16377377Y-11953888D01*
X16377377Y-11953888D02*
X16367853Y-11972936D01*
X16367853Y-11972936D02*
X16358329Y-11982460D01*
X16358329Y-11982460D02*
X16339282Y-11991984D01*
X16339282Y-11991984D02*
X16320234Y-11991984D01*
X16320234Y-11991984D02*
X16301186Y-11982460D01*
X16301186Y-11982460D02*
X16291663Y-11972936D01*
X16291663Y-11972936D02*
X16282139Y-11953888D01*
X16282139Y-11953888D02*
X16272615Y-11915793D01*
X16272615Y-11915793D02*
X16272615Y-11868174D01*
X16272615Y-11868174D02*
X16282139Y-11830079D01*
X16282139Y-11830079D02*
X16291663Y-11811031D01*
X16291663Y-11811031D02*
X16301186Y-11801508D01*
X16301186Y-11801508D02*
X16320234Y-11791984D01*
X16472615Y-11972936D02*
X16482139Y-11982460D01*
X16482139Y-11982460D02*
X16472615Y-11991984D01*
X16472615Y-11991984D02*
X16463091Y-11982460D01*
X16463091Y-11982460D02*
X16472615Y-11972936D01*
X16472615Y-11972936D02*
X16472615Y-11991984D01*
X16605948Y-11791984D02*
X16624996Y-11791984D01*
X16624996Y-11791984D02*
X16644044Y-11801508D01*
X16644044Y-11801508D02*
X16653567Y-11811031D01*
X16653567Y-11811031D02*
X16663091Y-11830079D01*
X16663091Y-11830079D02*
X16672615Y-11868174D01*
X16672615Y-11868174D02*
X16672615Y-11915793D01*
X16672615Y-11915793D02*
X16663091Y-11953888D01*
X16663091Y-11953888D02*
X16653567Y-11972936D01*
X16653567Y-11972936D02*
X16644044Y-11982460D01*
X16644044Y-11982460D02*
X16624996Y-11991984D01*
X16624996Y-11991984D02*
X16605948Y-11991984D01*
X16605948Y-11991984D02*
X16586901Y-11982460D01*
X16586901Y-11982460D02*
X16577377Y-11972936D01*
X16577377Y-11972936D02*
X16567853Y-11953888D01*
X16567853Y-11953888D02*
X16558329Y-11915793D01*
X16558329Y-11915793D02*
X16558329Y-11868174D01*
X16558329Y-11868174D02*
X16567853Y-11830079D01*
X16567853Y-11830079D02*
X16577377Y-11811031D01*
X16577377Y-11811031D02*
X16586901Y-11801508D01*
X16586901Y-11801508D02*
X16605948Y-11791984D01*
X16863091Y-11991984D02*
X16748806Y-11991984D01*
X16805948Y-11991984D02*
X16805948Y-11791984D01*
X16805948Y-11791984D02*
X16786901Y-11820555D01*
X16786901Y-11820555D02*
X16767853Y-11839603D01*
X16767853Y-11839603D02*
X16748806Y-11849127D01*
X17053568Y-11991984D02*
X16939282Y-11991984D01*
X16996425Y-11991984D02*
X16996425Y-11791984D01*
X16996425Y-11791984D02*
X16977377Y-11820555D01*
X16977377Y-11820555D02*
X16958329Y-11839603D01*
X16958329Y-11839603D02*
X16939282Y-11849127D01*
X17167853Y-11877698D02*
X17148806Y-11868174D01*
X17148806Y-11868174D02*
X17139282Y-11858650D01*
X17139282Y-11858650D02*
X17129758Y-11839603D01*
X17129758Y-11839603D02*
X17129758Y-11830079D01*
X17129758Y-11830079D02*
X17139282Y-11811031D01*
X17139282Y-11811031D02*
X17148806Y-11801508D01*
X17148806Y-11801508D02*
X17167853Y-11791984D01*
X17167853Y-11791984D02*
X17205949Y-11791984D01*
X17205949Y-11791984D02*
X17224996Y-11801508D01*
X17224996Y-11801508D02*
X17234520Y-11811031D01*
X17234520Y-11811031D02*
X17244044Y-11830079D01*
X17244044Y-11830079D02*
X17244044Y-11839603D01*
X17244044Y-11839603D02*
X17234520Y-11858650D01*
X17234520Y-11858650D02*
X17224996Y-11868174D01*
X17224996Y-11868174D02*
X17205949Y-11877698D01*
X17205949Y-11877698D02*
X17167853Y-11877698D01*
X17167853Y-11877698D02*
X17148806Y-11887222D01*
X17148806Y-11887222D02*
X17139282Y-11896746D01*
X17139282Y-11896746D02*
X17129758Y-11915793D01*
X17129758Y-11915793D02*
X17129758Y-11953888D01*
X17129758Y-11953888D02*
X17139282Y-11972936D01*
X17139282Y-11972936D02*
X17148806Y-11982460D01*
X17148806Y-11982460D02*
X17167853Y-11991984D01*
X17167853Y-11991984D02*
X17205949Y-11991984D01*
X17205949Y-11991984D02*
X17224996Y-11982460D01*
X17224996Y-11982460D02*
X17234520Y-11972936D01*
X17234520Y-11972936D02*
X17244044Y-11953888D01*
X17244044Y-11953888D02*
X17244044Y-11915793D01*
X17244044Y-11915793D02*
X17234520Y-11896746D01*
X17234520Y-11896746D02*
X17224996Y-11887222D01*
X17224996Y-11887222D02*
X17205949Y-11877698D01*
X17320234Y-11791984D02*
X17320234Y-11830079D01*
X17396425Y-11791984D02*
X17396425Y-11830079D01*
X17691663Y-12068174D02*
X17682139Y-12058650D01*
X17682139Y-12058650D02*
X17663091Y-12030079D01*
X17663091Y-12030079D02*
X17653568Y-12011031D01*
X17653568Y-12011031D02*
X17644044Y-11982460D01*
X17644044Y-11982460D02*
X17634520Y-11934841D01*
X17634520Y-11934841D02*
X17634520Y-11896746D01*
X17634520Y-11896746D02*
X17644044Y-11849127D01*
X17644044Y-11849127D02*
X17653568Y-11820555D01*
X17653568Y-11820555D02*
X17663091Y-11801508D01*
X17663091Y-11801508D02*
X17682139Y-11772936D01*
X17682139Y-11772936D02*
X17691663Y-11763412D01*
X17872615Y-11991984D02*
X17758330Y-11991984D01*
X17815472Y-11991984D02*
X17815472Y-11791984D01*
X17815472Y-11791984D02*
X17796425Y-11820555D01*
X17796425Y-11820555D02*
X17777377Y-11839603D01*
X17777377Y-11839603D02*
X17758330Y-11849127D01*
X18044044Y-11858650D02*
X18044044Y-11991984D01*
X17996425Y-11782460D02*
X17948806Y-11925317D01*
X17948806Y-11925317D02*
X18072615Y-11925317D01*
X18186901Y-11791984D02*
X18205949Y-11791984D01*
X18205949Y-11791984D02*
X18224996Y-11801508D01*
X18224996Y-11801508D02*
X18234520Y-11811031D01*
X18234520Y-11811031D02*
X18244044Y-11830079D01*
X18244044Y-11830079D02*
X18253568Y-11868174D01*
X18253568Y-11868174D02*
X18253568Y-11915793D01*
X18253568Y-11915793D02*
X18244044Y-11953888D01*
X18244044Y-11953888D02*
X18234520Y-11972936D01*
X18234520Y-11972936D02*
X18224996Y-11982460D01*
X18224996Y-11982460D02*
X18205949Y-11991984D01*
X18205949Y-11991984D02*
X18186901Y-11991984D01*
X18186901Y-11991984D02*
X18167853Y-11982460D01*
X18167853Y-11982460D02*
X18158330Y-11972936D01*
X18158330Y-11972936D02*
X18148806Y-11953888D01*
X18148806Y-11953888D02*
X18139282Y-11915793D01*
X18139282Y-11915793D02*
X18139282Y-11868174D01*
X18139282Y-11868174D02*
X18148806Y-11830079D01*
X18148806Y-11830079D02*
X18158330Y-11811031D01*
X18158330Y-11811031D02*
X18167853Y-11801508D01*
X18167853Y-11801508D02*
X18186901Y-11791984D01*
X18491663Y-11991984D02*
X18491663Y-11791984D01*
X18577377Y-11991984D02*
X18577377Y-11887222D01*
X18577377Y-11887222D02*
X18567853Y-11868174D01*
X18567853Y-11868174D02*
X18548806Y-11858650D01*
X18548806Y-11858650D02*
X18520234Y-11858650D01*
X18520234Y-11858650D02*
X18501187Y-11868174D01*
X18501187Y-11868174D02*
X18491663Y-11877698D01*
X18701187Y-11991984D02*
X18682139Y-11982460D01*
X18682139Y-11982460D02*
X18672615Y-11972936D01*
X18672615Y-11972936D02*
X18663092Y-11953888D01*
X18663092Y-11953888D02*
X18663092Y-11896746D01*
X18663092Y-11896746D02*
X18672615Y-11877698D01*
X18672615Y-11877698D02*
X18682139Y-11868174D01*
X18682139Y-11868174D02*
X18701187Y-11858650D01*
X18701187Y-11858650D02*
X18729758Y-11858650D01*
X18729758Y-11858650D02*
X18748806Y-11868174D01*
X18748806Y-11868174D02*
X18758330Y-11877698D01*
X18758330Y-11877698D02*
X18767853Y-11896746D01*
X18767853Y-11896746D02*
X18767853Y-11953888D01*
X18767853Y-11953888D02*
X18758330Y-11972936D01*
X18758330Y-11972936D02*
X18748806Y-11982460D01*
X18748806Y-11982460D02*
X18729758Y-11991984D01*
X18729758Y-11991984D02*
X18701187Y-11991984D01*
X18882139Y-11991984D02*
X18863092Y-11982460D01*
X18863092Y-11982460D02*
X18853568Y-11963412D01*
X18853568Y-11963412D02*
X18853568Y-11791984D01*
X19034520Y-11982460D02*
X19015473Y-11991984D01*
X19015473Y-11991984D02*
X18977377Y-11991984D01*
X18977377Y-11991984D02*
X18958330Y-11982460D01*
X18958330Y-11982460D02*
X18948806Y-11963412D01*
X18948806Y-11963412D02*
X18948806Y-11887222D01*
X18948806Y-11887222D02*
X18958330Y-11868174D01*
X18958330Y-11868174D02*
X18977377Y-11858650D01*
X18977377Y-11858650D02*
X19015473Y-11858650D01*
X19015473Y-11858650D02*
X19034520Y-11868174D01*
X19034520Y-11868174D02*
X19044044Y-11887222D01*
X19044044Y-11887222D02*
X19044044Y-11906269D01*
X19044044Y-11906269D02*
X18948806Y-11925317D01*
X19120234Y-11982460D02*
X19139282Y-11991984D01*
X19139282Y-11991984D02*
X19177377Y-11991984D01*
X19177377Y-11991984D02*
X19196425Y-11982460D01*
X19196425Y-11982460D02*
X19205949Y-11963412D01*
X19205949Y-11963412D02*
X19205949Y-11953888D01*
X19205949Y-11953888D02*
X19196425Y-11934841D01*
X19196425Y-11934841D02*
X19177377Y-11925317D01*
X19177377Y-11925317D02*
X19148806Y-11925317D01*
X19148806Y-11925317D02*
X19129758Y-11915793D01*
X19129758Y-11915793D02*
X19120234Y-11896746D01*
X19120234Y-11896746D02*
X19120234Y-11887222D01*
X19120234Y-11887222D02*
X19129758Y-11868174D01*
X19129758Y-11868174D02*
X19148806Y-11858650D01*
X19148806Y-11858650D02*
X19177377Y-11858650D01*
X19177377Y-11858650D02*
X19196425Y-11868174D01*
X19272615Y-12068174D02*
X19282139Y-12058650D01*
X19282139Y-12058650D02*
X19301187Y-12030079D01*
X19301187Y-12030079D02*
X19310711Y-12011031D01*
X19310711Y-12011031D02*
X19320234Y-11982460D01*
X19320234Y-11982460D02*
X19329758Y-11934841D01*
X19329758Y-11934841D02*
X19329758Y-11896746D01*
X19329758Y-11896746D02*
X19320234Y-11849127D01*
X19320234Y-11849127D02*
X19310711Y-11820555D01*
X19310711Y-11820555D02*
X19301187Y-11801508D01*
X19301187Y-11801508D02*
X19282139Y-11772936D01*
X19282139Y-11772936D02*
X19272615Y-11763412D01*
D12*
X14116600Y-12164500D02*
G75*
G02*
X14016600Y-12164500I-50000J0D01*
G01*
X14016600Y-12164500D02*
G75*
G02*
X14116600Y-12164500I50000J0D01*
G01*
D11*
X14482139Y-12255984D02*
X14367853Y-12255984D01*
X14424996Y-12255984D02*
X14424996Y-12055984D01*
X14424996Y-12055984D02*
X14405948Y-12084555D01*
X14405948Y-12084555D02*
X14386901Y-12103603D01*
X14386901Y-12103603D02*
X14367853Y-12113127D01*
X14567853Y-12236936D02*
X14577377Y-12246460D01*
X14577377Y-12246460D02*
X14567853Y-12255984D01*
X14567853Y-12255984D02*
X14558329Y-12246460D01*
X14558329Y-12246460D02*
X14567853Y-12236936D01*
X14567853Y-12236936D02*
X14567853Y-12255984D01*
X14701186Y-12055984D02*
X14720234Y-12055984D01*
X14720234Y-12055984D02*
X14739282Y-12065508D01*
X14739282Y-12065508D02*
X14748805Y-12075031D01*
X14748805Y-12075031D02*
X14758329Y-12094079D01*
X14758329Y-12094079D02*
X14767853Y-12132174D01*
X14767853Y-12132174D02*
X14767853Y-12179793D01*
X14767853Y-12179793D02*
X14758329Y-12217888D01*
X14758329Y-12217888D02*
X14748805Y-12236936D01*
X14748805Y-12236936D02*
X14739282Y-12246460D01*
X14739282Y-12246460D02*
X14720234Y-12255984D01*
X14720234Y-12255984D02*
X14701186Y-12255984D01*
X14701186Y-12255984D02*
X14682139Y-12246460D01*
X14682139Y-12246460D02*
X14672615Y-12236936D01*
X14672615Y-12236936D02*
X14663091Y-12217888D01*
X14663091Y-12217888D02*
X14653567Y-12179793D01*
X14653567Y-12179793D02*
X14653567Y-12132174D01*
X14653567Y-12132174D02*
X14663091Y-12094079D01*
X14663091Y-12094079D02*
X14672615Y-12075031D01*
X14672615Y-12075031D02*
X14682139Y-12065508D01*
X14682139Y-12065508D02*
X14701186Y-12055984D01*
X14891662Y-12055984D02*
X14910710Y-12055984D01*
X14910710Y-12055984D02*
X14929758Y-12065508D01*
X14929758Y-12065508D02*
X14939282Y-12075031D01*
X14939282Y-12075031D02*
X14948805Y-12094079D01*
X14948805Y-12094079D02*
X14958329Y-12132174D01*
X14958329Y-12132174D02*
X14958329Y-12179793D01*
X14958329Y-12179793D02*
X14948805Y-12217888D01*
X14948805Y-12217888D02*
X14939282Y-12236936D01*
X14939282Y-12236936D02*
X14929758Y-12246460D01*
X14929758Y-12246460D02*
X14910710Y-12255984D01*
X14910710Y-12255984D02*
X14891662Y-12255984D01*
X14891662Y-12255984D02*
X14872615Y-12246460D01*
X14872615Y-12246460D02*
X14863091Y-12236936D01*
X14863091Y-12236936D02*
X14853567Y-12217888D01*
X14853567Y-12217888D02*
X14844043Y-12179793D01*
X14844043Y-12179793D02*
X14844043Y-12132174D01*
X14844043Y-12132174D02*
X14853567Y-12094079D01*
X14853567Y-12094079D02*
X14863091Y-12075031D01*
X14863091Y-12075031D02*
X14872615Y-12065508D01*
X14872615Y-12065508D02*
X14891662Y-12055984D01*
X15082139Y-12055984D02*
X15101186Y-12055984D01*
X15101186Y-12055984D02*
X15120234Y-12065508D01*
X15120234Y-12065508D02*
X15129758Y-12075031D01*
X15129758Y-12075031D02*
X15139282Y-12094079D01*
X15139282Y-12094079D02*
X15148805Y-12132174D01*
X15148805Y-12132174D02*
X15148805Y-12179793D01*
X15148805Y-12179793D02*
X15139282Y-12217888D01*
X15139282Y-12217888D02*
X15129758Y-12236936D01*
X15129758Y-12236936D02*
X15120234Y-12246460D01*
X15120234Y-12246460D02*
X15101186Y-12255984D01*
X15101186Y-12255984D02*
X15082139Y-12255984D01*
X15082139Y-12255984D02*
X15063091Y-12246460D01*
X15063091Y-12246460D02*
X15053567Y-12236936D01*
X15053567Y-12236936D02*
X15044043Y-12217888D01*
X15044043Y-12217888D02*
X15034520Y-12179793D01*
X15034520Y-12179793D02*
X15034520Y-12132174D01*
X15034520Y-12132174D02*
X15044043Y-12094079D01*
X15044043Y-12094079D02*
X15053567Y-12075031D01*
X15053567Y-12075031D02*
X15063091Y-12065508D01*
X15063091Y-12065508D02*
X15082139Y-12055984D01*
X15234520Y-12255984D02*
X15234520Y-12122650D01*
X15234520Y-12141698D02*
X15244043Y-12132174D01*
X15244043Y-12132174D02*
X15263091Y-12122650D01*
X15263091Y-12122650D02*
X15291663Y-12122650D01*
X15291663Y-12122650D02*
X15310710Y-12132174D01*
X15310710Y-12132174D02*
X15320234Y-12151222D01*
X15320234Y-12151222D02*
X15320234Y-12255984D01*
X15320234Y-12151222D02*
X15329758Y-12132174D01*
X15329758Y-12132174D02*
X15348805Y-12122650D01*
X15348805Y-12122650D02*
X15377377Y-12122650D01*
X15377377Y-12122650D02*
X15396424Y-12132174D01*
X15396424Y-12132174D02*
X15405948Y-12151222D01*
X15405948Y-12151222D02*
X15405948Y-12255984D01*
X15501186Y-12255984D02*
X15501186Y-12122650D01*
X15501186Y-12141698D02*
X15510710Y-12132174D01*
X15510710Y-12132174D02*
X15529758Y-12122650D01*
X15529758Y-12122650D02*
X15558329Y-12122650D01*
X15558329Y-12122650D02*
X15577377Y-12132174D01*
X15577377Y-12132174D02*
X15586901Y-12151222D01*
X15586901Y-12151222D02*
X15586901Y-12255984D01*
X15586901Y-12151222D02*
X15596424Y-12132174D01*
X15596424Y-12132174D02*
X15615472Y-12122650D01*
X15615472Y-12122650D02*
X15644043Y-12122650D01*
X15644043Y-12122650D02*
X15663091Y-12132174D01*
X15663091Y-12132174D02*
X15672615Y-12151222D01*
X15672615Y-12151222D02*
X15672615Y-12255984D01*
X16063091Y-12046460D02*
X15891663Y-12303603D01*
X16320234Y-12055984D02*
X16339282Y-12055984D01*
X16339282Y-12055984D02*
X16358329Y-12065508D01*
X16358329Y-12065508D02*
X16367853Y-12075031D01*
X16367853Y-12075031D02*
X16377377Y-12094079D01*
X16377377Y-12094079D02*
X16386901Y-12132174D01*
X16386901Y-12132174D02*
X16386901Y-12179793D01*
X16386901Y-12179793D02*
X16377377Y-12217888D01*
X16377377Y-12217888D02*
X16367853Y-12236936D01*
X16367853Y-12236936D02*
X16358329Y-12246460D01*
X16358329Y-12246460D02*
X16339282Y-12255984D01*
X16339282Y-12255984D02*
X16320234Y-12255984D01*
X16320234Y-12255984D02*
X16301186Y-12246460D01*
X16301186Y-12246460D02*
X16291663Y-12236936D01*
X16291663Y-12236936D02*
X16282139Y-12217888D01*
X16282139Y-12217888D02*
X16272615Y-12179793D01*
X16272615Y-12179793D02*
X16272615Y-12132174D01*
X16272615Y-12132174D02*
X16282139Y-12094079D01*
X16282139Y-12094079D02*
X16291663Y-12075031D01*
X16291663Y-12075031D02*
X16301186Y-12065508D01*
X16301186Y-12065508D02*
X16320234Y-12055984D01*
X16472615Y-12236936D02*
X16482139Y-12246460D01*
X16482139Y-12246460D02*
X16472615Y-12255984D01*
X16472615Y-12255984D02*
X16463091Y-12246460D01*
X16463091Y-12246460D02*
X16472615Y-12236936D01*
X16472615Y-12236936D02*
X16472615Y-12255984D01*
X16605948Y-12055984D02*
X16624996Y-12055984D01*
X16624996Y-12055984D02*
X16644044Y-12065508D01*
X16644044Y-12065508D02*
X16653567Y-12075031D01*
X16653567Y-12075031D02*
X16663091Y-12094079D01*
X16663091Y-12094079D02*
X16672615Y-12132174D01*
X16672615Y-12132174D02*
X16672615Y-12179793D01*
X16672615Y-12179793D02*
X16663091Y-12217888D01*
X16663091Y-12217888D02*
X16653567Y-12236936D01*
X16653567Y-12236936D02*
X16644044Y-12246460D01*
X16644044Y-12246460D02*
X16624996Y-12255984D01*
X16624996Y-12255984D02*
X16605948Y-12255984D01*
X16605948Y-12255984D02*
X16586901Y-12246460D01*
X16586901Y-12246460D02*
X16577377Y-12236936D01*
X16577377Y-12236936D02*
X16567853Y-12217888D01*
X16567853Y-12217888D02*
X16558329Y-12179793D01*
X16558329Y-12179793D02*
X16558329Y-12132174D01*
X16558329Y-12132174D02*
X16567853Y-12094079D01*
X16567853Y-12094079D02*
X16577377Y-12075031D01*
X16577377Y-12075031D02*
X16586901Y-12065508D01*
X16586901Y-12065508D02*
X16605948Y-12055984D01*
X16739282Y-12055984D02*
X16863091Y-12055984D01*
X16863091Y-12055984D02*
X16796425Y-12132174D01*
X16796425Y-12132174D02*
X16824996Y-12132174D01*
X16824996Y-12132174D02*
X16844044Y-12141698D01*
X16844044Y-12141698D02*
X16853568Y-12151222D01*
X16853568Y-12151222D02*
X16863091Y-12170269D01*
X16863091Y-12170269D02*
X16863091Y-12217888D01*
X16863091Y-12217888D02*
X16853568Y-12236936D01*
X16853568Y-12236936D02*
X16844044Y-12246460D01*
X16844044Y-12246460D02*
X16824996Y-12255984D01*
X16824996Y-12255984D02*
X16767853Y-12255984D01*
X16767853Y-12255984D02*
X16748806Y-12246460D01*
X16748806Y-12246460D02*
X16739282Y-12236936D01*
X16958329Y-12255984D02*
X16996425Y-12255984D01*
X16996425Y-12255984D02*
X17015472Y-12246460D01*
X17015472Y-12246460D02*
X17024996Y-12236936D01*
X17024996Y-12236936D02*
X17044044Y-12208365D01*
X17044044Y-12208365D02*
X17053568Y-12170269D01*
X17053568Y-12170269D02*
X17053568Y-12094079D01*
X17053568Y-12094079D02*
X17044044Y-12075031D01*
X17044044Y-12075031D02*
X17034520Y-12065508D01*
X17034520Y-12065508D02*
X17015472Y-12055984D01*
X17015472Y-12055984D02*
X16977377Y-12055984D01*
X16977377Y-12055984D02*
X16958329Y-12065508D01*
X16958329Y-12065508D02*
X16948806Y-12075031D01*
X16948806Y-12075031D02*
X16939282Y-12094079D01*
X16939282Y-12094079D02*
X16939282Y-12141698D01*
X16939282Y-12141698D02*
X16948806Y-12160746D01*
X16948806Y-12160746D02*
X16958329Y-12170269D01*
X16958329Y-12170269D02*
X16977377Y-12179793D01*
X16977377Y-12179793D02*
X17015472Y-12179793D01*
X17015472Y-12179793D02*
X17034520Y-12170269D01*
X17034520Y-12170269D02*
X17044044Y-12160746D01*
X17044044Y-12160746D02*
X17053568Y-12141698D01*
X17224996Y-12122650D02*
X17224996Y-12255984D01*
X17177377Y-12046460D02*
X17129758Y-12189317D01*
X17129758Y-12189317D02*
X17253568Y-12189317D01*
X17320234Y-12055984D02*
X17320234Y-12094079D01*
X17396425Y-12055984D02*
X17396425Y-12094079D01*
X17691663Y-12332174D02*
X17682139Y-12322650D01*
X17682139Y-12322650D02*
X17663091Y-12294079D01*
X17663091Y-12294079D02*
X17653568Y-12275031D01*
X17653568Y-12275031D02*
X17644044Y-12246460D01*
X17644044Y-12246460D02*
X17634520Y-12198841D01*
X17634520Y-12198841D02*
X17634520Y-12160746D01*
X17634520Y-12160746D02*
X17644044Y-12113127D01*
X17644044Y-12113127D02*
X17653568Y-12084555D01*
X17653568Y-12084555D02*
X17663091Y-12065508D01*
X17663091Y-12065508D02*
X17682139Y-12036936D01*
X17682139Y-12036936D02*
X17691663Y-12027412D01*
X17872615Y-12255984D02*
X17758330Y-12255984D01*
X17815472Y-12255984D02*
X17815472Y-12055984D01*
X17815472Y-12055984D02*
X17796425Y-12084555D01*
X17796425Y-12084555D02*
X17777377Y-12103603D01*
X17777377Y-12103603D02*
X17758330Y-12113127D01*
X18044044Y-12055984D02*
X18005949Y-12055984D01*
X18005949Y-12055984D02*
X17986901Y-12065508D01*
X17986901Y-12065508D02*
X17977377Y-12075031D01*
X17977377Y-12075031D02*
X17958330Y-12103603D01*
X17958330Y-12103603D02*
X17948806Y-12141698D01*
X17948806Y-12141698D02*
X17948806Y-12217888D01*
X17948806Y-12217888D02*
X17958330Y-12236936D01*
X17958330Y-12236936D02*
X17967853Y-12246460D01*
X17967853Y-12246460D02*
X17986901Y-12255984D01*
X17986901Y-12255984D02*
X18024996Y-12255984D01*
X18024996Y-12255984D02*
X18044044Y-12246460D01*
X18044044Y-12246460D02*
X18053568Y-12236936D01*
X18053568Y-12236936D02*
X18063091Y-12217888D01*
X18063091Y-12217888D02*
X18063091Y-12170269D01*
X18063091Y-12170269D02*
X18053568Y-12151222D01*
X18053568Y-12151222D02*
X18044044Y-12141698D01*
X18044044Y-12141698D02*
X18024996Y-12132174D01*
X18024996Y-12132174D02*
X17986901Y-12132174D01*
X17986901Y-12132174D02*
X17967853Y-12141698D01*
X17967853Y-12141698D02*
X17958330Y-12151222D01*
X17958330Y-12151222D02*
X17948806Y-12170269D01*
X18301187Y-12255984D02*
X18301187Y-12055984D01*
X18386901Y-12255984D02*
X18386901Y-12151222D01*
X18386901Y-12151222D02*
X18377377Y-12132174D01*
X18377377Y-12132174D02*
X18358330Y-12122650D01*
X18358330Y-12122650D02*
X18329758Y-12122650D01*
X18329758Y-12122650D02*
X18310711Y-12132174D01*
X18310711Y-12132174D02*
X18301187Y-12141698D01*
X18510711Y-12255984D02*
X18491663Y-12246460D01*
X18491663Y-12246460D02*
X18482139Y-12236936D01*
X18482139Y-12236936D02*
X18472615Y-12217888D01*
X18472615Y-12217888D02*
X18472615Y-12160746D01*
X18472615Y-12160746D02*
X18482139Y-12141698D01*
X18482139Y-12141698D02*
X18491663Y-12132174D01*
X18491663Y-12132174D02*
X18510711Y-12122650D01*
X18510711Y-12122650D02*
X18539282Y-12122650D01*
X18539282Y-12122650D02*
X18558330Y-12132174D01*
X18558330Y-12132174D02*
X18567853Y-12141698D01*
X18567853Y-12141698D02*
X18577377Y-12160746D01*
X18577377Y-12160746D02*
X18577377Y-12217888D01*
X18577377Y-12217888D02*
X18567853Y-12236936D01*
X18567853Y-12236936D02*
X18558330Y-12246460D01*
X18558330Y-12246460D02*
X18539282Y-12255984D01*
X18539282Y-12255984D02*
X18510711Y-12255984D01*
X18691663Y-12255984D02*
X18672615Y-12246460D01*
X18672615Y-12246460D02*
X18663092Y-12227412D01*
X18663092Y-12227412D02*
X18663092Y-12055984D01*
X18844044Y-12246460D02*
X18824996Y-12255984D01*
X18824996Y-12255984D02*
X18786901Y-12255984D01*
X18786901Y-12255984D02*
X18767853Y-12246460D01*
X18767853Y-12246460D02*
X18758330Y-12227412D01*
X18758330Y-12227412D02*
X18758330Y-12151222D01*
X18758330Y-12151222D02*
X18767853Y-12132174D01*
X18767853Y-12132174D02*
X18786901Y-12122650D01*
X18786901Y-12122650D02*
X18824996Y-12122650D01*
X18824996Y-12122650D02*
X18844044Y-12132174D01*
X18844044Y-12132174D02*
X18853568Y-12151222D01*
X18853568Y-12151222D02*
X18853568Y-12170269D01*
X18853568Y-12170269D02*
X18758330Y-12189317D01*
X18929758Y-12246460D02*
X18948806Y-12255984D01*
X18948806Y-12255984D02*
X18986901Y-12255984D01*
X18986901Y-12255984D02*
X19005949Y-12246460D01*
X19005949Y-12246460D02*
X19015473Y-12227412D01*
X19015473Y-12227412D02*
X19015473Y-12217888D01*
X19015473Y-12217888D02*
X19005949Y-12198841D01*
X19005949Y-12198841D02*
X18986901Y-12189317D01*
X18986901Y-12189317D02*
X18958330Y-12189317D01*
X18958330Y-12189317D02*
X18939282Y-12179793D01*
X18939282Y-12179793D02*
X18929758Y-12160746D01*
X18929758Y-12160746D02*
X18929758Y-12151222D01*
X18929758Y-12151222D02*
X18939282Y-12132174D01*
X18939282Y-12132174D02*
X18958330Y-12122650D01*
X18958330Y-12122650D02*
X18986901Y-12122650D01*
X18986901Y-12122650D02*
X19005949Y-12132174D01*
X19082139Y-12332174D02*
X19091663Y-12322650D01*
X19091663Y-12322650D02*
X19110711Y-12294079D01*
X19110711Y-12294079D02*
X19120234Y-12275031D01*
X19120234Y-12275031D02*
X19129758Y-12246460D01*
X19129758Y-12246460D02*
X19139282Y-12198841D01*
X19139282Y-12198841D02*
X19139282Y-12160746D01*
X19139282Y-12160746D02*
X19129758Y-12113127D01*
X19129758Y-12113127D02*
X19120234Y-12084555D01*
X19120234Y-12084555D02*
X19110711Y-12065508D01*
X19110711Y-12065508D02*
X19091663Y-12036936D01*
X19091663Y-12036936D02*
X19082139Y-12027412D01*
D13*
X14065600Y-12377500D02*
X14065600Y-12479500D01*
X14014600Y-12428500D02*
X14116600Y-12428500D01*
D11*
X14482139Y-12519984D02*
X14367853Y-12519984D01*
X14424996Y-12519984D02*
X14424996Y-12319984D01*
X14424996Y-12319984D02*
X14405948Y-12348555D01*
X14405948Y-12348555D02*
X14386901Y-12367603D01*
X14386901Y-12367603D02*
X14367853Y-12377127D01*
X14567853Y-12500936D02*
X14577377Y-12510460D01*
X14577377Y-12510460D02*
X14567853Y-12519984D01*
X14567853Y-12519984D02*
X14558329Y-12510460D01*
X14558329Y-12510460D02*
X14567853Y-12500936D01*
X14567853Y-12500936D02*
X14567853Y-12519984D01*
X14701186Y-12319984D02*
X14720234Y-12319984D01*
X14720234Y-12319984D02*
X14739282Y-12329508D01*
X14739282Y-12329508D02*
X14748805Y-12339031D01*
X14748805Y-12339031D02*
X14758329Y-12358079D01*
X14758329Y-12358079D02*
X14767853Y-12396174D01*
X14767853Y-12396174D02*
X14767853Y-12443793D01*
X14767853Y-12443793D02*
X14758329Y-12481888D01*
X14758329Y-12481888D02*
X14748805Y-12500936D01*
X14748805Y-12500936D02*
X14739282Y-12510460D01*
X14739282Y-12510460D02*
X14720234Y-12519984D01*
X14720234Y-12519984D02*
X14701186Y-12519984D01*
X14701186Y-12519984D02*
X14682139Y-12510460D01*
X14682139Y-12510460D02*
X14672615Y-12500936D01*
X14672615Y-12500936D02*
X14663091Y-12481888D01*
X14663091Y-12481888D02*
X14653567Y-12443793D01*
X14653567Y-12443793D02*
X14653567Y-12396174D01*
X14653567Y-12396174D02*
X14663091Y-12358079D01*
X14663091Y-12358079D02*
X14672615Y-12339031D01*
X14672615Y-12339031D02*
X14682139Y-12329508D01*
X14682139Y-12329508D02*
X14701186Y-12319984D01*
X14844043Y-12339031D02*
X14853567Y-12329508D01*
X14853567Y-12329508D02*
X14872615Y-12319984D01*
X14872615Y-12319984D02*
X14920234Y-12319984D01*
X14920234Y-12319984D02*
X14939282Y-12329508D01*
X14939282Y-12329508D02*
X14948805Y-12339031D01*
X14948805Y-12339031D02*
X14958329Y-12358079D01*
X14958329Y-12358079D02*
X14958329Y-12377127D01*
X14958329Y-12377127D02*
X14948805Y-12405698D01*
X14948805Y-12405698D02*
X14834520Y-12519984D01*
X14834520Y-12519984D02*
X14958329Y-12519984D01*
X15082139Y-12319984D02*
X15101186Y-12319984D01*
X15101186Y-12319984D02*
X15120234Y-12329508D01*
X15120234Y-12329508D02*
X15129758Y-12339031D01*
X15129758Y-12339031D02*
X15139282Y-12358079D01*
X15139282Y-12358079D02*
X15148805Y-12396174D01*
X15148805Y-12396174D02*
X15148805Y-12443793D01*
X15148805Y-12443793D02*
X15139282Y-12481888D01*
X15139282Y-12481888D02*
X15129758Y-12500936D01*
X15129758Y-12500936D02*
X15120234Y-12510460D01*
X15120234Y-12510460D02*
X15101186Y-12519984D01*
X15101186Y-12519984D02*
X15082139Y-12519984D01*
X15082139Y-12519984D02*
X15063091Y-12510460D01*
X15063091Y-12510460D02*
X15053567Y-12500936D01*
X15053567Y-12500936D02*
X15044043Y-12481888D01*
X15044043Y-12481888D02*
X15034520Y-12443793D01*
X15034520Y-12443793D02*
X15034520Y-12396174D01*
X15034520Y-12396174D02*
X15044043Y-12358079D01*
X15044043Y-12358079D02*
X15053567Y-12339031D01*
X15053567Y-12339031D02*
X15063091Y-12329508D01*
X15063091Y-12329508D02*
X15082139Y-12319984D01*
X15234520Y-12519984D02*
X15234520Y-12386650D01*
X15234520Y-12405698D02*
X15244043Y-12396174D01*
X15244043Y-12396174D02*
X15263091Y-12386650D01*
X15263091Y-12386650D02*
X15291663Y-12386650D01*
X15291663Y-12386650D02*
X15310710Y-12396174D01*
X15310710Y-12396174D02*
X15320234Y-12415222D01*
X15320234Y-12415222D02*
X15320234Y-12519984D01*
X15320234Y-12415222D02*
X15329758Y-12396174D01*
X15329758Y-12396174D02*
X15348805Y-12386650D01*
X15348805Y-12386650D02*
X15377377Y-12386650D01*
X15377377Y-12386650D02*
X15396424Y-12396174D01*
X15396424Y-12396174D02*
X15405948Y-12415222D01*
X15405948Y-12415222D02*
X15405948Y-12519984D01*
X15501186Y-12519984D02*
X15501186Y-12386650D01*
X15501186Y-12405698D02*
X15510710Y-12396174D01*
X15510710Y-12396174D02*
X15529758Y-12386650D01*
X15529758Y-12386650D02*
X15558329Y-12386650D01*
X15558329Y-12386650D02*
X15577377Y-12396174D01*
X15577377Y-12396174D02*
X15586901Y-12415222D01*
X15586901Y-12415222D02*
X15586901Y-12519984D01*
X15586901Y-12415222D02*
X15596424Y-12396174D01*
X15596424Y-12396174D02*
X15615472Y-12386650D01*
X15615472Y-12386650D02*
X15644043Y-12386650D01*
X15644043Y-12386650D02*
X15663091Y-12396174D01*
X15663091Y-12396174D02*
X15672615Y-12415222D01*
X15672615Y-12415222D02*
X15672615Y-12519984D01*
X16063091Y-12310460D02*
X15891663Y-12567603D01*
X16320234Y-12319984D02*
X16339282Y-12319984D01*
X16339282Y-12319984D02*
X16358329Y-12329508D01*
X16358329Y-12329508D02*
X16367853Y-12339031D01*
X16367853Y-12339031D02*
X16377377Y-12358079D01*
X16377377Y-12358079D02*
X16386901Y-12396174D01*
X16386901Y-12396174D02*
X16386901Y-12443793D01*
X16386901Y-12443793D02*
X16377377Y-12481888D01*
X16377377Y-12481888D02*
X16367853Y-12500936D01*
X16367853Y-12500936D02*
X16358329Y-12510460D01*
X16358329Y-12510460D02*
X16339282Y-12519984D01*
X16339282Y-12519984D02*
X16320234Y-12519984D01*
X16320234Y-12519984D02*
X16301186Y-12510460D01*
X16301186Y-12510460D02*
X16291663Y-12500936D01*
X16291663Y-12500936D02*
X16282139Y-12481888D01*
X16282139Y-12481888D02*
X16272615Y-12443793D01*
X16272615Y-12443793D02*
X16272615Y-12396174D01*
X16272615Y-12396174D02*
X16282139Y-12358079D01*
X16282139Y-12358079D02*
X16291663Y-12339031D01*
X16291663Y-12339031D02*
X16301186Y-12329508D01*
X16301186Y-12329508D02*
X16320234Y-12319984D01*
X16472615Y-12500936D02*
X16482139Y-12510460D01*
X16482139Y-12510460D02*
X16472615Y-12519984D01*
X16472615Y-12519984D02*
X16463091Y-12510460D01*
X16463091Y-12510460D02*
X16472615Y-12500936D01*
X16472615Y-12500936D02*
X16472615Y-12519984D01*
X16605948Y-12319984D02*
X16624996Y-12319984D01*
X16624996Y-12319984D02*
X16644044Y-12329508D01*
X16644044Y-12329508D02*
X16653567Y-12339031D01*
X16653567Y-12339031D02*
X16663091Y-12358079D01*
X16663091Y-12358079D02*
X16672615Y-12396174D01*
X16672615Y-12396174D02*
X16672615Y-12443793D01*
X16672615Y-12443793D02*
X16663091Y-12481888D01*
X16663091Y-12481888D02*
X16653567Y-12500936D01*
X16653567Y-12500936D02*
X16644044Y-12510460D01*
X16644044Y-12510460D02*
X16624996Y-12519984D01*
X16624996Y-12519984D02*
X16605948Y-12519984D01*
X16605948Y-12519984D02*
X16586901Y-12510460D01*
X16586901Y-12510460D02*
X16577377Y-12500936D01*
X16577377Y-12500936D02*
X16567853Y-12481888D01*
X16567853Y-12481888D02*
X16558329Y-12443793D01*
X16558329Y-12443793D02*
X16558329Y-12396174D01*
X16558329Y-12396174D02*
X16567853Y-12358079D01*
X16567853Y-12358079D02*
X16577377Y-12339031D01*
X16577377Y-12339031D02*
X16586901Y-12329508D01*
X16586901Y-12329508D02*
X16605948Y-12319984D01*
X16844044Y-12386650D02*
X16844044Y-12519984D01*
X16796425Y-12310460D02*
X16748806Y-12453317D01*
X16748806Y-12453317D02*
X16872615Y-12453317D01*
X16986901Y-12319984D02*
X17005949Y-12319984D01*
X17005949Y-12319984D02*
X17024996Y-12329508D01*
X17024996Y-12329508D02*
X17034520Y-12339031D01*
X17034520Y-12339031D02*
X17044044Y-12358079D01*
X17044044Y-12358079D02*
X17053568Y-12396174D01*
X17053568Y-12396174D02*
X17053568Y-12443793D01*
X17053568Y-12443793D02*
X17044044Y-12481888D01*
X17044044Y-12481888D02*
X17034520Y-12500936D01*
X17034520Y-12500936D02*
X17024996Y-12510460D01*
X17024996Y-12510460D02*
X17005949Y-12519984D01*
X17005949Y-12519984D02*
X16986901Y-12519984D01*
X16986901Y-12519984D02*
X16967853Y-12510460D01*
X16967853Y-12510460D02*
X16958329Y-12500936D01*
X16958329Y-12500936D02*
X16948806Y-12481888D01*
X16948806Y-12481888D02*
X16939282Y-12443793D01*
X16939282Y-12443793D02*
X16939282Y-12396174D01*
X16939282Y-12396174D02*
X16948806Y-12358079D01*
X16948806Y-12358079D02*
X16958329Y-12339031D01*
X16958329Y-12339031D02*
X16967853Y-12329508D01*
X16967853Y-12329508D02*
X16986901Y-12319984D01*
X17129758Y-12339031D02*
X17139282Y-12329508D01*
X17139282Y-12329508D02*
X17158329Y-12319984D01*
X17158329Y-12319984D02*
X17205949Y-12319984D01*
X17205949Y-12319984D02*
X17224996Y-12329508D01*
X17224996Y-12329508D02*
X17234520Y-12339031D01*
X17234520Y-12339031D02*
X17244044Y-12358079D01*
X17244044Y-12358079D02*
X17244044Y-12377127D01*
X17244044Y-12377127D02*
X17234520Y-12405698D01*
X17234520Y-12405698D02*
X17120234Y-12519984D01*
X17120234Y-12519984D02*
X17244044Y-12519984D01*
X17320234Y-12319984D02*
X17320234Y-12358079D01*
X17396425Y-12319984D02*
X17396425Y-12358079D01*
X17691663Y-12596174D02*
X17682139Y-12586650D01*
X17682139Y-12586650D02*
X17663091Y-12558079D01*
X17663091Y-12558079D02*
X17653568Y-12539031D01*
X17653568Y-12539031D02*
X17644044Y-12510460D01*
X17644044Y-12510460D02*
X17634520Y-12462841D01*
X17634520Y-12462841D02*
X17634520Y-12424746D01*
X17634520Y-12424746D02*
X17644044Y-12377127D01*
X17644044Y-12377127D02*
X17653568Y-12348555D01*
X17653568Y-12348555D02*
X17663091Y-12329508D01*
X17663091Y-12329508D02*
X17682139Y-12300936D01*
X17682139Y-12300936D02*
X17691663Y-12291412D01*
X17872615Y-12519984D02*
X17758330Y-12519984D01*
X17815472Y-12519984D02*
X17815472Y-12319984D01*
X17815472Y-12319984D02*
X17796425Y-12348555D01*
X17796425Y-12348555D02*
X17777377Y-12367603D01*
X17777377Y-12367603D02*
X17758330Y-12377127D01*
X17986901Y-12405698D02*
X17967853Y-12396174D01*
X17967853Y-12396174D02*
X17958330Y-12386650D01*
X17958330Y-12386650D02*
X17948806Y-12367603D01*
X17948806Y-12367603D02*
X17948806Y-12358079D01*
X17948806Y-12358079D02*
X17958330Y-12339031D01*
X17958330Y-12339031D02*
X17967853Y-12329508D01*
X17967853Y-12329508D02*
X17986901Y-12319984D01*
X17986901Y-12319984D02*
X18024996Y-12319984D01*
X18024996Y-12319984D02*
X18044044Y-12329508D01*
X18044044Y-12329508D02*
X18053568Y-12339031D01*
X18053568Y-12339031D02*
X18063091Y-12358079D01*
X18063091Y-12358079D02*
X18063091Y-12367603D01*
X18063091Y-12367603D02*
X18053568Y-12386650D01*
X18053568Y-12386650D02*
X18044044Y-12396174D01*
X18044044Y-12396174D02*
X18024996Y-12405698D01*
X18024996Y-12405698D02*
X17986901Y-12405698D01*
X17986901Y-12405698D02*
X17967853Y-12415222D01*
X17967853Y-12415222D02*
X17958330Y-12424746D01*
X17958330Y-12424746D02*
X17948806Y-12443793D01*
X17948806Y-12443793D02*
X17948806Y-12481888D01*
X17948806Y-12481888D02*
X17958330Y-12500936D01*
X17958330Y-12500936D02*
X17967853Y-12510460D01*
X17967853Y-12510460D02*
X17986901Y-12519984D01*
X17986901Y-12519984D02*
X18024996Y-12519984D01*
X18024996Y-12519984D02*
X18044044Y-12510460D01*
X18044044Y-12510460D02*
X18053568Y-12500936D01*
X18053568Y-12500936D02*
X18063091Y-12481888D01*
X18063091Y-12481888D02*
X18063091Y-12443793D01*
X18063091Y-12443793D02*
X18053568Y-12424746D01*
X18053568Y-12424746D02*
X18044044Y-12415222D01*
X18044044Y-12415222D02*
X18024996Y-12405698D01*
X18301187Y-12519984D02*
X18301187Y-12319984D01*
X18386901Y-12519984D02*
X18386901Y-12415222D01*
X18386901Y-12415222D02*
X18377377Y-12396174D01*
X18377377Y-12396174D02*
X18358330Y-12386650D01*
X18358330Y-12386650D02*
X18329758Y-12386650D01*
X18329758Y-12386650D02*
X18310711Y-12396174D01*
X18310711Y-12396174D02*
X18301187Y-12405698D01*
X18510711Y-12519984D02*
X18491663Y-12510460D01*
X18491663Y-12510460D02*
X18482139Y-12500936D01*
X18482139Y-12500936D02*
X18472615Y-12481888D01*
X18472615Y-12481888D02*
X18472615Y-12424746D01*
X18472615Y-12424746D02*
X18482139Y-12405698D01*
X18482139Y-12405698D02*
X18491663Y-12396174D01*
X18491663Y-12396174D02*
X18510711Y-12386650D01*
X18510711Y-12386650D02*
X18539282Y-12386650D01*
X18539282Y-12386650D02*
X18558330Y-12396174D01*
X18558330Y-12396174D02*
X18567853Y-12405698D01*
X18567853Y-12405698D02*
X18577377Y-12424746D01*
X18577377Y-12424746D02*
X18577377Y-12481888D01*
X18577377Y-12481888D02*
X18567853Y-12500936D01*
X18567853Y-12500936D02*
X18558330Y-12510460D01*
X18558330Y-12510460D02*
X18539282Y-12519984D01*
X18539282Y-12519984D02*
X18510711Y-12519984D01*
X18691663Y-12519984D02*
X18672615Y-12510460D01*
X18672615Y-12510460D02*
X18663092Y-12491412D01*
X18663092Y-12491412D02*
X18663092Y-12319984D01*
X18844044Y-12510460D02*
X18824996Y-12519984D01*
X18824996Y-12519984D02*
X18786901Y-12519984D01*
X18786901Y-12519984D02*
X18767853Y-12510460D01*
X18767853Y-12510460D02*
X18758330Y-12491412D01*
X18758330Y-12491412D02*
X18758330Y-12415222D01*
X18758330Y-12415222D02*
X18767853Y-12396174D01*
X18767853Y-12396174D02*
X18786901Y-12386650D01*
X18786901Y-12386650D02*
X18824996Y-12386650D01*
X18824996Y-12386650D02*
X18844044Y-12396174D01*
X18844044Y-12396174D02*
X18853568Y-12415222D01*
X18853568Y-12415222D02*
X18853568Y-12434269D01*
X18853568Y-12434269D02*
X18758330Y-12453317D01*
X18929758Y-12510460D02*
X18948806Y-12519984D01*
X18948806Y-12519984D02*
X18986901Y-12519984D01*
X18986901Y-12519984D02*
X19005949Y-12510460D01*
X19005949Y-12510460D02*
X19015473Y-12491412D01*
X19015473Y-12491412D02*
X19015473Y-12481888D01*
X19015473Y-12481888D02*
X19005949Y-12462841D01*
X19005949Y-12462841D02*
X18986901Y-12453317D01*
X18986901Y-12453317D02*
X18958330Y-12453317D01*
X18958330Y-12453317D02*
X18939282Y-12443793D01*
X18939282Y-12443793D02*
X18929758Y-12424746D01*
X18929758Y-12424746D02*
X18929758Y-12415222D01*
X18929758Y-12415222D02*
X18939282Y-12396174D01*
X18939282Y-12396174D02*
X18958330Y-12386650D01*
X18958330Y-12386650D02*
X18986901Y-12386650D01*
X18986901Y-12386650D02*
X19005949Y-12396174D01*
X19082139Y-12596174D02*
X19091663Y-12586650D01*
X19091663Y-12586650D02*
X19110711Y-12558079D01*
X19110711Y-12558079D02*
X19120234Y-12539031D01*
X19120234Y-12539031D02*
X19129758Y-12510460D01*
X19129758Y-12510460D02*
X19139282Y-12462841D01*
X19139282Y-12462841D02*
X19139282Y-12424746D01*
X19139282Y-12424746D02*
X19129758Y-12377127D01*
X19129758Y-12377127D02*
X19120234Y-12348555D01*
X19120234Y-12348555D02*
X19110711Y-12329508D01*
X19110711Y-12329508D02*
X19091663Y-12300936D01*
X19091663Y-12300936D02*
X19082139Y-12291412D01*
D14*
X14097562Y-12738462D02*
X14097562Y-12646538D01*
X14005638Y-12646538D01*
X14005638Y-12738462D01*
X14097562Y-12738462D01*
D11*
X14482139Y-12783984D02*
X14367853Y-12783984D01*
X14424996Y-12783984D02*
X14424996Y-12583984D01*
X14424996Y-12583984D02*
X14405948Y-12612555D01*
X14405948Y-12612555D02*
X14386901Y-12631603D01*
X14386901Y-12631603D02*
X14367853Y-12641127D01*
X14567853Y-12764936D02*
X14577377Y-12774460D01*
X14577377Y-12774460D02*
X14567853Y-12783984D01*
X14567853Y-12783984D02*
X14558329Y-12774460D01*
X14558329Y-12774460D02*
X14567853Y-12764936D01*
X14567853Y-12764936D02*
X14567853Y-12783984D01*
X14644043Y-12583984D02*
X14767853Y-12583984D01*
X14767853Y-12583984D02*
X14701186Y-12660174D01*
X14701186Y-12660174D02*
X14729758Y-12660174D01*
X14729758Y-12660174D02*
X14748805Y-12669698D01*
X14748805Y-12669698D02*
X14758329Y-12679222D01*
X14758329Y-12679222D02*
X14767853Y-12698269D01*
X14767853Y-12698269D02*
X14767853Y-12745888D01*
X14767853Y-12745888D02*
X14758329Y-12764936D01*
X14758329Y-12764936D02*
X14748805Y-12774460D01*
X14748805Y-12774460D02*
X14729758Y-12783984D01*
X14729758Y-12783984D02*
X14672615Y-12783984D01*
X14672615Y-12783984D02*
X14653567Y-12774460D01*
X14653567Y-12774460D02*
X14644043Y-12764936D01*
X14891662Y-12583984D02*
X14910710Y-12583984D01*
X14910710Y-12583984D02*
X14929758Y-12593508D01*
X14929758Y-12593508D02*
X14939282Y-12603031D01*
X14939282Y-12603031D02*
X14948805Y-12622079D01*
X14948805Y-12622079D02*
X14958329Y-12660174D01*
X14958329Y-12660174D02*
X14958329Y-12707793D01*
X14958329Y-12707793D02*
X14948805Y-12745888D01*
X14948805Y-12745888D02*
X14939282Y-12764936D01*
X14939282Y-12764936D02*
X14929758Y-12774460D01*
X14929758Y-12774460D02*
X14910710Y-12783984D01*
X14910710Y-12783984D02*
X14891662Y-12783984D01*
X14891662Y-12783984D02*
X14872615Y-12774460D01*
X14872615Y-12774460D02*
X14863091Y-12764936D01*
X14863091Y-12764936D02*
X14853567Y-12745888D01*
X14853567Y-12745888D02*
X14844043Y-12707793D01*
X14844043Y-12707793D02*
X14844043Y-12660174D01*
X14844043Y-12660174D02*
X14853567Y-12622079D01*
X14853567Y-12622079D02*
X14863091Y-12603031D01*
X14863091Y-12603031D02*
X14872615Y-12593508D01*
X14872615Y-12593508D02*
X14891662Y-12583984D01*
X15082139Y-12583984D02*
X15101186Y-12583984D01*
X15101186Y-12583984D02*
X15120234Y-12593508D01*
X15120234Y-12593508D02*
X15129758Y-12603031D01*
X15129758Y-12603031D02*
X15139282Y-12622079D01*
X15139282Y-12622079D02*
X15148805Y-12660174D01*
X15148805Y-12660174D02*
X15148805Y-12707793D01*
X15148805Y-12707793D02*
X15139282Y-12745888D01*
X15139282Y-12745888D02*
X15129758Y-12764936D01*
X15129758Y-12764936D02*
X15120234Y-12774460D01*
X15120234Y-12774460D02*
X15101186Y-12783984D01*
X15101186Y-12783984D02*
X15082139Y-12783984D01*
X15082139Y-12783984D02*
X15063091Y-12774460D01*
X15063091Y-12774460D02*
X15053567Y-12764936D01*
X15053567Y-12764936D02*
X15044043Y-12745888D01*
X15044043Y-12745888D02*
X15034520Y-12707793D01*
X15034520Y-12707793D02*
X15034520Y-12660174D01*
X15034520Y-12660174D02*
X15044043Y-12622079D01*
X15044043Y-12622079D02*
X15053567Y-12603031D01*
X15053567Y-12603031D02*
X15063091Y-12593508D01*
X15063091Y-12593508D02*
X15082139Y-12583984D01*
X15234520Y-12783984D02*
X15234520Y-12650650D01*
X15234520Y-12669698D02*
X15244043Y-12660174D01*
X15244043Y-12660174D02*
X15263091Y-12650650D01*
X15263091Y-12650650D02*
X15291663Y-12650650D01*
X15291663Y-12650650D02*
X15310710Y-12660174D01*
X15310710Y-12660174D02*
X15320234Y-12679222D01*
X15320234Y-12679222D02*
X15320234Y-12783984D01*
X15320234Y-12679222D02*
X15329758Y-12660174D01*
X15329758Y-12660174D02*
X15348805Y-12650650D01*
X15348805Y-12650650D02*
X15377377Y-12650650D01*
X15377377Y-12650650D02*
X15396424Y-12660174D01*
X15396424Y-12660174D02*
X15405948Y-12679222D01*
X15405948Y-12679222D02*
X15405948Y-12783984D01*
X15501186Y-12783984D02*
X15501186Y-12650650D01*
X15501186Y-12669698D02*
X15510710Y-12660174D01*
X15510710Y-12660174D02*
X15529758Y-12650650D01*
X15529758Y-12650650D02*
X15558329Y-12650650D01*
X15558329Y-12650650D02*
X15577377Y-12660174D01*
X15577377Y-12660174D02*
X15586901Y-12679222D01*
X15586901Y-12679222D02*
X15586901Y-12783984D01*
X15586901Y-12679222D02*
X15596424Y-12660174D01*
X15596424Y-12660174D02*
X15615472Y-12650650D01*
X15615472Y-12650650D02*
X15644043Y-12650650D01*
X15644043Y-12650650D02*
X15663091Y-12660174D01*
X15663091Y-12660174D02*
X15672615Y-12679222D01*
X15672615Y-12679222D02*
X15672615Y-12783984D01*
X16063091Y-12574460D02*
X15891663Y-12831603D01*
X16320234Y-12583984D02*
X16339282Y-12583984D01*
X16339282Y-12583984D02*
X16358329Y-12593508D01*
X16358329Y-12593508D02*
X16367853Y-12603031D01*
X16367853Y-12603031D02*
X16377377Y-12622079D01*
X16377377Y-12622079D02*
X16386901Y-12660174D01*
X16386901Y-12660174D02*
X16386901Y-12707793D01*
X16386901Y-12707793D02*
X16377377Y-12745888D01*
X16377377Y-12745888D02*
X16367853Y-12764936D01*
X16367853Y-12764936D02*
X16358329Y-12774460D01*
X16358329Y-12774460D02*
X16339282Y-12783984D01*
X16339282Y-12783984D02*
X16320234Y-12783984D01*
X16320234Y-12783984D02*
X16301186Y-12774460D01*
X16301186Y-12774460D02*
X16291663Y-12764936D01*
X16291663Y-12764936D02*
X16282139Y-12745888D01*
X16282139Y-12745888D02*
X16272615Y-12707793D01*
X16272615Y-12707793D02*
X16272615Y-12660174D01*
X16272615Y-12660174D02*
X16282139Y-12622079D01*
X16282139Y-12622079D02*
X16291663Y-12603031D01*
X16291663Y-12603031D02*
X16301186Y-12593508D01*
X16301186Y-12593508D02*
X16320234Y-12583984D01*
X16472615Y-12764936D02*
X16482139Y-12774460D01*
X16482139Y-12774460D02*
X16472615Y-12783984D01*
X16472615Y-12783984D02*
X16463091Y-12774460D01*
X16463091Y-12774460D02*
X16472615Y-12764936D01*
X16472615Y-12764936D02*
X16472615Y-12783984D01*
X16605948Y-12583984D02*
X16624996Y-12583984D01*
X16624996Y-12583984D02*
X16644044Y-12593508D01*
X16644044Y-12593508D02*
X16653567Y-12603031D01*
X16653567Y-12603031D02*
X16663091Y-12622079D01*
X16663091Y-12622079D02*
X16672615Y-12660174D01*
X16672615Y-12660174D02*
X16672615Y-12707793D01*
X16672615Y-12707793D02*
X16663091Y-12745888D01*
X16663091Y-12745888D02*
X16653567Y-12764936D01*
X16653567Y-12764936D02*
X16644044Y-12774460D01*
X16644044Y-12774460D02*
X16624996Y-12783984D01*
X16624996Y-12783984D02*
X16605948Y-12783984D01*
X16605948Y-12783984D02*
X16586901Y-12774460D01*
X16586901Y-12774460D02*
X16577377Y-12764936D01*
X16577377Y-12764936D02*
X16567853Y-12745888D01*
X16567853Y-12745888D02*
X16558329Y-12707793D01*
X16558329Y-12707793D02*
X16558329Y-12660174D01*
X16558329Y-12660174D02*
X16567853Y-12622079D01*
X16567853Y-12622079D02*
X16577377Y-12603031D01*
X16577377Y-12603031D02*
X16586901Y-12593508D01*
X16586901Y-12593508D02*
X16605948Y-12583984D01*
X16853568Y-12583984D02*
X16758329Y-12583984D01*
X16758329Y-12583984D02*
X16748806Y-12679222D01*
X16748806Y-12679222D02*
X16758329Y-12669698D01*
X16758329Y-12669698D02*
X16777377Y-12660174D01*
X16777377Y-12660174D02*
X16824996Y-12660174D01*
X16824996Y-12660174D02*
X16844044Y-12669698D01*
X16844044Y-12669698D02*
X16853568Y-12679222D01*
X16853568Y-12679222D02*
X16863091Y-12698269D01*
X16863091Y-12698269D02*
X16863091Y-12745888D01*
X16863091Y-12745888D02*
X16853568Y-12764936D01*
X16853568Y-12764936D02*
X16844044Y-12774460D01*
X16844044Y-12774460D02*
X16824996Y-12783984D01*
X16824996Y-12783984D02*
X16777377Y-12783984D01*
X16777377Y-12783984D02*
X16758329Y-12774460D01*
X16758329Y-12774460D02*
X16748806Y-12764936D01*
X17053568Y-12783984D02*
X16939282Y-12783984D01*
X16996425Y-12783984D02*
X16996425Y-12583984D01*
X16996425Y-12583984D02*
X16977377Y-12612555D01*
X16977377Y-12612555D02*
X16958329Y-12631603D01*
X16958329Y-12631603D02*
X16939282Y-12641127D01*
X17129758Y-12603031D02*
X17139282Y-12593508D01*
X17139282Y-12593508D02*
X17158329Y-12583984D01*
X17158329Y-12583984D02*
X17205949Y-12583984D01*
X17205949Y-12583984D02*
X17224996Y-12593508D01*
X17224996Y-12593508D02*
X17234520Y-12603031D01*
X17234520Y-12603031D02*
X17244044Y-12622079D01*
X17244044Y-12622079D02*
X17244044Y-12641127D01*
X17244044Y-12641127D02*
X17234520Y-12669698D01*
X17234520Y-12669698D02*
X17120234Y-12783984D01*
X17120234Y-12783984D02*
X17244044Y-12783984D01*
X17320234Y-12583984D02*
X17320234Y-12622079D01*
X17396425Y-12583984D02*
X17396425Y-12622079D01*
X17691663Y-12860174D02*
X17682139Y-12850650D01*
X17682139Y-12850650D02*
X17663091Y-12822079D01*
X17663091Y-12822079D02*
X17653568Y-12803031D01*
X17653568Y-12803031D02*
X17644044Y-12774460D01*
X17644044Y-12774460D02*
X17634520Y-12726841D01*
X17634520Y-12726841D02*
X17634520Y-12688746D01*
X17634520Y-12688746D02*
X17644044Y-12641127D01*
X17644044Y-12641127D02*
X17653568Y-12612555D01*
X17653568Y-12612555D02*
X17663091Y-12593508D01*
X17663091Y-12593508D02*
X17682139Y-12564936D01*
X17682139Y-12564936D02*
X17691663Y-12555412D01*
X17758330Y-12603031D02*
X17767853Y-12593508D01*
X17767853Y-12593508D02*
X17786901Y-12583984D01*
X17786901Y-12583984D02*
X17834520Y-12583984D01*
X17834520Y-12583984D02*
X17853568Y-12593508D01*
X17853568Y-12593508D02*
X17863091Y-12603031D01*
X17863091Y-12603031D02*
X17872615Y-12622079D01*
X17872615Y-12622079D02*
X17872615Y-12641127D01*
X17872615Y-12641127D02*
X17863091Y-12669698D01*
X17863091Y-12669698D02*
X17748806Y-12783984D01*
X17748806Y-12783984D02*
X17872615Y-12783984D01*
X18110711Y-12783984D02*
X18110711Y-12583984D01*
X18196425Y-12783984D02*
X18196425Y-12679222D01*
X18196425Y-12679222D02*
X18186901Y-12660174D01*
X18186901Y-12660174D02*
X18167853Y-12650650D01*
X18167853Y-12650650D02*
X18139282Y-12650650D01*
X18139282Y-12650650D02*
X18120234Y-12660174D01*
X18120234Y-12660174D02*
X18110711Y-12669698D01*
X18320234Y-12783984D02*
X18301187Y-12774460D01*
X18301187Y-12774460D02*
X18291663Y-12764936D01*
X18291663Y-12764936D02*
X18282139Y-12745888D01*
X18282139Y-12745888D02*
X18282139Y-12688746D01*
X18282139Y-12688746D02*
X18291663Y-12669698D01*
X18291663Y-12669698D02*
X18301187Y-12660174D01*
X18301187Y-12660174D02*
X18320234Y-12650650D01*
X18320234Y-12650650D02*
X18348806Y-12650650D01*
X18348806Y-12650650D02*
X18367853Y-12660174D01*
X18367853Y-12660174D02*
X18377377Y-12669698D01*
X18377377Y-12669698D02*
X18386901Y-12688746D01*
X18386901Y-12688746D02*
X18386901Y-12745888D01*
X18386901Y-12745888D02*
X18377377Y-12764936D01*
X18377377Y-12764936D02*
X18367853Y-12774460D01*
X18367853Y-12774460D02*
X18348806Y-12783984D01*
X18348806Y-12783984D02*
X18320234Y-12783984D01*
X18501187Y-12783984D02*
X18482139Y-12774460D01*
X18482139Y-12774460D02*
X18472615Y-12755412D01*
X18472615Y-12755412D02*
X18472615Y-12583984D01*
X18653568Y-12774460D02*
X18634520Y-12783984D01*
X18634520Y-12783984D02*
X18596425Y-12783984D01*
X18596425Y-12783984D02*
X18577377Y-12774460D01*
X18577377Y-12774460D02*
X18567853Y-12755412D01*
X18567853Y-12755412D02*
X18567853Y-12679222D01*
X18567853Y-12679222D02*
X18577377Y-12660174D01*
X18577377Y-12660174D02*
X18596425Y-12650650D01*
X18596425Y-12650650D02*
X18634520Y-12650650D01*
X18634520Y-12650650D02*
X18653568Y-12660174D01*
X18653568Y-12660174D02*
X18663092Y-12679222D01*
X18663092Y-12679222D02*
X18663092Y-12698269D01*
X18663092Y-12698269D02*
X18567853Y-12717317D01*
X18739282Y-12774460D02*
X18758330Y-12783984D01*
X18758330Y-12783984D02*
X18796425Y-12783984D01*
X18796425Y-12783984D02*
X18815473Y-12774460D01*
X18815473Y-12774460D02*
X18824996Y-12755412D01*
X18824996Y-12755412D02*
X18824996Y-12745888D01*
X18824996Y-12745888D02*
X18815473Y-12726841D01*
X18815473Y-12726841D02*
X18796425Y-12717317D01*
X18796425Y-12717317D02*
X18767853Y-12717317D01*
X18767853Y-12717317D02*
X18748806Y-12707793D01*
X18748806Y-12707793D02*
X18739282Y-12688746D01*
X18739282Y-12688746D02*
X18739282Y-12679222D01*
X18739282Y-12679222D02*
X18748806Y-12660174D01*
X18748806Y-12660174D02*
X18767853Y-12650650D01*
X18767853Y-12650650D02*
X18796425Y-12650650D01*
X18796425Y-12650650D02*
X18815473Y-12660174D01*
X18891663Y-12860174D02*
X18901187Y-12850650D01*
X18901187Y-12850650D02*
X18920234Y-12822079D01*
X18920234Y-12822079D02*
X18929758Y-12803031D01*
X18929758Y-12803031D02*
X18939282Y-12774460D01*
X18939282Y-12774460D02*
X18948806Y-12726841D01*
X18948806Y-12726841D02*
X18948806Y-12688746D01*
X18948806Y-12688746D02*
X18939282Y-12641127D01*
X18939282Y-12641127D02*
X18929758Y-12612555D01*
X18929758Y-12612555D02*
X18920234Y-12593508D01*
X18920234Y-12593508D02*
X18901187Y-12564936D01*
X18901187Y-12564936D02*
X18891663Y-12555412D01*
M02*
