G04 #@! TF.GenerationSoftware,KiCad,Pcbnew,9.0.0*
G04 #@! TF.CreationDate,2025-04-06T11:42:04-04:00*
G04 #@! TF.ProjectId,combat-pcb,636f6d62-6174-42d7-9063-622e6b696361,rev?*
G04 #@! TF.SameCoordinates,Original*
G04 #@! TF.FileFunction,Copper,L1,Top*
G04 #@! TF.FilePolarity,Positive*
%FSLAX46Y46*%
G04 Gerber Fmt 4.6, Leading zero omitted, Abs format (unit mm)*
G04 Created by KiCad (PCBNEW 9.0.0) date 2025-04-06 11:42:04*
%MOMM*%
%LPD*%
G01*
G04 APERTURE LIST*
G04 Aperture macros list*
%AMRoundRect*
0 Rectangle with rounded corners*
0 $1 Rounding radius*
0 $2 $3 $4 $5 $6 $7 $8 $9 X,Y pos of 4 corners*
0 Add a 4 corners polygon primitive as box body*
4,1,4,$2,$3,$4,$5,$6,$7,$8,$9,$2,$3,0*
0 Add four circle primitives for the rounded corners*
1,1,$1+$1,$2,$3*
1,1,$1+$1,$4,$5*
1,1,$1+$1,$6,$7*
1,1,$1+$1,$8,$9*
0 Add four rect primitives between the rounded corners*
20,1,$1+$1,$2,$3,$4,$5,0*
20,1,$1+$1,$4,$5,$6,$7,0*
20,1,$1+$1,$6,$7,$8,$9,0*
20,1,$1+$1,$8,$9,$2,$3,0*%
%AMFreePoly0*
4,1,23,0.500000,-0.750000,0.000000,-0.750000,0.000000,-0.745722,-0.065263,-0.745722,-0.191342,-0.711940,-0.304381,-0.646677,-0.396677,-0.554381,-0.461940,-0.441342,-0.495722,-0.315263,-0.495722,-0.250000,-0.500000,-0.250000,-0.500000,0.250000,-0.495722,0.250000,-0.495722,0.315263,-0.461940,0.441342,-0.396677,0.554381,-0.304381,0.646677,-0.191342,0.711940,-0.065263,0.745722,0.000000,0.745722,
0.000000,0.750000,0.500000,0.750000,0.500000,-0.750000,0.500000,-0.750000,$1*%
%AMFreePoly1*
4,1,23,0.000000,0.745722,0.065263,0.745722,0.191342,0.711940,0.304381,0.646677,0.396677,0.554381,0.461940,0.441342,0.495722,0.315263,0.495722,0.250000,0.500000,0.250000,0.500000,-0.250000,0.495722,-0.250000,0.495722,-0.315263,0.461940,-0.441342,0.396677,-0.554381,0.304381,-0.646677,0.191342,-0.711940,0.065263,-0.745722,0.000000,-0.745722,0.000000,-0.750000,-0.500000,-0.750000,
-0.500000,0.750000,0.000000,0.750000,0.000000,0.745722,0.000000,0.745722,$1*%
G04 Aperture macros list end*
G04 #@! TA.AperFunction,EtchedComponent*
%ADD10C,0.000000*%
G04 #@! TD*
G04 #@! TA.AperFunction,SMDPad,CuDef*
%ADD11RoundRect,0.500000X0.875000X0.500000X-0.875000X0.500000X-0.875000X-0.500000X0.875000X-0.500000X0*%
G04 #@! TD*
G04 #@! TA.AperFunction,SMDPad,CuDef*
%ADD12C,2.032000*%
G04 #@! TD*
G04 #@! TA.AperFunction,SMDPad,CuDef*
%ADD13FreePoly0,90.000000*%
G04 #@! TD*
G04 #@! TA.AperFunction,SMDPad,CuDef*
%ADD14FreePoly1,90.000000*%
G04 #@! TD*
G04 #@! TA.AperFunction,SMDPad,CuDef*
%ADD15FreePoly0,0.000000*%
G04 #@! TD*
G04 #@! TA.AperFunction,SMDPad,CuDef*
%ADD16FreePoly1,0.000000*%
G04 #@! TD*
G04 #@! TA.AperFunction,SMDPad,CuDef*
%ADD17RoundRect,0.087500X0.225000X0.087500X-0.225000X0.087500X-0.225000X-0.087500X0.225000X-0.087500X0*%
G04 #@! TD*
G04 #@! TA.AperFunction,SMDPad,CuDef*
%ADD18RoundRect,0.087500X0.087500X0.225000X-0.087500X0.225000X-0.087500X-0.225000X0.087500X-0.225000X0*%
G04 #@! TD*
G04 #@! TA.AperFunction,ComponentPad*
%ADD19R,1.370000X1.370000*%
G04 #@! TD*
G04 #@! TA.AperFunction,ComponentPad*
%ADD20C,1.500000*%
G04 #@! TD*
G04 #@! TA.AperFunction,SMDPad,CuDef*
%ADD21O,2.997200X1.727200*%
G04 #@! TD*
G04 #@! TA.AperFunction,SMDPad,CuDef*
%ADD22R,2.997200X1.727200*%
G04 #@! TD*
G04 #@! TA.AperFunction,ComponentPad*
%ADD23R,2.100000X2.100000*%
G04 #@! TD*
G04 #@! TA.AperFunction,ComponentPad*
%ADD24C,2.100000*%
G04 #@! TD*
G04 #@! TA.AperFunction,SMDPad,CuDef*
%ADD25RoundRect,0.225000X-0.250000X0.225000X-0.250000X-0.225000X0.250000X-0.225000X0.250000X0.225000X0*%
G04 #@! TD*
G04 #@! TA.AperFunction,ComponentPad*
%ADD26R,1.700000X1.700000*%
G04 #@! TD*
G04 #@! TA.AperFunction,ComponentPad*
%ADD27O,1.700000X1.700000*%
G04 #@! TD*
G04 #@! TA.AperFunction,ViaPad*
%ADD28C,0.600000*%
G04 #@! TD*
G04 #@! TA.AperFunction,Conductor*
%ADD29C,0.200000*%
G04 #@! TD*
G04 #@! TA.AperFunction,Conductor*
%ADD30C,0.600000*%
G04 #@! TD*
G04 APERTURE END LIST*
D10*
G04 #@! TA.AperFunction,EtchedComponent*
G36*
X188491000Y-86830000D02*
G01*
X187891000Y-86830000D01*
X187891000Y-86330000D01*
X188491000Y-86330000D01*
X188491000Y-86830000D01*
G37*
G04 #@! TD.AperFunction*
G04 #@! TA.AperFunction,EtchedComponent*
G36*
X176841000Y-84880000D02*
G01*
X176341000Y-84880000D01*
X176341000Y-84280000D01*
X176841000Y-84280000D01*
X176841000Y-84880000D01*
G37*
G04 #@! TD.AperFunction*
G04 #@! TA.AperFunction,EtchedComponent*
G36*
X176791000Y-88880000D02*
G01*
X176291000Y-88880000D01*
X176291000Y-88280000D01*
X176791000Y-88280000D01*
X176791000Y-88880000D01*
G37*
G04 #@! TD.AperFunction*
G04 #@! TA.AperFunction,EtchedComponent*
G36*
X176791000Y-92880000D02*
G01*
X176291000Y-92880000D01*
X176291000Y-92280000D01*
X176791000Y-92280000D01*
X176791000Y-92880000D01*
G37*
G04 #@! TD.AperFunction*
G04 #@! TA.AperFunction,EtchedComponent*
G36*
X188491000Y-90830000D02*
G01*
X187891000Y-90830000D01*
X187891000Y-90330000D01*
X188491000Y-90330000D01*
X188491000Y-90830000D01*
G37*
G04 #@! TD.AperFunction*
D11*
X153191000Y-95620000D03*
X153191000Y-93080000D03*
X153191000Y-90540000D03*
X153191000Y-88000000D03*
D12*
X167176200Y-82149200D03*
X167176200Y-84689200D03*
X167176200Y-87229200D03*
X167176200Y-89769200D03*
X184956200Y-89769200D03*
X184956200Y-87229200D03*
X184956200Y-84689200D03*
X184956200Y-82149200D03*
D13*
X188191000Y-87230000D03*
D14*
X188191000Y-85930000D03*
D15*
X175941000Y-84580000D03*
D16*
X177241000Y-84580000D03*
D17*
X156053500Y-81167500D03*
X156053500Y-80667500D03*
X156053500Y-80167500D03*
X156053500Y-79667500D03*
D18*
X155391000Y-79505000D03*
X154891000Y-79505000D03*
X154391000Y-79505000D03*
D17*
X153728500Y-79667500D03*
X153728500Y-80167500D03*
X153728500Y-80667500D03*
X153728500Y-81167500D03*
D18*
X154391000Y-81330000D03*
X154891000Y-81330000D03*
X155391000Y-81330000D03*
D19*
X151341000Y-108310000D03*
D20*
X151341000Y-105770000D03*
X151341000Y-103230000D03*
X153881000Y-108310000D03*
X153881000Y-105770000D03*
X153881000Y-103230000D03*
X156421000Y-108310000D03*
X156421000Y-105770000D03*
X156421000Y-103230000D03*
X158961000Y-108310000D03*
X158961000Y-105770000D03*
X158961000Y-103230000D03*
X161501000Y-108310000D03*
X161501000Y-105770000D03*
X161501000Y-103230000D03*
X164041000Y-108310000D03*
X164041000Y-105770000D03*
X164041000Y-103230000D03*
D21*
X193416000Y-73138000D03*
X193416000Y-75678000D03*
X193416000Y-78218000D03*
D22*
X193416000Y-80758000D03*
D21*
X193416000Y-83298000D03*
X193416000Y-85838000D03*
X193416000Y-88378000D03*
X193416000Y-90918000D03*
X193416000Y-93458000D03*
X193416000Y-95998000D03*
X193416000Y-98538000D03*
X193416000Y-101078000D03*
X193416000Y-103618000D03*
X193416000Y-106158000D03*
X193416000Y-108698000D03*
X212466000Y-108698000D03*
X212466000Y-106158000D03*
X212466000Y-103618000D03*
X212466000Y-101078000D03*
X212466000Y-98538000D03*
X212466000Y-95998000D03*
X212466000Y-93458000D03*
X212466000Y-90918000D03*
X212466000Y-88378000D03*
X212466000Y-85838000D03*
X212466000Y-83298000D03*
X212466000Y-80758000D03*
X212466000Y-78218000D03*
D22*
X212466000Y-75678000D03*
D21*
X212466000Y-73138000D03*
D23*
X179191000Y-107580000D03*
D24*
X174191000Y-107580000D03*
D25*
X149691000Y-79555000D03*
X149691000Y-81105000D03*
X151891000Y-79555000D03*
X151891000Y-81105000D03*
D15*
X175891000Y-88580000D03*
D16*
X177191000Y-88580000D03*
D15*
X175891000Y-92580000D03*
D16*
X177191000Y-92580000D03*
D26*
X152081000Y-65580000D03*
D27*
X154621000Y-65580000D03*
X157161000Y-65580000D03*
X159701000Y-65580000D03*
X162241000Y-65580000D03*
X164781000Y-65580000D03*
X167321000Y-65580000D03*
X169861000Y-65580000D03*
X172401000Y-65580000D03*
X174941000Y-65580000D03*
X177481000Y-65580000D03*
X180021000Y-65580000D03*
X182561000Y-65580000D03*
X185101000Y-65580000D03*
X187641000Y-65580000D03*
X190181000Y-65580000D03*
D13*
X188191000Y-91230000D03*
D14*
X188191000Y-89930000D03*
D28*
X190191000Y-86080000D03*
X157691000Y-93080000D03*
X205761000Y-86690000D03*
X184191000Y-104580000D03*
X190191000Y-104580000D03*
X159191000Y-86580000D03*
X154391000Y-83629943D03*
X199191000Y-100580000D03*
X188191000Y-100580000D03*
X161191000Y-80580000D03*
X161191000Y-75580000D03*
X191191000Y-87580000D03*
X146191000Y-70580000D03*
X144191000Y-70580000D03*
X208191000Y-76580000D03*
X202191000Y-67580000D03*
X182191000Y-75580000D03*
X144191000Y-72580000D03*
X152191000Y-85580000D03*
X200191000Y-65580000D03*
X156191000Y-77580000D03*
X219191000Y-73580000D03*
X148191000Y-72580000D03*
X144691000Y-80830000D03*
X146191000Y-72580000D03*
X176191000Y-71580000D03*
X181191000Y-74580000D03*
X167191000Y-100580000D03*
X207191000Y-78580000D03*
X189191000Y-110580000D03*
X181191000Y-76580000D03*
X185191000Y-109580000D03*
X206191000Y-65580000D03*
X143191000Y-103580000D03*
X143191000Y-106580000D03*
X183191000Y-76580000D03*
X219191000Y-81580000D03*
X197191000Y-105580000D03*
X172191000Y-68580000D03*
X169191000Y-107580000D03*
X203191000Y-104580000D03*
X150191000Y-72580000D03*
X207191000Y-91580000D03*
X199191000Y-72580000D03*
X148191000Y-70580000D03*
X146191000Y-100580000D03*
X179191000Y-74580000D03*
X164191000Y-81580000D03*
X208191000Y-67580000D03*
X208191000Y-70580000D03*
X169191000Y-105580000D03*
X202191000Y-65580000D03*
X143191000Y-100580000D03*
X208191000Y-65580000D03*
X205191000Y-73580000D03*
X146191000Y-106580000D03*
X149191000Y-103580000D03*
X160191000Y-74580000D03*
X194191000Y-65580000D03*
X144691000Y-76830000D03*
X144691000Y-78830000D03*
X177191000Y-72580000D03*
X179191000Y-72580000D03*
X205191000Y-76580000D03*
X205191000Y-70580000D03*
X206191000Y-67580000D03*
X189191000Y-71580000D03*
X146191000Y-103580000D03*
X180191000Y-75580000D03*
X169191000Y-92580000D03*
X198191000Y-65580000D03*
X219191000Y-77580000D03*
X185191000Y-107580000D03*
X144691000Y-82830000D03*
X189191000Y-69580000D03*
X150191000Y-70580000D03*
X165191000Y-79580000D03*
X196191000Y-65580000D03*
X219191000Y-85580000D03*
X208191000Y-100580000D03*
X208191000Y-73580000D03*
X149191000Y-106580000D03*
X204191000Y-65580000D03*
X180191000Y-73580000D03*
X169191000Y-109580000D03*
X169191000Y-63580000D03*
X183191000Y-109580000D03*
X178191000Y-71580000D03*
X219191000Y-89580000D03*
X149191000Y-100580000D03*
X183191000Y-107580000D03*
X204191000Y-67580000D03*
X190191000Y-72580000D03*
X190169300Y-81906100D03*
X167330265Y-77440735D03*
X178191000Y-73580000D03*
X197191000Y-93580000D03*
X192191000Y-69580000D03*
X187191000Y-110580000D03*
X192191000Y-71580000D03*
X161191000Y-85580000D03*
X157191000Y-82580000D03*
X188441000Y-106580000D03*
X190691000Y-105830000D03*
X185191000Y-69580000D03*
X206651000Y-86020000D03*
X182136469Y-101634531D03*
X148191000Y-78580000D03*
X152191000Y-73580000D03*
X169191000Y-100580000D03*
X208316000Y-103955000D03*
X185691000Y-101330000D03*
X172191000Y-100580000D03*
X197941000Y-108698000D03*
X190691000Y-108830000D03*
X155191000Y-85580000D03*
X157191000Y-89580000D03*
X190191000Y-83330000D03*
X155691000Y-95580000D03*
X209691000Y-74830000D03*
X198431000Y-103370000D03*
X174941000Y-103330000D03*
X172191000Y-103330000D03*
X182941000Y-103330000D03*
X207671000Y-84840000D03*
X197231000Y-78080000D03*
X197241000Y-81610000D03*
X200931000Y-92160000D03*
X208111000Y-82810000D03*
X189941000Y-91080000D03*
X189691000Y-98580000D03*
X189941000Y-88330000D03*
X202011000Y-91260000D03*
X198381000Y-77540000D03*
X198421000Y-81850000D03*
X189691000Y-96080000D03*
X189691000Y-93580000D03*
X200251000Y-93230000D03*
X196211000Y-78800000D03*
X196281000Y-81710000D03*
D29*
X190191000Y-86080000D02*
X190941000Y-86080000D01*
X191183000Y-85838000D02*
X193416000Y-85838000D01*
X153191000Y-93080000D02*
X157691000Y-93080000D01*
X190941000Y-86080000D02*
X191183000Y-85838000D01*
X205761000Y-86690000D02*
X209989000Y-90918000D01*
X209989000Y-90918000D02*
X212466000Y-90918000D01*
X190191000Y-104580000D02*
X191153000Y-103618000D01*
X159191000Y-88429943D02*
X175341057Y-104580000D01*
X159191000Y-86580000D02*
X159191000Y-88429943D01*
X175341057Y-104580000D02*
X184191000Y-104580000D01*
X154391000Y-81330000D02*
X154391000Y-83629943D01*
X191153000Y-103618000D02*
X193416000Y-103618000D01*
X161191000Y-75580000D02*
X170191000Y-75580000D01*
X192309000Y-108698000D02*
X193416000Y-108698000D01*
X178922000Y-69219000D02*
X182561000Y-65580000D01*
X170191000Y-75580000D02*
X176552000Y-69219000D01*
X195191000Y-106923000D02*
X193416000Y-108698000D01*
X188191000Y-87230000D02*
X190841000Y-87230000D01*
X156053500Y-81167500D02*
X160603500Y-81167500D01*
X176552000Y-69219000D02*
X178922000Y-69219000D01*
X188191000Y-100580000D02*
X188191000Y-104580000D01*
X199191000Y-101760057D02*
X195191000Y-105760057D01*
X188191000Y-104580000D02*
X192309000Y-108698000D01*
X184956200Y-87229200D02*
X186255400Y-85930000D01*
X186255400Y-85930000D02*
X188191000Y-85930000D01*
X199191000Y-100580000D02*
X199191000Y-101760057D01*
X190841000Y-87230000D02*
X191191000Y-87580000D01*
X195191000Y-105760057D02*
X195191000Y-106923000D01*
X160603500Y-81167500D02*
X161191000Y-80580000D01*
D30*
X153191000Y-88000000D02*
X153191000Y-86580000D01*
D29*
X156365999Y-80167500D02*
X157191000Y-79342499D01*
X156053500Y-80167500D02*
X156365999Y-80167500D01*
D30*
X153191000Y-86580000D02*
X152191000Y-85580000D01*
D29*
X154391000Y-79505000D02*
X154891000Y-79505000D01*
X153728500Y-80167500D02*
X152828500Y-80167500D01*
D30*
X191317400Y-80758000D02*
X193416000Y-80758000D01*
D29*
X154391000Y-79817499D02*
X154040999Y-80167500D01*
X156053500Y-80667500D02*
X156053500Y-80167500D01*
X154891000Y-79812778D02*
X155245722Y-80167500D01*
X154391000Y-79505000D02*
X154391000Y-79817499D01*
X155245722Y-80167500D02*
X156053500Y-80167500D01*
X157191000Y-79342499D02*
X157191000Y-78580000D01*
D30*
X190169300Y-81906100D02*
X191317400Y-80758000D01*
D29*
X154891000Y-79505000D02*
X154891000Y-79812778D01*
X154040999Y-80167500D02*
X153728500Y-80167500D01*
D30*
X151891000Y-81105000D02*
X149691000Y-81105000D01*
D29*
X157191000Y-78580000D02*
X156191000Y-77580000D01*
X152828500Y-80167500D02*
X151891000Y-81105000D01*
X188191000Y-91230000D02*
X188191000Y-99230000D01*
X190039000Y-101078000D02*
X193416000Y-101078000D01*
X188030200Y-89769200D02*
X188191000Y-89930000D01*
X184956200Y-89769200D02*
X188030200Y-89769200D01*
X188191000Y-99230000D02*
X190039000Y-101078000D01*
X198196000Y-92095000D02*
X198196000Y-101378000D01*
X190691000Y-105830000D02*
X191191000Y-105830000D01*
X174540200Y-87229200D02*
X175891000Y-88580000D01*
X161191000Y-85580000D02*
X177191000Y-69580000D01*
X167176200Y-87229200D02*
X174540200Y-87229200D01*
X179191000Y-91429943D02*
X179191000Y-97330000D01*
X198196000Y-101378000D02*
X193416000Y-106158000D01*
X203421000Y-86870000D02*
X198196000Y-92095000D01*
X155391000Y-81330000D02*
X156641000Y-82580000D01*
X200131000Y-67960000D02*
X201081000Y-67960000D01*
X185101000Y-65580000D02*
X187481000Y-67960000D01*
X177191000Y-89429943D02*
X179191000Y-91429943D01*
X187481000Y-67960000D02*
X200131000Y-67960000D01*
X177191000Y-88580000D02*
X177191000Y-89429943D01*
X191519000Y-106158000D02*
X193416000Y-106158000D01*
X179191000Y-97330000D02*
X188441000Y-106580000D01*
X201081000Y-67960000D02*
X203421000Y-70300000D01*
X203421000Y-70300000D02*
X203421000Y-86870000D01*
X177191000Y-69580000D02*
X185191000Y-69580000D01*
X191191000Y-105830000D02*
X191519000Y-106158000D01*
X156641000Y-82580000D02*
X157191000Y-82580000D01*
X209009000Y-88378000D02*
X212466000Y-88378000D01*
X206651000Y-86020000D02*
X209009000Y-88378000D01*
X154941000Y-78580000D02*
X155391000Y-79030000D01*
X153728500Y-79667500D02*
X152003500Y-79667500D01*
D30*
X159151000Y-90540000D02*
X169191000Y-100580000D01*
X210441000Y-106080000D02*
X212388000Y-106080000D01*
D29*
X153728500Y-79042500D02*
X154191000Y-78580000D01*
D30*
X167176200Y-84689200D02*
X175831800Y-84689200D01*
X159701000Y-65580000D02*
X162241000Y-65580000D01*
X172191000Y-100580000D02*
X181081938Y-100580000D01*
X149691000Y-79555000D02*
X149166000Y-79555000D01*
X158283786Y-90540000D02*
X159151000Y-90540000D01*
X208316000Y-103955000D02*
X210441000Y-106080000D01*
X212388000Y-106080000D02*
X212466000Y-106158000D01*
X164451000Y-67790000D02*
X162241000Y-65580000D01*
X152191000Y-73090000D02*
X159701000Y-65580000D01*
X153191000Y-90540000D02*
X158283786Y-90540000D01*
X180191000Y-87530000D02*
X180191000Y-95830000D01*
X177241000Y-84580000D02*
X180191000Y-87530000D01*
X149166000Y-79555000D02*
X148191000Y-78580000D01*
D29*
X152003500Y-79667500D02*
X151891000Y-79555000D01*
X155391000Y-79030000D02*
X155391000Y-79505000D01*
D30*
X175831800Y-84689200D02*
X175941000Y-84580000D01*
X180191000Y-95830000D02*
X185691000Y-101330000D01*
X170191000Y-67790000D02*
X164451000Y-67790000D01*
X172401000Y-65580000D02*
X170191000Y-67790000D01*
D29*
X154191000Y-78580000D02*
X154941000Y-78580000D01*
X153728500Y-79667500D02*
X153728500Y-79042500D01*
D30*
X152191000Y-73580000D02*
X152191000Y-73090000D01*
X181081938Y-100580000D02*
X182136469Y-101634531D01*
X151891000Y-79555000D02*
X149691000Y-79555000D01*
D29*
X155191000Y-82580000D02*
X155191000Y-85580000D01*
X189351000Y-63870000D02*
X209891000Y-63870000D01*
X177191000Y-92580000D02*
X177191000Y-95840532D01*
X213553000Y-108698000D02*
X212466000Y-108698000D01*
X184840000Y-103489532D02*
X184840000Y-106229000D01*
X154891000Y-81330000D02*
X154891000Y-82280000D01*
X173080200Y-89769200D02*
X175891000Y-92580000D01*
X167176200Y-89769200D02*
X173080200Y-89769200D01*
X187191000Y-108580000D02*
X189441000Y-108580000D01*
X216831000Y-105420000D02*
X213553000Y-108698000D01*
X189441000Y-108580000D02*
X189691000Y-108830000D01*
X157191000Y-89580000D02*
X159290943Y-89580000D01*
X177191000Y-95840532D02*
X184840000Y-103489532D01*
X209891000Y-63870000D02*
X216831000Y-70810000D01*
X190691000Y-108830000D02*
X189691000Y-108830000D01*
X184840000Y-106229000D02*
X187191000Y-108580000D01*
X159290943Y-89580000D02*
X175939943Y-106229000D01*
X154891000Y-82280000D02*
X155191000Y-82580000D01*
X175939943Y-106229000D02*
X184840000Y-106229000D01*
X216831000Y-70810000D02*
X216831000Y-105420000D01*
X187641000Y-65580000D02*
X189351000Y-63870000D01*
X197941000Y-108698000D02*
X212466000Y-108698000D01*
X153191000Y-95620000D02*
X153401000Y-95830000D01*
X190223000Y-83298000D02*
X193416000Y-83298000D01*
X155441000Y-95830000D02*
X155691000Y-95580000D01*
X190191000Y-83330000D02*
X190223000Y-83298000D01*
X153401000Y-95830000D02*
X155441000Y-95830000D01*
D30*
X211383000Y-73138000D02*
X212466000Y-73138000D01*
X209691000Y-74830000D02*
X211383000Y-73138000D01*
D29*
X164041000Y-103230000D02*
X172091000Y-103230000D01*
X198431000Y-103370000D02*
X198571000Y-103230000D01*
X209291000Y-103230000D02*
X211443000Y-101078000D01*
X174941000Y-103330000D02*
X182941000Y-103330000D01*
X211443000Y-101078000D02*
X212466000Y-101078000D01*
X172091000Y-103230000D02*
X172191000Y-103330000D01*
X198571000Y-103230000D02*
X209291000Y-103230000D01*
X207671000Y-84840000D02*
X208669000Y-85838000D01*
X208669000Y-85838000D02*
X212466000Y-85838000D01*
X197231000Y-81600000D02*
X197241000Y-81610000D01*
X200931000Y-92160000D02*
X204769000Y-95998000D01*
X197231000Y-78080000D02*
X197231000Y-81600000D01*
X204769000Y-95998000D02*
X212466000Y-95998000D01*
X208111000Y-82810000D02*
X208599000Y-83298000D01*
X208599000Y-83298000D02*
X212466000Y-83298000D01*
X189941000Y-91080000D02*
X190691000Y-91080000D01*
X190853000Y-90918000D02*
X193416000Y-90918000D01*
X190691000Y-91080000D02*
X190853000Y-90918000D01*
X191191000Y-98580000D02*
X191233000Y-98538000D01*
X189691000Y-98580000D02*
X191191000Y-98580000D01*
X191233000Y-98538000D02*
X193416000Y-98538000D01*
X190441000Y-88330000D02*
X190489000Y-88378000D01*
X189941000Y-88330000D02*
X190441000Y-88330000D01*
X190489000Y-88378000D02*
X193416000Y-88378000D01*
X202011000Y-91260000D02*
X204209000Y-93458000D01*
X204209000Y-93458000D02*
X212466000Y-93458000D01*
X198381000Y-81810000D02*
X198421000Y-81850000D01*
X198381000Y-77540000D02*
X198381000Y-81810000D01*
X190191000Y-96080000D02*
X190273000Y-95998000D01*
X189691000Y-96080000D02*
X190191000Y-96080000D01*
X190273000Y-95998000D02*
X193416000Y-95998000D01*
X190313000Y-93458000D02*
X193416000Y-93458000D01*
X190191000Y-93580000D02*
X190313000Y-93458000D01*
X189691000Y-93580000D02*
X190191000Y-93580000D01*
X196211000Y-78800000D02*
X196211000Y-81640000D01*
X196211000Y-81640000D02*
X196281000Y-81710000D01*
X200251000Y-93230000D02*
X205559000Y-98538000D01*
X205559000Y-98538000D02*
X212466000Y-98538000D01*
G04 #@! TA.AperFunction,Conductor*
G36*
X220625539Y-63108185D02*
G01*
X220671294Y-63160989D01*
X220682500Y-63212500D01*
X220682500Y-111947500D01*
X220662815Y-112014539D01*
X220610011Y-112060294D01*
X220558500Y-112071500D01*
X211559083Y-112071500D01*
X211492044Y-112051815D01*
X211446289Y-111999011D01*
X211436345Y-111929853D01*
X211458766Y-111874614D01*
X211502229Y-111814792D01*
X211502228Y-111814792D01*
X211502232Y-111814788D01*
X211580873Y-111660445D01*
X211634402Y-111495701D01*
X211661500Y-111324611D01*
X211661500Y-111151389D01*
X211634402Y-110980299D01*
X211580873Y-110815555D01*
X211502232Y-110661212D01*
X211400414Y-110521072D01*
X211277928Y-110398586D01*
X211137788Y-110296768D01*
X210983445Y-110218127D01*
X210818701Y-110164598D01*
X210818699Y-110164597D01*
X210818698Y-110164597D01*
X210687271Y-110143781D01*
X210647611Y-110137500D01*
X210474389Y-110137500D01*
X210434728Y-110143781D01*
X210303302Y-110164597D01*
X210138552Y-110218128D01*
X209984211Y-110296768D01*
X209904256Y-110354859D01*
X209844072Y-110398586D01*
X209844070Y-110398588D01*
X209844069Y-110398588D01*
X209721588Y-110521069D01*
X209721588Y-110521070D01*
X209721586Y-110521072D01*
X209677859Y-110581256D01*
X209619768Y-110661211D01*
X209541128Y-110815552D01*
X209487597Y-110980302D01*
X209460500Y-111151389D01*
X209460500Y-111324610D01*
X209487597Y-111495697D01*
X209541128Y-111660447D01*
X209619770Y-111814792D01*
X209663234Y-111874614D01*
X209686715Y-111940420D01*
X209670890Y-112008474D01*
X209620785Y-112057169D01*
X209562917Y-112071500D01*
X196319083Y-112071500D01*
X196252044Y-112051815D01*
X196206289Y-111999011D01*
X196196345Y-111929853D01*
X196218766Y-111874614D01*
X196262229Y-111814792D01*
X196262228Y-111814792D01*
X196262232Y-111814788D01*
X196340873Y-111660445D01*
X196394402Y-111495701D01*
X196421500Y-111324611D01*
X196421500Y-111151389D01*
X196394402Y-110980299D01*
X196340873Y-110815555D01*
X196262232Y-110661212D01*
X196160414Y-110521072D01*
X196037928Y-110398586D01*
X195897788Y-110296768D01*
X195743445Y-110218127D01*
X195578701Y-110164598D01*
X195578699Y-110164597D01*
X195578698Y-110164597D01*
X195447271Y-110143781D01*
X195407611Y-110137500D01*
X195234389Y-110137500D01*
X195194728Y-110143781D01*
X195063302Y-110164597D01*
X194898552Y-110218128D01*
X194744211Y-110296768D01*
X194664256Y-110354859D01*
X194604072Y-110398586D01*
X194604070Y-110398588D01*
X194604069Y-110398588D01*
X194481588Y-110521069D01*
X194481588Y-110521070D01*
X194481586Y-110521072D01*
X194437859Y-110581256D01*
X194379768Y-110661211D01*
X194301128Y-110815552D01*
X194247597Y-110980302D01*
X194220500Y-111151389D01*
X194220500Y-111324610D01*
X194247597Y-111495697D01*
X194301128Y-111660447D01*
X194379770Y-111814792D01*
X194423234Y-111874614D01*
X194446715Y-111940420D01*
X194430890Y-112008474D01*
X194380785Y-112057169D01*
X194322917Y-112071500D01*
X141823500Y-112071500D01*
X141756461Y-112051815D01*
X141710706Y-111999011D01*
X141699500Y-111947500D01*
X141699500Y-109965837D01*
X142240500Y-109965837D01*
X142240500Y-110194162D01*
X142276215Y-110419660D01*
X142346770Y-110636803D01*
X142450421Y-110840228D01*
X142584621Y-111024937D01*
X142746063Y-111186379D01*
X142930772Y-111320579D01*
X143026884Y-111369550D01*
X143134196Y-111424229D01*
X143134198Y-111424229D01*
X143134201Y-111424231D01*
X143250592Y-111462049D01*
X143351339Y-111494784D01*
X143576838Y-111530500D01*
X143576843Y-111530500D01*
X143805162Y-111530500D01*
X144030660Y-111494784D01*
X144247799Y-111424231D01*
X144451228Y-111320579D01*
X144635937Y-111186379D01*
X144797379Y-111024937D01*
X144931579Y-110840228D01*
X145035231Y-110636799D01*
X145105784Y-110419660D01*
X145141500Y-110194162D01*
X145141500Y-109965837D01*
X145105784Y-109740339D01*
X145055848Y-109586653D01*
X145035231Y-109523201D01*
X145035229Y-109523198D01*
X145035229Y-109523196D01*
X144976226Y-109407397D01*
X144931579Y-109319772D01*
X144797379Y-109135063D01*
X144635937Y-108973621D01*
X144451228Y-108839421D01*
X144389025Y-108807727D01*
X144247803Y-108735770D01*
X144030660Y-108665215D01*
X143815334Y-108631111D01*
X143805162Y-108629500D01*
X143805157Y-108629500D01*
X143576843Y-108629500D01*
X143576838Y-108629500D01*
X143351339Y-108665215D01*
X143134196Y-108735770D01*
X142930771Y-108839421D01*
X142746061Y-108973622D01*
X142584622Y-109135061D01*
X142450421Y-109319771D01*
X142346770Y-109523196D01*
X142276215Y-109740339D01*
X142240500Y-109965837D01*
X141699500Y-109965837D01*
X141699500Y-98462500D01*
X141719185Y-98395461D01*
X141771989Y-98349706D01*
X141823500Y-98338500D01*
X151257943Y-98338500D01*
X151257945Y-98338500D01*
X151387274Y-98303847D01*
X151503226Y-98236901D01*
X151597901Y-98142226D01*
X151664847Y-98026274D01*
X151699500Y-97896945D01*
X151699500Y-97131411D01*
X151719185Y-97064372D01*
X151771989Y-97018617D01*
X151841147Y-97008673D01*
X151880910Y-97021501D01*
X151942951Y-97053909D01*
X152138582Y-97109886D01*
X152257963Y-97120500D01*
X154124036Y-97120499D01*
X154243418Y-97109886D01*
X154439049Y-97053909D01*
X154619407Y-96959698D01*
X154777109Y-96831109D01*
X154905698Y-96673407D01*
X154997799Y-96497087D01*
X155007929Y-96486577D01*
X155013994Y-96473297D01*
X155031688Y-96461925D01*
X155046285Y-96446781D01*
X155061550Y-96442734D01*
X155072772Y-96435523D01*
X155107707Y-96430500D01*
X155354331Y-96430500D01*
X155354347Y-96430501D01*
X155361943Y-96430501D01*
X155520054Y-96430501D01*
X155520057Y-96430501D01*
X155672785Y-96389577D01*
X155672786Y-96389575D01*
X155680635Y-96387473D01*
X155680820Y-96388165D01*
X155719364Y-96380500D01*
X155769844Y-96380500D01*
X155769845Y-96380499D01*
X155924497Y-96349737D01*
X156070179Y-96289394D01*
X156201289Y-96201789D01*
X156312789Y-96090289D01*
X156400394Y-95959179D01*
X156460737Y-95813497D01*
X156491500Y-95658842D01*
X156491500Y-95501158D01*
X156491500Y-95501155D01*
X156491499Y-95501153D01*
X156471996Y-95403107D01*
X156460737Y-95346503D01*
X156453817Y-95329796D01*
X156400397Y-95200827D01*
X156400390Y-95200814D01*
X156312789Y-95069711D01*
X156312786Y-95069707D01*
X156201292Y-94958213D01*
X156201288Y-94958210D01*
X156070185Y-94870609D01*
X156070172Y-94870602D01*
X155924501Y-94810264D01*
X155924489Y-94810261D01*
X155769845Y-94779500D01*
X155769842Y-94779500D01*
X155612158Y-94779500D01*
X155612155Y-94779500D01*
X155457510Y-94810261D01*
X155457498Y-94810264D01*
X155311827Y-94870602D01*
X155311816Y-94870608D01*
X155221016Y-94931279D01*
X155154339Y-94952156D01*
X155086959Y-94933671D01*
X155040269Y-94881692D01*
X155032913Y-94862294D01*
X154999909Y-94746951D01*
X154905698Y-94566593D01*
X154792983Y-94428359D01*
X154765875Y-94363965D01*
X154777884Y-94295135D01*
X154792981Y-94271642D01*
X154905698Y-94133407D01*
X154999909Y-93953049D01*
X155052174Y-93770387D01*
X155089541Y-93711351D01*
X155152895Y-93681887D01*
X155171390Y-93680500D01*
X157111234Y-93680500D01*
X157178273Y-93700185D01*
X157180125Y-93701398D01*
X157311814Y-93789390D01*
X157311827Y-93789397D01*
X157447479Y-93845585D01*
X157457503Y-93849737D01*
X157612153Y-93880499D01*
X157612156Y-93880500D01*
X157612158Y-93880500D01*
X157769844Y-93880500D01*
X157769845Y-93880499D01*
X157924497Y-93849737D01*
X158070179Y-93789394D01*
X158201289Y-93701789D01*
X158312789Y-93590289D01*
X158400394Y-93459179D01*
X158460737Y-93313497D01*
X158491500Y-93158842D01*
X158491500Y-93001158D01*
X158491500Y-93001155D01*
X158491499Y-93001153D01*
X158470548Y-92895826D01*
X158460737Y-92846503D01*
X158457138Y-92837815D01*
X158400397Y-92700827D01*
X158400390Y-92700814D01*
X158312789Y-92569711D01*
X158312786Y-92569707D01*
X158201292Y-92458213D01*
X158201288Y-92458210D01*
X158070185Y-92370609D01*
X158070172Y-92370602D01*
X157924501Y-92310264D01*
X157924489Y-92310261D01*
X157769845Y-92279500D01*
X157769842Y-92279500D01*
X157612158Y-92279500D01*
X157612155Y-92279500D01*
X157457510Y-92310261D01*
X157457498Y-92310264D01*
X157311827Y-92370602D01*
X157311814Y-92370609D01*
X157180125Y-92458602D01*
X157113447Y-92479480D01*
X157111234Y-92479500D01*
X155171390Y-92479500D01*
X155104351Y-92459815D01*
X155058596Y-92407011D01*
X155052176Y-92389617D01*
X154999909Y-92206951D01*
X154905698Y-92026593D01*
X154792983Y-91888359D01*
X154765875Y-91823965D01*
X154777884Y-91755135D01*
X154792981Y-91731642D01*
X154905698Y-91593407D01*
X154999909Y-91413049D01*
X154999909Y-91413046D01*
X155002820Y-91407475D01*
X155005331Y-91408787D01*
X155040972Y-91363482D01*
X155107003Y-91340640D01*
X155112884Y-91340500D01*
X158204944Y-91340500D01*
X158768060Y-91340500D01*
X158835099Y-91360185D01*
X158855741Y-91376819D01*
X168569211Y-101090289D01*
X168632424Y-101153502D01*
X168680712Y-101201790D01*
X168811814Y-101289390D01*
X168811827Y-101289397D01*
X168957498Y-101349735D01*
X168957503Y-101349737D01*
X168957507Y-101349737D01*
X168957508Y-101349738D01*
X169112154Y-101380500D01*
X169112157Y-101380500D01*
X169269844Y-101380500D01*
X169269845Y-101380499D01*
X169424497Y-101349737D01*
X169570179Y-101289394D01*
X169701289Y-101201789D01*
X169745527Y-101157551D01*
X169794712Y-101108367D01*
X169856035Y-101074882D01*
X169925727Y-101079866D01*
X169970074Y-101108367D01*
X171279526Y-102417819D01*
X171313011Y-102479142D01*
X171308027Y-102548834D01*
X171266155Y-102604767D01*
X171200691Y-102629184D01*
X171191845Y-102629500D01*
X165213596Y-102629500D01*
X165146557Y-102609815D01*
X165113278Y-102578386D01*
X165105142Y-102567188D01*
X164994828Y-102415354D01*
X164855646Y-102276172D01*
X164696405Y-102160476D01*
X164521029Y-102071117D01*
X164333826Y-102010290D01*
X164139422Y-101979500D01*
X164139417Y-101979500D01*
X163942583Y-101979500D01*
X163942578Y-101979500D01*
X163748173Y-102010290D01*
X163560970Y-102071117D01*
X163385594Y-102160476D01*
X163329926Y-102200922D01*
X163226354Y-102276172D01*
X163226352Y-102276174D01*
X163226351Y-102276174D01*
X163087174Y-102415351D01*
X163087174Y-102415352D01*
X163087172Y-102415354D01*
X163063124Y-102448453D01*
X162971476Y-102574594D01*
X162881485Y-102751213D01*
X162833511Y-102802009D01*
X162765690Y-102818804D01*
X162699555Y-102796267D01*
X162660515Y-102751213D01*
X162593969Y-102620609D01*
X162570524Y-102574595D01*
X162454828Y-102415354D01*
X162315646Y-102276172D01*
X162156405Y-102160476D01*
X161981029Y-102071117D01*
X161793826Y-102010290D01*
X161599422Y-101979500D01*
X161599417Y-101979500D01*
X161402583Y-101979500D01*
X161402578Y-101979500D01*
X161208173Y-102010290D01*
X161020970Y-102071117D01*
X160845594Y-102160476D01*
X160789926Y-102200922D01*
X160686354Y-102276172D01*
X160686352Y-102276174D01*
X160686351Y-102276174D01*
X160547174Y-102415351D01*
X160547174Y-102415352D01*
X160547172Y-102415354D01*
X160523124Y-102448453D01*
X160431476Y-102574594D01*
X160341485Y-102751213D01*
X160293511Y-102802009D01*
X160225690Y-102818804D01*
X160159555Y-102796267D01*
X160120515Y-102751213D01*
X160053969Y-102620609D01*
X160030524Y-102574595D01*
X159914828Y-102415354D01*
X159775646Y-102276172D01*
X159616405Y-102160476D01*
X159441029Y-102071117D01*
X159253826Y-102010290D01*
X159059422Y-101979500D01*
X159059417Y-101979500D01*
X158862583Y-101979500D01*
X158862578Y-101979500D01*
X158668173Y-102010290D01*
X158480970Y-102071117D01*
X158305594Y-102160476D01*
X158249926Y-102200922D01*
X158146354Y-102276172D01*
X158146352Y-102276174D01*
X158146351Y-102276174D01*
X158007174Y-102415351D01*
X158007174Y-102415352D01*
X158007172Y-102415354D01*
X157983124Y-102448453D01*
X157891476Y-102574594D01*
X157801485Y-102751213D01*
X157753511Y-102802009D01*
X157685690Y-102818804D01*
X157619555Y-102796267D01*
X157580515Y-102751213D01*
X157513969Y-102620609D01*
X157490524Y-102574595D01*
X157374828Y-102415354D01*
X157235646Y-102276172D01*
X157076405Y-102160476D01*
X156901029Y-102071117D01*
X156713826Y-102010290D01*
X156519422Y-101979500D01*
X156519417Y-101979500D01*
X156322583Y-101979500D01*
X156322578Y-101979500D01*
X156128173Y-102010290D01*
X155940970Y-102071117D01*
X155765594Y-102160476D01*
X155709926Y-102200922D01*
X155606354Y-102276172D01*
X155606352Y-102276174D01*
X155606351Y-102276174D01*
X155467174Y-102415351D01*
X155467174Y-102415352D01*
X155467172Y-102415354D01*
X155443124Y-102448453D01*
X155351476Y-102574594D01*
X155261485Y-102751213D01*
X155213511Y-102802009D01*
X155145690Y-102818804D01*
X155079555Y-102796267D01*
X155040515Y-102751213D01*
X154973969Y-102620609D01*
X154950524Y-102574595D01*
X154834828Y-102415354D01*
X154695646Y-102276172D01*
X154536405Y-102160476D01*
X154361029Y-102071117D01*
X154173826Y-102010290D01*
X153979422Y-101979500D01*
X153979417Y-101979500D01*
X153782583Y-101979500D01*
X153782578Y-101979500D01*
X153588173Y-102010290D01*
X153400970Y-102071117D01*
X153225594Y-102160476D01*
X153169926Y-102200922D01*
X153066354Y-102276172D01*
X153066352Y-102276174D01*
X153066351Y-102276174D01*
X152927174Y-102415351D01*
X152927174Y-102415352D01*
X152927172Y-102415354D01*
X152903124Y-102448453D01*
X152811476Y-102574594D01*
X152721485Y-102751213D01*
X152673511Y-102802009D01*
X152605690Y-102818804D01*
X152539555Y-102796267D01*
X152500515Y-102751213D01*
X152433969Y-102620609D01*
X152410524Y-102574595D01*
X152294828Y-102415354D01*
X152155646Y-102276172D01*
X151996405Y-102160476D01*
X151821029Y-102071117D01*
X151633826Y-102010290D01*
X151439422Y-101979500D01*
X151439417Y-101979500D01*
X151242583Y-101979500D01*
X151242578Y-101979500D01*
X151048173Y-102010290D01*
X150860970Y-102071117D01*
X150685594Y-102160476D01*
X150629926Y-102200922D01*
X150526354Y-102276172D01*
X150526352Y-102276174D01*
X150526351Y-102276174D01*
X150387174Y-102415351D01*
X150387174Y-102415352D01*
X150387172Y-102415354D01*
X150363124Y-102448453D01*
X150271476Y-102574594D01*
X150182117Y-102749970D01*
X150121290Y-102937173D01*
X150090500Y-103131577D01*
X150090500Y-103328422D01*
X150121290Y-103522826D01*
X150182117Y-103710029D01*
X150263937Y-103870609D01*
X150271476Y-103885405D01*
X150387172Y-104044646D01*
X150526354Y-104183828D01*
X150685595Y-104299524D01*
X150777797Y-104346503D01*
X150862213Y-104389515D01*
X150913009Y-104437489D01*
X150929804Y-104505310D01*
X150907267Y-104571445D01*
X150862213Y-104610485D01*
X150685594Y-104700476D01*
X150612420Y-104753641D01*
X150526354Y-104816172D01*
X150526352Y-104816174D01*
X150526351Y-104816174D01*
X150387174Y-104955351D01*
X150387174Y-104955352D01*
X150387172Y-104955354D01*
X150363124Y-104988453D01*
X150271476Y-105114594D01*
X150182117Y-105289970D01*
X150121290Y-105477173D01*
X150090500Y-105671577D01*
X150090500Y-105868422D01*
X150121290Y-106062826D01*
X150182117Y-106250029D01*
X150257176Y-106397339D01*
X150271476Y-106425405D01*
X150387172Y-106584646D01*
X150526354Y-106723828D01*
X150685595Y-106839524D01*
X150775043Y-106885100D01*
X150785671Y-106890515D01*
X150836467Y-106938489D01*
X150853262Y-107006310D01*
X150830725Y-107072445D01*
X150776010Y-107115897D01*
X150729376Y-107125000D01*
X150608155Y-107125000D01*
X150548627Y-107131401D01*
X150548620Y-107131403D01*
X150413913Y-107181645D01*
X150413906Y-107181649D01*
X150298812Y-107267809D01*
X150298809Y-107267812D01*
X150212649Y-107382906D01*
X150212645Y-107382913D01*
X150162403Y-107517620D01*
X150162401Y-107517627D01*
X150156000Y-107577155D01*
X150156000Y-108060000D01*
X150896440Y-108060000D01*
X150865755Y-108113147D01*
X150831000Y-108242857D01*
X150831000Y-108377143D01*
X150865755Y-108506853D01*
X150896440Y-108560000D01*
X150156000Y-108560000D01*
X150156000Y-109042844D01*
X150162401Y-109102372D01*
X150162403Y-109102379D01*
X150212645Y-109237086D01*
X150212649Y-109237093D01*
X150298809Y-109352187D01*
X150298812Y-109352190D01*
X150413906Y-109438350D01*
X150413913Y-109438354D01*
X150548620Y-109488596D01*
X150548627Y-109488598D01*
X150608155Y-109494999D01*
X150608172Y-109495000D01*
X151091000Y-109495000D01*
X151091000Y-108754560D01*
X151144147Y-108785245D01*
X151273857Y-108820000D01*
X151408143Y-108820000D01*
X151537853Y-108785245D01*
X151591000Y-108754560D01*
X151591000Y-109495000D01*
X152073828Y-109495000D01*
X152073844Y-109494999D01*
X152133372Y-109488598D01*
X152133379Y-109488596D01*
X152268086Y-109438354D01*
X152268093Y-109438350D01*
X152383187Y-109352190D01*
X152469351Y-109237091D01*
X152469354Y-109237086D01*
X152519596Y-109102379D01*
X152519598Y-109102372D01*
X152525999Y-109042844D01*
X152526000Y-109042827D01*
X152526000Y-108920521D01*
X152545685Y-108853482D01*
X152598489Y-108807727D01*
X152667647Y-108797783D01*
X152731203Y-108826808D01*
X152760485Y-108864226D01*
X152811905Y-108965145D01*
X152837319Y-109000125D01*
X152837320Y-109000125D01*
X153389871Y-108447574D01*
X153405755Y-108506853D01*
X153472898Y-108623147D01*
X153567853Y-108718102D01*
X153684147Y-108785245D01*
X153743424Y-108801128D01*
X153190873Y-109353677D01*
X153190873Y-109353678D01*
X153225858Y-109379096D01*
X153401164Y-109468418D01*
X153588294Y-109529221D01*
X153782618Y-109560000D01*
X153979382Y-109560000D01*
X154173705Y-109529221D01*
X154360835Y-109468418D01*
X154536143Y-109379095D01*
X154571125Y-109353678D01*
X154571126Y-109353678D01*
X154018575Y-108801127D01*
X154077853Y-108785245D01*
X154194147Y-108718102D01*
X154289102Y-108623147D01*
X154356245Y-108506853D01*
X154372127Y-108447575D01*
X154924678Y-109000126D01*
X154924678Y-109000125D01*
X154950097Y-108965141D01*
X155040515Y-108787685D01*
X155088489Y-108736888D01*
X155156310Y-108720093D01*
X155222445Y-108742630D01*
X155261485Y-108787684D01*
X155351905Y-108965145D01*
X155377319Y-109000125D01*
X155377320Y-109000125D01*
X155929871Y-108447574D01*
X155945755Y-108506853D01*
X156012898Y-108623147D01*
X156107853Y-108718102D01*
X156224147Y-108785245D01*
X156283424Y-108801128D01*
X155730873Y-109353677D01*
X155730873Y-109353678D01*
X155765858Y-109379096D01*
X155941164Y-109468418D01*
X156128294Y-109529221D01*
X156322618Y-109560000D01*
X156519382Y-109560000D01*
X156713705Y-109529221D01*
X156900835Y-109468418D01*
X157076143Y-109379095D01*
X157111125Y-109353678D01*
X157111126Y-109353678D01*
X156558575Y-108801127D01*
X156617853Y-108785245D01*
X156734147Y-108718102D01*
X156829102Y-108623147D01*
X156896245Y-108506853D01*
X156912127Y-108447575D01*
X157464678Y-109000126D01*
X157464678Y-109000125D01*
X157490097Y-108965141D01*
X157580515Y-108787685D01*
X157628489Y-108736888D01*
X157696310Y-108720093D01*
X157762445Y-108742630D01*
X157801485Y-108787684D01*
X157891905Y-108965145D01*
X157917319Y-109000125D01*
X157917320Y-109000125D01*
X158469871Y-108447574D01*
X158485755Y-108506853D01*
X158552898Y-108623147D01*
X158647853Y-108718102D01*
X158764147Y-108785245D01*
X158823424Y-108801128D01*
X158270873Y-109353677D01*
X158270873Y-109353678D01*
X158305858Y-109379096D01*
X158481164Y-109468418D01*
X158668294Y-109529221D01*
X158862618Y-109560000D01*
X159059382Y-109560000D01*
X159253705Y-109529221D01*
X159440835Y-109468418D01*
X159616143Y-109379095D01*
X159651125Y-109353678D01*
X159651126Y-109353678D01*
X159098575Y-108801127D01*
X159157853Y-108785245D01*
X159274147Y-108718102D01*
X159369102Y-108623147D01*
X159436245Y-108506853D01*
X159452127Y-108447575D01*
X160004678Y-109000126D01*
X160004678Y-109000125D01*
X160030097Y-108965141D01*
X160120515Y-108787685D01*
X160168489Y-108736888D01*
X160236310Y-108720093D01*
X160302445Y-108742630D01*
X160341485Y-108787684D01*
X160431905Y-108965145D01*
X160457319Y-109000125D01*
X160457320Y-109000125D01*
X161009871Y-108447574D01*
X161025755Y-108506853D01*
X161092898Y-108623147D01*
X161187853Y-108718102D01*
X161304147Y-108785245D01*
X161363424Y-108801128D01*
X160810873Y-109353677D01*
X160810873Y-109353678D01*
X160845858Y-109379096D01*
X161021164Y-109468418D01*
X161208294Y-109529221D01*
X161402618Y-109560000D01*
X161599382Y-109560000D01*
X161793705Y-109529221D01*
X161980835Y-109468418D01*
X162156143Y-109379095D01*
X162191125Y-109353678D01*
X162191126Y-109353678D01*
X161638575Y-108801127D01*
X161697853Y-108785245D01*
X161814147Y-108718102D01*
X161909102Y-108623147D01*
X161976245Y-108506853D01*
X161992128Y-108447575D01*
X162544678Y-109000126D01*
X162544678Y-109000125D01*
X162570097Y-108965141D01*
X162660515Y-108787685D01*
X162708489Y-108736888D01*
X162776310Y-108720093D01*
X162842445Y-108742630D01*
X162881485Y-108787684D01*
X162971905Y-108965145D01*
X162997319Y-109000125D01*
X162997320Y-109000125D01*
X163549871Y-108447574D01*
X163565755Y-108506853D01*
X163632898Y-108623147D01*
X163727853Y-108718102D01*
X163844147Y-108785245D01*
X163903424Y-108801128D01*
X163350873Y-109353677D01*
X163350873Y-109353678D01*
X163385858Y-109379096D01*
X163561164Y-109468418D01*
X163748294Y-109529221D01*
X163942618Y-109560000D01*
X164139382Y-109560000D01*
X164333705Y-109529221D01*
X164520835Y-109468418D01*
X164696143Y-109379095D01*
X164731125Y-109353678D01*
X164731126Y-109353678D01*
X164178575Y-108801127D01*
X164237853Y-108785245D01*
X164354147Y-108718102D01*
X164449102Y-108623147D01*
X164516245Y-108506853D01*
X164532127Y-108447575D01*
X165084678Y-109000126D01*
X165084678Y-109000125D01*
X165110095Y-108965143D01*
X165199418Y-108789835D01*
X165260221Y-108602705D01*
X165291000Y-108408382D01*
X165291000Y-108211617D01*
X165260221Y-108017294D01*
X165199418Y-107830164D01*
X165110096Y-107654858D01*
X165084678Y-107619873D01*
X165084677Y-107619873D01*
X164532127Y-108172423D01*
X164516245Y-108113147D01*
X164449102Y-107996853D01*
X164354147Y-107901898D01*
X164237853Y-107834755D01*
X164178574Y-107818871D01*
X164731125Y-107266320D01*
X164731125Y-107266319D01*
X164696145Y-107240905D01*
X164519235Y-107150765D01*
X164468439Y-107102790D01*
X164451644Y-107034969D01*
X164474182Y-106968834D01*
X164519236Y-106929795D01*
X164521022Y-106928884D01*
X164521025Y-106928884D01*
X164696405Y-106839524D01*
X164855646Y-106723828D01*
X164994828Y-106584646D01*
X165110524Y-106425405D01*
X165199884Y-106250025D01*
X165260709Y-106062826D01*
X165271750Y-105993115D01*
X165291500Y-105868422D01*
X165291500Y-105671577D01*
X165260709Y-105477173D01*
X165232487Y-105390317D01*
X165199884Y-105289975D01*
X165199882Y-105289972D01*
X165199882Y-105289970D01*
X165144104Y-105180500D01*
X165110524Y-105114595D01*
X164994828Y-104955354D01*
X164855646Y-104816172D01*
X164729631Y-104724616D01*
X164696403Y-104700474D01*
X164519787Y-104610485D01*
X164468990Y-104562511D01*
X164452195Y-104494690D01*
X164474732Y-104428555D01*
X164519787Y-104389515D01*
X164696403Y-104299525D01*
X164696402Y-104299525D01*
X164696405Y-104299524D01*
X164855646Y-104183828D01*
X164994828Y-104044646D01*
X165110524Y-103885405D01*
X165110524Y-103885403D01*
X165113278Y-103881614D01*
X165168608Y-103838949D01*
X165213596Y-103830500D01*
X171508060Y-103830500D01*
X171575099Y-103850185D01*
X171595736Y-103866814D01*
X171658732Y-103929810D01*
X171680712Y-103951790D01*
X171811814Y-104039390D01*
X171811827Y-104039397D01*
X171957498Y-104099735D01*
X171957503Y-104099737D01*
X172112153Y-104130499D01*
X172112156Y-104130500D01*
X172112158Y-104130500D01*
X172269844Y-104130500D01*
X172269845Y-104130499D01*
X172424497Y-104099737D01*
X172557497Y-104044647D01*
X172570172Y-104039397D01*
X172570172Y-104039396D01*
X172570179Y-104039394D01*
X172683940Y-103963380D01*
X172750615Y-103942504D01*
X172817995Y-103960988D01*
X172840510Y-103978803D01*
X174744807Y-105883100D01*
X174778292Y-105944423D01*
X174773308Y-106014115D01*
X174731436Y-106070048D01*
X174665972Y-106094465D01*
X174618809Y-106088712D01*
X174554076Y-106067679D01*
X174554074Y-106067678D01*
X174554072Y-106067678D01*
X174385769Y-106041021D01*
X174313027Y-106029500D01*
X174068973Y-106029500D01*
X174013093Y-106038350D01*
X173827927Y-106067678D01*
X173595812Y-106143097D01*
X173378357Y-106253896D01*
X173180923Y-106397339D01*
X173180918Y-106397343D01*
X173008343Y-106569918D01*
X173008339Y-106569923D01*
X172864896Y-106767357D01*
X172754097Y-106984812D01*
X172678678Y-107216927D01*
X172642857Y-107443089D01*
X172640500Y-107457973D01*
X172640500Y-107702027D01*
X172649013Y-107755772D01*
X172676332Y-107928263D01*
X172678679Y-107943076D01*
X172754096Y-108175185D01*
X172859722Y-108382489D01*
X172864896Y-108392642D01*
X173008339Y-108590076D01*
X173008343Y-108590081D01*
X173180918Y-108762656D01*
X173180923Y-108762660D01*
X173305930Y-108853482D01*
X173378361Y-108906106D01*
X173595815Y-109016904D01*
X173827924Y-109092321D01*
X174068973Y-109130500D01*
X174068974Y-109130500D01*
X174313026Y-109130500D01*
X174313027Y-109130500D01*
X174554076Y-109092321D01*
X174786185Y-109016904D01*
X175003639Y-108906106D01*
X175201083Y-108762655D01*
X175373655Y-108590083D01*
X175517106Y-108392639D01*
X175627904Y-108175185D01*
X175703321Y-107943076D01*
X175741500Y-107702027D01*
X175741500Y-107457973D01*
X175703321Y-107216924D01*
X175627904Y-106984815D01*
X175625858Y-106980801D01*
X175612961Y-106912133D01*
X175639235Y-106847392D01*
X175696339Y-106807133D01*
X175766145Y-106804138D01*
X175768384Y-106804714D01*
X175860886Y-106829501D01*
X175860888Y-106829501D01*
X176026597Y-106829501D01*
X176026613Y-106829500D01*
X177517000Y-106829500D01*
X177584039Y-106849185D01*
X177629794Y-106901989D01*
X177641000Y-106953500D01*
X177641000Y-107330000D01*
X178590999Y-107330000D01*
X178565979Y-107390402D01*
X178541000Y-107515981D01*
X178541000Y-107644019D01*
X178565979Y-107769598D01*
X178590999Y-107830000D01*
X177641000Y-107830000D01*
X177641000Y-108677844D01*
X177647401Y-108737372D01*
X177647403Y-108737379D01*
X177697645Y-108872086D01*
X177697649Y-108872093D01*
X177783809Y-108987187D01*
X177783812Y-108987190D01*
X177898906Y-109073350D01*
X177898913Y-109073354D01*
X178033620Y-109123596D01*
X178033627Y-109123598D01*
X178093155Y-109129999D01*
X178093172Y-109130000D01*
X178941000Y-109130000D01*
X178941000Y-108180001D01*
X179001402Y-108205021D01*
X179126981Y-108230000D01*
X179255019Y-108230000D01*
X179380598Y-108205021D01*
X179441000Y-108180001D01*
X179441000Y-109130000D01*
X180288828Y-109130000D01*
X180288844Y-109129999D01*
X180348372Y-109123598D01*
X180348379Y-109123596D01*
X180483086Y-109073354D01*
X180483093Y-109073350D01*
X180598187Y-108987190D01*
X180598190Y-108987187D01*
X180684350Y-108872093D01*
X180684354Y-108872086D01*
X180734596Y-108737379D01*
X180734598Y-108737372D01*
X180740999Y-108677844D01*
X180741000Y-108677827D01*
X180741000Y-107830000D01*
X179791001Y-107830000D01*
X179816021Y-107769598D01*
X179841000Y-107644019D01*
X179841000Y-107515981D01*
X179816021Y-107390402D01*
X179791001Y-107330000D01*
X180741000Y-107330000D01*
X180741000Y-106953500D01*
X180760685Y-106886461D01*
X180813489Y-106840706D01*
X180865000Y-106829500D01*
X184539903Y-106829500D01*
X184606942Y-106849185D01*
X184627584Y-106865819D01*
X186706139Y-108944374D01*
X186706149Y-108944385D01*
X186710479Y-108948715D01*
X186710480Y-108948716D01*
X186822284Y-109060520D01*
X186894776Y-109102372D01*
X186909095Y-109110639D01*
X186909097Y-109110641D01*
X186942626Y-109129999D01*
X186959215Y-109139577D01*
X187111943Y-109180500D01*
X187270057Y-109180500D01*
X189140901Y-109180500D01*
X189207940Y-109200185D01*
X189228582Y-109216818D01*
X189322284Y-109310520D01*
X189322286Y-109310521D01*
X189322290Y-109310524D01*
X189418732Y-109366204D01*
X189459216Y-109389577D01*
X189571019Y-109419534D01*
X189611942Y-109430500D01*
X189611943Y-109430500D01*
X190111234Y-109430500D01*
X190178273Y-109450185D01*
X190180125Y-109451398D01*
X190311814Y-109539390D01*
X190311827Y-109539397D01*
X190425915Y-109586653D01*
X190457503Y-109599737D01*
X190612153Y-109630499D01*
X190612156Y-109630500D01*
X190612158Y-109630500D01*
X190769844Y-109630500D01*
X190769845Y-109630499D01*
X190924497Y-109599737D01*
X191070179Y-109539394D01*
X191201289Y-109451789D01*
X191312789Y-109340289D01*
X191345321Y-109291602D01*
X191398933Y-109246797D01*
X191468258Y-109238090D01*
X191531286Y-109268244D01*
X191558908Y-109304198D01*
X191614317Y-109412944D01*
X191740523Y-109586651D01*
X191892349Y-109738477D01*
X192066056Y-109864683D01*
X192159888Y-109912492D01*
X192257366Y-109962161D01*
X192257369Y-109962162D01*
X192359470Y-109995336D01*
X192461573Y-110028511D01*
X192673643Y-110062100D01*
X192673644Y-110062100D01*
X194158356Y-110062100D01*
X194158357Y-110062100D01*
X194370427Y-110028511D01*
X194574633Y-109962161D01*
X194765944Y-109864683D01*
X194939651Y-109738477D01*
X195091477Y-109586651D01*
X195217683Y-109412944D01*
X195315161Y-109221633D01*
X195381511Y-109017427D01*
X195415100Y-108805357D01*
X195415100Y-108590643D01*
X195381511Y-108378573D01*
X195331443Y-108224477D01*
X195315162Y-108174369D01*
X195315161Y-108174366D01*
X195217682Y-107983054D01*
X195200797Y-107959815D01*
X195179988Y-107931173D01*
X195156508Y-107865370D01*
X195172333Y-107797316D01*
X195192621Y-107770612D01*
X195549506Y-107413728D01*
X195549511Y-107413724D01*
X195559714Y-107403520D01*
X195559716Y-107403520D01*
X195671520Y-107291716D01*
X195735730Y-107180500D01*
X195750577Y-107154785D01*
X195791500Y-107002057D01*
X195791500Y-106843943D01*
X195791500Y-106060154D01*
X195811185Y-105993115D01*
X195827819Y-105972473D01*
X196759743Y-105040549D01*
X197781490Y-104018801D01*
X197842811Y-103985318D01*
X197912503Y-103990302D01*
X197938060Y-104003382D01*
X198051814Y-104079390D01*
X198051827Y-104079397D01*
X198197498Y-104139735D01*
X198197503Y-104139737D01*
X198352153Y-104170499D01*
X198352156Y-104170500D01*
X198352158Y-104170500D01*
X198509844Y-104170500D01*
X198509845Y-104170499D01*
X198664497Y-104139737D01*
X198810179Y-104079394D01*
X198941289Y-103991789D01*
X199052789Y-103880289D01*
X199052793Y-103880281D01*
X199056445Y-103875834D01*
X199114191Y-103836500D01*
X199152298Y-103830500D01*
X207391500Y-103830500D01*
X207458539Y-103850185D01*
X207504294Y-103902989D01*
X207515500Y-103954500D01*
X207515500Y-104033846D01*
X207546261Y-104188489D01*
X207546264Y-104188501D01*
X207606602Y-104334172D01*
X207606609Y-104334185D01*
X207694210Y-104465288D01*
X207694213Y-104465292D01*
X209930707Y-106701786D01*
X209930711Y-106701789D01*
X210061814Y-106789390D01*
X210061827Y-106789397D01*
X210206170Y-106849185D01*
X210207503Y-106849737D01*
X210324172Y-106872944D01*
X210362153Y-106880499D01*
X210362156Y-106880500D01*
X210362158Y-106880500D01*
X210519843Y-106880500D01*
X210606626Y-106880500D01*
X210673665Y-106900185D01*
X210706942Y-106931612D01*
X210790523Y-107046651D01*
X210942349Y-107198477D01*
X211116056Y-107324683D01*
X211119998Y-107327547D01*
X211118624Y-107329437D01*
X211159030Y-107374152D01*
X211170411Y-107443089D01*
X211142715Y-107507235D01*
X211119314Y-107527511D01*
X211119998Y-107528453D01*
X211116056Y-107531316D01*
X211116056Y-107531317D01*
X210942349Y-107657523D01*
X210942347Y-107657525D01*
X210942346Y-107657525D01*
X210790525Y-107809346D01*
X210790525Y-107809347D01*
X210790523Y-107809349D01*
X210771346Y-107835744D01*
X210664315Y-107983057D01*
X210640501Y-108029796D01*
X210592527Y-108080591D01*
X210530017Y-108097500D01*
X198520766Y-108097500D01*
X198453727Y-108077815D01*
X198451875Y-108076602D01*
X198320185Y-107988609D01*
X198320172Y-107988602D01*
X198174501Y-107928264D01*
X198174489Y-107928261D01*
X198019845Y-107897500D01*
X198019842Y-107897500D01*
X197862158Y-107897500D01*
X197862155Y-107897500D01*
X197707510Y-107928261D01*
X197707498Y-107928264D01*
X197561827Y-107988602D01*
X197561814Y-107988609D01*
X197430711Y-108076210D01*
X197430707Y-108076213D01*
X197319213Y-108187707D01*
X197319210Y-108187711D01*
X197231609Y-108318814D01*
X197231602Y-108318827D01*
X197171264Y-108464498D01*
X197171261Y-108464510D01*
X197140500Y-108619153D01*
X197140500Y-108776846D01*
X197171261Y-108931489D01*
X197171264Y-108931501D01*
X197231602Y-109077172D01*
X197231609Y-109077185D01*
X197319210Y-109208288D01*
X197319213Y-109208292D01*
X197430707Y-109319786D01*
X197430711Y-109319789D01*
X197561814Y-109407390D01*
X197561827Y-109407397D01*
X197707498Y-109467735D01*
X197707503Y-109467737D01*
X197862153Y-109498499D01*
X197862156Y-109498500D01*
X197862158Y-109498500D01*
X198019844Y-109498500D01*
X198019845Y-109498499D01*
X198174497Y-109467737D01*
X198320179Y-109407394D01*
X198346844Y-109389577D01*
X198451875Y-109319398D01*
X198518553Y-109298520D01*
X198520766Y-109298500D01*
X210530017Y-109298500D01*
X210597056Y-109318185D01*
X210640501Y-109366204D01*
X210664315Y-109412942D01*
X210692537Y-109451786D01*
X210790523Y-109586651D01*
X210942349Y-109738477D01*
X211116056Y-109864683D01*
X211209888Y-109912492D01*
X211307366Y-109962161D01*
X211307369Y-109962162D01*
X211409470Y-109995336D01*
X211511573Y-110028511D01*
X211723643Y-110062100D01*
X211723644Y-110062100D01*
X213208356Y-110062100D01*
X213208357Y-110062100D01*
X213420427Y-110028511D01*
X213613319Y-109965837D01*
X217240500Y-109965837D01*
X217240500Y-110194162D01*
X217276215Y-110419660D01*
X217346770Y-110636803D01*
X217450421Y-110840228D01*
X217584621Y-111024937D01*
X217746063Y-111186379D01*
X217930772Y-111320579D01*
X218026884Y-111369550D01*
X218134196Y-111424229D01*
X218134198Y-111424229D01*
X218134201Y-111424231D01*
X218250592Y-111462049D01*
X218351339Y-111494784D01*
X218576838Y-111530500D01*
X218576843Y-111530500D01*
X218805162Y-111530500D01*
X219030660Y-111494784D01*
X219247799Y-111424231D01*
X219451228Y-111320579D01*
X219635937Y-111186379D01*
X219797379Y-111024937D01*
X219931579Y-110840228D01*
X220035231Y-110636799D01*
X220105784Y-110419660D01*
X220141500Y-110194162D01*
X220141500Y-109965837D01*
X220105784Y-109740339D01*
X220055848Y-109586653D01*
X220035231Y-109523201D01*
X220035229Y-109523198D01*
X220035229Y-109523196D01*
X219976226Y-109407397D01*
X219931579Y-109319772D01*
X219797379Y-109135063D01*
X219635937Y-108973621D01*
X219451228Y-108839421D01*
X219389025Y-108807727D01*
X219247803Y-108735770D01*
X219030660Y-108665215D01*
X218805162Y-108629500D01*
X218805157Y-108629500D01*
X218576843Y-108629500D01*
X218576838Y-108629500D01*
X218351339Y-108665215D01*
X218134196Y-108735770D01*
X217930771Y-108839421D01*
X217746061Y-108973622D01*
X217584622Y-109135061D01*
X217450421Y-109319771D01*
X217346770Y-109523196D01*
X217276215Y-109740339D01*
X217240500Y-109965837D01*
X213613319Y-109965837D01*
X213624633Y-109962161D01*
X213815944Y-109864683D01*
X213989651Y-109738477D01*
X214141477Y-109586651D01*
X214267683Y-109412944D01*
X214365161Y-109221633D01*
X214431511Y-109017427D01*
X214465100Y-108805357D01*
X214465100Y-108686496D01*
X214484785Y-108619457D01*
X214501414Y-108598820D01*
X217189506Y-105910727D01*
X217189511Y-105910724D01*
X217199714Y-105900520D01*
X217199716Y-105900520D01*
X217311520Y-105788716D01*
X217316841Y-105779500D01*
X217362266Y-105700822D01*
X217362266Y-105700821D01*
X217390577Y-105651785D01*
X217431500Y-105499057D01*
X217431500Y-105340943D01*
X217431500Y-70730943D01*
X217390577Y-70578216D01*
X217390577Y-70578215D01*
X217351995Y-70511389D01*
X217350791Y-70509304D01*
X217350786Y-70509294D01*
X217311524Y-70441290D01*
X217311521Y-70441286D01*
X217311520Y-70441284D01*
X217199716Y-70329480D01*
X217199715Y-70329479D01*
X217195385Y-70325149D01*
X217195374Y-70325139D01*
X211836072Y-64965837D01*
X217240500Y-64965837D01*
X217240500Y-65194162D01*
X217276215Y-65419660D01*
X217346770Y-65636803D01*
X217416163Y-65772993D01*
X217450421Y-65840228D01*
X217584621Y-66024937D01*
X217746063Y-66186379D01*
X217930772Y-66320579D01*
X218026884Y-66369550D01*
X218134196Y-66424229D01*
X218134198Y-66424229D01*
X218134201Y-66424231D01*
X218242621Y-66459459D01*
X218351339Y-66494784D01*
X218576838Y-66530500D01*
X218576843Y-66530500D01*
X218805162Y-66530500D01*
X219030660Y-66494784D01*
X219062018Y-66484595D01*
X219247799Y-66424231D01*
X219451228Y-66320579D01*
X219635937Y-66186379D01*
X219797379Y-66024937D01*
X219931579Y-65840228D01*
X220035231Y-65636799D01*
X220105784Y-65419660D01*
X220129014Y-65272993D01*
X220141500Y-65194162D01*
X220141500Y-64965837D01*
X220105784Y-64740339D01*
X220044027Y-64550272D01*
X220035231Y-64523201D01*
X220035229Y-64523198D01*
X220035229Y-64523196D01*
X219958604Y-64372812D01*
X219931579Y-64319772D01*
X219797379Y-64135063D01*
X219635937Y-63973621D01*
X219451228Y-63839421D01*
X219247803Y-63735770D01*
X219030660Y-63665215D01*
X218805162Y-63629500D01*
X218805157Y-63629500D01*
X218576843Y-63629500D01*
X218576838Y-63629500D01*
X218351339Y-63665215D01*
X218134196Y-63735770D01*
X217930771Y-63839421D01*
X217746061Y-63973622D01*
X217584622Y-64135061D01*
X217450421Y-64319771D01*
X217346770Y-64523196D01*
X217276215Y-64740339D01*
X217240500Y-64965837D01*
X211836072Y-64965837D01*
X210378590Y-63508355D01*
X210378588Y-63508352D01*
X210259717Y-63389481D01*
X210259716Y-63389480D01*
X210241370Y-63378888D01*
X210172905Y-63339360D01*
X210172903Y-63339359D01*
X210139172Y-63319884D01*
X210090960Y-63269319D01*
X210077738Y-63200712D01*
X210103706Y-63135848D01*
X210160620Y-63095320D01*
X210201176Y-63088500D01*
X220558500Y-63088500D01*
X220625539Y-63108185D01*
G37*
G04 #@! TD.AperFunction*
G04 #@! TA.AperFunction,Conductor*
G36*
X152682445Y-106203732D02*
G01*
X152721485Y-106248787D01*
X152811474Y-106425403D01*
X152846234Y-106473246D01*
X152927172Y-106584646D01*
X153066354Y-106723828D01*
X153176891Y-106804138D01*
X153225596Y-106839525D01*
X153402763Y-106929795D01*
X153453560Y-106977769D01*
X153470355Y-107045590D01*
X153447818Y-107111725D01*
X153402764Y-107150765D01*
X153225859Y-107240902D01*
X153190873Y-107266320D01*
X153190872Y-107266320D01*
X153743425Y-107818871D01*
X153684147Y-107834755D01*
X153567853Y-107901898D01*
X153472898Y-107996853D01*
X153405755Y-108113147D01*
X153389871Y-108172424D01*
X152837320Y-107619872D01*
X152837320Y-107619873D01*
X152811902Y-107654859D01*
X152811899Y-107654863D01*
X152760485Y-107755772D01*
X152712511Y-107806569D01*
X152644690Y-107823364D01*
X152578555Y-107800827D01*
X152535103Y-107746112D01*
X152526000Y-107699478D01*
X152526000Y-107577172D01*
X152525999Y-107577155D01*
X152519598Y-107517627D01*
X152519596Y-107517620D01*
X152469354Y-107382913D01*
X152469350Y-107382906D01*
X152383190Y-107267812D01*
X152383187Y-107267809D01*
X152268093Y-107181649D01*
X152268086Y-107181645D01*
X152133379Y-107131403D01*
X152133372Y-107131401D01*
X152073844Y-107125000D01*
X151952624Y-107125000D01*
X151885585Y-107105315D01*
X151839830Y-107052511D01*
X151829886Y-106983353D01*
X151858911Y-106919797D01*
X151896329Y-106890515D01*
X151906666Y-106885248D01*
X151996405Y-106839524D01*
X152155646Y-106723828D01*
X152294828Y-106584646D01*
X152410524Y-106425405D01*
X152499884Y-106250025D01*
X152500515Y-106248787D01*
X152548489Y-106197990D01*
X152616310Y-106181195D01*
X152682445Y-106203732D01*
G37*
G04 #@! TD.AperFunction*
G04 #@! TA.AperFunction,Conductor*
G36*
X155222445Y-106203732D02*
G01*
X155261485Y-106248787D01*
X155351474Y-106425403D01*
X155386234Y-106473246D01*
X155467172Y-106584646D01*
X155606354Y-106723828D01*
X155716891Y-106804138D01*
X155765596Y-106839525D01*
X155942763Y-106929795D01*
X155993560Y-106977769D01*
X156010355Y-107045590D01*
X155987818Y-107111725D01*
X155942764Y-107150765D01*
X155765859Y-107240902D01*
X155730873Y-107266320D01*
X155730872Y-107266320D01*
X156283425Y-107818871D01*
X156224147Y-107834755D01*
X156107853Y-107901898D01*
X156012898Y-107996853D01*
X155945755Y-108113147D01*
X155929871Y-108172424D01*
X155377320Y-107619872D01*
X155377320Y-107619873D01*
X155351902Y-107654859D01*
X155261484Y-107832315D01*
X155213509Y-107883111D01*
X155145688Y-107899906D01*
X155079553Y-107877369D01*
X155040514Y-107832314D01*
X154950097Y-107654860D01*
X154924678Y-107619873D01*
X154924677Y-107619873D01*
X154372127Y-108172423D01*
X154356245Y-108113147D01*
X154289102Y-107996853D01*
X154194147Y-107901898D01*
X154077853Y-107834755D01*
X154018574Y-107818871D01*
X154571125Y-107266320D01*
X154571125Y-107266319D01*
X154536145Y-107240905D01*
X154359235Y-107150765D01*
X154308439Y-107102790D01*
X154291644Y-107034969D01*
X154314182Y-106968834D01*
X154359236Y-106929795D01*
X154361022Y-106928884D01*
X154361025Y-106928884D01*
X154536405Y-106839524D01*
X154695646Y-106723828D01*
X154834828Y-106584646D01*
X154950524Y-106425405D01*
X155039884Y-106250025D01*
X155040515Y-106248787D01*
X155088489Y-106197990D01*
X155156310Y-106181195D01*
X155222445Y-106203732D01*
G37*
G04 #@! TD.AperFunction*
G04 #@! TA.AperFunction,Conductor*
G36*
X157762445Y-106203732D02*
G01*
X157801485Y-106248787D01*
X157891474Y-106425403D01*
X157926234Y-106473246D01*
X158007172Y-106584646D01*
X158146354Y-106723828D01*
X158256891Y-106804138D01*
X158305596Y-106839525D01*
X158482763Y-106929795D01*
X158533560Y-106977769D01*
X158550355Y-107045590D01*
X158527818Y-107111725D01*
X158482764Y-107150765D01*
X158305859Y-107240902D01*
X158270873Y-107266320D01*
X158270872Y-107266320D01*
X158823425Y-107818871D01*
X158764147Y-107834755D01*
X158647853Y-107901898D01*
X158552898Y-107996853D01*
X158485755Y-108113147D01*
X158469871Y-108172424D01*
X157917320Y-107619872D01*
X157917320Y-107619873D01*
X157891902Y-107654859D01*
X157801484Y-107832315D01*
X157753509Y-107883111D01*
X157685688Y-107899906D01*
X157619553Y-107877369D01*
X157580514Y-107832314D01*
X157490097Y-107654860D01*
X157464678Y-107619873D01*
X157464677Y-107619873D01*
X156912127Y-108172423D01*
X156896245Y-108113147D01*
X156829102Y-107996853D01*
X156734147Y-107901898D01*
X156617853Y-107834755D01*
X156558574Y-107818871D01*
X157111125Y-107266320D01*
X157111125Y-107266319D01*
X157076145Y-107240905D01*
X156899235Y-107150765D01*
X156848439Y-107102790D01*
X156831644Y-107034969D01*
X156854182Y-106968834D01*
X156899236Y-106929795D01*
X156901022Y-106928884D01*
X156901025Y-106928884D01*
X157076405Y-106839524D01*
X157235646Y-106723828D01*
X157374828Y-106584646D01*
X157490524Y-106425405D01*
X157579884Y-106250025D01*
X157580515Y-106248787D01*
X157628489Y-106197990D01*
X157696310Y-106181195D01*
X157762445Y-106203732D01*
G37*
G04 #@! TD.AperFunction*
G04 #@! TA.AperFunction,Conductor*
G36*
X160302445Y-106203732D02*
G01*
X160341485Y-106248787D01*
X160431474Y-106425403D01*
X160466234Y-106473246D01*
X160547172Y-106584646D01*
X160686354Y-106723828D01*
X160796891Y-106804138D01*
X160845596Y-106839525D01*
X161022763Y-106929795D01*
X161073560Y-106977769D01*
X161090355Y-107045590D01*
X161067818Y-107111725D01*
X161022764Y-107150765D01*
X160845859Y-107240902D01*
X160810873Y-107266320D01*
X160810872Y-107266320D01*
X161363425Y-107818871D01*
X161304147Y-107834755D01*
X161187853Y-107901898D01*
X161092898Y-107996853D01*
X161025755Y-108113147D01*
X161009871Y-108172424D01*
X160457320Y-107619872D01*
X160457320Y-107619873D01*
X160431902Y-107654859D01*
X160341484Y-107832315D01*
X160293509Y-107883111D01*
X160225688Y-107899906D01*
X160159553Y-107877369D01*
X160120514Y-107832314D01*
X160030097Y-107654860D01*
X160004678Y-107619873D01*
X160004677Y-107619873D01*
X159452127Y-108172423D01*
X159436245Y-108113147D01*
X159369102Y-107996853D01*
X159274147Y-107901898D01*
X159157853Y-107834755D01*
X159098574Y-107818871D01*
X159651125Y-107266320D01*
X159651125Y-107266319D01*
X159616145Y-107240905D01*
X159439235Y-107150765D01*
X159388439Y-107102790D01*
X159371644Y-107034969D01*
X159394182Y-106968834D01*
X159439236Y-106929795D01*
X159441022Y-106928884D01*
X159441025Y-106928884D01*
X159616405Y-106839524D01*
X159775646Y-106723828D01*
X159914828Y-106584646D01*
X160030524Y-106425405D01*
X160119884Y-106250025D01*
X160120515Y-106248787D01*
X160168489Y-106197990D01*
X160236310Y-106181195D01*
X160302445Y-106203732D01*
G37*
G04 #@! TD.AperFunction*
G04 #@! TA.AperFunction,Conductor*
G36*
X162842445Y-106203732D02*
G01*
X162881485Y-106248787D01*
X162971474Y-106425403D01*
X163006234Y-106473246D01*
X163087172Y-106584646D01*
X163226354Y-106723828D01*
X163336891Y-106804138D01*
X163385596Y-106839525D01*
X163562763Y-106929795D01*
X163613560Y-106977769D01*
X163630355Y-107045590D01*
X163607818Y-107111725D01*
X163562764Y-107150765D01*
X163385859Y-107240902D01*
X163350873Y-107266320D01*
X163350872Y-107266320D01*
X163903425Y-107818871D01*
X163844147Y-107834755D01*
X163727853Y-107901898D01*
X163632898Y-107996853D01*
X163565755Y-108113147D01*
X163549871Y-108172424D01*
X162997320Y-107619872D01*
X162997320Y-107619873D01*
X162971902Y-107654859D01*
X162881484Y-107832315D01*
X162833509Y-107883111D01*
X162765688Y-107899906D01*
X162699553Y-107877369D01*
X162660514Y-107832314D01*
X162570097Y-107654860D01*
X162544678Y-107619873D01*
X162544677Y-107619873D01*
X161992127Y-108172423D01*
X161976245Y-108113147D01*
X161909102Y-107996853D01*
X161814147Y-107901898D01*
X161697853Y-107834755D01*
X161638574Y-107818871D01*
X162191125Y-107266320D01*
X162191125Y-107266319D01*
X162156145Y-107240905D01*
X161979235Y-107150765D01*
X161928439Y-107102790D01*
X161911644Y-107034969D01*
X161934182Y-106968834D01*
X161979236Y-106929795D01*
X161981022Y-106928884D01*
X161981025Y-106928884D01*
X162156405Y-106839524D01*
X162315646Y-106723828D01*
X162454828Y-106584646D01*
X162570524Y-106425405D01*
X162659884Y-106250025D01*
X162660515Y-106248787D01*
X162708489Y-106197990D01*
X162776310Y-106181195D01*
X162842445Y-106203732D01*
G37*
G04 #@! TD.AperFunction*
G04 #@! TA.AperFunction,Conductor*
G36*
X209657942Y-64490185D02*
G01*
X209678584Y-64506819D01*
X216194181Y-71022416D01*
X216227666Y-71083739D01*
X216230500Y-71110097D01*
X216230500Y-105119902D01*
X216210815Y-105186941D01*
X216194181Y-105207583D01*
X214550000Y-106851763D01*
X214488677Y-106885248D01*
X214418985Y-106880264D01*
X214363052Y-106838392D01*
X214338635Y-106772928D01*
X214351836Y-106707784D01*
X214354891Y-106701789D01*
X214365161Y-106681633D01*
X214431511Y-106477427D01*
X214465100Y-106265357D01*
X214465100Y-106050643D01*
X214431511Y-105838573D01*
X214370821Y-105651787D01*
X214365162Y-105634369D01*
X214365161Y-105634366D01*
X214285067Y-105477174D01*
X214267683Y-105443056D01*
X214141477Y-105269349D01*
X213989651Y-105117523D01*
X213815944Y-104991317D01*
X213815943Y-104991316D01*
X213812002Y-104988453D01*
X213813405Y-104986521D01*
X213773078Y-104942073D01*
X213761558Y-104873160D01*
X213789125Y-104808958D01*
X213812709Y-104788521D01*
X213812002Y-104787547D01*
X213858669Y-104753641D01*
X213989651Y-104658477D01*
X214141477Y-104506651D01*
X214267683Y-104332944D01*
X214365161Y-104141633D01*
X214431511Y-103937427D01*
X214465100Y-103725357D01*
X214465100Y-103510643D01*
X214431511Y-103298573D01*
X214379939Y-103139848D01*
X214365162Y-103094369D01*
X214365161Y-103094366D01*
X214285067Y-102937174D01*
X214267683Y-102903056D01*
X214141477Y-102729349D01*
X213989651Y-102577523D01*
X213815944Y-102451317D01*
X213815943Y-102451316D01*
X213812002Y-102448453D01*
X213813405Y-102446521D01*
X213773078Y-102402073D01*
X213761558Y-102333160D01*
X213789125Y-102268958D01*
X213812709Y-102248521D01*
X213812002Y-102247547D01*
X213821595Y-102240577D01*
X213989651Y-102118477D01*
X214141477Y-101966651D01*
X214267683Y-101792944D01*
X214365161Y-101601633D01*
X214431511Y-101397427D01*
X214465100Y-101185357D01*
X214465100Y-100970643D01*
X214431511Y-100758573D01*
X214365161Y-100554367D01*
X214365161Y-100554366D01*
X214291498Y-100409796D01*
X214267683Y-100363056D01*
X214141477Y-100189349D01*
X213989651Y-100037523D01*
X213815944Y-99911317D01*
X213815943Y-99911316D01*
X213812002Y-99908453D01*
X213813405Y-99906521D01*
X213773078Y-99862073D01*
X213761558Y-99793160D01*
X213789125Y-99728958D01*
X213812709Y-99708521D01*
X213812002Y-99707547D01*
X213833527Y-99691908D01*
X213989651Y-99578477D01*
X214141477Y-99426651D01*
X214267683Y-99252944D01*
X214365161Y-99061633D01*
X214431511Y-98857427D01*
X214465100Y-98645357D01*
X214465100Y-98430643D01*
X214431511Y-98218573D01*
X214365161Y-98014367D01*
X214365161Y-98014366D01*
X214297135Y-97880859D01*
X214267683Y-97823056D01*
X214141477Y-97649349D01*
X213989651Y-97497523D01*
X213815944Y-97371317D01*
X213815943Y-97371316D01*
X213812002Y-97368453D01*
X213813405Y-97366521D01*
X213773078Y-97322073D01*
X213761558Y-97253160D01*
X213789125Y-97188958D01*
X213812709Y-97168521D01*
X213812002Y-97167547D01*
X213815944Y-97164683D01*
X213989651Y-97038477D01*
X214141477Y-96886651D01*
X214267683Y-96712944D01*
X214365161Y-96521633D01*
X214431511Y-96317427D01*
X214465100Y-96105357D01*
X214465100Y-95890643D01*
X214431511Y-95678573D01*
X214365161Y-95474367D01*
X214365161Y-95474366D01*
X214281546Y-95310264D01*
X214267683Y-95283056D01*
X214141477Y-95109349D01*
X213989651Y-94957523D01*
X213815944Y-94831317D01*
X213815943Y-94831316D01*
X213812002Y-94828453D01*
X213813405Y-94826521D01*
X213773078Y-94782073D01*
X213761558Y-94713160D01*
X213789125Y-94648958D01*
X213812709Y-94628521D01*
X213812002Y-94627547D01*
X213815944Y-94624683D01*
X213989651Y-94498477D01*
X214141477Y-94346651D01*
X214267683Y-94172944D01*
X214365161Y-93981633D01*
X214431511Y-93777427D01*
X214465100Y-93565357D01*
X214465100Y-93350643D01*
X214431511Y-93138573D01*
X214385350Y-92996503D01*
X214365162Y-92934369D01*
X214365161Y-92934366D01*
X214286252Y-92779500D01*
X214267683Y-92743056D01*
X214141477Y-92569349D01*
X213989651Y-92417523D01*
X213815944Y-92291317D01*
X213815943Y-92291316D01*
X213812002Y-92288453D01*
X213813405Y-92286521D01*
X213773078Y-92242073D01*
X213761558Y-92173160D01*
X213789125Y-92108958D01*
X213812709Y-92088521D01*
X213812002Y-92087547D01*
X213820796Y-92081158D01*
X213989651Y-91958477D01*
X214141477Y-91806651D01*
X214267683Y-91632944D01*
X214365161Y-91441633D01*
X214431511Y-91237427D01*
X214465100Y-91025357D01*
X214465100Y-90810643D01*
X214431511Y-90598573D01*
X214396319Y-90490261D01*
X214365162Y-90394369D01*
X214365161Y-90394366D01*
X214282835Y-90232794D01*
X214267683Y-90203056D01*
X214141477Y-90029349D01*
X213989651Y-89877523D01*
X213815944Y-89751317D01*
X213815943Y-89751316D01*
X213812002Y-89748453D01*
X213813405Y-89746521D01*
X213773078Y-89702073D01*
X213761558Y-89633160D01*
X213789125Y-89568958D01*
X213812709Y-89548521D01*
X213812002Y-89547547D01*
X213815944Y-89544683D01*
X213989651Y-89418477D01*
X214141477Y-89266651D01*
X214267683Y-89092944D01*
X214365161Y-88901633D01*
X214431511Y-88697427D01*
X214465100Y-88485357D01*
X214465100Y-88270643D01*
X214431511Y-88058573D01*
X214396501Y-87950821D01*
X214365162Y-87854369D01*
X214365161Y-87854366D01*
X214268951Y-87665545D01*
X214267683Y-87663056D01*
X214141477Y-87489349D01*
X213989651Y-87337523D01*
X213815944Y-87211317D01*
X213815943Y-87211316D01*
X213812002Y-87208453D01*
X213813405Y-87206521D01*
X213773078Y-87162073D01*
X213761558Y-87093160D01*
X213789125Y-87028958D01*
X213812709Y-87008521D01*
X213812002Y-87007547D01*
X213815944Y-87004683D01*
X213989651Y-86878477D01*
X214141477Y-86726651D01*
X214267683Y-86552944D01*
X214365161Y-86361633D01*
X214431511Y-86157427D01*
X214465100Y-85945357D01*
X214465100Y-85730643D01*
X214431511Y-85518573D01*
X214383316Y-85370243D01*
X214365162Y-85314369D01*
X214365161Y-85314366D01*
X214297135Y-85180859D01*
X214267683Y-85123056D01*
X214141477Y-84949349D01*
X213989651Y-84797523D01*
X213815944Y-84671317D01*
X213815943Y-84671316D01*
X213812002Y-84668453D01*
X213813405Y-84666521D01*
X213773078Y-84622073D01*
X213761558Y-84553160D01*
X213789125Y-84488958D01*
X213812709Y-84468521D01*
X213812002Y-84467547D01*
X213821251Y-84460827D01*
X213989651Y-84338477D01*
X214141477Y-84186651D01*
X214267683Y-84012944D01*
X214365161Y-83821633D01*
X214431511Y-83617427D01*
X214465100Y-83405357D01*
X214465100Y-83190643D01*
X214431511Y-82978573D01*
X214379893Y-82819707D01*
X214365162Y-82774369D01*
X214365161Y-82774366D01*
X214286817Y-82620609D01*
X214267683Y-82583056D01*
X214141477Y-82409349D01*
X213989651Y-82257523D01*
X213815944Y-82131317D01*
X213815943Y-82131316D01*
X213812002Y-82128453D01*
X213813405Y-82126521D01*
X213773078Y-82082073D01*
X213761558Y-82013160D01*
X213789125Y-81948958D01*
X213812709Y-81928521D01*
X213812002Y-81927547D01*
X213820705Y-81921224D01*
X213989651Y-81798477D01*
X214141477Y-81646651D01*
X214267683Y-81472944D01*
X214365161Y-81281633D01*
X214431511Y-81077427D01*
X214465100Y-80865357D01*
X214465100Y-80650643D01*
X214431511Y-80438573D01*
X214392335Y-80318000D01*
X214365162Y-80234369D01*
X214365161Y-80234366D01*
X214267682Y-80043055D01*
X214240964Y-80006281D01*
X214141477Y-79869349D01*
X213989651Y-79717523D01*
X213815944Y-79591317D01*
X213815943Y-79591316D01*
X213812002Y-79588453D01*
X213813405Y-79586521D01*
X213773078Y-79542073D01*
X213761558Y-79473160D01*
X213789125Y-79408958D01*
X213812709Y-79388521D01*
X213812002Y-79387547D01*
X213825760Y-79377551D01*
X213989651Y-79258477D01*
X214141477Y-79106651D01*
X214267683Y-78932944D01*
X214365161Y-78741633D01*
X214431511Y-78537427D01*
X214465100Y-78325357D01*
X214465100Y-78110643D01*
X214431511Y-77898573D01*
X214365161Y-77694367D01*
X214365161Y-77694366D01*
X214267682Y-77503055D01*
X214237242Y-77461158D01*
X214141477Y-77329349D01*
X214044788Y-77232660D01*
X214011303Y-77171337D01*
X214016287Y-77101645D01*
X214058159Y-77045712D01*
X214089137Y-77028797D01*
X214206684Y-76984955D01*
X214206693Y-76984950D01*
X214321787Y-76898790D01*
X214321790Y-76898787D01*
X214407950Y-76783693D01*
X214407954Y-76783686D01*
X214458196Y-76648979D01*
X214458198Y-76648972D01*
X214464599Y-76589444D01*
X214464600Y-76589427D01*
X214464600Y-75928000D01*
X210467400Y-75928000D01*
X210467400Y-76589444D01*
X210473801Y-76648972D01*
X210473803Y-76648979D01*
X210524045Y-76783686D01*
X210524049Y-76783693D01*
X210610209Y-76898787D01*
X210610212Y-76898790D01*
X210725306Y-76984950D01*
X210725313Y-76984954D01*
X210842863Y-77028797D01*
X210898797Y-77070668D01*
X210923214Y-77136132D01*
X210908363Y-77204405D01*
X210887212Y-77232660D01*
X210790522Y-77329350D01*
X210664317Y-77503055D01*
X210566838Y-77694366D01*
X210566837Y-77694369D01*
X210500489Y-77898571D01*
X210481189Y-78020426D01*
X210466900Y-78110643D01*
X210466900Y-78325357D01*
X210470249Y-78346503D01*
X210500489Y-78537428D01*
X210566837Y-78741630D01*
X210566838Y-78741633D01*
X210660919Y-78926275D01*
X210664317Y-78932944D01*
X210790523Y-79106651D01*
X210942349Y-79258477D01*
X211106240Y-79377551D01*
X211119998Y-79387547D01*
X211118624Y-79389437D01*
X211159030Y-79434152D01*
X211170411Y-79503089D01*
X211142715Y-79567235D01*
X211119314Y-79587511D01*
X211119998Y-79588453D01*
X211116056Y-79591316D01*
X211116056Y-79591317D01*
X210942349Y-79717523D01*
X210942347Y-79717525D01*
X210942346Y-79717525D01*
X210790525Y-79869346D01*
X210790525Y-79869347D01*
X210790523Y-79869349D01*
X210765910Y-79903226D01*
X210664317Y-80043055D01*
X210566838Y-80234366D01*
X210566837Y-80234369D01*
X210500489Y-80438571D01*
X210483266Y-80547315D01*
X210466900Y-80650643D01*
X210466900Y-80865357D01*
X210469853Y-80884000D01*
X210500489Y-81077428D01*
X210566837Y-81281630D01*
X210566838Y-81281633D01*
X210634575Y-81414573D01*
X210664317Y-81472944D01*
X210790523Y-81646651D01*
X210942349Y-81798477D01*
X211111295Y-81921224D01*
X211119998Y-81927547D01*
X211118624Y-81929437D01*
X211159030Y-81974152D01*
X211170411Y-82043089D01*
X211142715Y-82107235D01*
X211119314Y-82127511D01*
X211119998Y-82128453D01*
X211116056Y-82131316D01*
X211116056Y-82131317D01*
X210942349Y-82257523D01*
X210942347Y-82257525D01*
X210942346Y-82257525D01*
X210790525Y-82409346D01*
X210790525Y-82409347D01*
X210790523Y-82409349D01*
X210752606Y-82461536D01*
X210664315Y-82583057D01*
X210640501Y-82629796D01*
X210592527Y-82680591D01*
X210530017Y-82697500D01*
X209006569Y-82697500D01*
X208939530Y-82677815D01*
X208893775Y-82625011D01*
X208884952Y-82597691D01*
X208880738Y-82576510D01*
X208880737Y-82576503D01*
X208874010Y-82560263D01*
X208820397Y-82430827D01*
X208820390Y-82430814D01*
X208732789Y-82299711D01*
X208732786Y-82299707D01*
X208621292Y-82188213D01*
X208621288Y-82188210D01*
X208490185Y-82100609D01*
X208490172Y-82100602D01*
X208344501Y-82040264D01*
X208344489Y-82040261D01*
X208189845Y-82009500D01*
X208189842Y-82009500D01*
X208032158Y-82009500D01*
X208032155Y-82009500D01*
X207877510Y-82040261D01*
X207877498Y-82040264D01*
X207731827Y-82100602D01*
X207731814Y-82100609D01*
X207600711Y-82188210D01*
X207600707Y-82188213D01*
X207489213Y-82299707D01*
X207489210Y-82299711D01*
X207401609Y-82430814D01*
X207401602Y-82430827D01*
X207341264Y-82576498D01*
X207341261Y-82576510D01*
X207310500Y-82731153D01*
X207310500Y-82888846D01*
X207341261Y-83043489D01*
X207341264Y-83043501D01*
X207401602Y-83189172D01*
X207401609Y-83189185D01*
X207489210Y-83320288D01*
X207489213Y-83320292D01*
X207600707Y-83431786D01*
X207600711Y-83431789D01*
X207731814Y-83519390D01*
X207731827Y-83519397D01*
X207859932Y-83572459D01*
X207877503Y-83579737D01*
X207942147Y-83592595D01*
X208032849Y-83610638D01*
X208049605Y-83619402D01*
X208068085Y-83623423D01*
X208093123Y-83642167D01*
X208094760Y-83643023D01*
X208096339Y-83644574D01*
X208114139Y-83662374D01*
X208114149Y-83662385D01*
X208118479Y-83666715D01*
X208118480Y-83666716D01*
X208230284Y-83778520D01*
X208301588Y-83819687D01*
X208367215Y-83857577D01*
X208519942Y-83898500D01*
X208519943Y-83898500D01*
X210530017Y-83898500D01*
X210597056Y-83918185D01*
X210640501Y-83966204D01*
X210664315Y-84012942D01*
X210683531Y-84039390D01*
X210790523Y-84186651D01*
X210942349Y-84338477D01*
X211110749Y-84460827D01*
X211119998Y-84467547D01*
X211118624Y-84469437D01*
X211159030Y-84514152D01*
X211170411Y-84583089D01*
X211142715Y-84647235D01*
X211119314Y-84667511D01*
X211119998Y-84668453D01*
X211116056Y-84671316D01*
X211116056Y-84671317D01*
X210942349Y-84797523D01*
X210942347Y-84797525D01*
X210942346Y-84797525D01*
X210790525Y-84949346D01*
X210790525Y-84949347D01*
X210790523Y-84949349D01*
X210784083Y-84958213D01*
X210664315Y-85123057D01*
X210640501Y-85169796D01*
X210592527Y-85220591D01*
X210530017Y-85237500D01*
X208969097Y-85237500D01*
X208902058Y-85217815D01*
X208881416Y-85201181D01*
X208505574Y-84825339D01*
X208472089Y-84764016D01*
X208471638Y-84761849D01*
X208440738Y-84606510D01*
X208440737Y-84606503D01*
X208418642Y-84553160D01*
X208380397Y-84460827D01*
X208380390Y-84460814D01*
X208292789Y-84329711D01*
X208292786Y-84329707D01*
X208181292Y-84218213D01*
X208181288Y-84218210D01*
X208050185Y-84130609D01*
X208050172Y-84130602D01*
X207904501Y-84070264D01*
X207904489Y-84070261D01*
X207749845Y-84039500D01*
X207749842Y-84039500D01*
X207592158Y-84039500D01*
X207592155Y-84039500D01*
X207437510Y-84070261D01*
X207437498Y-84070264D01*
X207291827Y-84130602D01*
X207291814Y-84130609D01*
X207160711Y-84218210D01*
X207160707Y-84218213D01*
X207049213Y-84329707D01*
X207049210Y-84329711D01*
X206961609Y-84460814D01*
X206961602Y-84460827D01*
X206901264Y-84606498D01*
X206901261Y-84606510D01*
X206870500Y-84761153D01*
X206870500Y-84918846D01*
X206902357Y-85079003D01*
X206896130Y-85148595D01*
X206853267Y-85203772D01*
X206787377Y-85227016D01*
X206756551Y-85224812D01*
X206729843Y-85219500D01*
X206729842Y-85219500D01*
X206572158Y-85219500D01*
X206572155Y-85219500D01*
X206417510Y-85250261D01*
X206417498Y-85250264D01*
X206271827Y-85310602D01*
X206271814Y-85310609D01*
X206140711Y-85398210D01*
X206140707Y-85398213D01*
X206029213Y-85509707D01*
X206029210Y-85509711D01*
X205941609Y-85640814D01*
X205941602Y-85640827D01*
X205881263Y-85786500D01*
X205881261Y-85786507D01*
X205880628Y-85789693D01*
X205879835Y-85791207D01*
X205879493Y-85792337D01*
X205879278Y-85792272D01*
X205848242Y-85851604D01*
X205787525Y-85886177D01*
X205759011Y-85889500D01*
X205682155Y-85889500D01*
X205527510Y-85920261D01*
X205527498Y-85920264D01*
X205381827Y-85980602D01*
X205381814Y-85980609D01*
X205250711Y-86068210D01*
X205250707Y-86068213D01*
X205139213Y-86179707D01*
X205139210Y-86179711D01*
X205051609Y-86310814D01*
X205051602Y-86310827D01*
X204991264Y-86456498D01*
X204991261Y-86456510D01*
X204960500Y-86611153D01*
X204960500Y-86768846D01*
X204991261Y-86923489D01*
X204991264Y-86923501D01*
X205051602Y-87069172D01*
X205051609Y-87069185D01*
X205139210Y-87200288D01*
X205139213Y-87200292D01*
X205250707Y-87311786D01*
X205250711Y-87311789D01*
X205381814Y-87399390D01*
X205381827Y-87399397D01*
X205506779Y-87451153D01*
X205527503Y-87459737D01*
X205592147Y-87472595D01*
X205682849Y-87490638D01*
X205744760Y-87523023D01*
X205746339Y-87524574D01*
X209504139Y-91282374D01*
X209504149Y-91282385D01*
X209508479Y-91286715D01*
X209508480Y-91286716D01*
X209620284Y-91398520D01*
X209694959Y-91441633D01*
X209757215Y-91477577D01*
X209909943Y-91518501D01*
X209909946Y-91518501D01*
X210075653Y-91518501D01*
X210075669Y-91518500D01*
X210530017Y-91518500D01*
X210597056Y-91538185D01*
X210640501Y-91586204D01*
X210664315Y-91632942D01*
X210664606Y-91633342D01*
X210790523Y-91806651D01*
X210942349Y-91958477D01*
X211111204Y-92081158D01*
X211119998Y-92087547D01*
X211118624Y-92089437D01*
X211159030Y-92134152D01*
X211170411Y-92203089D01*
X211142715Y-92267235D01*
X211119314Y-92287511D01*
X211119998Y-92288453D01*
X211116056Y-92291316D01*
X211116056Y-92291317D01*
X210942349Y-92417523D01*
X210942347Y-92417525D01*
X210942346Y-92417525D01*
X210790525Y-92569346D01*
X210790525Y-92569347D01*
X210790523Y-92569349D01*
X210762289Y-92608210D01*
X210664315Y-92743057D01*
X210640501Y-92789796D01*
X210592527Y-92840591D01*
X210530017Y-92857500D01*
X204509097Y-92857500D01*
X204442058Y-92837815D01*
X204421416Y-92821181D01*
X202845574Y-91245339D01*
X202812089Y-91184016D01*
X202811638Y-91181849D01*
X202793595Y-91091147D01*
X202780737Y-91026503D01*
X202739074Y-90925918D01*
X202720397Y-90880827D01*
X202720390Y-90880814D01*
X202632789Y-90749711D01*
X202632786Y-90749707D01*
X202521292Y-90638213D01*
X202521288Y-90638210D01*
X202390185Y-90550609D01*
X202390172Y-90550602D01*
X202244501Y-90490264D01*
X202244489Y-90490261D01*
X202089845Y-90459500D01*
X202089842Y-90459500D01*
X201932158Y-90459500D01*
X201932155Y-90459500D01*
X201777510Y-90490261D01*
X201777498Y-90490264D01*
X201631827Y-90550602D01*
X201631814Y-90550609D01*
X201500711Y-90638210D01*
X201500707Y-90638213D01*
X201389213Y-90749707D01*
X201389210Y-90749711D01*
X201301609Y-90880814D01*
X201301602Y-90880827D01*
X201241264Y-91026498D01*
X201241261Y-91026510D01*
X201210500Y-91181153D01*
X201210500Y-91248318D01*
X201190815Y-91315357D01*
X201138011Y-91361112D01*
X201068853Y-91371056D01*
X201062310Y-91369936D01*
X201009842Y-91359500D01*
X200852158Y-91359500D01*
X200852155Y-91359500D01*
X200697510Y-91390261D01*
X200697498Y-91390264D01*
X200551827Y-91450602D01*
X200551814Y-91450609D01*
X200420711Y-91538210D01*
X200420707Y-91538213D01*
X200309213Y-91649707D01*
X200309210Y-91649711D01*
X200221609Y-91780814D01*
X200221602Y-91780827D01*
X200161264Y-91926498D01*
X200161261Y-91926510D01*
X200130500Y-92081153D01*
X200130500Y-92081158D01*
X200130500Y-92238842D01*
X200133914Y-92256006D01*
X200144375Y-92308597D01*
X200138147Y-92378189D01*
X200095283Y-92433366D01*
X200046950Y-92454405D01*
X200017507Y-92460261D01*
X200017498Y-92460264D01*
X199871827Y-92520602D01*
X199871814Y-92520609D01*
X199740711Y-92608210D01*
X199740707Y-92608213D01*
X199629213Y-92719707D01*
X199629210Y-92719711D01*
X199541609Y-92850814D01*
X199541602Y-92850827D01*
X199481264Y-92996498D01*
X199481261Y-92996510D01*
X199450500Y-93151153D01*
X199450500Y-93308846D01*
X199481261Y-93463489D01*
X199481264Y-93463501D01*
X199541602Y-93609172D01*
X199541609Y-93609185D01*
X199629210Y-93740288D01*
X199629213Y-93740292D01*
X199740707Y-93851786D01*
X199740711Y-93851789D01*
X199871814Y-93939390D01*
X199871827Y-93939397D01*
X199993334Y-93989726D01*
X200017503Y-93999737D01*
X200075649Y-94011303D01*
X200172849Y-94030638D01*
X200234760Y-94063023D01*
X200236338Y-94064573D01*
X205190284Y-99018520D01*
X205190286Y-99018521D01*
X205190290Y-99018524D01*
X205314593Y-99090289D01*
X205327216Y-99097577D01*
X205479943Y-99138501D01*
X205479945Y-99138501D01*
X205645654Y-99138501D01*
X205645670Y-99138500D01*
X210530017Y-99138500D01*
X210597056Y-99158185D01*
X210640501Y-99206204D01*
X210664315Y-99252942D01*
X210690802Y-99289397D01*
X210790523Y-99426651D01*
X210942349Y-99578477D01*
X211098473Y-99691908D01*
X211119998Y-99707547D01*
X211118624Y-99709437D01*
X211159030Y-99754152D01*
X211170411Y-99823089D01*
X211142715Y-99887235D01*
X211119314Y-99907511D01*
X211119998Y-99908453D01*
X211116056Y-99911316D01*
X211116056Y-99911317D01*
X210942349Y-100037523D01*
X210942347Y-100037525D01*
X210942346Y-100037525D01*
X210790525Y-100189346D01*
X210790525Y-100189347D01*
X210790523Y-100189349D01*
X210782184Y-100200827D01*
X210664317Y-100363055D01*
X210566838Y-100554366D01*
X210566837Y-100554369D01*
X210500489Y-100758571D01*
X210466900Y-100970643D01*
X210466900Y-101153502D01*
X210447215Y-101220541D01*
X210430581Y-101241183D01*
X209078584Y-102593181D01*
X209017261Y-102626666D01*
X208990903Y-102629500D01*
X199470153Y-102629500D01*
X199448907Y-102623261D01*
X199426820Y-102621682D01*
X199416036Y-102613609D01*
X199403114Y-102609815D01*
X199388615Y-102593083D01*
X199370886Y-102579811D01*
X199366178Y-102567188D01*
X199357359Y-102557011D01*
X199354207Y-102535094D01*
X199346469Y-102514346D01*
X199349331Y-102501185D01*
X199347415Y-102487853D01*
X199356614Y-102467709D01*
X199361321Y-102446073D01*
X199374590Y-102428345D01*
X199376440Y-102424297D01*
X199382451Y-102417840D01*
X199549509Y-102250781D01*
X199549514Y-102250778D01*
X199559714Y-102240577D01*
X199559716Y-102240577D01*
X199671520Y-102128773D01*
X199688284Y-102099737D01*
X199739924Y-102010294D01*
X199739925Y-102010291D01*
X199739926Y-102010290D01*
X199750577Y-101991842D01*
X199791500Y-101839115D01*
X199791500Y-101681000D01*
X199791500Y-101159765D01*
X199811185Y-101092726D01*
X199812398Y-101090874D01*
X199900390Y-100959185D01*
X199900390Y-100959184D01*
X199900394Y-100959179D01*
X199960737Y-100813497D01*
X199991500Y-100658842D01*
X199991500Y-100501158D01*
X199991500Y-100501155D01*
X199991499Y-100501153D01*
X199973327Y-100409796D01*
X199960737Y-100346503D01*
X199960735Y-100346498D01*
X199900397Y-100200827D01*
X199900390Y-100200814D01*
X199812789Y-100069711D01*
X199812786Y-100069707D01*
X199701292Y-99958213D01*
X199701288Y-99958210D01*
X199570185Y-99870609D01*
X199570172Y-99870602D01*
X199424501Y-99810264D01*
X199424489Y-99810261D01*
X199269845Y-99779500D01*
X199269842Y-99779500D01*
X199112158Y-99779500D01*
X199112155Y-99779500D01*
X198957512Y-99810260D01*
X198956496Y-99810569D01*
X198955937Y-99810573D01*
X198951528Y-99811451D01*
X198951361Y-99810614D01*
X198886629Y-99811192D01*
X198827516Y-99773944D01*
X198797925Y-99710650D01*
X198796500Y-99691908D01*
X198796500Y-92395096D01*
X198816185Y-92328057D01*
X198832814Y-92307420D01*
X203779506Y-87360727D01*
X203779511Y-87360724D01*
X203789714Y-87350520D01*
X203789716Y-87350520D01*
X203901520Y-87238716D01*
X203952657Y-87150143D01*
X203980577Y-87101785D01*
X204021501Y-86949057D01*
X204021501Y-86790943D01*
X204021501Y-86783348D01*
X204021500Y-86783330D01*
X204021500Y-74751153D01*
X208890500Y-74751153D01*
X208890500Y-74908846D01*
X208921261Y-75063489D01*
X208921264Y-75063501D01*
X208981602Y-75209172D01*
X208981609Y-75209185D01*
X209069210Y-75340288D01*
X209069213Y-75340292D01*
X209180707Y-75451786D01*
X209180711Y-75451789D01*
X209311814Y-75539390D01*
X209311827Y-75539397D01*
X209387263Y-75570643D01*
X209457503Y-75599737D01*
X209612153Y-75630499D01*
X209612156Y-75630500D01*
X209612158Y-75630500D01*
X209769844Y-75630500D01*
X209769845Y-75630499D01*
X209924497Y-75599737D01*
X210070179Y-75539394D01*
X210201289Y-75451789D01*
X210258559Y-75394518D01*
X210319880Y-75361035D01*
X210389572Y-75366019D01*
X210433920Y-75394520D01*
X210467400Y-75428000D01*
X214464600Y-75428000D01*
X214464600Y-74766572D01*
X214464599Y-74766555D01*
X214458198Y-74707027D01*
X214458196Y-74707020D01*
X214407954Y-74572313D01*
X214407950Y-74572306D01*
X214321790Y-74457212D01*
X214321787Y-74457209D01*
X214206693Y-74371049D01*
X214206686Y-74371045D01*
X214089136Y-74327202D01*
X214033202Y-74285331D01*
X214008785Y-74219866D01*
X214023637Y-74151593D01*
X214044782Y-74123345D01*
X214141477Y-74026651D01*
X214267683Y-73852944D01*
X214365161Y-73661633D01*
X214431511Y-73457427D01*
X214465100Y-73245357D01*
X214465100Y-73030643D01*
X214431511Y-72818573D01*
X214398336Y-72716470D01*
X214365162Y-72614369D01*
X214365161Y-72614366D01*
X214290691Y-72468212D01*
X214267683Y-72423056D01*
X214141477Y-72249349D01*
X213989651Y-72097523D01*
X213815944Y-71971317D01*
X213624633Y-71873838D01*
X213624630Y-71873837D01*
X213420428Y-71807489D01*
X213314392Y-71790694D01*
X213208357Y-71773900D01*
X211723643Y-71773900D01*
X211652953Y-71785096D01*
X211511571Y-71807489D01*
X211307369Y-71873837D01*
X211307366Y-71873838D01*
X211116055Y-71971317D01*
X211016949Y-72043322D01*
X210942349Y-72097523D01*
X210942347Y-72097525D01*
X210942346Y-72097525D01*
X210790525Y-72249346D01*
X210790525Y-72249347D01*
X210790523Y-72249349D01*
X210736322Y-72323949D01*
X210664317Y-72423055D01*
X210566838Y-72614366D01*
X210566836Y-72614372D01*
X210500489Y-72818572D01*
X210493643Y-72861789D01*
X210463711Y-72924923D01*
X210458851Y-72930069D01*
X209429750Y-73959172D01*
X209180711Y-74208211D01*
X209124960Y-74263962D01*
X209069209Y-74319712D01*
X208981609Y-74450814D01*
X208981602Y-74450827D01*
X208921264Y-74596498D01*
X208921261Y-74596510D01*
X208890500Y-74751153D01*
X204021500Y-74751153D01*
X204021500Y-70511389D01*
X209460500Y-70511389D01*
X209460500Y-70684611D01*
X209487598Y-70855701D01*
X209541127Y-71020445D01*
X209619768Y-71174788D01*
X209721586Y-71314928D01*
X209844072Y-71437414D01*
X209984212Y-71539232D01*
X210138555Y-71617873D01*
X210303299Y-71671402D01*
X210474389Y-71698500D01*
X210474390Y-71698500D01*
X210647610Y-71698500D01*
X210647611Y-71698500D01*
X210818701Y-71671402D01*
X210983445Y-71617873D01*
X211137788Y-71539232D01*
X211277928Y-71437414D01*
X211400414Y-71314928D01*
X211502232Y-71174788D01*
X211580873Y-71020445D01*
X211634402Y-70855701D01*
X211661500Y-70684611D01*
X211661500Y-70511389D01*
X211634402Y-70340299D01*
X211580873Y-70175555D01*
X211502232Y-70021212D01*
X211400414Y-69881072D01*
X211277928Y-69758586D01*
X211137788Y-69656768D01*
X210983445Y-69578127D01*
X210818701Y-69524598D01*
X210818699Y-69524597D01*
X210818698Y-69524597D01*
X210687271Y-69503781D01*
X210647611Y-69497500D01*
X210474389Y-69497500D01*
X210434728Y-69503781D01*
X210303302Y-69524597D01*
X210138552Y-69578128D01*
X209984211Y-69656768D01*
X209904256Y-69714859D01*
X209844072Y-69758586D01*
X209844070Y-69758588D01*
X209844069Y-69758588D01*
X209721588Y-69881069D01*
X209721588Y-69881070D01*
X209721586Y-69881072D01*
X209685106Y-69931282D01*
X209619768Y-70021211D01*
X209541128Y-70175552D01*
X209487597Y-70340302D01*
X209460832Y-70509294D01*
X209460500Y-70511389D01*
X204021500Y-70511389D01*
X204021500Y-70389060D01*
X204021501Y-70389047D01*
X204021501Y-70220944D01*
X204020396Y-70216819D01*
X203980577Y-70068216D01*
X203980573Y-70068209D01*
X203901524Y-69931290D01*
X203901518Y-69931282D01*
X201568590Y-67598355D01*
X201568588Y-67598352D01*
X201449717Y-67479481D01*
X201449716Y-67479480D01*
X201362904Y-67429360D01*
X201362904Y-67429359D01*
X201362900Y-67429358D01*
X201312785Y-67400423D01*
X201160057Y-67359499D01*
X201001943Y-67359499D01*
X200994347Y-67359499D01*
X200994331Y-67359500D01*
X187781097Y-67359500D01*
X187714058Y-67339815D01*
X187693416Y-67323181D01*
X187512416Y-67142181D01*
X187478931Y-67080858D01*
X187483915Y-67011166D01*
X187525787Y-66955233D01*
X187591251Y-66930816D01*
X187600097Y-66930500D01*
X187747286Y-66930500D01*
X187747287Y-66930500D01*
X187957243Y-66897246D01*
X188159412Y-66831557D01*
X188348816Y-66735051D01*
X188435471Y-66672093D01*
X188520786Y-66610109D01*
X188520788Y-66610106D01*
X188520792Y-66610104D01*
X188671104Y-66459792D01*
X188671106Y-66459788D01*
X188671109Y-66459786D01*
X188796048Y-66287820D01*
X188796051Y-66287816D01*
X188800793Y-66278508D01*
X188848763Y-66227711D01*
X188916583Y-66210911D01*
X188982719Y-66233445D01*
X189021763Y-66278500D01*
X189026377Y-66287555D01*
X189151272Y-66459459D01*
X189151276Y-66459464D01*
X189301535Y-66609723D01*
X189301540Y-66609727D01*
X189473442Y-66734620D01*
X189662782Y-66831095D01*
X189864871Y-66896757D01*
X189931000Y-66907231D01*
X189931000Y-66013012D01*
X189988007Y-66045925D01*
X190115174Y-66080000D01*
X190246826Y-66080000D01*
X190373993Y-66045925D01*
X190431000Y-66013012D01*
X190431000Y-66907230D01*
X190497126Y-66896757D01*
X190497129Y-66896757D01*
X190699217Y-66831095D01*
X190888557Y-66734620D01*
X191060459Y-66609727D01*
X191060464Y-66609723D01*
X191210723Y-66459464D01*
X191210727Y-66459459D01*
X191335620Y-66287557D01*
X191432095Y-66098217D01*
X191497757Y-65896129D01*
X191497757Y-65896126D01*
X191508231Y-65830000D01*
X190614012Y-65830000D01*
X190646925Y-65772993D01*
X190681000Y-65645826D01*
X190681000Y-65514174D01*
X190646925Y-65387007D01*
X190614012Y-65330000D01*
X191508231Y-65330000D01*
X191497757Y-65263873D01*
X191497757Y-65263870D01*
X191432095Y-65061782D01*
X191335620Y-64872442D01*
X191210727Y-64700540D01*
X191210723Y-64700535D01*
X191192369Y-64682181D01*
X191158884Y-64620858D01*
X191163868Y-64551166D01*
X191205740Y-64495233D01*
X191271204Y-64470816D01*
X191280050Y-64470500D01*
X209590903Y-64470500D01*
X209657942Y-64490185D01*
G37*
G04 #@! TD.AperFunction*
G04 #@! TA.AperFunction,Conductor*
G36*
X189107861Y-63108185D02*
G01*
X189153616Y-63160989D01*
X189163560Y-63230147D01*
X189134535Y-63293703D01*
X189102824Y-63319886D01*
X189078253Y-63334072D01*
X189069095Y-63339360D01*
X189025689Y-63364420D01*
X188982285Y-63389479D01*
X188982282Y-63389481D01*
X188870478Y-63501286D01*
X188125522Y-64246241D01*
X188064199Y-64279726D01*
X187999523Y-64276491D01*
X187957245Y-64262754D01*
X187817272Y-64240584D01*
X187747287Y-64229500D01*
X187534713Y-64229500D01*
X187486042Y-64237208D01*
X187324760Y-64262753D01*
X187324757Y-64262754D01*
X187149275Y-64319772D01*
X187122585Y-64328444D01*
X186933179Y-64424951D01*
X186761213Y-64549890D01*
X186610890Y-64700213D01*
X186485949Y-64872182D01*
X186481484Y-64880946D01*
X186433509Y-64931742D01*
X186365688Y-64948536D01*
X186299553Y-64925998D01*
X186260516Y-64880946D01*
X186256050Y-64872182D01*
X186131109Y-64700213D01*
X185980786Y-64549890D01*
X185808820Y-64424951D01*
X185619414Y-64328444D01*
X185619413Y-64328443D01*
X185619412Y-64328443D01*
X185417243Y-64262754D01*
X185417241Y-64262753D01*
X185417240Y-64262753D01*
X185255957Y-64237208D01*
X185207287Y-64229500D01*
X184994713Y-64229500D01*
X184946042Y-64237208D01*
X184784760Y-64262753D01*
X184784757Y-64262754D01*
X184609275Y-64319772D01*
X184582585Y-64328444D01*
X184393179Y-64424951D01*
X184221213Y-64549890D01*
X184070890Y-64700213D01*
X183945949Y-64872182D01*
X183941484Y-64880946D01*
X183893509Y-64931742D01*
X183825688Y-64948536D01*
X183759553Y-64925998D01*
X183720516Y-64880946D01*
X183716050Y-64872182D01*
X183591109Y-64700213D01*
X183440786Y-64549890D01*
X183268820Y-64424951D01*
X183079414Y-64328444D01*
X183079413Y-64328443D01*
X183079412Y-64328443D01*
X182877243Y-64262754D01*
X182877241Y-64262753D01*
X182877240Y-64262753D01*
X182715957Y-64237208D01*
X182667287Y-64229500D01*
X182454713Y-64229500D01*
X182406042Y-64237208D01*
X182244760Y-64262753D01*
X182244757Y-64262754D01*
X182069275Y-64319772D01*
X182042585Y-64328444D01*
X181853179Y-64424951D01*
X181681213Y-64549890D01*
X181530890Y-64700213D01*
X181405949Y-64872182D01*
X181401484Y-64880946D01*
X181353509Y-64931742D01*
X181285688Y-64948536D01*
X181219553Y-64925998D01*
X181180516Y-64880946D01*
X181176050Y-64872182D01*
X181051109Y-64700213D01*
X180900786Y-64549890D01*
X180728820Y-64424951D01*
X180539414Y-64328444D01*
X180539413Y-64328443D01*
X180539412Y-64328443D01*
X180337243Y-64262754D01*
X180337241Y-64262753D01*
X180337240Y-64262753D01*
X180175957Y-64237208D01*
X180127287Y-64229500D01*
X179914713Y-64229500D01*
X179866042Y-64237208D01*
X179704760Y-64262753D01*
X179704757Y-64262754D01*
X179529275Y-64319772D01*
X179502585Y-64328444D01*
X179313179Y-64424951D01*
X179141213Y-64549890D01*
X178990890Y-64700213D01*
X178865949Y-64872182D01*
X178861484Y-64880946D01*
X178813509Y-64931742D01*
X178745688Y-64948536D01*
X178679553Y-64925998D01*
X178640516Y-64880946D01*
X178636050Y-64872182D01*
X178511109Y-64700213D01*
X178360786Y-64549890D01*
X178188820Y-64424951D01*
X177999414Y-64328444D01*
X177999413Y-64328443D01*
X177999412Y-64328443D01*
X177797243Y-64262754D01*
X177797241Y-64262753D01*
X177797240Y-64262753D01*
X177635957Y-64237208D01*
X177587287Y-64229500D01*
X177374713Y-64229500D01*
X177326042Y-64237208D01*
X177164760Y-64262753D01*
X177164757Y-64262754D01*
X176989275Y-64319772D01*
X176962585Y-64328444D01*
X176773179Y-64424951D01*
X176601213Y-64549890D01*
X176450890Y-64700213D01*
X176325949Y-64872182D01*
X176321484Y-64880946D01*
X176273509Y-64931742D01*
X176205688Y-64948536D01*
X176139553Y-64925998D01*
X176100516Y-64880946D01*
X176096050Y-64872182D01*
X175971109Y-64700213D01*
X175820786Y-64549890D01*
X175648820Y-64424951D01*
X175459414Y-64328444D01*
X175459413Y-64328443D01*
X175459412Y-64328443D01*
X175257243Y-64262754D01*
X175257241Y-64262753D01*
X175257240Y-64262753D01*
X175095957Y-64237208D01*
X175047287Y-64229500D01*
X174834713Y-64229500D01*
X174786042Y-64237208D01*
X174624760Y-64262753D01*
X174624757Y-64262754D01*
X174449275Y-64319772D01*
X174422585Y-64328444D01*
X174233179Y-64424951D01*
X174061213Y-64549890D01*
X173910890Y-64700213D01*
X173785949Y-64872182D01*
X173781484Y-64880946D01*
X173733509Y-64931742D01*
X173665688Y-64948536D01*
X173599553Y-64925998D01*
X173560516Y-64880946D01*
X173556050Y-64872182D01*
X173431109Y-64700213D01*
X173280786Y-64549890D01*
X173108820Y-64424951D01*
X172919414Y-64328444D01*
X172919413Y-64328443D01*
X172919412Y-64328443D01*
X172717243Y-64262754D01*
X172717241Y-64262753D01*
X172717240Y-64262753D01*
X172555957Y-64237208D01*
X172507287Y-64229500D01*
X172294713Y-64229500D01*
X172246042Y-64237208D01*
X172084760Y-64262753D01*
X172084757Y-64262754D01*
X171909275Y-64319772D01*
X171882585Y-64328444D01*
X171693179Y-64424951D01*
X171521213Y-64549890D01*
X171370890Y-64700213D01*
X171245949Y-64872182D01*
X171241202Y-64881499D01*
X171193227Y-64932293D01*
X171125405Y-64949087D01*
X171059271Y-64926548D01*
X171020234Y-64881495D01*
X171015622Y-64872444D01*
X170890727Y-64700540D01*
X170890723Y-64700535D01*
X170740464Y-64550276D01*
X170740459Y-64550272D01*
X170568557Y-64425379D01*
X170379215Y-64328903D01*
X170177124Y-64263241D01*
X170111000Y-64252768D01*
X170111000Y-65146988D01*
X170053993Y-65114075D01*
X169926826Y-65080000D01*
X169795174Y-65080000D01*
X169668007Y-65114075D01*
X169611000Y-65146988D01*
X169611000Y-64252768D01*
X169610999Y-64252768D01*
X169544875Y-64263241D01*
X169342784Y-64328903D01*
X169153442Y-64425379D01*
X168981540Y-64550272D01*
X168981535Y-64550276D01*
X168831276Y-64700535D01*
X168831272Y-64700540D01*
X168706378Y-64872443D01*
X168701762Y-64881502D01*
X168653784Y-64932295D01*
X168585963Y-64949087D01*
X168519829Y-64926546D01*
X168480794Y-64881493D01*
X168476051Y-64872184D01*
X168476049Y-64872181D01*
X168476048Y-64872179D01*
X168351109Y-64700213D01*
X168200786Y-64549890D01*
X168028820Y-64424951D01*
X167839414Y-64328444D01*
X167839413Y-64328443D01*
X167839412Y-64328443D01*
X167637243Y-64262754D01*
X167637241Y-64262753D01*
X167637240Y-64262753D01*
X167475957Y-64237208D01*
X167427287Y-64229500D01*
X167214713Y-64229500D01*
X167166042Y-64237208D01*
X167004760Y-64262753D01*
X167004757Y-64262754D01*
X166829275Y-64319772D01*
X166802585Y-64328444D01*
X166613179Y-64424951D01*
X166441213Y-64549890D01*
X166290890Y-64700213D01*
X166165949Y-64872182D01*
X166161484Y-64880946D01*
X166113509Y-64931742D01*
X166045688Y-64948536D01*
X165979553Y-64925998D01*
X165940516Y-64880946D01*
X165936050Y-64872182D01*
X165811109Y-64700213D01*
X165660786Y-64549890D01*
X165488820Y-64424951D01*
X165299414Y-64328444D01*
X165299413Y-64328443D01*
X165299412Y-64328443D01*
X165097243Y-64262754D01*
X165097241Y-64262753D01*
X165097240Y-64262753D01*
X164935957Y-64237208D01*
X164887287Y-64229500D01*
X164674713Y-64229500D01*
X164626042Y-64237208D01*
X164464760Y-64262753D01*
X164464757Y-64262754D01*
X164289275Y-64319772D01*
X164262585Y-64328444D01*
X164073179Y-64424951D01*
X163901213Y-64549890D01*
X163750890Y-64700213D01*
X163625949Y-64872182D01*
X163621484Y-64880946D01*
X163573509Y-64931742D01*
X163505688Y-64948536D01*
X163439553Y-64925998D01*
X163400516Y-64880946D01*
X163396050Y-64872182D01*
X163271109Y-64700213D01*
X163120786Y-64549890D01*
X162948820Y-64424951D01*
X162759414Y-64328444D01*
X162759413Y-64328443D01*
X162759412Y-64328443D01*
X162557243Y-64262754D01*
X162557241Y-64262753D01*
X162557240Y-64262753D01*
X162395957Y-64237208D01*
X162347287Y-64229500D01*
X162134713Y-64229500D01*
X162086042Y-64237208D01*
X161924760Y-64262753D01*
X161924757Y-64262754D01*
X161749275Y-64319772D01*
X161722585Y-64328444D01*
X161533179Y-64424951D01*
X161361213Y-64549890D01*
X161210898Y-64700205D01*
X161210898Y-64700206D01*
X161210896Y-64700208D01*
X161190422Y-64728386D01*
X161186091Y-64731726D01*
X161183819Y-64736703D01*
X161158719Y-64752833D01*
X161135094Y-64771051D01*
X161128422Y-64772303D01*
X161125041Y-64774477D01*
X161090106Y-64779500D01*
X160851894Y-64779500D01*
X160784855Y-64759815D01*
X160751577Y-64728387D01*
X160731104Y-64700208D01*
X160580792Y-64549896D01*
X160580786Y-64549890D01*
X160408820Y-64424951D01*
X160219414Y-64328444D01*
X160219413Y-64328443D01*
X160219412Y-64328443D01*
X160017243Y-64262754D01*
X160017241Y-64262753D01*
X160017240Y-64262753D01*
X159855957Y-64237208D01*
X159807287Y-64229500D01*
X159594713Y-64229500D01*
X159546042Y-64237208D01*
X159384760Y-64262753D01*
X159384757Y-64262754D01*
X159209275Y-64319772D01*
X159182585Y-64328444D01*
X158993179Y-64424951D01*
X158821213Y-64549890D01*
X158670890Y-64700213D01*
X158545949Y-64872182D01*
X158541484Y-64880946D01*
X158493509Y-64931742D01*
X158425688Y-64948536D01*
X158359553Y-64925998D01*
X158320516Y-64880946D01*
X158316050Y-64872182D01*
X158191109Y-64700213D01*
X158040786Y-64549890D01*
X157868820Y-64424951D01*
X157679414Y-64328444D01*
X157679413Y-64328443D01*
X157679412Y-64328443D01*
X157477243Y-64262754D01*
X157477241Y-64262753D01*
X157477240Y-64262753D01*
X157315957Y-64237208D01*
X157267287Y-64229500D01*
X157054713Y-64229500D01*
X157006042Y-64237208D01*
X156844760Y-64262753D01*
X156844757Y-64262754D01*
X156669275Y-64319772D01*
X156642585Y-64328444D01*
X156453179Y-64424951D01*
X156281213Y-64549890D01*
X156130890Y-64700213D01*
X156005949Y-64872182D01*
X156001484Y-64880946D01*
X155953509Y-64931742D01*
X155885688Y-64948536D01*
X155819553Y-64925998D01*
X155780516Y-64880946D01*
X155776050Y-64872182D01*
X155651109Y-64700213D01*
X155500786Y-64549890D01*
X155328820Y-64424951D01*
X155139414Y-64328444D01*
X155139413Y-64328443D01*
X155139412Y-64328443D01*
X154937243Y-64262754D01*
X154937241Y-64262753D01*
X154937240Y-64262753D01*
X154775957Y-64237208D01*
X154727287Y-64229500D01*
X154514713Y-64229500D01*
X154466042Y-64237208D01*
X154304760Y-64262753D01*
X154304757Y-64262754D01*
X154129275Y-64319772D01*
X154102585Y-64328444D01*
X153913179Y-64424951D01*
X153741215Y-64549889D01*
X153627285Y-64663819D01*
X153565962Y-64697303D01*
X153496270Y-64692319D01*
X153440337Y-64650447D01*
X153423422Y-64619470D01*
X153374354Y-64487913D01*
X153374350Y-64487906D01*
X153288190Y-64372812D01*
X153288187Y-64372809D01*
X153173093Y-64286649D01*
X153173086Y-64286645D01*
X153038379Y-64236403D01*
X153038372Y-64236401D01*
X152978844Y-64230000D01*
X152331000Y-64230000D01*
X152331000Y-65146988D01*
X152273993Y-65114075D01*
X152146826Y-65080000D01*
X152015174Y-65080000D01*
X151888007Y-65114075D01*
X151831000Y-65146988D01*
X151831000Y-64230000D01*
X151183155Y-64230000D01*
X151123627Y-64236401D01*
X151123620Y-64236403D01*
X150988913Y-64286645D01*
X150988906Y-64286649D01*
X150873812Y-64372809D01*
X150873809Y-64372812D01*
X150787649Y-64487906D01*
X150787645Y-64487913D01*
X150737403Y-64622620D01*
X150737401Y-64622627D01*
X150731000Y-64682155D01*
X150731000Y-65330000D01*
X151647988Y-65330000D01*
X151615075Y-65387007D01*
X151581000Y-65514174D01*
X151581000Y-65645826D01*
X151615075Y-65772993D01*
X151647988Y-65830000D01*
X150731000Y-65830000D01*
X150731000Y-66477844D01*
X150737401Y-66537372D01*
X150737403Y-66537379D01*
X150787645Y-66672086D01*
X150787649Y-66672093D01*
X150873809Y-66787187D01*
X150873812Y-66787190D01*
X150988906Y-66873350D01*
X150988913Y-66873354D01*
X151123620Y-66923596D01*
X151123627Y-66923598D01*
X151183155Y-66929999D01*
X151183172Y-66930000D01*
X151831000Y-66930000D01*
X151831000Y-66013012D01*
X151888007Y-66045925D01*
X152015174Y-66080000D01*
X152146826Y-66080000D01*
X152273993Y-66045925D01*
X152331000Y-66013012D01*
X152331000Y-66930000D01*
X152978828Y-66930000D01*
X152978844Y-66929999D01*
X153038372Y-66923598D01*
X153038379Y-66923596D01*
X153173086Y-66873354D01*
X153173093Y-66873350D01*
X153288187Y-66787190D01*
X153288190Y-66787187D01*
X153374350Y-66672093D01*
X153374354Y-66672086D01*
X153423422Y-66540529D01*
X153465293Y-66484595D01*
X153530757Y-66460178D01*
X153599030Y-66475030D01*
X153627285Y-66496181D01*
X153741213Y-66610109D01*
X153913179Y-66735048D01*
X153913181Y-66735049D01*
X153913184Y-66735051D01*
X154102588Y-66831557D01*
X154304757Y-66897246D01*
X154514713Y-66930500D01*
X154514714Y-66930500D01*
X154727286Y-66930500D01*
X154727287Y-66930500D01*
X154937243Y-66897246D01*
X155139412Y-66831557D01*
X155328816Y-66735051D01*
X155415471Y-66672093D01*
X155500786Y-66610109D01*
X155500788Y-66610106D01*
X155500792Y-66610104D01*
X155651104Y-66459792D01*
X155651106Y-66459788D01*
X155651109Y-66459786D01*
X155776048Y-66287820D01*
X155776047Y-66287820D01*
X155776051Y-66287816D01*
X155780514Y-66279054D01*
X155828488Y-66228259D01*
X155896308Y-66211463D01*
X155962444Y-66233999D01*
X156001486Y-66279056D01*
X156005951Y-66287820D01*
X156130890Y-66459786D01*
X156281213Y-66610109D01*
X156453179Y-66735048D01*
X156453181Y-66735049D01*
X156453184Y-66735051D01*
X156642588Y-66831557D01*
X156844757Y-66897246D01*
X156955671Y-66914813D01*
X157018805Y-66944742D01*
X157055737Y-67004053D01*
X157054739Y-67073916D01*
X157023954Y-67124967D01*
X154335433Y-69813489D01*
X151680711Y-72468211D01*
X151624960Y-72523962D01*
X151569209Y-72579712D01*
X151481609Y-72710814D01*
X151481602Y-72710827D01*
X151421264Y-72856498D01*
X151421261Y-72856510D01*
X151390500Y-73011153D01*
X151390500Y-73658846D01*
X151421261Y-73813489D01*
X151421264Y-73813501D01*
X151481602Y-73959172D01*
X151481609Y-73959185D01*
X151569210Y-74090288D01*
X151569213Y-74090292D01*
X151680707Y-74201786D01*
X151680711Y-74201789D01*
X151811814Y-74289390D01*
X151811827Y-74289397D01*
X151957498Y-74349735D01*
X151957503Y-74349737D01*
X152112153Y-74380499D01*
X152112156Y-74380500D01*
X152112158Y-74380500D01*
X152269844Y-74380500D01*
X152269845Y-74380499D01*
X152424497Y-74349737D01*
X152570179Y-74289394D01*
X152701289Y-74201789D01*
X152812789Y-74090289D01*
X152900394Y-73959179D01*
X152960737Y-73813497D01*
X152991500Y-73658842D01*
X152991500Y-73501158D01*
X152991500Y-73472939D01*
X153011185Y-73405900D01*
X153027814Y-73385263D01*
X159453235Y-66959841D01*
X159514556Y-66926358D01*
X159560311Y-66925051D01*
X159594713Y-66930500D01*
X159594714Y-66930500D01*
X159807286Y-66930500D01*
X159807287Y-66930500D01*
X160017243Y-66897246D01*
X160219412Y-66831557D01*
X160408816Y-66735051D01*
X160495471Y-66672093D01*
X160580786Y-66610109D01*
X160580788Y-66610106D01*
X160580792Y-66610104D01*
X160731104Y-66459792D01*
X160751577Y-66431613D01*
X160755908Y-66428273D01*
X160758181Y-66423297D01*
X160783280Y-66407166D01*
X160806906Y-66388949D01*
X160813577Y-66387696D01*
X160816959Y-66385523D01*
X160851894Y-66380500D01*
X161090106Y-66380500D01*
X161157145Y-66400185D01*
X161190422Y-66431612D01*
X161210896Y-66459792D01*
X161210898Y-66459794D01*
X161361213Y-66610109D01*
X161533179Y-66735048D01*
X161533181Y-66735049D01*
X161533184Y-66735051D01*
X161722588Y-66831557D01*
X161924757Y-66897246D01*
X162134713Y-66930500D01*
X162134714Y-66930500D01*
X162347285Y-66930500D01*
X162347287Y-66930500D01*
X162381686Y-66925051D01*
X162450977Y-66934005D01*
X162488765Y-66959843D01*
X163829211Y-68300289D01*
X163940708Y-68411786D01*
X163940712Y-68411790D01*
X164071814Y-68499390D01*
X164071827Y-68499397D01*
X164120547Y-68519577D01*
X164217503Y-68559737D01*
X164330336Y-68582181D01*
X164372153Y-68590499D01*
X164372156Y-68590500D01*
X164372158Y-68590500D01*
X170269844Y-68590500D01*
X170269845Y-68590499D01*
X170424497Y-68559737D01*
X170570179Y-68499394D01*
X170701289Y-68411789D01*
X172153235Y-66959841D01*
X172214556Y-66926358D01*
X172260311Y-66925051D01*
X172294713Y-66930500D01*
X172294714Y-66930500D01*
X172507286Y-66930500D01*
X172507287Y-66930500D01*
X172717243Y-66897246D01*
X172919412Y-66831557D01*
X173108816Y-66735051D01*
X173195471Y-66672093D01*
X173280786Y-66610109D01*
X173280788Y-66610106D01*
X173280792Y-66610104D01*
X173431104Y-66459792D01*
X173431106Y-66459788D01*
X173431109Y-66459786D01*
X173556048Y-66287820D01*
X173556047Y-66287820D01*
X173556051Y-66287816D01*
X173560514Y-66279054D01*
X173608488Y-66228259D01*
X173676308Y-66211463D01*
X173742444Y-66233999D01*
X173781486Y-66279056D01*
X173785951Y-66287820D01*
X173910890Y-66459786D01*
X174061213Y-66610109D01*
X174233179Y-66735048D01*
X174233181Y-66735049D01*
X174233184Y-66735051D01*
X174422588Y-66831557D01*
X174624757Y-66897246D01*
X174834713Y-66930500D01*
X174834714Y-66930500D01*
X175047286Y-66930500D01*
X175047287Y-66930500D01*
X175257243Y-66897246D01*
X175459412Y-66831557D01*
X175648816Y-66735051D01*
X175735471Y-66672093D01*
X175820786Y-66610109D01*
X175820788Y-66610106D01*
X175820792Y-66610104D01*
X175971104Y-66459792D01*
X175971106Y-66459788D01*
X175971109Y-66459786D01*
X176096048Y-66287820D01*
X176096047Y-66287820D01*
X176096051Y-66287816D01*
X176100514Y-66279054D01*
X176148488Y-66228259D01*
X176216308Y-66211463D01*
X176282444Y-66233999D01*
X176321486Y-66279056D01*
X176325951Y-66287820D01*
X176450890Y-66459786D01*
X176601213Y-66610109D01*
X176773179Y-66735048D01*
X176773181Y-66735049D01*
X176773184Y-66735051D01*
X176962588Y-66831557D01*
X177164757Y-66897246D01*
X177374713Y-66930500D01*
X177374714Y-66930500D01*
X177587286Y-66930500D01*
X177587287Y-66930500D01*
X177797243Y-66897246D01*
X177999412Y-66831557D01*
X178188816Y-66735051D01*
X178275471Y-66672093D01*
X178360786Y-66610109D01*
X178360788Y-66610106D01*
X178360792Y-66610104D01*
X178511104Y-66459792D01*
X178511106Y-66459788D01*
X178511109Y-66459786D01*
X178636048Y-66287820D01*
X178636047Y-66287820D01*
X178636051Y-66287816D01*
X178640514Y-66279054D01*
X178688488Y-66228259D01*
X178756308Y-66211463D01*
X178822444Y-66233999D01*
X178861486Y-66279056D01*
X178865951Y-66287820D01*
X178990890Y-66459786D01*
X179141213Y-66610109D01*
X179313179Y-66735048D01*
X179313181Y-66735049D01*
X179313184Y-66735051D01*
X179502588Y-66831557D01*
X179704757Y-66897246D01*
X179914713Y-66930500D01*
X179914714Y-66930500D01*
X180061902Y-66930500D01*
X180128941Y-66950185D01*
X180174696Y-67002989D01*
X180184640Y-67072147D01*
X180155615Y-67135703D01*
X180149583Y-67142181D01*
X178709584Y-68582181D01*
X178648261Y-68615666D01*
X178621903Y-68618500D01*
X176472940Y-68618500D01*
X176432019Y-68629464D01*
X176432019Y-68629465D01*
X176394751Y-68639451D01*
X176320214Y-68659423D01*
X176320209Y-68659426D01*
X176183290Y-68738475D01*
X176183282Y-68738481D01*
X176071478Y-68850286D01*
X169978584Y-74943181D01*
X169917261Y-74976666D01*
X169890903Y-74979500D01*
X161770766Y-74979500D01*
X161703727Y-74959815D01*
X161701875Y-74958602D01*
X161570185Y-74870609D01*
X161570172Y-74870602D01*
X161424501Y-74810264D01*
X161424489Y-74810261D01*
X161269845Y-74779500D01*
X161269842Y-74779500D01*
X161112158Y-74779500D01*
X161112155Y-74779500D01*
X160957510Y-74810261D01*
X160957498Y-74810264D01*
X160811827Y-74870602D01*
X160811814Y-74870609D01*
X160680711Y-74958210D01*
X160680707Y-74958213D01*
X160569213Y-75069707D01*
X160569210Y-75069711D01*
X160481609Y-75200814D01*
X160481602Y-75200827D01*
X160421264Y-75346498D01*
X160421261Y-75346510D01*
X160390500Y-75501153D01*
X160390500Y-75658846D01*
X160421261Y-75813489D01*
X160421264Y-75813501D01*
X160481602Y-75959172D01*
X160481609Y-75959185D01*
X160569210Y-76090288D01*
X160569213Y-76090292D01*
X160680707Y-76201786D01*
X160680711Y-76201789D01*
X160811814Y-76289390D01*
X160811827Y-76289397D01*
X160890894Y-76322147D01*
X160957503Y-76349737D01*
X161112153Y-76380499D01*
X161112156Y-76380500D01*
X161112158Y-76380500D01*
X161269844Y-76380500D01*
X161269845Y-76380499D01*
X161424497Y-76349737D01*
X161570179Y-76289394D01*
X161624663Y-76252989D01*
X161701875Y-76201398D01*
X161768553Y-76180520D01*
X161770766Y-76180500D01*
X169441903Y-76180500D01*
X169508942Y-76200185D01*
X169554697Y-76252989D01*
X169564641Y-76322147D01*
X169535616Y-76385703D01*
X169529584Y-76392181D01*
X161176339Y-84745425D01*
X161115016Y-84778910D01*
X161112850Y-84779361D01*
X160957508Y-84810261D01*
X160957498Y-84810264D01*
X160811827Y-84870602D01*
X160811814Y-84870609D01*
X160680711Y-84958210D01*
X160680707Y-84958213D01*
X160569213Y-85069707D01*
X160569210Y-85069711D01*
X160481609Y-85200814D01*
X160481602Y-85200827D01*
X160421264Y-85346498D01*
X160421261Y-85346510D01*
X160390500Y-85501153D01*
X160390500Y-85658846D01*
X160421261Y-85813489D01*
X160421264Y-85813501D01*
X160481602Y-85959172D01*
X160481609Y-85959185D01*
X160569210Y-86090288D01*
X160569213Y-86090292D01*
X160680707Y-86201786D01*
X160680711Y-86201789D01*
X160811814Y-86289390D01*
X160811827Y-86289397D01*
X160930374Y-86338500D01*
X160957503Y-86349737D01*
X161112153Y-86380499D01*
X161112156Y-86380500D01*
X161112158Y-86380500D01*
X161269844Y-86380500D01*
X161269845Y-86380499D01*
X161424497Y-86349737D01*
X161570179Y-86289394D01*
X161701289Y-86201789D01*
X161812789Y-86090289D01*
X161900394Y-85959179D01*
X161907859Y-85941158D01*
X161936635Y-85871685D01*
X161960737Y-85813497D01*
X161983150Y-85700821D01*
X161991638Y-85658150D01*
X162024023Y-85596239D01*
X162025518Y-85594716D01*
X165448521Y-82171713D01*
X165509842Y-82138230D01*
X165579534Y-82143214D01*
X165635467Y-82185086D01*
X165659884Y-82250550D01*
X165660200Y-82259396D01*
X165660200Y-82268511D01*
X165697529Y-82504199D01*
X165771265Y-82731139D01*
X165771266Y-82731142D01*
X165879602Y-82943760D01*
X165942084Y-83029760D01*
X165942086Y-83029760D01*
X166822647Y-82149199D01*
X167529753Y-82149199D01*
X167529753Y-82149201D01*
X168410313Y-83029761D01*
X168410313Y-83029760D01*
X168472799Y-82943757D01*
X168581133Y-82731142D01*
X168581134Y-82731139D01*
X168654870Y-82504199D01*
X168692200Y-82268511D01*
X168692200Y-82029888D01*
X168654870Y-81794200D01*
X168581134Y-81567260D01*
X168581133Y-81567257D01*
X168472797Y-81354639D01*
X168410314Y-81268638D01*
X168410313Y-81268637D01*
X167529753Y-82149199D01*
X166822647Y-82149199D01*
X168056760Y-80915086D01*
X168056760Y-80915084D01*
X167970760Y-80852602D01*
X167758142Y-80744266D01*
X167758139Y-80744265D01*
X167531199Y-80670529D01*
X167295511Y-80633200D01*
X167286396Y-80633200D01*
X167219357Y-80613515D01*
X167173602Y-80560711D01*
X167163658Y-80491553D01*
X167192683Y-80427997D01*
X167198701Y-80421533D01*
X177108846Y-70511389D01*
X194220500Y-70511389D01*
X194220500Y-70684611D01*
X194247598Y-70855701D01*
X194301127Y-71020445D01*
X194379768Y-71174788D01*
X194481586Y-71314928D01*
X194604072Y-71437414D01*
X194744212Y-71539232D01*
X194898555Y-71617873D01*
X195063299Y-71671402D01*
X195234389Y-71698500D01*
X195234390Y-71698500D01*
X195407610Y-71698500D01*
X195407611Y-71698500D01*
X195578701Y-71671402D01*
X195743445Y-71617873D01*
X195897788Y-71539232D01*
X196037928Y-71437414D01*
X196160414Y-71314928D01*
X196262232Y-71174788D01*
X196340873Y-71020445D01*
X196394402Y-70855701D01*
X196421500Y-70684611D01*
X196421500Y-70511389D01*
X196394402Y-70340299D01*
X196340873Y-70175555D01*
X196262232Y-70021212D01*
X196160414Y-69881072D01*
X196037928Y-69758586D01*
X195897788Y-69656768D01*
X195743445Y-69578127D01*
X195578701Y-69524598D01*
X195578699Y-69524597D01*
X195578698Y-69524597D01*
X195447271Y-69503781D01*
X195407611Y-69497500D01*
X195234389Y-69497500D01*
X195194728Y-69503781D01*
X195063302Y-69524597D01*
X194898552Y-69578128D01*
X194744211Y-69656768D01*
X194664256Y-69714859D01*
X194604072Y-69758586D01*
X194604070Y-69758588D01*
X194604069Y-69758588D01*
X194481588Y-69881069D01*
X194481588Y-69881070D01*
X194481586Y-69881072D01*
X194445106Y-69931282D01*
X194379768Y-70021211D01*
X194301128Y-70175552D01*
X194247597Y-70340302D01*
X194220832Y-70509294D01*
X194220500Y-70511389D01*
X177108846Y-70511389D01*
X177403416Y-70216819D01*
X177464739Y-70183334D01*
X177491097Y-70180500D01*
X184611234Y-70180500D01*
X184678273Y-70200185D01*
X184680125Y-70201398D01*
X184811814Y-70289390D01*
X184811827Y-70289397D01*
X184957498Y-70349735D01*
X184957503Y-70349737D01*
X185104909Y-70379058D01*
X185112153Y-70380499D01*
X185112156Y-70380500D01*
X185112158Y-70380500D01*
X185269844Y-70380500D01*
X185269845Y-70380499D01*
X185424497Y-70349737D01*
X185570179Y-70289394D01*
X185701289Y-70201789D01*
X185812789Y-70090289D01*
X185900394Y-69959179D01*
X185960737Y-69813497D01*
X185991500Y-69658842D01*
X185991500Y-69501158D01*
X185991500Y-69501155D01*
X185991499Y-69501153D01*
X185960738Y-69346510D01*
X185960737Y-69346503D01*
X185960735Y-69346498D01*
X185900397Y-69200827D01*
X185900390Y-69200814D01*
X185812789Y-69069711D01*
X185812786Y-69069707D01*
X185701292Y-68958213D01*
X185701288Y-68958210D01*
X185570185Y-68870609D01*
X185570172Y-68870602D01*
X185424501Y-68810264D01*
X185424489Y-68810261D01*
X185269845Y-68779500D01*
X185269842Y-68779500D01*
X185112158Y-68779500D01*
X185112155Y-68779500D01*
X184957510Y-68810261D01*
X184957498Y-68810264D01*
X184811827Y-68870602D01*
X184811814Y-68870609D01*
X184680125Y-68958602D01*
X184613447Y-68979480D01*
X184611234Y-68979500D01*
X180310097Y-68979500D01*
X180243058Y-68959815D01*
X180197303Y-68907011D01*
X180187359Y-68837853D01*
X180216384Y-68774297D01*
X180222416Y-68767819D01*
X180665861Y-68324374D01*
X182076478Y-66913755D01*
X182137799Y-66880272D01*
X182202473Y-66883506D01*
X182244757Y-66897246D01*
X182454713Y-66930500D01*
X182454714Y-66930500D01*
X182667286Y-66930500D01*
X182667287Y-66930500D01*
X182877243Y-66897246D01*
X183079412Y-66831557D01*
X183268816Y-66735051D01*
X183355471Y-66672093D01*
X183440786Y-66610109D01*
X183440788Y-66610106D01*
X183440792Y-66610104D01*
X183591104Y-66459792D01*
X183591106Y-66459788D01*
X183591109Y-66459786D01*
X183716048Y-66287820D01*
X183716047Y-66287820D01*
X183716051Y-66287816D01*
X183720514Y-66279054D01*
X183768488Y-66228259D01*
X183836308Y-66211463D01*
X183902444Y-66233999D01*
X183941486Y-66279056D01*
X183945951Y-66287820D01*
X184070890Y-66459786D01*
X184221213Y-66610109D01*
X184393179Y-66735048D01*
X184393181Y-66735049D01*
X184393184Y-66735051D01*
X184582588Y-66831557D01*
X184784757Y-66897246D01*
X184994713Y-66930500D01*
X184994714Y-66930500D01*
X185207286Y-66930500D01*
X185207287Y-66930500D01*
X185417243Y-66897246D01*
X185459523Y-66883507D01*
X185529362Y-66881511D01*
X185585522Y-66913757D01*
X186996139Y-68324374D01*
X186996149Y-68324385D01*
X187000479Y-68328715D01*
X187000480Y-68328716D01*
X187112284Y-68440520D01*
X187199095Y-68490639D01*
X187199097Y-68490641D01*
X187249213Y-68519576D01*
X187249215Y-68519577D01*
X187401942Y-68560500D01*
X187401943Y-68560500D01*
X200051943Y-68560500D01*
X200780903Y-68560500D01*
X200847942Y-68580185D01*
X200868584Y-68596819D01*
X202784181Y-70512416D01*
X202817666Y-70573739D01*
X202820500Y-70600097D01*
X202820500Y-86569902D01*
X202800815Y-86636941D01*
X202784181Y-86657583D01*
X197715481Y-91726282D01*
X197715479Y-91726284D01*
X197698823Y-91755135D01*
X197679044Y-91789394D01*
X197636423Y-91863215D01*
X197595499Y-92015943D01*
X197595499Y-92015945D01*
X197595499Y-92184046D01*
X197595500Y-92184059D01*
X197595500Y-101077902D01*
X197575815Y-101144941D01*
X197559181Y-101165583D01*
X195535551Y-103189212D01*
X195474228Y-103222697D01*
X195404536Y-103217713D01*
X195348603Y-103175841D01*
X195329939Y-103139848D01*
X195315163Y-103094372D01*
X195315161Y-103094366D01*
X195235067Y-102937174D01*
X195217683Y-102903056D01*
X195091477Y-102729349D01*
X194939651Y-102577523D01*
X194765944Y-102451317D01*
X194765943Y-102451316D01*
X194762002Y-102448453D01*
X194763405Y-102446521D01*
X194723078Y-102402073D01*
X194711558Y-102333160D01*
X194739125Y-102268958D01*
X194762709Y-102248521D01*
X194762002Y-102247547D01*
X194771595Y-102240577D01*
X194939651Y-102118477D01*
X195091477Y-101966651D01*
X195217683Y-101792944D01*
X195315161Y-101601633D01*
X195381511Y-101397427D01*
X195415100Y-101185357D01*
X195415100Y-100970643D01*
X195381511Y-100758573D01*
X195315161Y-100554367D01*
X195315161Y-100554366D01*
X195241498Y-100409796D01*
X195217683Y-100363056D01*
X195091477Y-100189349D01*
X194939651Y-100037523D01*
X194765944Y-99911317D01*
X194765943Y-99911316D01*
X194762002Y-99908453D01*
X194763405Y-99906521D01*
X194723078Y-99862073D01*
X194711558Y-99793160D01*
X194739125Y-99728958D01*
X194762709Y-99708521D01*
X194762002Y-99707547D01*
X194783527Y-99691908D01*
X194939651Y-99578477D01*
X195091477Y-99426651D01*
X195217683Y-99252944D01*
X195315161Y-99061633D01*
X195381511Y-98857427D01*
X195415100Y-98645357D01*
X195415100Y-98430643D01*
X195381511Y-98218573D01*
X195315161Y-98014367D01*
X195315161Y-98014366D01*
X195247135Y-97880859D01*
X195217683Y-97823056D01*
X195091477Y-97649349D01*
X194939651Y-97497523D01*
X194765944Y-97371317D01*
X194765943Y-97371316D01*
X194762002Y-97368453D01*
X194763405Y-97366521D01*
X194723078Y-97322073D01*
X194711558Y-97253160D01*
X194739125Y-97188958D01*
X194762709Y-97168521D01*
X194762002Y-97167547D01*
X194765944Y-97164683D01*
X194939651Y-97038477D01*
X195091477Y-96886651D01*
X195217683Y-96712944D01*
X195315161Y-96521633D01*
X195381511Y-96317427D01*
X195415100Y-96105357D01*
X195415100Y-95890643D01*
X195381511Y-95678573D01*
X195315161Y-95474367D01*
X195315161Y-95474366D01*
X195231546Y-95310264D01*
X195217683Y-95283056D01*
X195091477Y-95109349D01*
X194939651Y-94957523D01*
X194765944Y-94831317D01*
X194765943Y-94831316D01*
X194762002Y-94828453D01*
X194763405Y-94826521D01*
X194723078Y-94782073D01*
X194711558Y-94713160D01*
X194739125Y-94648958D01*
X194762709Y-94628521D01*
X194762002Y-94627547D01*
X194765944Y-94624683D01*
X194939651Y-94498477D01*
X195091477Y-94346651D01*
X195217683Y-94172944D01*
X195315161Y-93981633D01*
X195381511Y-93777427D01*
X195415100Y-93565357D01*
X195415100Y-93350643D01*
X195381511Y-93138573D01*
X195335350Y-92996503D01*
X195315162Y-92934369D01*
X195315161Y-92934366D01*
X195236252Y-92779500D01*
X195217683Y-92743056D01*
X195091477Y-92569349D01*
X194939651Y-92417523D01*
X194765944Y-92291317D01*
X194765943Y-92291316D01*
X194762002Y-92288453D01*
X194763405Y-92286521D01*
X194723078Y-92242073D01*
X194711558Y-92173160D01*
X194739125Y-92108958D01*
X194762709Y-92088521D01*
X194762002Y-92087547D01*
X194770796Y-92081158D01*
X194939651Y-91958477D01*
X195091477Y-91806651D01*
X195217683Y-91632944D01*
X195315161Y-91441633D01*
X195381511Y-91237427D01*
X195415100Y-91025357D01*
X195415100Y-90810643D01*
X195381511Y-90598573D01*
X195346319Y-90490261D01*
X195315162Y-90394369D01*
X195315161Y-90394366D01*
X195232835Y-90232794D01*
X195217683Y-90203056D01*
X195091477Y-90029349D01*
X194939651Y-89877523D01*
X194765944Y-89751317D01*
X194765943Y-89751316D01*
X194762002Y-89748453D01*
X194763405Y-89746521D01*
X194723078Y-89702073D01*
X194711558Y-89633160D01*
X194739125Y-89568958D01*
X194762709Y-89548521D01*
X194762002Y-89547547D01*
X194765944Y-89544683D01*
X194939651Y-89418477D01*
X195091477Y-89266651D01*
X195217683Y-89092944D01*
X195315161Y-88901633D01*
X195381511Y-88697427D01*
X195415100Y-88485357D01*
X195415100Y-88270643D01*
X195381511Y-88058573D01*
X195346501Y-87950821D01*
X195315162Y-87854369D01*
X195315161Y-87854366D01*
X195218951Y-87665545D01*
X195217683Y-87663056D01*
X195091477Y-87489349D01*
X194939651Y-87337523D01*
X194765944Y-87211317D01*
X194765943Y-87211316D01*
X194762002Y-87208453D01*
X194763405Y-87206521D01*
X194723078Y-87162073D01*
X194711558Y-87093160D01*
X194739125Y-87028958D01*
X194762709Y-87008521D01*
X194762002Y-87007547D01*
X194765944Y-87004683D01*
X194939651Y-86878477D01*
X195091477Y-86726651D01*
X195217683Y-86552944D01*
X195315161Y-86361633D01*
X195381511Y-86157427D01*
X195415100Y-85945357D01*
X195415100Y-85730643D01*
X195381511Y-85518573D01*
X195333316Y-85370243D01*
X195315162Y-85314369D01*
X195315161Y-85314366D01*
X195247135Y-85180859D01*
X195217683Y-85123056D01*
X195091477Y-84949349D01*
X194939651Y-84797523D01*
X194765944Y-84671317D01*
X194765943Y-84671316D01*
X194762002Y-84668453D01*
X194763405Y-84666521D01*
X194723078Y-84622073D01*
X194711558Y-84553160D01*
X194739125Y-84488958D01*
X194762709Y-84468521D01*
X194762002Y-84467547D01*
X194771251Y-84460827D01*
X194939651Y-84338477D01*
X195091477Y-84186651D01*
X195217683Y-84012944D01*
X195315161Y-83821633D01*
X195381511Y-83617427D01*
X195415100Y-83405357D01*
X195415100Y-83190643D01*
X195381511Y-82978573D01*
X195329893Y-82819707D01*
X195315162Y-82774369D01*
X195315161Y-82774366D01*
X195236817Y-82620609D01*
X195217683Y-82583056D01*
X195091477Y-82409349D01*
X194994788Y-82312660D01*
X194961303Y-82251337D01*
X194966287Y-82181645D01*
X195008159Y-82125712D01*
X195039137Y-82108797D01*
X195156684Y-82064955D01*
X195156693Y-82064950D01*
X195271787Y-81978790D01*
X195271788Y-81978789D01*
X195304872Y-81934595D01*
X195360805Y-81892723D01*
X195430497Y-81887739D01*
X195491820Y-81921224D01*
X195518700Y-81961453D01*
X195571602Y-82089172D01*
X195571609Y-82089185D01*
X195659210Y-82220288D01*
X195659213Y-82220292D01*
X195770707Y-82331786D01*
X195770711Y-82331789D01*
X195901814Y-82419390D01*
X195901827Y-82419397D01*
X196047498Y-82479735D01*
X196047503Y-82479737D01*
X196202153Y-82510499D01*
X196202156Y-82510500D01*
X196202158Y-82510500D01*
X196359844Y-82510500D01*
X196359845Y-82510499D01*
X196514497Y-82479737D01*
X196632592Y-82430821D01*
X196660172Y-82419397D01*
X196660172Y-82419396D01*
X196660179Y-82419394D01*
X196774623Y-82342924D01*
X196841299Y-82322047D01*
X196890965Y-82331466D01*
X196960551Y-82360289D01*
X197007503Y-82379737D01*
X197156362Y-82409347D01*
X197162153Y-82410499D01*
X197162156Y-82410500D01*
X197162158Y-82410500D01*
X197319844Y-82410500D01*
X197319845Y-82410499D01*
X197474497Y-82379737D01*
X197620179Y-82319394D01*
X197621954Y-82318207D01*
X197623026Y-82317871D01*
X197625546Y-82316525D01*
X197625801Y-82317002D01*
X197688627Y-82297327D01*
X197756008Y-82315807D01*
X197793950Y-82352416D01*
X197799210Y-82360288D01*
X197799213Y-82360292D01*
X197910707Y-82471786D01*
X197910711Y-82471789D01*
X198041814Y-82559390D01*
X198041827Y-82559397D01*
X198187498Y-82619735D01*
X198187503Y-82619737D01*
X198342153Y-82650499D01*
X198342156Y-82650500D01*
X198342158Y-82650500D01*
X198499844Y-82650500D01*
X198499845Y-82650499D01*
X198654497Y-82619737D01*
X198800179Y-82559394D01*
X198931289Y-82471789D01*
X199042789Y-82360289D01*
X199130394Y-82229179D01*
X199190737Y-82083497D01*
X199221500Y-81928842D01*
X199221500Y-81771158D01*
X199221500Y-81771155D01*
X199221499Y-81771153D01*
X199202247Y-81674367D01*
X199190737Y-81616503D01*
X199170260Y-81567066D01*
X199130397Y-81470827D01*
X199130390Y-81470814D01*
X199042789Y-81339711D01*
X199042786Y-81339707D01*
X199017819Y-81314740D01*
X198984334Y-81253417D01*
X198981500Y-81227059D01*
X198981500Y-78119765D01*
X199001185Y-78052726D01*
X199002398Y-78050874D01*
X199090390Y-77919185D01*
X199090390Y-77919184D01*
X199090394Y-77919179D01*
X199150737Y-77773497D01*
X199181500Y-77618842D01*
X199181500Y-77461158D01*
X199181500Y-77461155D01*
X199181499Y-77461153D01*
X199180914Y-77458210D01*
X199150737Y-77306503D01*
X199126107Y-77247041D01*
X199090397Y-77160827D01*
X199090390Y-77160814D01*
X199002789Y-77029711D01*
X199002786Y-77029707D01*
X198891292Y-76918213D01*
X198891288Y-76918210D01*
X198760185Y-76830609D01*
X198760172Y-76830602D01*
X198614501Y-76770264D01*
X198614489Y-76770261D01*
X198459845Y-76739500D01*
X198459842Y-76739500D01*
X198302158Y-76739500D01*
X198302155Y-76739500D01*
X198147510Y-76770261D01*
X198147498Y-76770264D01*
X198001827Y-76830602D01*
X198001814Y-76830609D01*
X197870711Y-76918210D01*
X197870707Y-76918213D01*
X197759213Y-77029707D01*
X197759210Y-77029711D01*
X197671609Y-77160814D01*
X197671604Y-77160824D01*
X197635892Y-77247041D01*
X197592051Y-77301444D01*
X197525756Y-77323509D01*
X197473881Y-77314150D01*
X197464497Y-77310263D01*
X197464488Y-77310260D01*
X197309845Y-77279500D01*
X197309842Y-77279500D01*
X197152158Y-77279500D01*
X197152155Y-77279500D01*
X196997510Y-77310261D01*
X196997498Y-77310264D01*
X196851827Y-77370602D01*
X196851814Y-77370609D01*
X196720711Y-77458210D01*
X196720707Y-77458213D01*
X196609213Y-77569707D01*
X196609210Y-77569711D01*
X196521609Y-77700814D01*
X196521602Y-77700827D01*
X196461264Y-77846498D01*
X196461261Y-77846507D01*
X196449654Y-77904861D01*
X196417268Y-77966771D01*
X196356552Y-78001345D01*
X196303846Y-78002285D01*
X196289846Y-77999500D01*
X196289842Y-77999500D01*
X196132158Y-77999500D01*
X196132155Y-77999500D01*
X195977510Y-78030261D01*
X195977498Y-78030264D01*
X195831827Y-78090602D01*
X195831814Y-78090609D01*
X195700711Y-78178210D01*
X195700707Y-78178213D01*
X195626781Y-78252140D01*
X195565458Y-78285625D01*
X195495766Y-78280641D01*
X195439833Y-78238769D01*
X195415416Y-78173305D01*
X195415100Y-78164459D01*
X195415100Y-78110643D01*
X195402369Y-78030263D01*
X195381511Y-77898573D01*
X195315161Y-77694367D01*
X195315161Y-77694366D01*
X195217682Y-77503055D01*
X195187242Y-77461158D01*
X195091477Y-77329349D01*
X194939651Y-77177523D01*
X194765944Y-77051317D01*
X194765943Y-77051316D01*
X194762002Y-77048453D01*
X194763405Y-77046521D01*
X194723078Y-77002073D01*
X194711558Y-76933160D01*
X194739125Y-76868958D01*
X194762709Y-76848521D01*
X194762002Y-76847547D01*
X194785319Y-76830606D01*
X194939651Y-76718477D01*
X195091477Y-76566651D01*
X195217683Y-76392944D01*
X195315161Y-76201633D01*
X195315632Y-76200185D01*
X195322027Y-76180500D01*
X195381511Y-75997427D01*
X195415100Y-75785357D01*
X195415100Y-75570643D01*
X195381511Y-75358573D01*
X195332972Y-75209185D01*
X195315162Y-75154369D01*
X195315161Y-75154366D01*
X195265492Y-75056888D01*
X195217683Y-74963056D01*
X195091477Y-74789349D01*
X194939651Y-74637523D01*
X194765944Y-74511317D01*
X194765943Y-74511316D01*
X194762002Y-74508453D01*
X194763405Y-74506521D01*
X194723078Y-74462073D01*
X194711558Y-74393160D01*
X194739125Y-74328958D01*
X194762709Y-74308521D01*
X194762002Y-74307547D01*
X194786987Y-74289394D01*
X194939651Y-74178477D01*
X195091477Y-74026651D01*
X195217683Y-73852944D01*
X195315161Y-73661633D01*
X195381511Y-73457427D01*
X195415100Y-73245357D01*
X195415100Y-73030643D01*
X195381511Y-72818573D01*
X195348336Y-72716470D01*
X195315162Y-72614369D01*
X195315161Y-72614366D01*
X195240691Y-72468212D01*
X195217683Y-72423056D01*
X195091477Y-72249349D01*
X194939651Y-72097523D01*
X194765944Y-71971317D01*
X194574633Y-71873838D01*
X194574630Y-71873837D01*
X194370428Y-71807489D01*
X194264392Y-71790694D01*
X194158357Y-71773900D01*
X192673643Y-71773900D01*
X192602953Y-71785096D01*
X192461571Y-71807489D01*
X192257369Y-71873837D01*
X192257366Y-71873838D01*
X192066055Y-71971317D01*
X191966949Y-72043322D01*
X191892349Y-72097523D01*
X191892347Y-72097525D01*
X191892346Y-72097525D01*
X191740525Y-72249346D01*
X191740525Y-72249347D01*
X191740523Y-72249349D01*
X191686322Y-72323949D01*
X191614317Y-72423055D01*
X191516838Y-72614366D01*
X191516837Y-72614369D01*
X191450489Y-72818571D01*
X191416900Y-73030643D01*
X191416900Y-73245356D01*
X191450489Y-73457428D01*
X191516837Y-73661630D01*
X191516838Y-73661633D01*
X191594218Y-73813497D01*
X191614317Y-73852944D01*
X191740523Y-74026651D01*
X191892349Y-74178477D01*
X192045007Y-74289390D01*
X192069998Y-74307547D01*
X192068624Y-74309437D01*
X192109030Y-74354152D01*
X192120411Y-74423089D01*
X192092715Y-74487235D01*
X192069314Y-74507511D01*
X192069998Y-74508453D01*
X192066056Y-74511316D01*
X192066056Y-74511317D01*
X191892349Y-74637523D01*
X191892347Y-74637525D01*
X191892346Y-74637525D01*
X191740525Y-74789346D01*
X191740525Y-74789347D01*
X191740523Y-74789349D01*
X191686322Y-74863949D01*
X191614317Y-74963055D01*
X191516838Y-75154366D01*
X191516837Y-75154369D01*
X191450489Y-75358571D01*
X191416900Y-75570643D01*
X191416900Y-75785356D01*
X191450489Y-75997428D01*
X191516837Y-76201630D01*
X191516838Y-76201633D01*
X191613928Y-76392181D01*
X191614317Y-76392944D01*
X191740523Y-76566651D01*
X191892349Y-76718477D01*
X191982111Y-76783693D01*
X192069998Y-76847547D01*
X192068624Y-76849437D01*
X192109030Y-76894152D01*
X192120411Y-76963089D01*
X192092715Y-77027235D01*
X192069314Y-77047511D01*
X192069998Y-77048453D01*
X192066056Y-77051316D01*
X192066056Y-77051317D01*
X191892349Y-77177523D01*
X191892347Y-77177525D01*
X191892346Y-77177525D01*
X191740525Y-77329346D01*
X191740525Y-77329347D01*
X191740523Y-77329349D01*
X191713792Y-77366141D01*
X191614317Y-77503055D01*
X191516838Y-77694366D01*
X191516837Y-77694369D01*
X191450489Y-77898571D01*
X191431189Y-78020426D01*
X191416900Y-78110643D01*
X191416900Y-78325357D01*
X191420249Y-78346503D01*
X191450489Y-78537428D01*
X191516837Y-78741630D01*
X191516838Y-78741633D01*
X191610919Y-78926275D01*
X191614317Y-78932944D01*
X191740523Y-79106651D01*
X191740525Y-79106653D01*
X191837211Y-79203339D01*
X191870696Y-79264662D01*
X191865712Y-79334354D01*
X191823840Y-79390287D01*
X191792863Y-79407202D01*
X191675313Y-79451045D01*
X191675306Y-79451049D01*
X191560212Y-79537209D01*
X191560209Y-79537212D01*
X191474049Y-79652306D01*
X191474045Y-79652313D01*
X191423803Y-79787020D01*
X191423801Y-79787027D01*
X191417400Y-79846555D01*
X191417400Y-80508000D01*
X193292000Y-80508000D01*
X193359039Y-80527685D01*
X193404794Y-80580489D01*
X193416000Y-80632000D01*
X193416000Y-80884000D01*
X193396315Y-80951039D01*
X193343511Y-80996794D01*
X193292000Y-81008000D01*
X191417400Y-81008000D01*
X191417400Y-81669444D01*
X191423801Y-81728972D01*
X191423803Y-81728979D01*
X191474045Y-81863686D01*
X191474049Y-81863693D01*
X191560209Y-81978787D01*
X191560212Y-81978790D01*
X191675306Y-82064950D01*
X191675313Y-82064954D01*
X191792863Y-82108797D01*
X191848797Y-82150668D01*
X191873214Y-82216132D01*
X191858363Y-82284405D01*
X191837212Y-82312660D01*
X191740522Y-82409350D01*
X191614315Y-82583057D01*
X191590501Y-82629796D01*
X191542527Y-82680591D01*
X191480017Y-82697500D01*
X190722874Y-82697500D01*
X190655835Y-82677815D01*
X190653983Y-82676602D01*
X190570185Y-82620609D01*
X190570172Y-82620602D01*
X190424501Y-82560264D01*
X190424489Y-82560261D01*
X190269845Y-82529500D01*
X190269842Y-82529500D01*
X190112158Y-82529500D01*
X190112155Y-82529500D01*
X189957510Y-82560261D01*
X189957498Y-82560264D01*
X189811827Y-82620602D01*
X189811814Y-82620609D01*
X189680711Y-82708210D01*
X189680707Y-82708213D01*
X189569213Y-82819707D01*
X189569210Y-82819711D01*
X189481609Y-82950814D01*
X189481602Y-82950827D01*
X189421264Y-83096498D01*
X189421261Y-83096510D01*
X189390500Y-83251153D01*
X189390500Y-83408846D01*
X189421261Y-83563489D01*
X189421264Y-83563501D01*
X189481602Y-83709172D01*
X189481609Y-83709185D01*
X189569210Y-83840288D01*
X189569213Y-83840292D01*
X189680707Y-83951786D01*
X189680711Y-83951789D01*
X189811814Y-84039390D01*
X189811827Y-84039397D01*
X189886348Y-84070264D01*
X189957503Y-84099737D01*
X190112153Y-84130499D01*
X190112156Y-84130500D01*
X190112158Y-84130500D01*
X190269844Y-84130500D01*
X190269845Y-84130499D01*
X190424497Y-84099737D01*
X190570179Y-84039394D01*
X190701289Y-83951789D01*
X190701292Y-83951786D01*
X190718260Y-83934819D01*
X190779583Y-83901334D01*
X190805941Y-83898500D01*
X191480017Y-83898500D01*
X191547056Y-83918185D01*
X191590501Y-83966204D01*
X191614315Y-84012942D01*
X191633531Y-84039390D01*
X191740523Y-84186651D01*
X191892349Y-84338477D01*
X192060749Y-84460827D01*
X192069998Y-84467547D01*
X192068624Y-84469437D01*
X192109030Y-84514152D01*
X192120411Y-84583089D01*
X192092715Y-84647235D01*
X192069314Y-84667511D01*
X192069998Y-84668453D01*
X192066056Y-84671316D01*
X192066056Y-84671317D01*
X191892349Y-84797523D01*
X191892347Y-84797525D01*
X191892346Y-84797525D01*
X191740525Y-84949346D01*
X191740525Y-84949347D01*
X191740523Y-84949349D01*
X191734083Y-84958213D01*
X191614315Y-85123057D01*
X191590501Y-85169796D01*
X191580052Y-85180859D01*
X191573730Y-85194703D01*
X191556549Y-85205744D01*
X191542527Y-85220591D01*
X191526847Y-85224832D01*
X191514952Y-85232477D01*
X191480017Y-85237500D01*
X191269670Y-85237500D01*
X191269654Y-85237499D01*
X191262058Y-85237499D01*
X191103943Y-85237499D01*
X191031125Y-85257011D01*
X190951214Y-85278423D01*
X190951209Y-85278426D01*
X190814290Y-85357475D01*
X190814282Y-85357481D01*
X190780598Y-85391165D01*
X190719275Y-85424650D01*
X190649583Y-85419664D01*
X190624028Y-85406586D01*
X190570183Y-85370608D01*
X190570172Y-85370602D01*
X190424501Y-85310264D01*
X190424489Y-85310261D01*
X190269845Y-85279500D01*
X190269842Y-85279500D01*
X190112158Y-85279500D01*
X190112155Y-85279500D01*
X189957510Y-85310261D01*
X189957498Y-85310264D01*
X189811827Y-85370602D01*
X189811814Y-85370609D01*
X189680711Y-85458210D01*
X189566711Y-85572210D01*
X189505388Y-85605694D01*
X189435696Y-85600710D01*
X189379763Y-85558838D01*
X189364470Y-85531982D01*
X189344701Y-85484257D01*
X189344696Y-85484248D01*
X189278879Y-85370250D01*
X189278875Y-85370243D01*
X189269082Y-85357481D01*
X189202980Y-85271336D01*
X189198541Y-85265551D01*
X189105449Y-85172459D01*
X189098572Y-85167182D01*
X189000767Y-85092132D01*
X189000749Y-85092120D01*
X188886751Y-85026303D01*
X188886750Y-85026302D01*
X188764829Y-84975800D01*
X188699187Y-84958211D01*
X188637662Y-84941725D01*
X188637661Y-84941724D01*
X188637658Y-84941724D01*
X188506833Y-84924500D01*
X188506826Y-84924500D01*
X187875174Y-84924500D01*
X187875166Y-84924500D01*
X187744341Y-84941724D01*
X187617170Y-84975800D01*
X187495249Y-85026302D01*
X187495248Y-85026303D01*
X187381250Y-85092120D01*
X187381232Y-85092132D01*
X187276555Y-85172455D01*
X187276553Y-85172457D01*
X187183456Y-85265553D01*
X187171615Y-85280986D01*
X187115188Y-85322189D01*
X187073239Y-85329500D01*
X186513367Y-85329500D01*
X186446328Y-85309815D01*
X186400573Y-85257011D01*
X186390629Y-85187853D01*
X186395436Y-85167182D01*
X186409773Y-85123056D01*
X186435358Y-85044315D01*
X186472700Y-84808551D01*
X186472700Y-84569849D01*
X186435358Y-84334085D01*
X186361595Y-84107066D01*
X186253227Y-83894381D01*
X186112921Y-83701267D01*
X185944133Y-83532479D01*
X185926292Y-83519517D01*
X185883628Y-83464190D01*
X185877647Y-83394577D01*
X185910252Y-83332781D01*
X185926291Y-83318884D01*
X185944133Y-83305921D01*
X186112921Y-83137133D01*
X186253227Y-82944019D01*
X186361595Y-82731334D01*
X186435358Y-82504315D01*
X186472700Y-82268551D01*
X186472700Y-82029849D01*
X186435358Y-81794085D01*
X186361595Y-81567066D01*
X186253227Y-81354381D01*
X186112921Y-81161267D01*
X185944133Y-80992479D01*
X185751019Y-80852173D01*
X185538334Y-80743805D01*
X185311315Y-80670042D01*
X185311313Y-80670041D01*
X185311311Y-80670041D01*
X185146698Y-80643968D01*
X185075551Y-80632700D01*
X184836849Y-80632700D01*
X184782195Y-80641356D01*
X184601088Y-80670041D01*
X184601087Y-80670041D01*
X184374063Y-80743806D01*
X184161380Y-80852173D01*
X184083855Y-80908499D01*
X183968267Y-80992479D01*
X183968265Y-80992481D01*
X183968264Y-80992481D01*
X183799481Y-81161264D01*
X183799481Y-81161265D01*
X183799479Y-81161267D01*
X183787693Y-81177489D01*
X183659173Y-81354380D01*
X183550806Y-81567063D01*
X183477041Y-81794087D01*
X183477041Y-81794088D01*
X183442923Y-82009500D01*
X183439700Y-82029849D01*
X183439700Y-82268551D01*
X183447374Y-82317002D01*
X183477041Y-82504311D01*
X183477041Y-82504312D01*
X183477042Y-82504315D01*
X183550746Y-82731153D01*
X183550806Y-82731336D01*
X183568243Y-82765558D01*
X183659173Y-82944019D01*
X183799479Y-83137133D01*
X183968267Y-83305921D01*
X183968270Y-83305923D01*
X183986108Y-83318884D01*
X184028772Y-83374215D01*
X184034750Y-83443829D01*
X184002142Y-83505623D01*
X183986108Y-83519516D01*
X183968270Y-83532476D01*
X183968264Y-83532481D01*
X183799481Y-83701264D01*
X183799481Y-83701265D01*
X183799479Y-83701267D01*
X183739222Y-83784202D01*
X183659173Y-83894380D01*
X183550806Y-84107063D01*
X183477041Y-84334087D01*
X183477041Y-84334088D01*
X183439700Y-84569849D01*
X183439700Y-84808550D01*
X183477041Y-85044311D01*
X183477041Y-85044312D01*
X183477042Y-85044315D01*
X183550805Y-85271334D01*
X183659173Y-85484019D01*
X183799479Y-85677133D01*
X183968267Y-85845921D01*
X183968270Y-85845923D01*
X183986108Y-85858884D01*
X184028772Y-85914215D01*
X184034750Y-85983829D01*
X184002142Y-86045623D01*
X183986108Y-86059516D01*
X183968270Y-86072476D01*
X183968264Y-86072481D01*
X183799481Y-86241264D01*
X183799481Y-86241265D01*
X183799479Y-86241267D01*
X183754012Y-86303847D01*
X183659173Y-86434380D01*
X183550806Y-86647063D01*
X183477041Y-86874087D01*
X183477041Y-86874088D01*
X183439700Y-87109849D01*
X183439700Y-87348550D01*
X183477041Y-87584311D01*
X183477041Y-87584312D01*
X183477042Y-87584315D01*
X183550805Y-87811334D01*
X183659173Y-88024019D01*
X183799479Y-88217133D01*
X183968267Y-88385921D01*
X183968270Y-88385923D01*
X183986108Y-88398884D01*
X184028772Y-88454215D01*
X184034750Y-88523829D01*
X184002142Y-88585623D01*
X183986108Y-88599516D01*
X183968270Y-88612476D01*
X183968264Y-88612481D01*
X183799481Y-88781264D01*
X183799481Y-88781265D01*
X183799479Y-88781267D01*
X183756598Y-88840288D01*
X183659173Y-88974380D01*
X183550806Y-89187063D01*
X183477041Y-89414087D01*
X183477041Y-89414088D01*
X183439700Y-89649849D01*
X183439700Y-89888550D01*
X183477041Y-90124311D01*
X183477041Y-90124312D01*
X183477042Y-90124315D01*
X183550805Y-90351334D01*
X183659173Y-90564019D01*
X183799479Y-90757133D01*
X183968267Y-90925921D01*
X184161381Y-91066227D01*
X184374066Y-91174595D01*
X184601085Y-91248358D01*
X184836849Y-91285700D01*
X184836850Y-91285700D01*
X185075550Y-91285700D01*
X185075551Y-91285700D01*
X185311315Y-91248358D01*
X185538334Y-91174595D01*
X185751019Y-91066227D01*
X185944133Y-90925921D01*
X186112921Y-90757133D01*
X186253227Y-90564019D01*
X186317740Y-90437405D01*
X186365715Y-90386609D01*
X186428225Y-90369700D01*
X186815739Y-90369700D01*
X186845605Y-90378469D01*
X186875972Y-90385312D01*
X186878848Y-90388231D01*
X186882778Y-90389385D01*
X186903155Y-90412901D01*
X186925009Y-90435082D01*
X186926331Y-90439648D01*
X186928533Y-90442189D01*
X186937097Y-90468242D01*
X186938823Y-90476472D01*
X186940645Y-90501940D01*
X186952975Y-90543936D01*
X186953983Y-90548737D01*
X186953089Y-90560049D01*
X186955363Y-90591841D01*
X186935500Y-90729998D01*
X186935500Y-91295833D01*
X186952724Y-91426658D01*
X186986800Y-91553829D01*
X187037302Y-91675750D01*
X187037303Y-91675751D01*
X187103120Y-91789749D01*
X187103132Y-91789767D01*
X187172755Y-91880500D01*
X187183459Y-91894449D01*
X187276551Y-91987541D01*
X187276555Y-91987544D01*
X187381232Y-92067867D01*
X187381236Y-92067869D01*
X187381243Y-92067875D01*
X187381250Y-92067879D01*
X187495249Y-92133697D01*
X187495257Y-92133701D01*
X187513951Y-92141444D01*
X187568355Y-92185284D01*
X187590421Y-92251578D01*
X187590500Y-92256006D01*
X187590500Y-99143330D01*
X187590499Y-99143348D01*
X187590499Y-99309054D01*
X187590498Y-99309054D01*
X187631423Y-99461785D01*
X187660358Y-99511900D01*
X187660359Y-99511904D01*
X187660360Y-99511904D01*
X187698793Y-99578474D01*
X187710479Y-99598714D01*
X187710481Y-99598717D01*
X187807217Y-99695453D01*
X187840702Y-99756776D01*
X187835718Y-99826468D01*
X187793846Y-99882401D01*
X187788427Y-99886236D01*
X187680711Y-99958210D01*
X187680707Y-99958213D01*
X187569213Y-100069707D01*
X187569210Y-100069711D01*
X187481609Y-100200814D01*
X187481602Y-100200827D01*
X187421264Y-100346498D01*
X187421261Y-100346510D01*
X187390500Y-100501153D01*
X187390500Y-100658846D01*
X187421261Y-100813489D01*
X187421264Y-100813501D01*
X187481602Y-100959172D01*
X187481609Y-100959185D01*
X187569602Y-101090874D01*
X187590480Y-101157551D01*
X187590500Y-101159765D01*
X187590500Y-104500939D01*
X187590499Y-104500943D01*
X187590499Y-104550291D01*
X187590499Y-104580903D01*
X187570814Y-104647943D01*
X187518009Y-104693697D01*
X187458795Y-104702210D01*
X187448852Y-104703640D01*
X187448851Y-104703639D01*
X187448851Y-104703640D01*
X187419826Y-104690384D01*
X187385296Y-104674615D01*
X187378818Y-104668583D01*
X179827819Y-97117584D01*
X179794334Y-97056261D01*
X179791500Y-97029903D01*
X179791500Y-96861940D01*
X179811185Y-96794901D01*
X179863989Y-96749146D01*
X179933147Y-96739202D01*
X179996703Y-96768227D01*
X180003181Y-96774259D01*
X185180707Y-101951786D01*
X185180711Y-101951789D01*
X185311814Y-102039390D01*
X185311818Y-102039392D01*
X185311821Y-102039394D01*
X185457503Y-102099738D01*
X185603476Y-102128773D01*
X185612153Y-102130499D01*
X185612157Y-102130500D01*
X185612158Y-102130500D01*
X185769844Y-102130500D01*
X185769845Y-102130499D01*
X185924498Y-102099738D01*
X186070179Y-102039394D01*
X186113737Y-102010290D01*
X186201290Y-101951789D01*
X186312789Y-101840290D01*
X186400390Y-101709185D01*
X186400390Y-101709184D01*
X186400394Y-101709179D01*
X186460738Y-101563498D01*
X186491500Y-101408843D01*
X186491500Y-101251158D01*
X186460738Y-101096503D01*
X186400394Y-100950821D01*
X186400392Y-100950818D01*
X186400390Y-100950814D01*
X186312789Y-100819711D01*
X186312786Y-100819707D01*
X181027819Y-95534740D01*
X180994334Y-95473417D01*
X180991500Y-95447059D01*
X180991500Y-87451155D01*
X180991499Y-87451153D01*
X180971482Y-87350521D01*
X180960737Y-87296503D01*
X180960735Y-87296498D01*
X180900397Y-87150827D01*
X180900390Y-87150814D01*
X180812790Y-87019712D01*
X180797761Y-87004683D01*
X180701289Y-86908211D01*
X178282819Y-84489741D01*
X178249334Y-84428418D01*
X178246500Y-84402060D01*
X178246500Y-84264180D01*
X178246499Y-84264166D01*
X178230183Y-84140235D01*
X178229275Y-84133338D01*
X178195200Y-84006171D01*
X178144701Y-83884257D01*
X178144698Y-83884252D01*
X178144697Y-83884249D01*
X178144696Y-83884248D01*
X178078879Y-83770250D01*
X178078875Y-83770243D01*
X178032018Y-83709179D01*
X177998544Y-83665555D01*
X177998541Y-83665551D01*
X177905449Y-83572459D01*
X177893770Y-83563497D01*
X177800767Y-83492132D01*
X177800749Y-83492120D01*
X177686751Y-83426303D01*
X177686750Y-83426302D01*
X177669604Y-83419200D01*
X177564829Y-83375800D01*
X177437662Y-83341725D01*
X177437661Y-83341724D01*
X177437658Y-83341724D01*
X177306833Y-83324500D01*
X177306826Y-83324500D01*
X176741000Y-83324500D01*
X176740997Y-83324500D01*
X176669061Y-83329644D01*
X176669056Y-83329645D01*
X176631735Y-83340603D01*
X176579158Y-83344363D01*
X176441001Y-83324500D01*
X176441000Y-83324500D01*
X175875174Y-83324500D01*
X175875166Y-83324500D01*
X175744341Y-83341724D01*
X175617170Y-83375800D01*
X175495249Y-83426302D01*
X175495248Y-83426303D01*
X175381250Y-83492120D01*
X175381232Y-83492132D01*
X175276555Y-83572455D01*
X175276545Y-83572464D01*
X175183464Y-83665545D01*
X175183455Y-83665555D01*
X175103132Y-83770232D01*
X175103125Y-83770243D01*
X175074579Y-83819687D01*
X175070529Y-83826701D01*
X175019961Y-83874916D01*
X174963142Y-83888700D01*
X168532280Y-83888700D01*
X168465241Y-83869015D01*
X168431962Y-83837585D01*
X168332923Y-83701270D01*
X168332918Y-83701264D01*
X168164135Y-83532481D01*
X168164133Y-83532479D01*
X168107642Y-83491435D01*
X168064978Y-83436107D01*
X168057269Y-83383822D01*
X167176200Y-82502753D01*
X166294934Y-83384016D01*
X166281121Y-83449770D01*
X166244755Y-83491437D01*
X166188267Y-83532478D01*
X166019481Y-83701264D01*
X166019481Y-83701265D01*
X166019479Y-83701267D01*
X165959222Y-83784202D01*
X165879173Y-83894380D01*
X165770806Y-84107063D01*
X165697041Y-84334087D01*
X165697041Y-84334088D01*
X165659700Y-84569849D01*
X165659700Y-84808550D01*
X165697041Y-85044311D01*
X165697041Y-85044312D01*
X165697042Y-85044315D01*
X165770805Y-85271334D01*
X165879173Y-85484019D01*
X166019479Y-85677133D01*
X166188267Y-85845921D01*
X166188270Y-85845923D01*
X166206108Y-85858884D01*
X166248772Y-85914215D01*
X166254750Y-85983829D01*
X166222142Y-86045623D01*
X166206108Y-86059516D01*
X166188270Y-86072476D01*
X166188264Y-86072481D01*
X166019481Y-86241264D01*
X166019481Y-86241265D01*
X166019479Y-86241267D01*
X165974012Y-86303847D01*
X165879173Y-86434380D01*
X165770806Y-86647063D01*
X165697041Y-86874087D01*
X165697041Y-86874088D01*
X165659700Y-87109849D01*
X165659700Y-87348550D01*
X165697041Y-87584311D01*
X165697041Y-87584312D01*
X165697042Y-87584315D01*
X165770805Y-87811334D01*
X165879173Y-88024019D01*
X166019479Y-88217133D01*
X166188267Y-88385921D01*
X166188270Y-88385923D01*
X166206108Y-88398884D01*
X166248772Y-88454215D01*
X166254750Y-88523829D01*
X166222142Y-88585623D01*
X166206108Y-88599516D01*
X166188270Y-88612476D01*
X166188264Y-88612481D01*
X166019481Y-88781264D01*
X166019481Y-88781265D01*
X166019479Y-88781267D01*
X165976598Y-88840288D01*
X165879173Y-88974380D01*
X165770806Y-89187063D01*
X165697041Y-89414087D01*
X165697041Y-89414088D01*
X165659700Y-89649849D01*
X165659700Y-89888550D01*
X165697041Y-90124311D01*
X165697041Y-90124312D01*
X165697042Y-90124315D01*
X165770805Y-90351334D01*
X165879173Y-90564019D01*
X166019479Y-90757133D01*
X166188267Y-90925921D01*
X166381381Y-91066227D01*
X166594066Y-91174595D01*
X166821085Y-91248358D01*
X167056849Y-91285700D01*
X167056850Y-91285700D01*
X167295550Y-91285700D01*
X167295551Y-91285700D01*
X167531315Y-91248358D01*
X167758334Y-91174595D01*
X167971019Y-91066227D01*
X168164133Y-90925921D01*
X168332921Y-90757133D01*
X168473227Y-90564019D01*
X168537740Y-90437405D01*
X168585715Y-90386609D01*
X168648225Y-90369700D01*
X172780103Y-90369700D01*
X172847142Y-90389385D01*
X172867784Y-90406019D01*
X174849181Y-92387416D01*
X174882666Y-92448739D01*
X174885500Y-92475097D01*
X174885500Y-92895833D01*
X174902724Y-93026658D01*
X174936800Y-93153829D01*
X174987302Y-93275750D01*
X174987303Y-93275751D01*
X175053120Y-93389749D01*
X175053132Y-93389767D01*
X175109702Y-93463489D01*
X175133459Y-93494449D01*
X175226551Y-93587541D01*
X175226554Y-93587543D01*
X175226555Y-93587544D01*
X175331232Y-93667867D01*
X175331236Y-93667869D01*
X175331243Y-93667875D01*
X175331250Y-93667879D01*
X175445248Y-93733696D01*
X175445249Y-93733697D01*
X175445252Y-93733698D01*
X175445257Y-93733701D01*
X175567171Y-93784200D01*
X175694338Y-93818275D01*
X175825174Y-93835500D01*
X175825181Y-93835500D01*
X176391000Y-93835500D01*
X176457654Y-93830733D01*
X176525927Y-93845585D01*
X176575332Y-93894990D01*
X176590500Y-93954417D01*
X176590500Y-95753862D01*
X176590499Y-95753880D01*
X176590499Y-95919586D01*
X176590498Y-95919586D01*
X176612355Y-96001158D01*
X176631423Y-96072317D01*
X176650499Y-96105357D01*
X176706172Y-96201786D01*
X176710479Y-96209246D01*
X176710481Y-96209249D01*
X176829349Y-96328117D01*
X176829355Y-96328122D01*
X180069052Y-99567819D01*
X180102537Y-99629142D01*
X180097553Y-99698834D01*
X180055681Y-99754767D01*
X179990217Y-99779184D01*
X179981371Y-99779500D01*
X172112155Y-99779500D01*
X171957510Y-99810261D01*
X171957498Y-99810264D01*
X171811827Y-99870602D01*
X171811814Y-99870609D01*
X171698061Y-99946617D01*
X171631383Y-99967495D01*
X171564003Y-99949010D01*
X171541489Y-99931196D01*
X159827819Y-88217526D01*
X159794334Y-88156203D01*
X159791500Y-88129845D01*
X159791500Y-87159765D01*
X159811185Y-87092726D01*
X159812398Y-87090874D01*
X159900390Y-86959185D01*
X159900390Y-86959184D01*
X159900394Y-86959179D01*
X159960737Y-86813497D01*
X159991500Y-86658842D01*
X159991500Y-86501158D01*
X159991500Y-86501155D01*
X159991499Y-86501153D01*
X159982619Y-86456510D01*
X159960737Y-86346503D01*
X159945954Y-86310814D01*
X159900397Y-86200827D01*
X159900390Y-86200814D01*
X159812789Y-86069711D01*
X159812786Y-86069707D01*
X159701292Y-85958213D01*
X159701288Y-85958210D01*
X159570185Y-85870609D01*
X159570172Y-85870602D01*
X159424501Y-85810264D01*
X159424489Y-85810261D01*
X159269845Y-85779500D01*
X159269842Y-85779500D01*
X159112158Y-85779500D01*
X159112155Y-85779500D01*
X158957510Y-85810261D01*
X158957498Y-85810264D01*
X158811827Y-85870602D01*
X158811814Y-85870609D01*
X158680711Y-85958210D01*
X158680707Y-85958213D01*
X158569213Y-86069707D01*
X158569210Y-86069711D01*
X158481609Y-86200814D01*
X158481602Y-86200827D01*
X158421264Y-86346498D01*
X158421261Y-86346510D01*
X158390500Y-86501153D01*
X158390500Y-86658846D01*
X158421261Y-86813489D01*
X158421264Y-86813501D01*
X158481602Y-86959172D01*
X158481609Y-86959185D01*
X158569602Y-87090874D01*
X158590480Y-87157551D01*
X158590500Y-87159765D01*
X158590500Y-88343273D01*
X158590499Y-88343291D01*
X158590499Y-88508997D01*
X158590498Y-88508997D01*
X158631424Y-88661732D01*
X158631425Y-88661733D01*
X158652031Y-88697423D01*
X158652033Y-88697426D01*
X158652034Y-88697427D01*
X158699419Y-88779500D01*
X158707502Y-88793501D01*
X158723974Y-88861401D01*
X158701121Y-88927428D01*
X158646199Y-88970618D01*
X158600114Y-88979500D01*
X157770766Y-88979500D01*
X157703727Y-88959815D01*
X157701875Y-88958602D01*
X157570185Y-88870609D01*
X157570172Y-88870602D01*
X157424501Y-88810264D01*
X157424489Y-88810261D01*
X157269845Y-88779500D01*
X157269842Y-88779500D01*
X157112158Y-88779500D01*
X157112155Y-88779500D01*
X156957510Y-88810261D01*
X156957498Y-88810264D01*
X156811827Y-88870602D01*
X156811814Y-88870609D01*
X156680711Y-88958210D01*
X156680707Y-88958213D01*
X156569213Y-89069707D01*
X156569210Y-89069711D01*
X156481609Y-89200814D01*
X156481602Y-89200827D01*
X156421264Y-89346498D01*
X156421261Y-89346510D01*
X156390500Y-89501153D01*
X156390500Y-89615500D01*
X156370815Y-89682539D01*
X156318011Y-89728294D01*
X156266500Y-89739500D01*
X155112884Y-89739500D01*
X155045845Y-89719815D01*
X155004229Y-89671788D01*
X155002820Y-89672525D01*
X154999909Y-89666953D01*
X154999909Y-89666951D01*
X154905698Y-89486593D01*
X154792661Y-89347964D01*
X154765552Y-89283568D01*
X154777561Y-89214738D01*
X154792662Y-89191241D01*
X154905278Y-89053130D01*
X154999442Y-88872861D01*
X155055390Y-88677328D01*
X155055391Y-88677325D01*
X155065999Y-88558000D01*
X155066000Y-88557998D01*
X155066000Y-87442002D01*
X155065999Y-87441999D01*
X155055391Y-87322674D01*
X155055390Y-87322671D01*
X154999442Y-87127138D01*
X154905278Y-86946870D01*
X154776753Y-86789246D01*
X154764938Y-86779613D01*
X154764937Y-86779613D01*
X153455456Y-88089094D01*
X153394133Y-88122579D01*
X153324441Y-88117595D01*
X153280094Y-88089094D01*
X153101905Y-87910905D01*
X153068420Y-87849582D01*
X153073404Y-87779890D01*
X153101905Y-87735543D01*
X154308260Y-86529187D01*
X154308260Y-86529186D01*
X154243331Y-86510609D01*
X154124000Y-86500000D01*
X152257999Y-86500000D01*
X152138674Y-86510608D01*
X152138671Y-86510609D01*
X151943138Y-86566557D01*
X151880911Y-86599062D01*
X151812376Y-86612653D01*
X151747373Y-86587034D01*
X151706539Y-86530338D01*
X151699500Y-86489153D01*
X151699500Y-85763057D01*
X151699500Y-85763055D01*
X151664847Y-85633726D01*
X151597901Y-85517774D01*
X151503226Y-85423099D01*
X151387274Y-85356153D01*
X151257945Y-85321500D01*
X151257944Y-85321500D01*
X141823500Y-85321500D01*
X141756461Y-85301815D01*
X141710706Y-85249011D01*
X141699500Y-85197500D01*
X141699500Y-81378322D01*
X148716001Y-81378322D01*
X148726144Y-81477607D01*
X148779452Y-81638481D01*
X148779457Y-81638492D01*
X148868424Y-81782728D01*
X148868427Y-81782732D01*
X148988267Y-81902572D01*
X148988271Y-81902575D01*
X149132507Y-81991542D01*
X149132518Y-81991547D01*
X149293393Y-82044855D01*
X149392683Y-82054999D01*
X149941000Y-82054999D01*
X149989308Y-82054999D01*
X149989322Y-82054998D01*
X150088607Y-82044855D01*
X150249481Y-81991547D01*
X150249492Y-81991542D01*
X150393728Y-81902575D01*
X150393732Y-81902572D01*
X150513572Y-81782732D01*
X150513575Y-81782728D01*
X150602542Y-81638492D01*
X150602547Y-81638481D01*
X150655855Y-81477606D01*
X150665999Y-81378322D01*
X150916001Y-81378322D01*
X150926144Y-81477607D01*
X150979452Y-81638481D01*
X150979457Y-81638492D01*
X151068424Y-81782728D01*
X151068427Y-81782732D01*
X151188267Y-81902572D01*
X151188271Y-81902575D01*
X151332507Y-81991542D01*
X151332518Y-81991547D01*
X151493393Y-82044855D01*
X151592683Y-82054999D01*
X151640999Y-82054998D01*
X151641000Y-82054998D01*
X151641000Y-81355000D01*
X150916001Y-81355000D01*
X150916001Y-81378322D01*
X150665999Y-81378322D01*
X150666000Y-81378309D01*
X150666000Y-81355000D01*
X149941000Y-81355000D01*
X149941000Y-82054999D01*
X149392683Y-82054999D01*
X149440999Y-82054998D01*
X149441000Y-82054998D01*
X149441000Y-81355000D01*
X148716001Y-81355000D01*
X148716001Y-81378322D01*
X141699500Y-81378322D01*
X141699500Y-78501153D01*
X147390500Y-78501153D01*
X147390500Y-78658846D01*
X147421261Y-78813489D01*
X147421264Y-78813501D01*
X147481602Y-78959172D01*
X147481609Y-78959185D01*
X147569210Y-79090288D01*
X147569213Y-79090292D01*
X148544211Y-80065289D01*
X148622408Y-80143486D01*
X148655712Y-80176790D01*
X148786814Y-80264390D01*
X148786818Y-80264392D01*
X148786821Y-80264394D01*
X148795527Y-80268000D01*
X148797306Y-80268737D01*
X148851710Y-80312576D01*
X148873777Y-80378870D01*
X148856499Y-80446570D01*
X148855394Y-80448396D01*
X148779457Y-80571507D01*
X148779452Y-80571518D01*
X148726144Y-80732393D01*
X148716000Y-80831677D01*
X148716000Y-80855000D01*
X150665999Y-80855000D01*
X150665999Y-80831692D01*
X150665998Y-80831677D01*
X150655855Y-80732392D01*
X150602547Y-80571518D01*
X150602544Y-80571512D01*
X150585943Y-80544598D01*
X150583858Y-80536978D01*
X150578687Y-80531011D01*
X150574769Y-80503763D01*
X150567502Y-80477206D01*
X150569866Y-80469670D01*
X150568743Y-80461853D01*
X150580178Y-80436812D01*
X150588423Y-80410542D01*
X150594487Y-80405480D01*
X150597768Y-80398297D01*
X150620927Y-80383413D01*
X150642065Y-80365772D01*
X150651396Y-80363832D01*
X150656546Y-80360523D01*
X150691481Y-80355500D01*
X150890519Y-80355500D01*
X150957558Y-80375185D01*
X151003313Y-80427989D01*
X151013257Y-80497147D01*
X150996057Y-80544598D01*
X150979455Y-80571512D01*
X150979452Y-80571518D01*
X150926144Y-80732393D01*
X150916000Y-80831677D01*
X150916000Y-80855000D01*
X151767000Y-80855000D01*
X151834039Y-80874685D01*
X151879794Y-80927489D01*
X151891000Y-80979000D01*
X151891000Y-81105000D01*
X152017000Y-81105000D01*
X152084039Y-81124685D01*
X152129794Y-81177489D01*
X152141000Y-81229000D01*
X152141000Y-82054999D01*
X152189308Y-82054999D01*
X152189322Y-82054998D01*
X152288607Y-82044855D01*
X152449481Y-81991547D01*
X152449492Y-81991542D01*
X152593728Y-81902575D01*
X152593732Y-81902572D01*
X152713572Y-81782732D01*
X152713575Y-81782728D01*
X152802542Y-81638492D01*
X152802547Y-81638482D01*
X152805553Y-81629409D01*
X152845322Y-81571962D01*
X152909836Y-81545135D01*
X152978613Y-81557446D01*
X153021637Y-81592920D01*
X153084133Y-81674367D01*
X153206963Y-81768617D01*
X153206962Y-81768617D01*
X153279052Y-81798477D01*
X153350001Y-81827865D01*
X153464960Y-81843000D01*
X153666500Y-81843000D01*
X153733539Y-81862685D01*
X153779294Y-81915489D01*
X153790500Y-81967000D01*
X153790500Y-83050177D01*
X153770815Y-83117216D01*
X153769602Y-83119068D01*
X153681609Y-83250757D01*
X153681602Y-83250770D01*
X153621264Y-83396441D01*
X153621261Y-83396453D01*
X153590500Y-83551096D01*
X153590500Y-83708789D01*
X153621261Y-83863432D01*
X153621264Y-83863444D01*
X153681602Y-84009115D01*
X153681609Y-84009128D01*
X153769210Y-84140231D01*
X153769213Y-84140235D01*
X153880707Y-84251729D01*
X153880711Y-84251732D01*
X154011814Y-84339333D01*
X154011827Y-84339340D01*
X154157498Y-84399678D01*
X154157503Y-84399680D01*
X154301978Y-84428418D01*
X154312153Y-84430442D01*
X154312156Y-84430443D01*
X154466500Y-84430443D01*
X154533539Y-84450128D01*
X154579294Y-84502932D01*
X154590500Y-84554443D01*
X154590500Y-85000234D01*
X154570815Y-85067273D01*
X154569602Y-85069125D01*
X154481609Y-85200814D01*
X154481602Y-85200827D01*
X154421264Y-85346498D01*
X154421261Y-85346510D01*
X154390500Y-85501153D01*
X154390500Y-85658846D01*
X154421261Y-85813489D01*
X154421264Y-85813501D01*
X154481602Y-85959172D01*
X154481609Y-85959185D01*
X154569210Y-86090288D01*
X154569213Y-86090292D01*
X154680707Y-86201786D01*
X154680711Y-86201789D01*
X154811814Y-86289390D01*
X154811827Y-86289397D01*
X154930374Y-86338500D01*
X154957503Y-86349737D01*
X155112153Y-86380499D01*
X155112156Y-86380500D01*
X155112158Y-86380500D01*
X155269844Y-86380500D01*
X155269845Y-86380499D01*
X155424497Y-86349737D01*
X155570179Y-86289394D01*
X155701289Y-86201789D01*
X155812789Y-86090289D01*
X155900394Y-85959179D01*
X155907859Y-85941158D01*
X155936635Y-85871685D01*
X155960737Y-85813497D01*
X155991500Y-85658842D01*
X155991500Y-85501158D01*
X155991500Y-85501155D01*
X155991499Y-85501153D01*
X155982957Y-85458210D01*
X155960737Y-85346503D01*
X155950666Y-85322189D01*
X155900397Y-85200827D01*
X155900390Y-85200814D01*
X155812398Y-85069125D01*
X155791520Y-85002447D01*
X155791500Y-85000234D01*
X155791500Y-82879097D01*
X155797738Y-82857851D01*
X155799318Y-82835763D01*
X155807390Y-82824979D01*
X155811185Y-82812058D01*
X155827918Y-82797558D01*
X155841190Y-82779830D01*
X155853810Y-82775122D01*
X155863989Y-82766303D01*
X155885906Y-82763151D01*
X155906654Y-82755413D01*
X155919814Y-82758275D01*
X155933147Y-82756359D01*
X155953290Y-82765558D01*
X155974927Y-82770265D01*
X155992652Y-82783533D01*
X155996703Y-82785384D01*
X156003181Y-82791416D01*
X156156139Y-82944374D01*
X156156149Y-82944385D01*
X156160479Y-82948715D01*
X156160480Y-82948716D01*
X156272284Y-83060520D01*
X156334610Y-83096503D01*
X156359095Y-83110639D01*
X156359097Y-83110641D01*
X156397151Y-83132611D01*
X156409215Y-83139577D01*
X156561943Y-83180501D01*
X156611236Y-83180501D01*
X156678275Y-83200186D01*
X156680127Y-83201399D01*
X156811814Y-83289390D01*
X156811827Y-83289397D01*
X156938160Y-83341725D01*
X156957503Y-83349737D01*
X157088530Y-83375800D01*
X157112153Y-83380499D01*
X157112156Y-83380500D01*
X157112158Y-83380500D01*
X157269844Y-83380500D01*
X157269845Y-83380499D01*
X157424497Y-83349737D01*
X157570179Y-83289394D01*
X157701289Y-83201789D01*
X157812789Y-83090289D01*
X157900394Y-82959179D01*
X157903854Y-82950827D01*
X157958163Y-82819711D01*
X157960737Y-82813497D01*
X157991500Y-82658842D01*
X157991500Y-82501158D01*
X157991500Y-82501155D01*
X157991499Y-82501153D01*
X157985658Y-82471789D01*
X157960737Y-82346503D01*
X157950607Y-82322047D01*
X157900397Y-82200827D01*
X157900390Y-82200814D01*
X157812789Y-82069711D01*
X157812786Y-82069707D01*
X157722760Y-81979681D01*
X157689275Y-81918358D01*
X157694259Y-81848666D01*
X157736131Y-81792733D01*
X157801595Y-81768316D01*
X157810441Y-81768000D01*
X160516831Y-81768000D01*
X160516847Y-81768001D01*
X160524443Y-81768001D01*
X160682554Y-81768001D01*
X160682557Y-81768001D01*
X160835285Y-81727077D01*
X160901137Y-81689057D01*
X160972216Y-81648020D01*
X161084020Y-81536216D01*
X161084020Y-81536214D01*
X161094224Y-81526011D01*
X161094230Y-81526004D01*
X161149420Y-81470814D01*
X161205662Y-81414572D01*
X161266984Y-81381088D01*
X161269151Y-81380637D01*
X161269840Y-81380500D01*
X161269842Y-81380500D01*
X161424497Y-81349737D01*
X161570179Y-81289394D01*
X161701289Y-81201789D01*
X161812789Y-81090289D01*
X161900394Y-80959179D01*
X161960737Y-80813497D01*
X161991500Y-80658842D01*
X161991500Y-80501158D01*
X161991500Y-80501155D01*
X161991499Y-80501153D01*
X161990702Y-80497147D01*
X161960737Y-80346503D01*
X161946573Y-80312307D01*
X161900397Y-80200827D01*
X161900390Y-80200814D01*
X161812789Y-80069711D01*
X161812786Y-80069707D01*
X161701292Y-79958213D01*
X161701288Y-79958210D01*
X161570185Y-79870609D01*
X161570172Y-79870602D01*
X161424501Y-79810264D01*
X161424489Y-79810261D01*
X161269845Y-79779500D01*
X161269842Y-79779500D01*
X161112158Y-79779500D01*
X161112155Y-79779500D01*
X160957510Y-79810261D01*
X160957498Y-79810264D01*
X160811827Y-79870602D01*
X160811814Y-79870609D01*
X160680711Y-79958210D01*
X160680707Y-79958213D01*
X160569213Y-80069707D01*
X160569210Y-80069711D01*
X160481609Y-80200814D01*
X160481602Y-80200827D01*
X160421264Y-80346498D01*
X160421261Y-80346510D01*
X160397256Y-80467191D01*
X160364871Y-80529102D01*
X160304155Y-80563676D01*
X160275639Y-80567000D01*
X156978103Y-80567000D01*
X156977365Y-80566783D01*
X156976627Y-80566991D01*
X156943896Y-80556955D01*
X156911064Y-80547315D01*
X156910561Y-80546735D01*
X156909827Y-80546510D01*
X156887696Y-80520346D01*
X156865309Y-80494511D01*
X156865035Y-80493557D01*
X156864704Y-80493166D01*
X156855164Y-80459185D01*
X156851807Y-80433686D01*
X156851807Y-80401314D01*
X156859551Y-80342500D01*
X156820301Y-80342500D01*
X156806959Y-80338582D01*
X156793083Y-80339476D01*
X156774096Y-80328932D01*
X156753262Y-80322815D01*
X156744157Y-80312307D01*
X156731999Y-80305556D01*
X156721726Y-80286420D01*
X156707507Y-80270011D01*
X156705528Y-80256248D01*
X156698951Y-80243997D01*
X156700653Y-80222348D01*
X156697563Y-80200853D01*
X156703451Y-80186777D01*
X156704430Y-80174342D01*
X156721273Y-80144181D01*
X156721564Y-80143486D01*
X156721701Y-80143305D01*
X156792117Y-80051537D01*
X156792951Y-80049522D01*
X156799057Y-80041486D01*
X156821129Y-80025205D01*
X156840980Y-80006281D01*
X156849215Y-80004283D01*
X156859549Y-79992499D01*
X156852059Y-79935596D01*
X156852059Y-79903226D01*
X156856520Y-79869347D01*
X156866500Y-79793540D01*
X156866500Y-79541460D01*
X156851365Y-79426501D01*
X156792117Y-79283463D01*
X156697867Y-79160633D01*
X156575037Y-79066383D01*
X156575036Y-79066382D01*
X156575037Y-79066382D01*
X156432002Y-79007136D01*
X156432000Y-79007135D01*
X156431999Y-79007135D01*
X156406452Y-79003771D01*
X156317047Y-78992000D01*
X156317040Y-78992000D01*
X156097650Y-78992000D01*
X156077251Y-78986010D01*
X156056026Y-78984805D01*
X156044396Y-78976363D01*
X156030611Y-78972315D01*
X156016690Y-78956249D01*
X155999484Y-78943759D01*
X155990984Y-78926583D01*
X155984856Y-78919511D01*
X155982117Y-78913034D01*
X155979639Y-78906677D01*
X155954213Y-78811784D01*
X155950577Y-78798215D01*
X155914617Y-78735931D01*
X155892923Y-78698355D01*
X155871522Y-78661287D01*
X155871521Y-78661286D01*
X155871520Y-78661284D01*
X155759716Y-78549480D01*
X155759715Y-78549479D01*
X155755385Y-78545149D01*
X155755374Y-78545139D01*
X155428590Y-78218355D01*
X155428588Y-78218352D01*
X155309717Y-78099481D01*
X155309712Y-78099477D01*
X155189828Y-78030263D01*
X155189827Y-78030262D01*
X155182624Y-78026103D01*
X155172785Y-78020423D01*
X155020057Y-77979499D01*
X154861943Y-77979499D01*
X154854347Y-77979499D01*
X154854331Y-77979500D01*
X154277670Y-77979500D01*
X154277654Y-77979499D01*
X154270058Y-77979499D01*
X154111943Y-77979499D01*
X154037300Y-77999500D01*
X153959214Y-78020423D01*
X153959209Y-78020426D01*
X153822290Y-78099475D01*
X153822282Y-78099481D01*
X153352717Y-78569046D01*
X153352714Y-78569048D01*
X153352715Y-78569049D01*
X153247980Y-78673784D01*
X153212100Y-78735931D01*
X153168923Y-78810715D01*
X153127999Y-78963443D01*
X153127999Y-78963445D01*
X153125896Y-78971294D01*
X153123758Y-78970721D01*
X153114123Y-78991817D01*
X153100299Y-79023075D01*
X153099655Y-79023499D01*
X153099334Y-79024203D01*
X153070523Y-79042718D01*
X153041978Y-79061550D01*
X153040989Y-79061698D01*
X153040556Y-79061977D01*
X153005621Y-79067000D01*
X152900396Y-79067000D01*
X152833357Y-79047315D01*
X152794858Y-79008097D01*
X152713970Y-78876959D01*
X152713967Y-78876955D01*
X152594044Y-78757032D01*
X152594040Y-78757029D01*
X152449705Y-78668001D01*
X152449699Y-78667998D01*
X152449697Y-78667997D01*
X152449694Y-78667996D01*
X152288709Y-78614651D01*
X152189346Y-78604500D01*
X151592662Y-78604500D01*
X151592644Y-78604501D01*
X151493292Y-78614650D01*
X151493289Y-78614651D01*
X151332305Y-78667996D01*
X151332298Y-78667999D01*
X151253203Y-78716786D01*
X151221991Y-78736038D01*
X151156895Y-78754500D01*
X150425105Y-78754500D01*
X150360008Y-78736038D01*
X150259081Y-78673785D01*
X150249701Y-78667999D01*
X150249698Y-78667997D01*
X150249697Y-78667997D01*
X150249694Y-78667996D01*
X150088709Y-78614651D01*
X149989352Y-78604500D01*
X149398941Y-78604500D01*
X149331902Y-78584815D01*
X149311260Y-78568181D01*
X148701292Y-77958213D01*
X148701288Y-77958210D01*
X148570185Y-77870609D01*
X148570172Y-77870602D01*
X148424501Y-77810264D01*
X148424489Y-77810261D01*
X148269845Y-77779500D01*
X148269842Y-77779500D01*
X148112158Y-77779500D01*
X148112155Y-77779500D01*
X147957510Y-77810261D01*
X147957498Y-77810264D01*
X147811827Y-77870602D01*
X147811814Y-77870609D01*
X147680711Y-77958210D01*
X147680707Y-77958213D01*
X147569213Y-78069707D01*
X147569210Y-78069711D01*
X147481609Y-78200814D01*
X147481602Y-78200827D01*
X147421264Y-78346498D01*
X147421261Y-78346510D01*
X147390500Y-78501153D01*
X141699500Y-78501153D01*
X141699500Y-64965837D01*
X142240500Y-64965837D01*
X142240500Y-65194162D01*
X142276215Y-65419660D01*
X142346770Y-65636803D01*
X142416163Y-65772993D01*
X142450421Y-65840228D01*
X142584621Y-66024937D01*
X142746063Y-66186379D01*
X142930772Y-66320579D01*
X143026884Y-66369550D01*
X143134196Y-66424229D01*
X143134198Y-66424229D01*
X143134201Y-66424231D01*
X143242621Y-66459459D01*
X143351339Y-66494784D01*
X143576838Y-66530500D01*
X143576843Y-66530500D01*
X143805162Y-66530500D01*
X144030660Y-66494784D01*
X144062018Y-66484595D01*
X144247799Y-66424231D01*
X144451228Y-66320579D01*
X144635937Y-66186379D01*
X144797379Y-66024937D01*
X144931579Y-65840228D01*
X145035231Y-65636799D01*
X145105784Y-65419660D01*
X145129014Y-65272993D01*
X145141500Y-65194162D01*
X145141500Y-64965837D01*
X145111986Y-64779500D01*
X145105784Y-64740340D01*
X145105783Y-64740336D01*
X145105783Y-64740335D01*
X145098256Y-64717169D01*
X145035229Y-64523196D01*
X144958604Y-64372812D01*
X144931579Y-64319772D01*
X144797379Y-64135063D01*
X144635937Y-63973621D01*
X144451228Y-63839421D01*
X144247803Y-63735770D01*
X144030660Y-63665215D01*
X143805162Y-63629500D01*
X143805157Y-63629500D01*
X143576843Y-63629500D01*
X143576838Y-63629500D01*
X143351339Y-63665215D01*
X143134196Y-63735770D01*
X142930771Y-63839421D01*
X142746061Y-63973622D01*
X142584622Y-64135061D01*
X142450421Y-64319771D01*
X142346770Y-64523196D01*
X142276215Y-64740339D01*
X142240500Y-64965837D01*
X141699500Y-64965837D01*
X141699500Y-63212500D01*
X141719185Y-63145461D01*
X141771989Y-63099706D01*
X141823500Y-63088500D01*
X189040822Y-63088500D01*
X189107861Y-63108185D01*
G37*
G04 #@! TD.AperFunction*
M02*
