G04 #@! TF.GenerationSoftware,KiCad,Pcbnew,9.0.0*
G04 #@! TF.CreationDate,2025-04-06T11:42:04-04:00*
G04 #@! TF.ProjectId,combat-pcb,636f6d62-6174-42d7-9063-622e6b696361,rev?*
G04 #@! TF.SameCoordinates,Original*
G04 #@! TF.FileFunction,Paste,Top*
G04 #@! TF.FilePolarity,Positive*
%FSLAX46Y46*%
G04 Gerber Fmt 4.6, Leading zero omitted, Abs format (unit mm)*
G04 Created by KiCad (PCBNEW 9.0.0) date 2025-04-06 11:42:04*
%MOMM*%
%LPD*%
G01*
G04 APERTURE LIST*
G04 Aperture macros list*
%AMRoundRect*
0 Rectangle with rounded corners*
0 $1 Rounding radius*
0 $2 $3 $4 $5 $6 $7 $8 $9 X,Y pos of 4 corners*
0 Add a 4 corners polygon primitive as box body*
4,1,4,$2,$3,$4,$5,$6,$7,$8,$9,$2,$3,0*
0 Add four circle primitives for the rounded corners*
1,1,$1+$1,$2,$3*
1,1,$1+$1,$4,$5*
1,1,$1+$1,$6,$7*
1,1,$1+$1,$8,$9*
0 Add four rect primitives between the rounded corners*
20,1,$1+$1,$2,$3,$4,$5,0*
20,1,$1+$1,$4,$5,$6,$7,0*
20,1,$1+$1,$6,$7,$8,$9,0*
20,1,$1+$1,$8,$9,$2,$3,0*%
G04 Aperture macros list end*
%ADD10RoundRect,0.500000X0.875000X0.500000X-0.875000X0.500000X-0.875000X-0.500000X0.875000X-0.500000X0*%
%ADD11C,2.032000*%
%ADD12RoundRect,0.087500X0.225000X0.087500X-0.225000X0.087500X-0.225000X-0.087500X0.225000X-0.087500X0*%
%ADD13RoundRect,0.087500X0.087500X0.225000X-0.087500X0.225000X-0.087500X-0.225000X0.087500X-0.225000X0*%
%ADD14O,2.997200X1.727200*%
%ADD15R,2.997200X1.727200*%
%ADD16RoundRect,0.225000X-0.250000X0.225000X-0.250000X-0.225000X0.250000X-0.225000X0.250000X0.225000X0*%
G04 APERTURE END LIST*
D10*
X153191000Y-95620000D03*
X153191000Y-93080000D03*
X153191000Y-90540000D03*
X153191000Y-88000000D03*
D11*
X167176200Y-82149200D03*
X167176200Y-84689200D03*
X167176200Y-87229200D03*
X167176200Y-89769200D03*
X184956200Y-89769200D03*
X184956200Y-87229200D03*
X184956200Y-84689200D03*
X184956200Y-82149200D03*
D12*
X156053500Y-81167500D03*
X156053500Y-80667500D03*
X156053500Y-80167500D03*
X156053500Y-79667500D03*
D13*
X155391000Y-79505000D03*
X154891000Y-79505000D03*
X154391000Y-79505000D03*
D12*
X153728500Y-79667500D03*
X153728500Y-80167500D03*
X153728500Y-80667500D03*
X153728500Y-81167500D03*
D13*
X154391000Y-81330000D03*
X154891000Y-81330000D03*
X155391000Y-81330000D03*
D14*
X193416000Y-73138000D03*
X193416000Y-75678000D03*
X193416000Y-78218000D03*
D15*
X193416000Y-80758000D03*
D14*
X193416000Y-83298000D03*
X193416000Y-85838000D03*
X193416000Y-88378000D03*
X193416000Y-90918000D03*
X193416000Y-93458000D03*
X193416000Y-95998000D03*
X193416000Y-98538000D03*
X193416000Y-101078000D03*
X193416000Y-103618000D03*
X193416000Y-106158000D03*
X193416000Y-108698000D03*
X212466000Y-108698000D03*
X212466000Y-106158000D03*
X212466000Y-103618000D03*
X212466000Y-101078000D03*
X212466000Y-98538000D03*
X212466000Y-95998000D03*
X212466000Y-93458000D03*
X212466000Y-90918000D03*
X212466000Y-88378000D03*
X212466000Y-85838000D03*
X212466000Y-83298000D03*
X212466000Y-80758000D03*
X212466000Y-78218000D03*
D15*
X212466000Y-75678000D03*
D14*
X212466000Y-73138000D03*
D16*
X149691000Y-79555000D03*
X149691000Y-81105000D03*
X151891000Y-79555000D03*
X151891000Y-81105000D03*
M02*
