%TF.GenerationSoftware,KiCad,Pcbnew,9.0.0*%
%TF.CreationDate,2025-04-06T11:42:08-04:00*%
%TF.ProjectId,combat-pcb,636f6d62-6174-42d7-9063-622e6b696361,rev?*%
%TF.SameCoordinates,Original*%
%TF.FileFunction,Drillmap*%
%TF.FilePolarity,Positive*%
%FSLAX45Y45*%
G04 Gerber Fmt 4.5, Leading zero omitted, Abs format (unit mm)*
G04 Created by KiCad (PCBNEW 9.0.0) date 2025-04-06 11:42:08*
%MOMM*%
%LPD*%
G01*
G04 APERTURE LIST*
%ADD10C,0.050000*%
%ADD11C,0.200000*%
%ADD12C,0.180000*%
%ADD13C,0.250000*%
G04 APERTURE END LIST*
D10*
X14119100Y-6258000D02*
X22119100Y-6258000D01*
X22119100Y-11258000D02*
X22119100Y-6258000D01*
X14119100Y-9783000D02*
X14119100Y-11258000D01*
X14119100Y-11258000D02*
X22119100Y-11258000D01*
X15119100Y-9783000D02*
X15119100Y-8583000D01*
X15119100Y-8583000D02*
X14119100Y-8583000D01*
X15119100Y-9783000D02*
X14119100Y-9783000D01*
X14119100Y-8583000D02*
X14119100Y-6258000D01*
D11*
D12*
X19442100Y-6969800D02*
X19622100Y-7149800D01*
X19622100Y-6969800D02*
X19442100Y-7149800D01*
X19442100Y-11033800D02*
X19622100Y-11213800D01*
X19622100Y-11033800D02*
X19442100Y-11213800D01*
X20966100Y-6969800D02*
X21146100Y-7149800D01*
X21146100Y-6969800D02*
X20966100Y-7149800D01*
X20966100Y-11033800D02*
X21146100Y-11213800D01*
X21146100Y-11033800D02*
X20966100Y-11213800D01*
D13*
X14494100Y-6508000D02*
G75*
G02*
X14244100Y-6508000I-125000J0D01*
G01*
X14244100Y-6508000D02*
G75*
G02*
X14494100Y-6508000I125000J0D01*
G01*
X14494100Y-11008000D02*
G75*
G02*
X14244100Y-11008000I-125000J0D01*
G01*
X14244100Y-11008000D02*
G75*
G02*
X14494100Y-11008000I125000J0D01*
G01*
X21994100Y-6508000D02*
G75*
G02*
X21744100Y-6508000I-125000J0D01*
G01*
X21744100Y-6508000D02*
G75*
G02*
X21994100Y-6508000I125000J0D01*
G01*
X21994100Y-11008000D02*
G75*
G02*
X21744100Y-11008000I-125000J0D01*
G01*
X21744100Y-11008000D02*
G75*
G02*
X21994100Y-11008000I125000J0D01*
G01*
D11*
X14377377Y-11571984D02*
X14377377Y-11371984D01*
X14377377Y-11371984D02*
X14424996Y-11371984D01*
X14424996Y-11371984D02*
X14453567Y-11381508D01*
X14453567Y-11381508D02*
X14472615Y-11400555D01*
X14472615Y-11400555D02*
X14482139Y-11419603D01*
X14482139Y-11419603D02*
X14491662Y-11457698D01*
X14491662Y-11457698D02*
X14491662Y-11486269D01*
X14491662Y-11486269D02*
X14482139Y-11524365D01*
X14482139Y-11524365D02*
X14472615Y-11543412D01*
X14472615Y-11543412D02*
X14453567Y-11562460D01*
X14453567Y-11562460D02*
X14424996Y-11571984D01*
X14424996Y-11571984D02*
X14377377Y-11571984D01*
X14577377Y-11571984D02*
X14577377Y-11438650D01*
X14577377Y-11476746D02*
X14586901Y-11457698D01*
X14586901Y-11457698D02*
X14596424Y-11448174D01*
X14596424Y-11448174D02*
X14615472Y-11438650D01*
X14615472Y-11438650D02*
X14634520Y-11438650D01*
X14701186Y-11571984D02*
X14701186Y-11438650D01*
X14701186Y-11371984D02*
X14691662Y-11381508D01*
X14691662Y-11381508D02*
X14701186Y-11391031D01*
X14701186Y-11391031D02*
X14710710Y-11381508D01*
X14710710Y-11381508D02*
X14701186Y-11371984D01*
X14701186Y-11371984D02*
X14701186Y-11391031D01*
X14824996Y-11571984D02*
X14805948Y-11562460D01*
X14805948Y-11562460D02*
X14796424Y-11543412D01*
X14796424Y-11543412D02*
X14796424Y-11371984D01*
X14929758Y-11571984D02*
X14910710Y-11562460D01*
X14910710Y-11562460D02*
X14901186Y-11543412D01*
X14901186Y-11543412D02*
X14901186Y-11371984D01*
X15158329Y-11571984D02*
X15158329Y-11371984D01*
X15158329Y-11371984D02*
X15224996Y-11514841D01*
X15224996Y-11514841D02*
X15291662Y-11371984D01*
X15291662Y-11371984D02*
X15291662Y-11571984D01*
X15472615Y-11571984D02*
X15472615Y-11467222D01*
X15472615Y-11467222D02*
X15463091Y-11448174D01*
X15463091Y-11448174D02*
X15444043Y-11438650D01*
X15444043Y-11438650D02*
X15405948Y-11438650D01*
X15405948Y-11438650D02*
X15386901Y-11448174D01*
X15472615Y-11562460D02*
X15453567Y-11571984D01*
X15453567Y-11571984D02*
X15405948Y-11571984D01*
X15405948Y-11571984D02*
X15386901Y-11562460D01*
X15386901Y-11562460D02*
X15377377Y-11543412D01*
X15377377Y-11543412D02*
X15377377Y-11524365D01*
X15377377Y-11524365D02*
X15386901Y-11505317D01*
X15386901Y-11505317D02*
X15405948Y-11495793D01*
X15405948Y-11495793D02*
X15453567Y-11495793D01*
X15453567Y-11495793D02*
X15472615Y-11486269D01*
X15567853Y-11438650D02*
X15567853Y-11638650D01*
X15567853Y-11448174D02*
X15586901Y-11438650D01*
X15586901Y-11438650D02*
X15624996Y-11438650D01*
X15624996Y-11438650D02*
X15644043Y-11448174D01*
X15644043Y-11448174D02*
X15653567Y-11457698D01*
X15653567Y-11457698D02*
X15663091Y-11476746D01*
X15663091Y-11476746D02*
X15663091Y-11533888D01*
X15663091Y-11533888D02*
X15653567Y-11552936D01*
X15653567Y-11552936D02*
X15644043Y-11562460D01*
X15644043Y-11562460D02*
X15624996Y-11571984D01*
X15624996Y-11571984D02*
X15586901Y-11571984D01*
X15586901Y-11571984D02*
X15567853Y-11562460D01*
X15748805Y-11552936D02*
X15758329Y-11562460D01*
X15758329Y-11562460D02*
X15748805Y-11571984D01*
X15748805Y-11571984D02*
X15739282Y-11562460D01*
X15739282Y-11562460D02*
X15748805Y-11552936D01*
X15748805Y-11552936D02*
X15748805Y-11571984D01*
X15748805Y-11448174D02*
X15758329Y-11457698D01*
X15758329Y-11457698D02*
X15748805Y-11467222D01*
X15748805Y-11467222D02*
X15739282Y-11457698D01*
X15739282Y-11457698D02*
X15748805Y-11448174D01*
X15748805Y-11448174D02*
X15748805Y-11467222D01*
D12*
X13936600Y-11810500D02*
X14116600Y-11990500D01*
X14116600Y-11810500D02*
X13936600Y-11990500D01*
D11*
X14482139Y-11991984D02*
X14367853Y-11991984D01*
X14424996Y-11991984D02*
X14424996Y-11791984D01*
X14424996Y-11791984D02*
X14405948Y-11820555D01*
X14405948Y-11820555D02*
X14386901Y-11839603D01*
X14386901Y-11839603D02*
X14367853Y-11849127D01*
X14567853Y-11972936D02*
X14577377Y-11982460D01*
X14577377Y-11982460D02*
X14567853Y-11991984D01*
X14567853Y-11991984D02*
X14558329Y-11982460D01*
X14558329Y-11982460D02*
X14567853Y-11972936D01*
X14567853Y-11972936D02*
X14567853Y-11991984D01*
X14691662Y-11877698D02*
X14672615Y-11868174D01*
X14672615Y-11868174D02*
X14663091Y-11858650D01*
X14663091Y-11858650D02*
X14653567Y-11839603D01*
X14653567Y-11839603D02*
X14653567Y-11830079D01*
X14653567Y-11830079D02*
X14663091Y-11811031D01*
X14663091Y-11811031D02*
X14672615Y-11801508D01*
X14672615Y-11801508D02*
X14691662Y-11791984D01*
X14691662Y-11791984D02*
X14729758Y-11791984D01*
X14729758Y-11791984D02*
X14748805Y-11801508D01*
X14748805Y-11801508D02*
X14758329Y-11811031D01*
X14758329Y-11811031D02*
X14767853Y-11830079D01*
X14767853Y-11830079D02*
X14767853Y-11839603D01*
X14767853Y-11839603D02*
X14758329Y-11858650D01*
X14758329Y-11858650D02*
X14748805Y-11868174D01*
X14748805Y-11868174D02*
X14729758Y-11877698D01*
X14729758Y-11877698D02*
X14691662Y-11877698D01*
X14691662Y-11877698D02*
X14672615Y-11887222D01*
X14672615Y-11887222D02*
X14663091Y-11896746D01*
X14663091Y-11896746D02*
X14653567Y-11915793D01*
X14653567Y-11915793D02*
X14653567Y-11953888D01*
X14653567Y-11953888D02*
X14663091Y-11972936D01*
X14663091Y-11972936D02*
X14672615Y-11982460D01*
X14672615Y-11982460D02*
X14691662Y-11991984D01*
X14691662Y-11991984D02*
X14729758Y-11991984D01*
X14729758Y-11991984D02*
X14748805Y-11982460D01*
X14748805Y-11982460D02*
X14758329Y-11972936D01*
X14758329Y-11972936D02*
X14767853Y-11953888D01*
X14767853Y-11953888D02*
X14767853Y-11915793D01*
X14767853Y-11915793D02*
X14758329Y-11896746D01*
X14758329Y-11896746D02*
X14748805Y-11887222D01*
X14748805Y-11887222D02*
X14729758Y-11877698D01*
X14891662Y-11791984D02*
X14910710Y-11791984D01*
X14910710Y-11791984D02*
X14929758Y-11801508D01*
X14929758Y-11801508D02*
X14939282Y-11811031D01*
X14939282Y-11811031D02*
X14948805Y-11830079D01*
X14948805Y-11830079D02*
X14958329Y-11868174D01*
X14958329Y-11868174D02*
X14958329Y-11915793D01*
X14958329Y-11915793D02*
X14948805Y-11953888D01*
X14948805Y-11953888D02*
X14939282Y-11972936D01*
X14939282Y-11972936D02*
X14929758Y-11982460D01*
X14929758Y-11982460D02*
X14910710Y-11991984D01*
X14910710Y-11991984D02*
X14891662Y-11991984D01*
X14891662Y-11991984D02*
X14872615Y-11982460D01*
X14872615Y-11982460D02*
X14863091Y-11972936D01*
X14863091Y-11972936D02*
X14853567Y-11953888D01*
X14853567Y-11953888D02*
X14844043Y-11915793D01*
X14844043Y-11915793D02*
X14844043Y-11868174D01*
X14844043Y-11868174D02*
X14853567Y-11830079D01*
X14853567Y-11830079D02*
X14863091Y-11811031D01*
X14863091Y-11811031D02*
X14872615Y-11801508D01*
X14872615Y-11801508D02*
X14891662Y-11791984D01*
X15082139Y-11791984D02*
X15101186Y-11791984D01*
X15101186Y-11791984D02*
X15120234Y-11801508D01*
X15120234Y-11801508D02*
X15129758Y-11811031D01*
X15129758Y-11811031D02*
X15139282Y-11830079D01*
X15139282Y-11830079D02*
X15148805Y-11868174D01*
X15148805Y-11868174D02*
X15148805Y-11915793D01*
X15148805Y-11915793D02*
X15139282Y-11953888D01*
X15139282Y-11953888D02*
X15129758Y-11972936D01*
X15129758Y-11972936D02*
X15120234Y-11982460D01*
X15120234Y-11982460D02*
X15101186Y-11991984D01*
X15101186Y-11991984D02*
X15082139Y-11991984D01*
X15082139Y-11991984D02*
X15063091Y-11982460D01*
X15063091Y-11982460D02*
X15053567Y-11972936D01*
X15053567Y-11972936D02*
X15044043Y-11953888D01*
X15044043Y-11953888D02*
X15034520Y-11915793D01*
X15034520Y-11915793D02*
X15034520Y-11868174D01*
X15034520Y-11868174D02*
X15044043Y-11830079D01*
X15044043Y-11830079D02*
X15053567Y-11811031D01*
X15053567Y-11811031D02*
X15063091Y-11801508D01*
X15063091Y-11801508D02*
X15082139Y-11791984D01*
X15234520Y-11991984D02*
X15234520Y-11858650D01*
X15234520Y-11877698D02*
X15244043Y-11868174D01*
X15244043Y-11868174D02*
X15263091Y-11858650D01*
X15263091Y-11858650D02*
X15291663Y-11858650D01*
X15291663Y-11858650D02*
X15310710Y-11868174D01*
X15310710Y-11868174D02*
X15320234Y-11887222D01*
X15320234Y-11887222D02*
X15320234Y-11991984D01*
X15320234Y-11887222D02*
X15329758Y-11868174D01*
X15329758Y-11868174D02*
X15348805Y-11858650D01*
X15348805Y-11858650D02*
X15377377Y-11858650D01*
X15377377Y-11858650D02*
X15396424Y-11868174D01*
X15396424Y-11868174D02*
X15405948Y-11887222D01*
X15405948Y-11887222D02*
X15405948Y-11991984D01*
X15501186Y-11991984D02*
X15501186Y-11858650D01*
X15501186Y-11877698D02*
X15510710Y-11868174D01*
X15510710Y-11868174D02*
X15529758Y-11858650D01*
X15529758Y-11858650D02*
X15558329Y-11858650D01*
X15558329Y-11858650D02*
X15577377Y-11868174D01*
X15577377Y-11868174D02*
X15586901Y-11887222D01*
X15586901Y-11887222D02*
X15586901Y-11991984D01*
X15586901Y-11887222D02*
X15596424Y-11868174D01*
X15596424Y-11868174D02*
X15615472Y-11858650D01*
X15615472Y-11858650D02*
X15644043Y-11858650D01*
X15644043Y-11858650D02*
X15663091Y-11868174D01*
X15663091Y-11868174D02*
X15672615Y-11887222D01*
X15672615Y-11887222D02*
X15672615Y-11991984D01*
X16063091Y-11782460D02*
X15891663Y-12039603D01*
X16320234Y-11791984D02*
X16339282Y-11791984D01*
X16339282Y-11791984D02*
X16358329Y-11801508D01*
X16358329Y-11801508D02*
X16367853Y-11811031D01*
X16367853Y-11811031D02*
X16377377Y-11830079D01*
X16377377Y-11830079D02*
X16386901Y-11868174D01*
X16386901Y-11868174D02*
X16386901Y-11915793D01*
X16386901Y-11915793D02*
X16377377Y-11953888D01*
X16377377Y-11953888D02*
X16367853Y-11972936D01*
X16367853Y-11972936D02*
X16358329Y-11982460D01*
X16358329Y-11982460D02*
X16339282Y-11991984D01*
X16339282Y-11991984D02*
X16320234Y-11991984D01*
X16320234Y-11991984D02*
X16301186Y-11982460D01*
X16301186Y-11982460D02*
X16291663Y-11972936D01*
X16291663Y-11972936D02*
X16282139Y-11953888D01*
X16282139Y-11953888D02*
X16272615Y-11915793D01*
X16272615Y-11915793D02*
X16272615Y-11868174D01*
X16272615Y-11868174D02*
X16282139Y-11830079D01*
X16282139Y-11830079D02*
X16291663Y-11811031D01*
X16291663Y-11811031D02*
X16301186Y-11801508D01*
X16301186Y-11801508D02*
X16320234Y-11791984D01*
X16472615Y-11972936D02*
X16482139Y-11982460D01*
X16482139Y-11982460D02*
X16472615Y-11991984D01*
X16472615Y-11991984D02*
X16463091Y-11982460D01*
X16463091Y-11982460D02*
X16472615Y-11972936D01*
X16472615Y-11972936D02*
X16472615Y-11991984D01*
X16605948Y-11791984D02*
X16624996Y-11791984D01*
X16624996Y-11791984D02*
X16644044Y-11801508D01*
X16644044Y-11801508D02*
X16653567Y-11811031D01*
X16653567Y-11811031D02*
X16663091Y-11830079D01*
X16663091Y-11830079D02*
X16672615Y-11868174D01*
X16672615Y-11868174D02*
X16672615Y-11915793D01*
X16672615Y-11915793D02*
X16663091Y-11953888D01*
X16663091Y-11953888D02*
X16653567Y-11972936D01*
X16653567Y-11972936D02*
X16644044Y-11982460D01*
X16644044Y-11982460D02*
X16624996Y-11991984D01*
X16624996Y-11991984D02*
X16605948Y-11991984D01*
X16605948Y-11991984D02*
X16586901Y-11982460D01*
X16586901Y-11982460D02*
X16577377Y-11972936D01*
X16577377Y-11972936D02*
X16567853Y-11953888D01*
X16567853Y-11953888D02*
X16558329Y-11915793D01*
X16558329Y-11915793D02*
X16558329Y-11868174D01*
X16558329Y-11868174D02*
X16567853Y-11830079D01*
X16567853Y-11830079D02*
X16577377Y-11811031D01*
X16577377Y-11811031D02*
X16586901Y-11801508D01*
X16586901Y-11801508D02*
X16605948Y-11791984D01*
X16739282Y-11791984D02*
X16872615Y-11791984D01*
X16872615Y-11791984D02*
X16786901Y-11991984D01*
X16986901Y-11791984D02*
X17005949Y-11791984D01*
X17005949Y-11791984D02*
X17024996Y-11801508D01*
X17024996Y-11801508D02*
X17034520Y-11811031D01*
X17034520Y-11811031D02*
X17044044Y-11830079D01*
X17044044Y-11830079D02*
X17053568Y-11868174D01*
X17053568Y-11868174D02*
X17053568Y-11915793D01*
X17053568Y-11915793D02*
X17044044Y-11953888D01*
X17044044Y-11953888D02*
X17034520Y-11972936D01*
X17034520Y-11972936D02*
X17024996Y-11982460D01*
X17024996Y-11982460D02*
X17005949Y-11991984D01*
X17005949Y-11991984D02*
X16986901Y-11991984D01*
X16986901Y-11991984D02*
X16967853Y-11982460D01*
X16967853Y-11982460D02*
X16958329Y-11972936D01*
X16958329Y-11972936D02*
X16948806Y-11953888D01*
X16948806Y-11953888D02*
X16939282Y-11915793D01*
X16939282Y-11915793D02*
X16939282Y-11868174D01*
X16939282Y-11868174D02*
X16948806Y-11830079D01*
X16948806Y-11830079D02*
X16958329Y-11811031D01*
X16958329Y-11811031D02*
X16967853Y-11801508D01*
X16967853Y-11801508D02*
X16986901Y-11791984D01*
X17148806Y-11991984D02*
X17186901Y-11991984D01*
X17186901Y-11991984D02*
X17205949Y-11982460D01*
X17205949Y-11982460D02*
X17215472Y-11972936D01*
X17215472Y-11972936D02*
X17234520Y-11944365D01*
X17234520Y-11944365D02*
X17244044Y-11906269D01*
X17244044Y-11906269D02*
X17244044Y-11830079D01*
X17244044Y-11830079D02*
X17234520Y-11811031D01*
X17234520Y-11811031D02*
X17224996Y-11801508D01*
X17224996Y-11801508D02*
X17205949Y-11791984D01*
X17205949Y-11791984D02*
X17167853Y-11791984D01*
X17167853Y-11791984D02*
X17148806Y-11801508D01*
X17148806Y-11801508D02*
X17139282Y-11811031D01*
X17139282Y-11811031D02*
X17129758Y-11830079D01*
X17129758Y-11830079D02*
X17129758Y-11877698D01*
X17129758Y-11877698D02*
X17139282Y-11896746D01*
X17139282Y-11896746D02*
X17148806Y-11906269D01*
X17148806Y-11906269D02*
X17167853Y-11915793D01*
X17167853Y-11915793D02*
X17205949Y-11915793D01*
X17205949Y-11915793D02*
X17224996Y-11906269D01*
X17224996Y-11906269D02*
X17234520Y-11896746D01*
X17234520Y-11896746D02*
X17244044Y-11877698D01*
X17320234Y-11791984D02*
X17320234Y-11830079D01*
X17396425Y-11791984D02*
X17396425Y-11830079D01*
X17691663Y-12068174D02*
X17682139Y-12058650D01*
X17682139Y-12058650D02*
X17663091Y-12030079D01*
X17663091Y-12030079D02*
X17653568Y-12011031D01*
X17653568Y-12011031D02*
X17644044Y-11982460D01*
X17644044Y-11982460D02*
X17634520Y-11934841D01*
X17634520Y-11934841D02*
X17634520Y-11896746D01*
X17634520Y-11896746D02*
X17644044Y-11849127D01*
X17644044Y-11849127D02*
X17653568Y-11820555D01*
X17653568Y-11820555D02*
X17663091Y-11801508D01*
X17663091Y-11801508D02*
X17682139Y-11772936D01*
X17682139Y-11772936D02*
X17691663Y-11763412D01*
X17853568Y-11858650D02*
X17853568Y-11991984D01*
X17805949Y-11782460D02*
X17758330Y-11925317D01*
X17758330Y-11925317D02*
X17882139Y-11925317D01*
X18110711Y-11991984D02*
X18110711Y-11791984D01*
X18196425Y-11991984D02*
X18196425Y-11887222D01*
X18196425Y-11887222D02*
X18186901Y-11868174D01*
X18186901Y-11868174D02*
X18167853Y-11858650D01*
X18167853Y-11858650D02*
X18139282Y-11858650D01*
X18139282Y-11858650D02*
X18120234Y-11868174D01*
X18120234Y-11868174D02*
X18110711Y-11877698D01*
X18320234Y-11991984D02*
X18301187Y-11982460D01*
X18301187Y-11982460D02*
X18291663Y-11972936D01*
X18291663Y-11972936D02*
X18282139Y-11953888D01*
X18282139Y-11953888D02*
X18282139Y-11896746D01*
X18282139Y-11896746D02*
X18291663Y-11877698D01*
X18291663Y-11877698D02*
X18301187Y-11868174D01*
X18301187Y-11868174D02*
X18320234Y-11858650D01*
X18320234Y-11858650D02*
X18348806Y-11858650D01*
X18348806Y-11858650D02*
X18367853Y-11868174D01*
X18367853Y-11868174D02*
X18377377Y-11877698D01*
X18377377Y-11877698D02*
X18386901Y-11896746D01*
X18386901Y-11896746D02*
X18386901Y-11953888D01*
X18386901Y-11953888D02*
X18377377Y-11972936D01*
X18377377Y-11972936D02*
X18367853Y-11982460D01*
X18367853Y-11982460D02*
X18348806Y-11991984D01*
X18348806Y-11991984D02*
X18320234Y-11991984D01*
X18501187Y-11991984D02*
X18482139Y-11982460D01*
X18482139Y-11982460D02*
X18472615Y-11963412D01*
X18472615Y-11963412D02*
X18472615Y-11791984D01*
X18653568Y-11982460D02*
X18634520Y-11991984D01*
X18634520Y-11991984D02*
X18596425Y-11991984D01*
X18596425Y-11991984D02*
X18577377Y-11982460D01*
X18577377Y-11982460D02*
X18567853Y-11963412D01*
X18567853Y-11963412D02*
X18567853Y-11887222D01*
X18567853Y-11887222D02*
X18577377Y-11868174D01*
X18577377Y-11868174D02*
X18596425Y-11858650D01*
X18596425Y-11858650D02*
X18634520Y-11858650D01*
X18634520Y-11858650D02*
X18653568Y-11868174D01*
X18653568Y-11868174D02*
X18663092Y-11887222D01*
X18663092Y-11887222D02*
X18663092Y-11906269D01*
X18663092Y-11906269D02*
X18567853Y-11925317D01*
X18739282Y-11982460D02*
X18758330Y-11991984D01*
X18758330Y-11991984D02*
X18796425Y-11991984D01*
X18796425Y-11991984D02*
X18815473Y-11982460D01*
X18815473Y-11982460D02*
X18824996Y-11963412D01*
X18824996Y-11963412D02*
X18824996Y-11953888D01*
X18824996Y-11953888D02*
X18815473Y-11934841D01*
X18815473Y-11934841D02*
X18796425Y-11925317D01*
X18796425Y-11925317D02*
X18767853Y-11925317D01*
X18767853Y-11925317D02*
X18748806Y-11915793D01*
X18748806Y-11915793D02*
X18739282Y-11896746D01*
X18739282Y-11896746D02*
X18739282Y-11887222D01*
X18739282Y-11887222D02*
X18748806Y-11868174D01*
X18748806Y-11868174D02*
X18767853Y-11858650D01*
X18767853Y-11858650D02*
X18796425Y-11858650D01*
X18796425Y-11858650D02*
X18815473Y-11868174D01*
X18891663Y-12068174D02*
X18901187Y-12058650D01*
X18901187Y-12058650D02*
X18920234Y-12030079D01*
X18920234Y-12030079D02*
X18929758Y-12011031D01*
X18929758Y-12011031D02*
X18939282Y-11982460D01*
X18939282Y-11982460D02*
X18948806Y-11934841D01*
X18948806Y-11934841D02*
X18948806Y-11896746D01*
X18948806Y-11896746D02*
X18939282Y-11849127D01*
X18939282Y-11849127D02*
X18929758Y-11820555D01*
X18929758Y-11820555D02*
X18920234Y-11801508D01*
X18920234Y-11801508D02*
X18901187Y-11772936D01*
X18901187Y-11772936D02*
X18891663Y-11763412D01*
X19253568Y-12068174D02*
X19244044Y-12058650D01*
X19244044Y-12058650D02*
X19224996Y-12030079D01*
X19224996Y-12030079D02*
X19215473Y-12011031D01*
X19215473Y-12011031D02*
X19205949Y-11982460D01*
X19205949Y-11982460D02*
X19196425Y-11934841D01*
X19196425Y-11934841D02*
X19196425Y-11896746D01*
X19196425Y-11896746D02*
X19205949Y-11849127D01*
X19205949Y-11849127D02*
X19215473Y-11820555D01*
X19215473Y-11820555D02*
X19224996Y-11801508D01*
X19224996Y-11801508D02*
X19244044Y-11772936D01*
X19244044Y-11772936D02*
X19253568Y-11763412D01*
X19329758Y-11858650D02*
X19329758Y-11991984D01*
X19329758Y-11877698D02*
X19339282Y-11868174D01*
X19339282Y-11868174D02*
X19358330Y-11858650D01*
X19358330Y-11858650D02*
X19386901Y-11858650D01*
X19386901Y-11858650D02*
X19405949Y-11868174D01*
X19405949Y-11868174D02*
X19415473Y-11887222D01*
X19415473Y-11887222D02*
X19415473Y-11991984D01*
X19539282Y-11991984D02*
X19520234Y-11982460D01*
X19520234Y-11982460D02*
X19510711Y-11972936D01*
X19510711Y-11972936D02*
X19501187Y-11953888D01*
X19501187Y-11953888D02*
X19501187Y-11896746D01*
X19501187Y-11896746D02*
X19510711Y-11877698D01*
X19510711Y-11877698D02*
X19520234Y-11868174D01*
X19520234Y-11868174D02*
X19539282Y-11858650D01*
X19539282Y-11858650D02*
X19567854Y-11858650D01*
X19567854Y-11858650D02*
X19586901Y-11868174D01*
X19586901Y-11868174D02*
X19596425Y-11877698D01*
X19596425Y-11877698D02*
X19605949Y-11896746D01*
X19605949Y-11896746D02*
X19605949Y-11953888D01*
X19605949Y-11953888D02*
X19596425Y-11972936D01*
X19596425Y-11972936D02*
X19586901Y-11982460D01*
X19586901Y-11982460D02*
X19567854Y-11991984D01*
X19567854Y-11991984D02*
X19539282Y-11991984D01*
X19663092Y-11858650D02*
X19739282Y-11858650D01*
X19691663Y-11791984D02*
X19691663Y-11963412D01*
X19691663Y-11963412D02*
X19701187Y-11982460D01*
X19701187Y-11982460D02*
X19720234Y-11991984D01*
X19720234Y-11991984D02*
X19739282Y-11991984D01*
X19958330Y-11858650D02*
X19958330Y-12058650D01*
X19958330Y-11868174D02*
X19977377Y-11858650D01*
X19977377Y-11858650D02*
X20015473Y-11858650D01*
X20015473Y-11858650D02*
X20034520Y-11868174D01*
X20034520Y-11868174D02*
X20044044Y-11877698D01*
X20044044Y-11877698D02*
X20053568Y-11896746D01*
X20053568Y-11896746D02*
X20053568Y-11953888D01*
X20053568Y-11953888D02*
X20044044Y-11972936D01*
X20044044Y-11972936D02*
X20034520Y-11982460D01*
X20034520Y-11982460D02*
X20015473Y-11991984D01*
X20015473Y-11991984D02*
X19977377Y-11991984D01*
X19977377Y-11991984D02*
X19958330Y-11982460D01*
X20167854Y-11991984D02*
X20148806Y-11982460D01*
X20148806Y-11982460D02*
X20139282Y-11963412D01*
X20139282Y-11963412D02*
X20139282Y-11791984D01*
X20329758Y-11991984D02*
X20329758Y-11887222D01*
X20329758Y-11887222D02*
X20320235Y-11868174D01*
X20320235Y-11868174D02*
X20301187Y-11858650D01*
X20301187Y-11858650D02*
X20263092Y-11858650D01*
X20263092Y-11858650D02*
X20244044Y-11868174D01*
X20329758Y-11982460D02*
X20310711Y-11991984D01*
X20310711Y-11991984D02*
X20263092Y-11991984D01*
X20263092Y-11991984D02*
X20244044Y-11982460D01*
X20244044Y-11982460D02*
X20234520Y-11963412D01*
X20234520Y-11963412D02*
X20234520Y-11944365D01*
X20234520Y-11944365D02*
X20244044Y-11925317D01*
X20244044Y-11925317D02*
X20263092Y-11915793D01*
X20263092Y-11915793D02*
X20310711Y-11915793D01*
X20310711Y-11915793D02*
X20329758Y-11906269D01*
X20396425Y-11858650D02*
X20472615Y-11858650D01*
X20424996Y-11791984D02*
X20424996Y-11963412D01*
X20424996Y-11963412D02*
X20434520Y-11982460D01*
X20434520Y-11982460D02*
X20453568Y-11991984D01*
X20453568Y-11991984D02*
X20472615Y-11991984D01*
X20615473Y-11982460D02*
X20596425Y-11991984D01*
X20596425Y-11991984D02*
X20558330Y-11991984D01*
X20558330Y-11991984D02*
X20539282Y-11982460D01*
X20539282Y-11982460D02*
X20529758Y-11963412D01*
X20529758Y-11963412D02*
X20529758Y-11887222D01*
X20529758Y-11887222D02*
X20539282Y-11868174D01*
X20539282Y-11868174D02*
X20558330Y-11858650D01*
X20558330Y-11858650D02*
X20596425Y-11858650D01*
X20596425Y-11858650D02*
X20615473Y-11868174D01*
X20615473Y-11868174D02*
X20624996Y-11887222D01*
X20624996Y-11887222D02*
X20624996Y-11906269D01*
X20624996Y-11906269D02*
X20529758Y-11925317D01*
X20796425Y-11991984D02*
X20796425Y-11791984D01*
X20796425Y-11982460D02*
X20777377Y-11991984D01*
X20777377Y-11991984D02*
X20739282Y-11991984D01*
X20739282Y-11991984D02*
X20720235Y-11982460D01*
X20720235Y-11982460D02*
X20710711Y-11972936D01*
X20710711Y-11972936D02*
X20701187Y-11953888D01*
X20701187Y-11953888D02*
X20701187Y-11896746D01*
X20701187Y-11896746D02*
X20710711Y-11877698D01*
X20710711Y-11877698D02*
X20720235Y-11868174D01*
X20720235Y-11868174D02*
X20739282Y-11858650D01*
X20739282Y-11858650D02*
X20777377Y-11858650D01*
X20777377Y-11858650D02*
X20796425Y-11868174D01*
X20872616Y-12068174D02*
X20882139Y-12058650D01*
X20882139Y-12058650D02*
X20901187Y-12030079D01*
X20901187Y-12030079D02*
X20910711Y-12011031D01*
X20910711Y-12011031D02*
X20920235Y-11982460D01*
X20920235Y-11982460D02*
X20929758Y-11934841D01*
X20929758Y-11934841D02*
X20929758Y-11896746D01*
X20929758Y-11896746D02*
X20920235Y-11849127D01*
X20920235Y-11849127D02*
X20910711Y-11820555D01*
X20910711Y-11820555D02*
X20901187Y-11801508D01*
X20901187Y-11801508D02*
X20882139Y-11772936D01*
X20882139Y-11772936D02*
X20872616Y-11763412D01*
X14116600Y-12200500D02*
G75*
G02*
X13916600Y-12200500I-100000J0D01*
G01*
X13916600Y-12200500D02*
G75*
G02*
X14116600Y-12200500I100000J0D01*
G01*
X14367853Y-12111031D02*
X14377377Y-12101508D01*
X14377377Y-12101508D02*
X14396424Y-12091984D01*
X14396424Y-12091984D02*
X14444043Y-12091984D01*
X14444043Y-12091984D02*
X14463091Y-12101508D01*
X14463091Y-12101508D02*
X14472615Y-12111031D01*
X14472615Y-12111031D02*
X14482139Y-12130079D01*
X14482139Y-12130079D02*
X14482139Y-12149127D01*
X14482139Y-12149127D02*
X14472615Y-12177698D01*
X14472615Y-12177698D02*
X14358329Y-12291984D01*
X14358329Y-12291984D02*
X14482139Y-12291984D01*
X14567853Y-12272936D02*
X14577377Y-12282460D01*
X14577377Y-12282460D02*
X14567853Y-12291984D01*
X14567853Y-12291984D02*
X14558329Y-12282460D01*
X14558329Y-12282460D02*
X14567853Y-12272936D01*
X14567853Y-12272936D02*
X14567853Y-12291984D01*
X14758329Y-12091984D02*
X14663091Y-12091984D01*
X14663091Y-12091984D02*
X14653567Y-12187222D01*
X14653567Y-12187222D02*
X14663091Y-12177698D01*
X14663091Y-12177698D02*
X14682139Y-12168174D01*
X14682139Y-12168174D02*
X14729758Y-12168174D01*
X14729758Y-12168174D02*
X14748805Y-12177698D01*
X14748805Y-12177698D02*
X14758329Y-12187222D01*
X14758329Y-12187222D02*
X14767853Y-12206269D01*
X14767853Y-12206269D02*
X14767853Y-12253888D01*
X14767853Y-12253888D02*
X14758329Y-12272936D01*
X14758329Y-12272936D02*
X14748805Y-12282460D01*
X14748805Y-12282460D02*
X14729758Y-12291984D01*
X14729758Y-12291984D02*
X14682139Y-12291984D01*
X14682139Y-12291984D02*
X14663091Y-12282460D01*
X14663091Y-12282460D02*
X14653567Y-12272936D01*
X14891662Y-12091984D02*
X14910710Y-12091984D01*
X14910710Y-12091984D02*
X14929758Y-12101508D01*
X14929758Y-12101508D02*
X14939282Y-12111031D01*
X14939282Y-12111031D02*
X14948805Y-12130079D01*
X14948805Y-12130079D02*
X14958329Y-12168174D01*
X14958329Y-12168174D02*
X14958329Y-12215793D01*
X14958329Y-12215793D02*
X14948805Y-12253888D01*
X14948805Y-12253888D02*
X14939282Y-12272936D01*
X14939282Y-12272936D02*
X14929758Y-12282460D01*
X14929758Y-12282460D02*
X14910710Y-12291984D01*
X14910710Y-12291984D02*
X14891662Y-12291984D01*
X14891662Y-12291984D02*
X14872615Y-12282460D01*
X14872615Y-12282460D02*
X14863091Y-12272936D01*
X14863091Y-12272936D02*
X14853567Y-12253888D01*
X14853567Y-12253888D02*
X14844043Y-12215793D01*
X14844043Y-12215793D02*
X14844043Y-12168174D01*
X14844043Y-12168174D02*
X14853567Y-12130079D01*
X14853567Y-12130079D02*
X14863091Y-12111031D01*
X14863091Y-12111031D02*
X14872615Y-12101508D01*
X14872615Y-12101508D02*
X14891662Y-12091984D01*
X15082139Y-12091984D02*
X15101186Y-12091984D01*
X15101186Y-12091984D02*
X15120234Y-12101508D01*
X15120234Y-12101508D02*
X15129758Y-12111031D01*
X15129758Y-12111031D02*
X15139282Y-12130079D01*
X15139282Y-12130079D02*
X15148805Y-12168174D01*
X15148805Y-12168174D02*
X15148805Y-12215793D01*
X15148805Y-12215793D02*
X15139282Y-12253888D01*
X15139282Y-12253888D02*
X15129758Y-12272936D01*
X15129758Y-12272936D02*
X15120234Y-12282460D01*
X15120234Y-12282460D02*
X15101186Y-12291984D01*
X15101186Y-12291984D02*
X15082139Y-12291984D01*
X15082139Y-12291984D02*
X15063091Y-12282460D01*
X15063091Y-12282460D02*
X15053567Y-12272936D01*
X15053567Y-12272936D02*
X15044043Y-12253888D01*
X15044043Y-12253888D02*
X15034520Y-12215793D01*
X15034520Y-12215793D02*
X15034520Y-12168174D01*
X15034520Y-12168174D02*
X15044043Y-12130079D01*
X15044043Y-12130079D02*
X15053567Y-12111031D01*
X15053567Y-12111031D02*
X15063091Y-12101508D01*
X15063091Y-12101508D02*
X15082139Y-12091984D01*
X15234520Y-12291984D02*
X15234520Y-12158650D01*
X15234520Y-12177698D02*
X15244043Y-12168174D01*
X15244043Y-12168174D02*
X15263091Y-12158650D01*
X15263091Y-12158650D02*
X15291663Y-12158650D01*
X15291663Y-12158650D02*
X15310710Y-12168174D01*
X15310710Y-12168174D02*
X15320234Y-12187222D01*
X15320234Y-12187222D02*
X15320234Y-12291984D01*
X15320234Y-12187222D02*
X15329758Y-12168174D01*
X15329758Y-12168174D02*
X15348805Y-12158650D01*
X15348805Y-12158650D02*
X15377377Y-12158650D01*
X15377377Y-12158650D02*
X15396424Y-12168174D01*
X15396424Y-12168174D02*
X15405948Y-12187222D01*
X15405948Y-12187222D02*
X15405948Y-12291984D01*
X15501186Y-12291984D02*
X15501186Y-12158650D01*
X15501186Y-12177698D02*
X15510710Y-12168174D01*
X15510710Y-12168174D02*
X15529758Y-12158650D01*
X15529758Y-12158650D02*
X15558329Y-12158650D01*
X15558329Y-12158650D02*
X15577377Y-12168174D01*
X15577377Y-12168174D02*
X15586901Y-12187222D01*
X15586901Y-12187222D02*
X15586901Y-12291984D01*
X15586901Y-12187222D02*
X15596424Y-12168174D01*
X15596424Y-12168174D02*
X15615472Y-12158650D01*
X15615472Y-12158650D02*
X15644043Y-12158650D01*
X15644043Y-12158650D02*
X15663091Y-12168174D01*
X15663091Y-12168174D02*
X15672615Y-12187222D01*
X15672615Y-12187222D02*
X15672615Y-12291984D01*
X16063091Y-12082460D02*
X15891663Y-12339603D01*
X16320234Y-12091984D02*
X16339282Y-12091984D01*
X16339282Y-12091984D02*
X16358329Y-12101508D01*
X16358329Y-12101508D02*
X16367853Y-12111031D01*
X16367853Y-12111031D02*
X16377377Y-12130079D01*
X16377377Y-12130079D02*
X16386901Y-12168174D01*
X16386901Y-12168174D02*
X16386901Y-12215793D01*
X16386901Y-12215793D02*
X16377377Y-12253888D01*
X16377377Y-12253888D02*
X16367853Y-12272936D01*
X16367853Y-12272936D02*
X16358329Y-12282460D01*
X16358329Y-12282460D02*
X16339282Y-12291984D01*
X16339282Y-12291984D02*
X16320234Y-12291984D01*
X16320234Y-12291984D02*
X16301186Y-12282460D01*
X16301186Y-12282460D02*
X16291663Y-12272936D01*
X16291663Y-12272936D02*
X16282139Y-12253888D01*
X16282139Y-12253888D02*
X16272615Y-12215793D01*
X16272615Y-12215793D02*
X16272615Y-12168174D01*
X16272615Y-12168174D02*
X16282139Y-12130079D01*
X16282139Y-12130079D02*
X16291663Y-12111031D01*
X16291663Y-12111031D02*
X16301186Y-12101508D01*
X16301186Y-12101508D02*
X16320234Y-12091984D01*
X16472615Y-12272936D02*
X16482139Y-12282460D01*
X16482139Y-12282460D02*
X16472615Y-12291984D01*
X16472615Y-12291984D02*
X16463091Y-12282460D01*
X16463091Y-12282460D02*
X16472615Y-12272936D01*
X16472615Y-12272936D02*
X16472615Y-12291984D01*
X16605948Y-12091984D02*
X16624996Y-12091984D01*
X16624996Y-12091984D02*
X16644044Y-12101508D01*
X16644044Y-12101508D02*
X16653567Y-12111031D01*
X16653567Y-12111031D02*
X16663091Y-12130079D01*
X16663091Y-12130079D02*
X16672615Y-12168174D01*
X16672615Y-12168174D02*
X16672615Y-12215793D01*
X16672615Y-12215793D02*
X16663091Y-12253888D01*
X16663091Y-12253888D02*
X16653567Y-12272936D01*
X16653567Y-12272936D02*
X16644044Y-12282460D01*
X16644044Y-12282460D02*
X16624996Y-12291984D01*
X16624996Y-12291984D02*
X16605948Y-12291984D01*
X16605948Y-12291984D02*
X16586901Y-12282460D01*
X16586901Y-12282460D02*
X16577377Y-12272936D01*
X16577377Y-12272936D02*
X16567853Y-12253888D01*
X16567853Y-12253888D02*
X16558329Y-12215793D01*
X16558329Y-12215793D02*
X16558329Y-12168174D01*
X16558329Y-12168174D02*
X16567853Y-12130079D01*
X16567853Y-12130079D02*
X16577377Y-12111031D01*
X16577377Y-12111031D02*
X16586901Y-12101508D01*
X16586901Y-12101508D02*
X16605948Y-12091984D01*
X16767853Y-12291984D02*
X16805948Y-12291984D01*
X16805948Y-12291984D02*
X16824996Y-12282460D01*
X16824996Y-12282460D02*
X16834520Y-12272936D01*
X16834520Y-12272936D02*
X16853568Y-12244365D01*
X16853568Y-12244365D02*
X16863091Y-12206269D01*
X16863091Y-12206269D02*
X16863091Y-12130079D01*
X16863091Y-12130079D02*
X16853568Y-12111031D01*
X16853568Y-12111031D02*
X16844044Y-12101508D01*
X16844044Y-12101508D02*
X16824996Y-12091984D01*
X16824996Y-12091984D02*
X16786901Y-12091984D01*
X16786901Y-12091984D02*
X16767853Y-12101508D01*
X16767853Y-12101508D02*
X16758329Y-12111031D01*
X16758329Y-12111031D02*
X16748806Y-12130079D01*
X16748806Y-12130079D02*
X16748806Y-12177698D01*
X16748806Y-12177698D02*
X16758329Y-12196746D01*
X16758329Y-12196746D02*
X16767853Y-12206269D01*
X16767853Y-12206269D02*
X16786901Y-12215793D01*
X16786901Y-12215793D02*
X16824996Y-12215793D01*
X16824996Y-12215793D02*
X16844044Y-12206269D01*
X16844044Y-12206269D02*
X16853568Y-12196746D01*
X16853568Y-12196746D02*
X16863091Y-12177698D01*
X16977377Y-12177698D02*
X16958329Y-12168174D01*
X16958329Y-12168174D02*
X16948806Y-12158650D01*
X16948806Y-12158650D02*
X16939282Y-12139603D01*
X16939282Y-12139603D02*
X16939282Y-12130079D01*
X16939282Y-12130079D02*
X16948806Y-12111031D01*
X16948806Y-12111031D02*
X16958329Y-12101508D01*
X16958329Y-12101508D02*
X16977377Y-12091984D01*
X16977377Y-12091984D02*
X17015472Y-12091984D01*
X17015472Y-12091984D02*
X17034520Y-12101508D01*
X17034520Y-12101508D02*
X17044044Y-12111031D01*
X17044044Y-12111031D02*
X17053568Y-12130079D01*
X17053568Y-12130079D02*
X17053568Y-12139603D01*
X17053568Y-12139603D02*
X17044044Y-12158650D01*
X17044044Y-12158650D02*
X17034520Y-12168174D01*
X17034520Y-12168174D02*
X17015472Y-12177698D01*
X17015472Y-12177698D02*
X16977377Y-12177698D01*
X16977377Y-12177698D02*
X16958329Y-12187222D01*
X16958329Y-12187222D02*
X16948806Y-12196746D01*
X16948806Y-12196746D02*
X16939282Y-12215793D01*
X16939282Y-12215793D02*
X16939282Y-12253888D01*
X16939282Y-12253888D02*
X16948806Y-12272936D01*
X16948806Y-12272936D02*
X16958329Y-12282460D01*
X16958329Y-12282460D02*
X16977377Y-12291984D01*
X16977377Y-12291984D02*
X17015472Y-12291984D01*
X17015472Y-12291984D02*
X17034520Y-12282460D01*
X17034520Y-12282460D02*
X17044044Y-12272936D01*
X17044044Y-12272936D02*
X17053568Y-12253888D01*
X17053568Y-12253888D02*
X17053568Y-12215793D01*
X17053568Y-12215793D02*
X17044044Y-12196746D01*
X17044044Y-12196746D02*
X17034520Y-12187222D01*
X17034520Y-12187222D02*
X17015472Y-12177698D01*
X17224996Y-12158650D02*
X17224996Y-12291984D01*
X17177377Y-12082460D02*
X17129758Y-12225317D01*
X17129758Y-12225317D02*
X17253568Y-12225317D01*
X17320234Y-12091984D02*
X17320234Y-12130079D01*
X17396425Y-12091984D02*
X17396425Y-12130079D01*
X17691663Y-12368174D02*
X17682139Y-12358650D01*
X17682139Y-12358650D02*
X17663091Y-12330079D01*
X17663091Y-12330079D02*
X17653568Y-12311031D01*
X17653568Y-12311031D02*
X17644044Y-12282460D01*
X17644044Y-12282460D02*
X17634520Y-12234841D01*
X17634520Y-12234841D02*
X17634520Y-12196746D01*
X17634520Y-12196746D02*
X17644044Y-12149127D01*
X17644044Y-12149127D02*
X17653568Y-12120555D01*
X17653568Y-12120555D02*
X17663091Y-12101508D01*
X17663091Y-12101508D02*
X17682139Y-12072936D01*
X17682139Y-12072936D02*
X17691663Y-12063412D01*
X17853568Y-12158650D02*
X17853568Y-12291984D01*
X17805949Y-12082460D02*
X17758330Y-12225317D01*
X17758330Y-12225317D02*
X17882139Y-12225317D01*
X18110711Y-12291984D02*
X18110711Y-12091984D01*
X18196425Y-12291984D02*
X18196425Y-12187222D01*
X18196425Y-12187222D02*
X18186901Y-12168174D01*
X18186901Y-12168174D02*
X18167853Y-12158650D01*
X18167853Y-12158650D02*
X18139282Y-12158650D01*
X18139282Y-12158650D02*
X18120234Y-12168174D01*
X18120234Y-12168174D02*
X18110711Y-12177698D01*
X18320234Y-12291984D02*
X18301187Y-12282460D01*
X18301187Y-12282460D02*
X18291663Y-12272936D01*
X18291663Y-12272936D02*
X18282139Y-12253888D01*
X18282139Y-12253888D02*
X18282139Y-12196746D01*
X18282139Y-12196746D02*
X18291663Y-12177698D01*
X18291663Y-12177698D02*
X18301187Y-12168174D01*
X18301187Y-12168174D02*
X18320234Y-12158650D01*
X18320234Y-12158650D02*
X18348806Y-12158650D01*
X18348806Y-12158650D02*
X18367853Y-12168174D01*
X18367853Y-12168174D02*
X18377377Y-12177698D01*
X18377377Y-12177698D02*
X18386901Y-12196746D01*
X18386901Y-12196746D02*
X18386901Y-12253888D01*
X18386901Y-12253888D02*
X18377377Y-12272936D01*
X18377377Y-12272936D02*
X18367853Y-12282460D01*
X18367853Y-12282460D02*
X18348806Y-12291984D01*
X18348806Y-12291984D02*
X18320234Y-12291984D01*
X18501187Y-12291984D02*
X18482139Y-12282460D01*
X18482139Y-12282460D02*
X18472615Y-12263412D01*
X18472615Y-12263412D02*
X18472615Y-12091984D01*
X18653568Y-12282460D02*
X18634520Y-12291984D01*
X18634520Y-12291984D02*
X18596425Y-12291984D01*
X18596425Y-12291984D02*
X18577377Y-12282460D01*
X18577377Y-12282460D02*
X18567853Y-12263412D01*
X18567853Y-12263412D02*
X18567853Y-12187222D01*
X18567853Y-12187222D02*
X18577377Y-12168174D01*
X18577377Y-12168174D02*
X18596425Y-12158650D01*
X18596425Y-12158650D02*
X18634520Y-12158650D01*
X18634520Y-12158650D02*
X18653568Y-12168174D01*
X18653568Y-12168174D02*
X18663092Y-12187222D01*
X18663092Y-12187222D02*
X18663092Y-12206269D01*
X18663092Y-12206269D02*
X18567853Y-12225317D01*
X18739282Y-12282460D02*
X18758330Y-12291984D01*
X18758330Y-12291984D02*
X18796425Y-12291984D01*
X18796425Y-12291984D02*
X18815473Y-12282460D01*
X18815473Y-12282460D02*
X18824996Y-12263412D01*
X18824996Y-12263412D02*
X18824996Y-12253888D01*
X18824996Y-12253888D02*
X18815473Y-12234841D01*
X18815473Y-12234841D02*
X18796425Y-12225317D01*
X18796425Y-12225317D02*
X18767853Y-12225317D01*
X18767853Y-12225317D02*
X18748806Y-12215793D01*
X18748806Y-12215793D02*
X18739282Y-12196746D01*
X18739282Y-12196746D02*
X18739282Y-12187222D01*
X18739282Y-12187222D02*
X18748806Y-12168174D01*
X18748806Y-12168174D02*
X18767853Y-12158650D01*
X18767853Y-12158650D02*
X18796425Y-12158650D01*
X18796425Y-12158650D02*
X18815473Y-12168174D01*
X18891663Y-12368174D02*
X18901187Y-12358650D01*
X18901187Y-12358650D02*
X18920234Y-12330079D01*
X18920234Y-12330079D02*
X18929758Y-12311031D01*
X18929758Y-12311031D02*
X18939282Y-12282460D01*
X18939282Y-12282460D02*
X18948806Y-12234841D01*
X18948806Y-12234841D02*
X18948806Y-12196746D01*
X18948806Y-12196746D02*
X18939282Y-12149127D01*
X18939282Y-12149127D02*
X18929758Y-12120555D01*
X18929758Y-12120555D02*
X18920234Y-12101508D01*
X18920234Y-12101508D02*
X18901187Y-12072936D01*
X18901187Y-12072936D02*
X18891663Y-12063412D01*
X19253568Y-12368174D02*
X19244044Y-12358650D01*
X19244044Y-12358650D02*
X19224996Y-12330079D01*
X19224996Y-12330079D02*
X19215473Y-12311031D01*
X19215473Y-12311031D02*
X19205949Y-12282460D01*
X19205949Y-12282460D02*
X19196425Y-12234841D01*
X19196425Y-12234841D02*
X19196425Y-12196746D01*
X19196425Y-12196746D02*
X19205949Y-12149127D01*
X19205949Y-12149127D02*
X19215473Y-12120555D01*
X19215473Y-12120555D02*
X19224996Y-12101508D01*
X19224996Y-12101508D02*
X19244044Y-12072936D01*
X19244044Y-12072936D02*
X19253568Y-12063412D01*
X19329758Y-12158650D02*
X19329758Y-12291984D01*
X19329758Y-12177698D02*
X19339282Y-12168174D01*
X19339282Y-12168174D02*
X19358330Y-12158650D01*
X19358330Y-12158650D02*
X19386901Y-12158650D01*
X19386901Y-12158650D02*
X19405949Y-12168174D01*
X19405949Y-12168174D02*
X19415473Y-12187222D01*
X19415473Y-12187222D02*
X19415473Y-12291984D01*
X19539282Y-12291984D02*
X19520234Y-12282460D01*
X19520234Y-12282460D02*
X19510711Y-12272936D01*
X19510711Y-12272936D02*
X19501187Y-12253888D01*
X19501187Y-12253888D02*
X19501187Y-12196746D01*
X19501187Y-12196746D02*
X19510711Y-12177698D01*
X19510711Y-12177698D02*
X19520234Y-12168174D01*
X19520234Y-12168174D02*
X19539282Y-12158650D01*
X19539282Y-12158650D02*
X19567854Y-12158650D01*
X19567854Y-12158650D02*
X19586901Y-12168174D01*
X19586901Y-12168174D02*
X19596425Y-12177698D01*
X19596425Y-12177698D02*
X19605949Y-12196746D01*
X19605949Y-12196746D02*
X19605949Y-12253888D01*
X19605949Y-12253888D02*
X19596425Y-12272936D01*
X19596425Y-12272936D02*
X19586901Y-12282460D01*
X19586901Y-12282460D02*
X19567854Y-12291984D01*
X19567854Y-12291984D02*
X19539282Y-12291984D01*
X19663092Y-12158650D02*
X19739282Y-12158650D01*
X19691663Y-12091984D02*
X19691663Y-12263412D01*
X19691663Y-12263412D02*
X19701187Y-12282460D01*
X19701187Y-12282460D02*
X19720234Y-12291984D01*
X19720234Y-12291984D02*
X19739282Y-12291984D01*
X19958330Y-12158650D02*
X19958330Y-12358650D01*
X19958330Y-12168174D02*
X19977377Y-12158650D01*
X19977377Y-12158650D02*
X20015473Y-12158650D01*
X20015473Y-12158650D02*
X20034520Y-12168174D01*
X20034520Y-12168174D02*
X20044044Y-12177698D01*
X20044044Y-12177698D02*
X20053568Y-12196746D01*
X20053568Y-12196746D02*
X20053568Y-12253888D01*
X20053568Y-12253888D02*
X20044044Y-12272936D01*
X20044044Y-12272936D02*
X20034520Y-12282460D01*
X20034520Y-12282460D02*
X20015473Y-12291984D01*
X20015473Y-12291984D02*
X19977377Y-12291984D01*
X19977377Y-12291984D02*
X19958330Y-12282460D01*
X20167854Y-12291984D02*
X20148806Y-12282460D01*
X20148806Y-12282460D02*
X20139282Y-12263412D01*
X20139282Y-12263412D02*
X20139282Y-12091984D01*
X20329758Y-12291984D02*
X20329758Y-12187222D01*
X20329758Y-12187222D02*
X20320235Y-12168174D01*
X20320235Y-12168174D02*
X20301187Y-12158650D01*
X20301187Y-12158650D02*
X20263092Y-12158650D01*
X20263092Y-12158650D02*
X20244044Y-12168174D01*
X20329758Y-12282460D02*
X20310711Y-12291984D01*
X20310711Y-12291984D02*
X20263092Y-12291984D01*
X20263092Y-12291984D02*
X20244044Y-12282460D01*
X20244044Y-12282460D02*
X20234520Y-12263412D01*
X20234520Y-12263412D02*
X20234520Y-12244365D01*
X20234520Y-12244365D02*
X20244044Y-12225317D01*
X20244044Y-12225317D02*
X20263092Y-12215793D01*
X20263092Y-12215793D02*
X20310711Y-12215793D01*
X20310711Y-12215793D02*
X20329758Y-12206269D01*
X20396425Y-12158650D02*
X20472615Y-12158650D01*
X20424996Y-12091984D02*
X20424996Y-12263412D01*
X20424996Y-12263412D02*
X20434520Y-12282460D01*
X20434520Y-12282460D02*
X20453568Y-12291984D01*
X20453568Y-12291984D02*
X20472615Y-12291984D01*
X20615473Y-12282460D02*
X20596425Y-12291984D01*
X20596425Y-12291984D02*
X20558330Y-12291984D01*
X20558330Y-12291984D02*
X20539282Y-12282460D01*
X20539282Y-12282460D02*
X20529758Y-12263412D01*
X20529758Y-12263412D02*
X20529758Y-12187222D01*
X20529758Y-12187222D02*
X20539282Y-12168174D01*
X20539282Y-12168174D02*
X20558330Y-12158650D01*
X20558330Y-12158650D02*
X20596425Y-12158650D01*
X20596425Y-12158650D02*
X20615473Y-12168174D01*
X20615473Y-12168174D02*
X20624996Y-12187222D01*
X20624996Y-12187222D02*
X20624996Y-12206269D01*
X20624996Y-12206269D02*
X20529758Y-12225317D01*
X20796425Y-12291984D02*
X20796425Y-12091984D01*
X20796425Y-12282460D02*
X20777377Y-12291984D01*
X20777377Y-12291984D02*
X20739282Y-12291984D01*
X20739282Y-12291984D02*
X20720235Y-12282460D01*
X20720235Y-12282460D02*
X20710711Y-12272936D01*
X20710711Y-12272936D02*
X20701187Y-12253888D01*
X20701187Y-12253888D02*
X20701187Y-12196746D01*
X20701187Y-12196746D02*
X20710711Y-12177698D01*
X20710711Y-12177698D02*
X20720235Y-12168174D01*
X20720235Y-12168174D02*
X20739282Y-12158650D01*
X20739282Y-12158650D02*
X20777377Y-12158650D01*
X20777377Y-12158650D02*
X20796425Y-12168174D01*
X20872616Y-12368174D02*
X20882139Y-12358650D01*
X20882139Y-12358650D02*
X20901187Y-12330079D01*
X20901187Y-12330079D02*
X20910711Y-12311031D01*
X20910711Y-12311031D02*
X20920235Y-12282460D01*
X20920235Y-12282460D02*
X20929758Y-12234841D01*
X20929758Y-12234841D02*
X20929758Y-12196746D01*
X20929758Y-12196746D02*
X20920235Y-12149127D01*
X20920235Y-12149127D02*
X20910711Y-12120555D01*
X20910711Y-12120555D02*
X20901187Y-12101508D01*
X20901187Y-12101508D02*
X20882139Y-12072936D01*
X20882139Y-12072936D02*
X20872616Y-12063412D01*
M02*
