G04 #@! TF.GenerationSoftware,KiCad,Pcbnew,9.0.0*
G04 #@! TF.CreationDate,2025-04-06T11:42:04-04:00*
G04 #@! TF.ProjectId,combat-pcb,636f6d62-6174-42d7-9063-622e6b696361,rev?*
G04 #@! TF.SameCoordinates,Original*
G04 #@! TF.FileFunction,Copper,L2,Bot*
G04 #@! TF.FilePolarity,Positive*
%FSLAX46Y46*%
G04 Gerber Fmt 4.6, Leading zero omitted, Abs format (unit mm)*
G04 Created by KiCad (PCBNEW 9.0.0) date 2025-04-06 11:42:04*
%MOMM*%
%LPD*%
G01*
G04 APERTURE LIST*
G04 Aperture macros list*
%AMFreePoly0*
4,1,23,0.500000,-0.750000,0.000000,-0.750000,0.000000,-0.745722,-0.065263,-0.745722,-0.191342,-0.711940,-0.304381,-0.646677,-0.396677,-0.554381,-0.461940,-0.441342,-0.495722,-0.315263,-0.495722,-0.250000,-0.500000,-0.250000,-0.500000,0.250000,-0.495722,0.250000,-0.495722,0.315263,-0.461940,0.441342,-0.396677,0.554381,-0.304381,0.646677,-0.191342,0.711940,-0.065263,0.745722,0.000000,0.745722,
0.000000,0.750000,0.500000,0.750000,0.500000,-0.750000,0.500000,-0.750000,$1*%
%AMFreePoly1*
4,1,23,0.000000,0.745722,0.065263,0.745722,0.191342,0.711940,0.304381,0.646677,0.396677,0.554381,0.461940,0.441342,0.495722,0.315263,0.495722,0.250000,0.500000,0.250000,0.500000,-0.250000,0.495722,-0.250000,0.495722,-0.315263,0.461940,-0.441342,0.396677,-0.554381,0.304381,-0.646677,0.191342,-0.711940,0.065263,-0.745722,0.000000,-0.745722,0.000000,-0.750000,-0.500000,-0.750000,
-0.500000,0.750000,0.000000,0.750000,0.000000,0.745722,0.000000,0.745722,$1*%
G04 Aperture macros list end*
G04 #@! TA.AperFunction,EtchedComponent*
%ADD10C,0.000000*%
G04 #@! TD*
G04 #@! TA.AperFunction,ComponentPad*
%ADD11R,1.370000X1.370000*%
G04 #@! TD*
G04 #@! TA.AperFunction,ComponentPad*
%ADD12C,1.500000*%
G04 #@! TD*
G04 #@! TA.AperFunction,ComponentPad*
%ADD13R,2.100000X2.100000*%
G04 #@! TD*
G04 #@! TA.AperFunction,ComponentPad*
%ADD14C,2.100000*%
G04 #@! TD*
G04 #@! TA.AperFunction,ComponentPad*
%ADD15R,1.700000X1.700000*%
G04 #@! TD*
G04 #@! TA.AperFunction,ComponentPad*
%ADD16O,1.700000X1.700000*%
G04 #@! TD*
G04 #@! TA.AperFunction,SMDPad,CuDef*
%ADD17FreePoly0,180.000000*%
G04 #@! TD*
G04 #@! TA.AperFunction,SMDPad,CuDef*
%ADD18FreePoly1,180.000000*%
G04 #@! TD*
G04 #@! TA.AperFunction,SMDPad,CuDef*
%ADD19FreePoly0,270.000000*%
G04 #@! TD*
G04 #@! TA.AperFunction,SMDPad,CuDef*
%ADD20FreePoly1,270.000000*%
G04 #@! TD*
G04 #@! TA.AperFunction,ViaPad*
%ADD21C,0.600000*%
G04 #@! TD*
G04 #@! TA.AperFunction,Conductor*
%ADD22C,0.200000*%
G04 #@! TD*
G04 #@! TA.AperFunction,Conductor*
%ADD23C,0.600000*%
G04 #@! TD*
G04 APERTURE END LIST*
D10*
G04 #@! TA.AperFunction,EtchedComponent*
G36*
X157091000Y-87880000D02*
G01*
X156591000Y-87880000D01*
X156591000Y-87280000D01*
X157091000Y-87280000D01*
X157091000Y-87880000D01*
G37*
G04 #@! TD.AperFunction*
G04 #@! TA.AperFunction,EtchedComponent*
G36*
X148491000Y-75830000D02*
G01*
X147891000Y-75830000D01*
X147891000Y-75330000D01*
X148491000Y-75330000D01*
X148491000Y-75830000D01*
G37*
G04 #@! TD.AperFunction*
G04 #@! TA.AperFunction,EtchedComponent*
G36*
X157441000Y-84880000D02*
G01*
X156941000Y-84880000D01*
X156941000Y-84280000D01*
X157441000Y-84280000D01*
X157441000Y-84880000D01*
G37*
G04 #@! TD.AperFunction*
G04 #@! TA.AperFunction,EtchedComponent*
G36*
X161491000Y-83830000D02*
G01*
X160891000Y-83830000D01*
X160891000Y-83330000D01*
X161491000Y-83330000D01*
X161491000Y-83830000D01*
G37*
G04 #@! TD.AperFunction*
G04 #@! TA.AperFunction,EtchedComponent*
G36*
X161491000Y-77830000D02*
G01*
X160891000Y-77830000D01*
X160891000Y-77330000D01*
X161491000Y-77330000D01*
X161491000Y-77830000D01*
G37*
G04 #@! TD.AperFunction*
D11*
X151341000Y-108310000D03*
D12*
X151341000Y-105770000D03*
X151341000Y-103230000D03*
X153881000Y-108310000D03*
X153881000Y-105770000D03*
X153881000Y-103230000D03*
X156421000Y-108310000D03*
X156421000Y-105770000D03*
X156421000Y-103230000D03*
X158961000Y-108310000D03*
X158961000Y-105770000D03*
X158961000Y-103230000D03*
X161501000Y-108310000D03*
X161501000Y-105770000D03*
X161501000Y-103230000D03*
X164041000Y-108310000D03*
X164041000Y-105770000D03*
X164041000Y-103230000D03*
D13*
X179191000Y-107580000D03*
D14*
X174191000Y-107580000D03*
D15*
X152081000Y-65580000D03*
D16*
X154621000Y-65580000D03*
X157161000Y-65580000D03*
X159701000Y-65580000D03*
X162241000Y-65580000D03*
X164781000Y-65580000D03*
X167321000Y-65580000D03*
X169861000Y-65580000D03*
X172401000Y-65580000D03*
X174941000Y-65580000D03*
X177481000Y-65580000D03*
X180021000Y-65580000D03*
X182561000Y-65580000D03*
X185101000Y-65580000D03*
X187641000Y-65580000D03*
X190181000Y-65580000D03*
D17*
X157491000Y-87580000D03*
D18*
X156191000Y-87580000D03*
D19*
X148191000Y-74930000D03*
D20*
X148191000Y-76230000D03*
D17*
X157841000Y-84580000D03*
D18*
X156541000Y-84580000D03*
D19*
X161191000Y-82930000D03*
D20*
X161191000Y-84230000D03*
D19*
X161191000Y-76930000D03*
D20*
X161191000Y-78230000D03*
D21*
X190191000Y-86080000D03*
X157691000Y-93080000D03*
X205761000Y-86690000D03*
X184191000Y-104580000D03*
X190191000Y-104580000D03*
X159191000Y-86580000D03*
X154391000Y-83629943D03*
X199191000Y-100580000D03*
X188191000Y-100580000D03*
X161191000Y-80580000D03*
X161191000Y-75580000D03*
X191191000Y-87580000D03*
X146191000Y-70580000D03*
X144191000Y-70580000D03*
X208191000Y-76580000D03*
X202191000Y-67580000D03*
X182191000Y-75580000D03*
X144191000Y-72580000D03*
X152191000Y-85580000D03*
X200191000Y-65580000D03*
X156191000Y-77580000D03*
X219191000Y-73580000D03*
X148191000Y-72580000D03*
X144691000Y-80830000D03*
X146191000Y-72580000D03*
X176191000Y-71580000D03*
X181191000Y-74580000D03*
X167191000Y-100580000D03*
X207191000Y-78580000D03*
X189191000Y-110580000D03*
X181191000Y-76580000D03*
X185191000Y-109580000D03*
X206191000Y-65580000D03*
X143191000Y-103580000D03*
X143191000Y-106580000D03*
X183191000Y-76580000D03*
X219191000Y-81580000D03*
X197191000Y-105580000D03*
X172191000Y-68580000D03*
X169191000Y-107580000D03*
X203191000Y-104580000D03*
X150191000Y-72580000D03*
X207191000Y-91580000D03*
X199191000Y-72580000D03*
X148191000Y-70580000D03*
X146191000Y-100580000D03*
X179191000Y-74580000D03*
X164191000Y-81580000D03*
X208191000Y-67580000D03*
X208191000Y-70580000D03*
X169191000Y-105580000D03*
X202191000Y-65580000D03*
X143191000Y-100580000D03*
X208191000Y-65580000D03*
X205191000Y-73580000D03*
X146191000Y-106580000D03*
X149191000Y-103580000D03*
X160191000Y-74580000D03*
X194191000Y-65580000D03*
X144691000Y-76830000D03*
X144691000Y-78830000D03*
X177191000Y-72580000D03*
X179191000Y-72580000D03*
X205191000Y-76580000D03*
X205191000Y-70580000D03*
X206191000Y-67580000D03*
X189191000Y-71580000D03*
X146191000Y-103580000D03*
X180191000Y-75580000D03*
X169191000Y-92580000D03*
X198191000Y-65580000D03*
X219191000Y-77580000D03*
X185191000Y-107580000D03*
X144691000Y-82830000D03*
X189191000Y-69580000D03*
X150191000Y-70580000D03*
X165191000Y-79580000D03*
X196191000Y-65580000D03*
X219191000Y-85580000D03*
X208191000Y-100580000D03*
X208191000Y-73580000D03*
X149191000Y-106580000D03*
X204191000Y-65580000D03*
X180191000Y-73580000D03*
X169191000Y-109580000D03*
X169191000Y-63580000D03*
X183191000Y-109580000D03*
X178191000Y-71580000D03*
X219191000Y-89580000D03*
X149191000Y-100580000D03*
X183191000Y-107580000D03*
X204191000Y-67580000D03*
X190191000Y-72580000D03*
X190169300Y-81906100D03*
X167330265Y-77440735D03*
X178191000Y-73580000D03*
X197191000Y-93580000D03*
X192191000Y-69580000D03*
X187191000Y-110580000D03*
X192191000Y-71580000D03*
X161191000Y-85580000D03*
X157191000Y-82580000D03*
X188441000Y-106580000D03*
X190691000Y-105830000D03*
X185191000Y-69580000D03*
X206651000Y-86020000D03*
X182136469Y-101634531D03*
X148191000Y-78580000D03*
X152191000Y-73580000D03*
X169191000Y-100580000D03*
X208316000Y-103955000D03*
X185691000Y-101330000D03*
X172191000Y-100580000D03*
X197941000Y-108698000D03*
X190691000Y-108830000D03*
X155191000Y-85580000D03*
X157191000Y-89580000D03*
X190191000Y-83330000D03*
X155691000Y-95580000D03*
X209691000Y-74830000D03*
X198431000Y-103370000D03*
X174941000Y-103330000D03*
X172191000Y-103330000D03*
X182941000Y-103330000D03*
X207671000Y-84840000D03*
X197231000Y-78080000D03*
X197241000Y-81610000D03*
X200931000Y-92160000D03*
X208111000Y-82810000D03*
X189941000Y-91080000D03*
X189691000Y-98580000D03*
X189941000Y-88330000D03*
X202011000Y-91260000D03*
X198381000Y-77540000D03*
X198421000Y-81850000D03*
X189691000Y-96080000D03*
X189691000Y-93580000D03*
X200251000Y-93230000D03*
X196211000Y-78800000D03*
X196281000Y-81710000D03*
D22*
X164691000Y-86080000D02*
X190191000Y-86080000D01*
X157691000Y-93080000D02*
X164691000Y-86080000D01*
X199930943Y-80859943D02*
X205761000Y-86690000D01*
X169900943Y-80859943D02*
X199930943Y-80859943D01*
X154621000Y-65580000D02*
X169900943Y-80859943D01*
X154391000Y-83629943D02*
X155590943Y-83629943D01*
X159191000Y-85930000D02*
X159191000Y-86580000D01*
X157841000Y-84580000D02*
X159191000Y-85930000D01*
X155590943Y-83629943D02*
X156541000Y-84580000D01*
X184191000Y-104580000D02*
X190191000Y-104580000D01*
X183712000Y-64429000D02*
X200139943Y-64429000D01*
X189191000Y-100580000D02*
X188191000Y-100580000D01*
X161191000Y-80580000D02*
X161191000Y-78230000D01*
X161191000Y-76930000D02*
X161191000Y-75580000D01*
X210292000Y-89479000D02*
X199191000Y-100580000D01*
X191191000Y-87580000D02*
X191191000Y-98580000D01*
X191191000Y-98580000D02*
X189191000Y-100580000D01*
X210292000Y-74581057D02*
X210292000Y-89479000D01*
X200139943Y-64429000D02*
X210292000Y-74581057D01*
X182561000Y-65580000D02*
X183712000Y-64429000D01*
D23*
X169861000Y-64250000D02*
X169191000Y-63580000D01*
X169861000Y-66250000D02*
X172191000Y-68580000D01*
X169861000Y-65580000D02*
X169861000Y-64250000D01*
X169861000Y-65580000D02*
X169861000Y-66250000D01*
D22*
X188441000Y-106580000D02*
X189191000Y-105830000D01*
X189191000Y-105830000D02*
X190691000Y-105830000D01*
X157191000Y-82580000D02*
X157541000Y-82930000D01*
X161191000Y-84230000D02*
X161191000Y-85580000D01*
X185101000Y-69490000D02*
X185101000Y-65580000D01*
X185191000Y-69580000D02*
X185101000Y-69490000D01*
X157541000Y-82930000D02*
X161191000Y-82930000D01*
X170981000Y-79400000D02*
X200031000Y-79400000D01*
X157161000Y-65580000D02*
X170981000Y-79400000D01*
X200031000Y-79400000D02*
X206651000Y-86020000D01*
D23*
X182136469Y-101634531D02*
X182930938Y-102429000D01*
X150841000Y-74930000D02*
X152191000Y-73580000D01*
X208316000Y-103955000D02*
X206790000Y-102429000D01*
X148191000Y-74930000D02*
X150841000Y-74930000D01*
X169191000Y-100580000D02*
X172191000Y-100580000D01*
X206790000Y-102429000D02*
X186790000Y-102429000D01*
X186790000Y-102429000D02*
X185691000Y-101330000D01*
X182930938Y-102429000D02*
X186790000Y-102429000D01*
X148191000Y-78580000D02*
X148191000Y-76230000D01*
D22*
X190691000Y-108830000D02*
X195691000Y-108830000D01*
X155191000Y-85580000D02*
X156191000Y-86580000D01*
X156191000Y-86580000D02*
X156191000Y-87580000D01*
X195823000Y-108698000D02*
X197941000Y-108698000D01*
X195691000Y-108830000D02*
X195823000Y-108698000D01*
X157491000Y-89280000D02*
X157191000Y-89580000D01*
X157491000Y-87580000D02*
X157491000Y-89280000D01*
X165691000Y-83330000D02*
X190191000Y-83330000D01*
X155691000Y-95580000D02*
X155691000Y-93330000D01*
X155691000Y-93330000D02*
X165691000Y-83330000D01*
D23*
X174191000Y-107580000D02*
X181390000Y-100381000D01*
X186448626Y-100381000D02*
X187698626Y-101631000D01*
X181390000Y-100381000D02*
X186448626Y-100381000D01*
X187698626Y-101631000D02*
X193640000Y-101631000D01*
X209691000Y-85580000D02*
X209691000Y-74830000D01*
X193640000Y-101631000D02*
X209691000Y-85580000D01*
D22*
X195841000Y-103330000D02*
X182941000Y-103330000D01*
X198431000Y-103370000D02*
X195881000Y-103370000D01*
X195881000Y-103370000D02*
X195841000Y-103330000D01*
X172191000Y-103330000D02*
X174941000Y-103330000D01*
X177481000Y-65580000D02*
X188840000Y-76939000D01*
X188840000Y-76939000D02*
X199770000Y-76939000D01*
X199770000Y-76939000D02*
X207671000Y-84840000D01*
X179821000Y-78080000D02*
X197231000Y-78080000D01*
X197241000Y-81610000D02*
X197241000Y-88720000D01*
X167321000Y-65580000D02*
X179821000Y-78080000D01*
X200681000Y-92160000D02*
X200931000Y-92160000D01*
X197241000Y-88720000D02*
X200681000Y-92160000D01*
X180021000Y-65580000D02*
X189911000Y-75470000D01*
X189911000Y-75470000D02*
X192001000Y-75470000D01*
X200771000Y-75470000D02*
X208111000Y-82810000D01*
X192001000Y-75470000D02*
X200771000Y-75470000D01*
X153881000Y-103230000D02*
X166031000Y-91080000D01*
X166031000Y-91080000D02*
X189941000Y-91080000D01*
X166151000Y-98580000D02*
X161501000Y-103230000D01*
X189691000Y-98580000D02*
X166151000Y-98580000D01*
X151341000Y-103230000D02*
X166241000Y-88330000D01*
X166241000Y-88330000D02*
X189941000Y-88330000D01*
X197301000Y-77479000D02*
X198320000Y-77479000D01*
X174941000Y-65580000D02*
X186840000Y-77479000D01*
X198421000Y-81850000D02*
X198421000Y-87670000D01*
X186840000Y-77479000D02*
X197301000Y-77479000D01*
X198421000Y-87670000D02*
X202011000Y-91260000D01*
X198320000Y-77479000D02*
X198381000Y-77540000D01*
X166111000Y-96080000D02*
X189691000Y-96080000D01*
X158961000Y-103230000D02*
X166111000Y-96080000D01*
X156421000Y-103230000D02*
X166071000Y-93580000D01*
X166071000Y-93580000D02*
X189691000Y-93580000D01*
X164781000Y-65580000D02*
X178001000Y-78800000D01*
X178001000Y-78800000D02*
X196211000Y-78800000D01*
X196281000Y-89260000D02*
X200251000Y-93230000D01*
X196281000Y-81710000D02*
X196281000Y-89260000D01*
G04 #@! TA.AperFunction,Conductor*
G36*
X152682445Y-106203732D02*
G01*
X152721485Y-106248787D01*
X152811474Y-106425403D01*
X152829480Y-106450185D01*
X152927172Y-106584646D01*
X153066354Y-106723828D01*
X153126272Y-106767361D01*
X153225596Y-106839525D01*
X153402763Y-106929795D01*
X153453560Y-106977769D01*
X153470355Y-107045590D01*
X153447818Y-107111725D01*
X153402764Y-107150765D01*
X153225859Y-107240902D01*
X153190873Y-107266320D01*
X153190872Y-107266320D01*
X153743425Y-107818871D01*
X153684147Y-107834755D01*
X153567853Y-107901898D01*
X153472898Y-107996853D01*
X153405755Y-108113147D01*
X153389871Y-108172424D01*
X152837320Y-107619872D01*
X152837320Y-107619873D01*
X152811902Y-107654859D01*
X152811899Y-107654863D01*
X152760485Y-107755772D01*
X152712511Y-107806569D01*
X152644690Y-107823364D01*
X152578555Y-107800827D01*
X152535103Y-107746112D01*
X152526000Y-107699478D01*
X152526000Y-107577172D01*
X152525999Y-107577155D01*
X152519598Y-107517627D01*
X152519596Y-107517620D01*
X152469354Y-107382913D01*
X152469350Y-107382906D01*
X152383190Y-107267812D01*
X152383187Y-107267809D01*
X152268093Y-107181649D01*
X152268086Y-107181645D01*
X152133379Y-107131403D01*
X152133372Y-107131401D01*
X152073844Y-107125000D01*
X151952624Y-107125000D01*
X151885585Y-107105315D01*
X151839830Y-107052511D01*
X151829886Y-106983353D01*
X151858911Y-106919797D01*
X151896329Y-106890515D01*
X151901839Y-106887707D01*
X151996405Y-106839524D01*
X152155646Y-106723828D01*
X152294828Y-106584646D01*
X152410524Y-106425405D01*
X152424824Y-106397339D01*
X152500515Y-106248787D01*
X152548489Y-106197990D01*
X152616310Y-106181195D01*
X152682445Y-106203732D01*
G37*
G04 #@! TD.AperFunction*
G04 #@! TA.AperFunction,Conductor*
G36*
X155222445Y-106203732D02*
G01*
X155261485Y-106248787D01*
X155351474Y-106425403D01*
X155369480Y-106450185D01*
X155467172Y-106584646D01*
X155606354Y-106723828D01*
X155666272Y-106767361D01*
X155765596Y-106839525D01*
X155942763Y-106929795D01*
X155993560Y-106977769D01*
X156010355Y-107045590D01*
X155987818Y-107111725D01*
X155942764Y-107150765D01*
X155765859Y-107240902D01*
X155730873Y-107266320D01*
X155730872Y-107266320D01*
X156283425Y-107818871D01*
X156224147Y-107834755D01*
X156107853Y-107901898D01*
X156012898Y-107996853D01*
X155945755Y-108113147D01*
X155929871Y-108172424D01*
X155377320Y-107619872D01*
X155377320Y-107619873D01*
X155351902Y-107654859D01*
X155261484Y-107832315D01*
X155213509Y-107883111D01*
X155145688Y-107899906D01*
X155079553Y-107877369D01*
X155040514Y-107832314D01*
X154950097Y-107654860D01*
X154924678Y-107619873D01*
X154924677Y-107619873D01*
X154372127Y-108172423D01*
X154356245Y-108113147D01*
X154289102Y-107996853D01*
X154194147Y-107901898D01*
X154077853Y-107834755D01*
X154018574Y-107818871D01*
X154571125Y-107266320D01*
X154571125Y-107266319D01*
X154536145Y-107240905D01*
X154359235Y-107150765D01*
X154308439Y-107102790D01*
X154291644Y-107034969D01*
X154314182Y-106968834D01*
X154359236Y-106929795D01*
X154361022Y-106928884D01*
X154361025Y-106928884D01*
X154536405Y-106839524D01*
X154695646Y-106723828D01*
X154834828Y-106584646D01*
X154950524Y-106425405D01*
X154964824Y-106397339D01*
X155040515Y-106248787D01*
X155088489Y-106197990D01*
X155156310Y-106181195D01*
X155222445Y-106203732D01*
G37*
G04 #@! TD.AperFunction*
G04 #@! TA.AperFunction,Conductor*
G36*
X157762445Y-106203732D02*
G01*
X157801485Y-106248787D01*
X157891474Y-106425403D01*
X157909480Y-106450185D01*
X158007172Y-106584646D01*
X158146354Y-106723828D01*
X158206272Y-106767361D01*
X158305596Y-106839525D01*
X158482763Y-106929795D01*
X158533560Y-106977769D01*
X158550355Y-107045590D01*
X158527818Y-107111725D01*
X158482764Y-107150765D01*
X158305859Y-107240902D01*
X158270873Y-107266320D01*
X158270872Y-107266320D01*
X158823425Y-107818871D01*
X158764147Y-107834755D01*
X158647853Y-107901898D01*
X158552898Y-107996853D01*
X158485755Y-108113147D01*
X158469871Y-108172424D01*
X157917320Y-107619872D01*
X157917320Y-107619873D01*
X157891902Y-107654859D01*
X157801484Y-107832315D01*
X157753509Y-107883111D01*
X157685688Y-107899906D01*
X157619553Y-107877369D01*
X157580514Y-107832314D01*
X157490097Y-107654860D01*
X157464678Y-107619873D01*
X157464677Y-107619873D01*
X156912127Y-108172423D01*
X156896245Y-108113147D01*
X156829102Y-107996853D01*
X156734147Y-107901898D01*
X156617853Y-107834755D01*
X156558574Y-107818871D01*
X157111125Y-107266320D01*
X157111125Y-107266319D01*
X157076145Y-107240905D01*
X156899235Y-107150765D01*
X156848439Y-107102790D01*
X156831644Y-107034969D01*
X156854182Y-106968834D01*
X156899236Y-106929795D01*
X156901022Y-106928884D01*
X156901025Y-106928884D01*
X157076405Y-106839524D01*
X157235646Y-106723828D01*
X157374828Y-106584646D01*
X157490524Y-106425405D01*
X157504824Y-106397339D01*
X157580515Y-106248787D01*
X157628489Y-106197990D01*
X157696310Y-106181195D01*
X157762445Y-106203732D01*
G37*
G04 #@! TD.AperFunction*
G04 #@! TA.AperFunction,Conductor*
G36*
X160302445Y-106203732D02*
G01*
X160341485Y-106248787D01*
X160431474Y-106425403D01*
X160449480Y-106450185D01*
X160547172Y-106584646D01*
X160686354Y-106723828D01*
X160746272Y-106767361D01*
X160845596Y-106839525D01*
X161022763Y-106929795D01*
X161073560Y-106977769D01*
X161090355Y-107045590D01*
X161067818Y-107111725D01*
X161022764Y-107150765D01*
X160845859Y-107240902D01*
X160810873Y-107266320D01*
X160810872Y-107266320D01*
X161363425Y-107818871D01*
X161304147Y-107834755D01*
X161187853Y-107901898D01*
X161092898Y-107996853D01*
X161025755Y-108113147D01*
X161009871Y-108172424D01*
X160457320Y-107619872D01*
X160457320Y-107619873D01*
X160431902Y-107654859D01*
X160341484Y-107832315D01*
X160293509Y-107883111D01*
X160225688Y-107899906D01*
X160159553Y-107877369D01*
X160120514Y-107832314D01*
X160030097Y-107654860D01*
X160004678Y-107619873D01*
X160004677Y-107619873D01*
X159452127Y-108172423D01*
X159436245Y-108113147D01*
X159369102Y-107996853D01*
X159274147Y-107901898D01*
X159157853Y-107834755D01*
X159098574Y-107818871D01*
X159651125Y-107266320D01*
X159651125Y-107266319D01*
X159616145Y-107240905D01*
X159439235Y-107150765D01*
X159388439Y-107102790D01*
X159371644Y-107034969D01*
X159394182Y-106968834D01*
X159439236Y-106929795D01*
X159441022Y-106928884D01*
X159441025Y-106928884D01*
X159616405Y-106839524D01*
X159775646Y-106723828D01*
X159914828Y-106584646D01*
X160030524Y-106425405D01*
X160044824Y-106397339D01*
X160120515Y-106248787D01*
X160168489Y-106197990D01*
X160236310Y-106181195D01*
X160302445Y-106203732D01*
G37*
G04 #@! TD.AperFunction*
G04 #@! TA.AperFunction,Conductor*
G36*
X162842445Y-106203732D02*
G01*
X162881485Y-106248787D01*
X162971474Y-106425403D01*
X162989480Y-106450185D01*
X163087172Y-106584646D01*
X163226354Y-106723828D01*
X163286272Y-106767361D01*
X163385596Y-106839525D01*
X163562763Y-106929795D01*
X163613560Y-106977769D01*
X163630355Y-107045590D01*
X163607818Y-107111725D01*
X163562764Y-107150765D01*
X163385859Y-107240902D01*
X163350873Y-107266320D01*
X163350872Y-107266320D01*
X163903425Y-107818871D01*
X163844147Y-107834755D01*
X163727853Y-107901898D01*
X163632898Y-107996853D01*
X163565755Y-108113147D01*
X163549871Y-108172424D01*
X162997320Y-107619872D01*
X162997320Y-107619873D01*
X162971902Y-107654859D01*
X162881484Y-107832315D01*
X162833509Y-107883111D01*
X162765688Y-107899906D01*
X162699553Y-107877369D01*
X162660514Y-107832314D01*
X162570097Y-107654860D01*
X162544678Y-107619873D01*
X162544677Y-107619873D01*
X161992127Y-108172423D01*
X161976245Y-108113147D01*
X161909102Y-107996853D01*
X161814147Y-107901898D01*
X161697853Y-107834755D01*
X161638574Y-107818871D01*
X162191125Y-107266320D01*
X162191125Y-107266319D01*
X162156145Y-107240905D01*
X161979235Y-107150765D01*
X161928439Y-107102790D01*
X161911644Y-107034969D01*
X161934182Y-106968834D01*
X161979236Y-106929795D01*
X161981022Y-106928884D01*
X161981025Y-106928884D01*
X162156405Y-106839524D01*
X162315646Y-106723828D01*
X162454828Y-106584646D01*
X162570524Y-106425405D01*
X162584824Y-106397339D01*
X162660515Y-106248787D01*
X162708489Y-106197990D01*
X162776310Y-106181195D01*
X162842445Y-106203732D01*
G37*
G04 #@! TD.AperFunction*
G04 #@! TA.AperFunction,Conductor*
G36*
X189428273Y-91700185D02*
G01*
X189430125Y-91701398D01*
X189561814Y-91789390D01*
X189561827Y-91789397D01*
X189685828Y-91840759D01*
X189707503Y-91849737D01*
X189862153Y-91880499D01*
X189862156Y-91880500D01*
X189862158Y-91880500D01*
X190019844Y-91880500D01*
X190019845Y-91880499D01*
X190174497Y-91849737D01*
X190320179Y-91789394D01*
X190397609Y-91737657D01*
X190464286Y-91716779D01*
X190531666Y-91735263D01*
X190578357Y-91787242D01*
X190590500Y-91840759D01*
X190590500Y-93076560D01*
X190570815Y-93143599D01*
X190518011Y-93189354D01*
X190448853Y-93199298D01*
X190385297Y-93170273D01*
X190363398Y-93145451D01*
X190312789Y-93069711D01*
X190312786Y-93069707D01*
X190201292Y-92958213D01*
X190201288Y-92958210D01*
X190070185Y-92870609D01*
X190070172Y-92870602D01*
X189924501Y-92810264D01*
X189924489Y-92810261D01*
X189769845Y-92779500D01*
X189769842Y-92779500D01*
X189612158Y-92779500D01*
X189612155Y-92779500D01*
X189457510Y-92810261D01*
X189457498Y-92810264D01*
X189311827Y-92870602D01*
X189311814Y-92870609D01*
X189180125Y-92958602D01*
X189113447Y-92979480D01*
X189111234Y-92979500D01*
X166157669Y-92979500D01*
X166157653Y-92979499D01*
X166150057Y-92979499D01*
X165991943Y-92979499D01*
X165912010Y-93000917D01*
X165839216Y-93020422D01*
X165804862Y-93040257D01*
X165804861Y-93040256D01*
X165702287Y-93099477D01*
X165702282Y-93099481D01*
X165590478Y-93211286D01*
X156825532Y-101976231D01*
X156764209Y-102009716D01*
X156718453Y-102011023D01*
X156519422Y-101979500D01*
X156519417Y-101979500D01*
X156322583Y-101979500D01*
X156322581Y-101979500D01*
X156293333Y-101984132D01*
X156224040Y-101975176D01*
X156170588Y-101930178D01*
X156149950Y-101863427D01*
X156168676Y-101796113D01*
X156186251Y-101773982D01*
X166243417Y-91716819D01*
X166304740Y-91683334D01*
X166331098Y-91680500D01*
X189361234Y-91680500D01*
X189428273Y-91700185D01*
G37*
G04 #@! TD.AperFunction*
G04 #@! TA.AperFunction,Conductor*
G36*
X199906885Y-65049185D02*
G01*
X199927527Y-65065819D01*
X209042196Y-74180489D01*
X209075681Y-74241812D01*
X209070697Y-74311504D01*
X209057617Y-74337061D01*
X208981609Y-74450814D01*
X208981602Y-74450827D01*
X208921264Y-74596498D01*
X208921261Y-74596510D01*
X208890500Y-74751153D01*
X208890500Y-82158059D01*
X208870815Y-82225098D01*
X208818011Y-82270853D01*
X208748853Y-82280797D01*
X208685297Y-82251772D01*
X208678819Y-82245740D01*
X208621292Y-82188213D01*
X208621288Y-82188210D01*
X208490185Y-82100609D01*
X208490172Y-82100602D01*
X208344501Y-82040264D01*
X208344491Y-82040261D01*
X208189151Y-82009362D01*
X208127241Y-81976977D01*
X208125662Y-81975426D01*
X201258590Y-75108355D01*
X201258588Y-75108352D01*
X201139717Y-74989481D01*
X201139709Y-74989475D01*
X201035828Y-74929500D01*
X201035825Y-74929499D01*
X201002787Y-74910424D01*
X201002786Y-74910423D01*
X201002785Y-74910423D01*
X200850057Y-74869499D01*
X200691943Y-74869499D01*
X200684347Y-74869499D01*
X200684331Y-74869500D01*
X190211097Y-74869500D01*
X190144058Y-74849815D01*
X190123416Y-74833181D01*
X185801624Y-70511389D01*
X194220500Y-70511389D01*
X194220500Y-70684611D01*
X194247598Y-70855701D01*
X194301127Y-71020445D01*
X194379768Y-71174788D01*
X194481586Y-71314928D01*
X194604072Y-71437414D01*
X194744212Y-71539232D01*
X194898555Y-71617873D01*
X195063299Y-71671402D01*
X195234389Y-71698500D01*
X195234390Y-71698500D01*
X195407610Y-71698500D01*
X195407611Y-71698500D01*
X195578701Y-71671402D01*
X195743445Y-71617873D01*
X195897788Y-71539232D01*
X196037928Y-71437414D01*
X196160414Y-71314928D01*
X196262232Y-71174788D01*
X196340873Y-71020445D01*
X196394402Y-70855701D01*
X196421500Y-70684611D01*
X196421500Y-70511389D01*
X196394402Y-70340299D01*
X196340873Y-70175555D01*
X196262232Y-70021212D01*
X196160414Y-69881072D01*
X196037928Y-69758586D01*
X195897788Y-69656768D01*
X195743445Y-69578127D01*
X195578701Y-69524598D01*
X195578699Y-69524597D01*
X195578698Y-69524597D01*
X195447271Y-69503781D01*
X195407611Y-69497500D01*
X195234389Y-69497500D01*
X195194728Y-69503781D01*
X195063302Y-69524597D01*
X194898552Y-69578128D01*
X194744211Y-69656768D01*
X194664256Y-69714859D01*
X194604072Y-69758586D01*
X194604070Y-69758588D01*
X194604069Y-69758588D01*
X194481588Y-69881069D01*
X194481588Y-69881070D01*
X194481586Y-69881072D01*
X194437859Y-69941256D01*
X194379768Y-70021211D01*
X194301128Y-70175552D01*
X194247597Y-70340302D01*
X194239338Y-70392448D01*
X194220500Y-70511389D01*
X185801624Y-70511389D01*
X185682683Y-70392448D01*
X185649198Y-70331125D01*
X185654182Y-70261433D01*
X185696054Y-70205500D01*
X185701227Y-70201839D01*
X185701283Y-70201792D01*
X185701289Y-70201789D01*
X185812789Y-70090289D01*
X185900394Y-69959179D01*
X185960737Y-69813497D01*
X185991500Y-69658842D01*
X185991500Y-69501158D01*
X185991500Y-69501155D01*
X185991499Y-69501153D01*
X185960738Y-69346510D01*
X185960737Y-69346503D01*
X185960735Y-69346498D01*
X185900397Y-69200827D01*
X185900390Y-69200814D01*
X185812789Y-69069711D01*
X185812786Y-69069707D01*
X185737819Y-68994740D01*
X185704334Y-68933417D01*
X185701500Y-68907059D01*
X185701500Y-66865718D01*
X185721185Y-66798679D01*
X185769207Y-66755233D01*
X185808815Y-66735052D01*
X185808815Y-66735051D01*
X185808816Y-66735051D01*
X185900193Y-66668661D01*
X185980786Y-66610109D01*
X185980788Y-66610106D01*
X185980792Y-66610104D01*
X186131104Y-66459792D01*
X186131106Y-66459788D01*
X186131109Y-66459786D01*
X186256048Y-66287820D01*
X186256047Y-66287820D01*
X186256051Y-66287816D01*
X186260514Y-66279054D01*
X186308488Y-66228259D01*
X186376308Y-66211463D01*
X186442444Y-66233999D01*
X186481486Y-66279056D01*
X186485951Y-66287820D01*
X186610890Y-66459786D01*
X186761213Y-66610109D01*
X186933179Y-66735048D01*
X186933181Y-66735049D01*
X186933184Y-66735051D01*
X187122588Y-66831557D01*
X187324757Y-66897246D01*
X187534713Y-66930500D01*
X187534714Y-66930500D01*
X187747286Y-66930500D01*
X187747287Y-66930500D01*
X187957243Y-66897246D01*
X188159412Y-66831557D01*
X188348816Y-66735051D01*
X188435471Y-66672093D01*
X188520786Y-66610109D01*
X188520788Y-66610106D01*
X188520792Y-66610104D01*
X188671104Y-66459792D01*
X188671106Y-66459788D01*
X188671109Y-66459786D01*
X188796048Y-66287820D01*
X188796051Y-66287816D01*
X188800793Y-66278508D01*
X188848763Y-66227711D01*
X188916583Y-66210911D01*
X188982719Y-66233445D01*
X189021763Y-66278500D01*
X189026377Y-66287555D01*
X189151272Y-66459459D01*
X189151276Y-66459464D01*
X189301535Y-66609723D01*
X189301540Y-66609727D01*
X189473442Y-66734620D01*
X189662782Y-66831095D01*
X189864871Y-66896757D01*
X189931000Y-66907231D01*
X189931000Y-66013012D01*
X189988007Y-66045925D01*
X190115174Y-66080000D01*
X190246826Y-66080000D01*
X190373993Y-66045925D01*
X190431000Y-66013012D01*
X190431000Y-66907230D01*
X190497126Y-66896757D01*
X190497129Y-66896757D01*
X190699217Y-66831095D01*
X190888557Y-66734620D01*
X191060459Y-66609727D01*
X191060464Y-66609723D01*
X191210723Y-66459464D01*
X191210727Y-66459459D01*
X191335620Y-66287557D01*
X191432095Y-66098217D01*
X191497757Y-65896129D01*
X191497757Y-65896126D01*
X191508231Y-65830000D01*
X190614012Y-65830000D01*
X190646925Y-65772993D01*
X190681000Y-65645826D01*
X190681000Y-65514174D01*
X190646925Y-65387007D01*
X190614012Y-65330000D01*
X191508231Y-65330000D01*
X191497757Y-65263873D01*
X191497757Y-65263870D01*
X191474346Y-65191818D01*
X191472351Y-65121977D01*
X191508431Y-65062144D01*
X191571132Y-65031316D01*
X191592277Y-65029500D01*
X199839846Y-65029500D01*
X199906885Y-65049185D01*
G37*
G04 #@! TD.AperFunction*
G04 #@! TA.AperFunction,Conductor*
G36*
X157645522Y-66913757D02*
G01*
X170496139Y-79764374D01*
X170496149Y-79764385D01*
X170500479Y-79768715D01*
X170500480Y-79768716D01*
X170612284Y-79880520D01*
X170612286Y-79880521D01*
X170612290Y-79880524D01*
X170749209Y-79959573D01*
X170749216Y-79959577D01*
X170861019Y-79989534D01*
X170901942Y-80000500D01*
X170901943Y-80000500D01*
X199730903Y-80000500D01*
X199760343Y-80009144D01*
X199790330Y-80015668D01*
X199795345Y-80019422D01*
X199797942Y-80020185D01*
X199818584Y-80036819D01*
X199829527Y-80047762D01*
X199863012Y-80109085D01*
X199858028Y-80178777D01*
X199816156Y-80234710D01*
X199750692Y-80259127D01*
X199741846Y-80259443D01*
X170201041Y-80259443D01*
X170134002Y-80239758D01*
X170113360Y-80223124D01*
X163703725Y-73813489D01*
X157032415Y-67142180D01*
X156998931Y-67080858D01*
X157003915Y-67011166D01*
X157045787Y-66955233D01*
X157111251Y-66930816D01*
X157120097Y-66930500D01*
X157267286Y-66930500D01*
X157267287Y-66930500D01*
X157477243Y-66897246D01*
X157519523Y-66883507D01*
X157589362Y-66881511D01*
X157645522Y-66913757D01*
G37*
G04 #@! TD.AperFunction*
G04 #@! TA.AperFunction,Conductor*
G36*
X170111000Y-66907230D02*
G01*
X170177126Y-66896757D01*
X170177129Y-66896757D01*
X170379217Y-66831095D01*
X170568557Y-66734620D01*
X170740459Y-66609727D01*
X170740464Y-66609723D01*
X170890723Y-66459464D01*
X170890727Y-66459459D01*
X171015620Y-66287558D01*
X171020232Y-66278507D01*
X171068205Y-66227709D01*
X171136025Y-66210912D01*
X171202161Y-66233447D01*
X171241204Y-66278504D01*
X171245949Y-66287817D01*
X171370890Y-66459786D01*
X171521213Y-66610109D01*
X171693179Y-66735048D01*
X171693181Y-66735049D01*
X171693184Y-66735051D01*
X171882588Y-66831557D01*
X172084757Y-66897246D01*
X172294713Y-66930500D01*
X172294714Y-66930500D01*
X172507286Y-66930500D01*
X172507287Y-66930500D01*
X172717243Y-66897246D01*
X172919412Y-66831557D01*
X173108816Y-66735051D01*
X173195471Y-66672093D01*
X173280786Y-66610109D01*
X173280788Y-66610106D01*
X173280792Y-66610104D01*
X173431104Y-66459792D01*
X173431106Y-66459788D01*
X173431109Y-66459786D01*
X173556048Y-66287820D01*
X173556047Y-66287820D01*
X173556051Y-66287816D01*
X173560514Y-66279054D01*
X173608488Y-66228259D01*
X173676308Y-66211463D01*
X173742444Y-66233999D01*
X173781486Y-66279056D01*
X173785951Y-66287820D01*
X173910890Y-66459786D01*
X174061213Y-66610109D01*
X174233179Y-66735048D01*
X174233181Y-66735049D01*
X174233184Y-66735051D01*
X174422588Y-66831557D01*
X174624757Y-66897246D01*
X174834713Y-66930500D01*
X174834714Y-66930500D01*
X175047286Y-66930500D01*
X175047287Y-66930500D01*
X175257243Y-66897246D01*
X175299523Y-66883507D01*
X175369362Y-66881511D01*
X175425522Y-66913757D01*
X185779584Y-77267819D01*
X185813069Y-77329142D01*
X185808085Y-77398834D01*
X185766213Y-77454767D01*
X185700749Y-77479184D01*
X185691903Y-77479500D01*
X180121098Y-77479500D01*
X180054059Y-77459815D01*
X180033417Y-77443181D01*
X169644618Y-67054383D01*
X169611133Y-66993060D01*
X169613183Y-66964396D01*
X169611000Y-66964396D01*
X169611000Y-66013012D01*
X169668007Y-66045925D01*
X169795174Y-66080000D01*
X169926826Y-66080000D01*
X170053993Y-66045925D01*
X170111000Y-66013012D01*
X170111000Y-66907230D01*
G37*
G04 #@! TD.AperFunction*
G04 #@! TA.AperFunction,Conductor*
G36*
X220625539Y-63108185D02*
G01*
X220671294Y-63160989D01*
X220682500Y-63212500D01*
X220682500Y-111947500D01*
X220662815Y-112014539D01*
X220610011Y-112060294D01*
X220558500Y-112071500D01*
X211559083Y-112071500D01*
X211492044Y-112051815D01*
X211446289Y-111999011D01*
X211436345Y-111929853D01*
X211458766Y-111874614D01*
X211502229Y-111814792D01*
X211502228Y-111814792D01*
X211502232Y-111814788D01*
X211580873Y-111660445D01*
X211634402Y-111495701D01*
X211661500Y-111324611D01*
X211661500Y-111151389D01*
X211634402Y-110980299D01*
X211580873Y-110815555D01*
X211502232Y-110661212D01*
X211400414Y-110521072D01*
X211277928Y-110398586D01*
X211137788Y-110296768D01*
X210983445Y-110218127D01*
X210818701Y-110164598D01*
X210818699Y-110164597D01*
X210818698Y-110164597D01*
X210687271Y-110143781D01*
X210647611Y-110137500D01*
X210474389Y-110137500D01*
X210434728Y-110143781D01*
X210303302Y-110164597D01*
X210138552Y-110218128D01*
X209984211Y-110296768D01*
X209904256Y-110354859D01*
X209844072Y-110398586D01*
X209844070Y-110398588D01*
X209844069Y-110398588D01*
X209721588Y-110521069D01*
X209721588Y-110521070D01*
X209721586Y-110521072D01*
X209677859Y-110581256D01*
X209619768Y-110661211D01*
X209541128Y-110815552D01*
X209487597Y-110980302D01*
X209460500Y-111151389D01*
X209460500Y-111324610D01*
X209487597Y-111495697D01*
X209541128Y-111660447D01*
X209619770Y-111814792D01*
X209663234Y-111874614D01*
X209686715Y-111940420D01*
X209670890Y-112008474D01*
X209620785Y-112057169D01*
X209562917Y-112071500D01*
X196319083Y-112071500D01*
X196252044Y-112051815D01*
X196206289Y-111999011D01*
X196196345Y-111929853D01*
X196218766Y-111874614D01*
X196262229Y-111814792D01*
X196262228Y-111814792D01*
X196262232Y-111814788D01*
X196340873Y-111660445D01*
X196394402Y-111495701D01*
X196421500Y-111324611D01*
X196421500Y-111151389D01*
X196394402Y-110980299D01*
X196340873Y-110815555D01*
X196262232Y-110661212D01*
X196160414Y-110521072D01*
X196037928Y-110398586D01*
X195897788Y-110296768D01*
X195743445Y-110218127D01*
X195578701Y-110164598D01*
X195578699Y-110164597D01*
X195578698Y-110164597D01*
X195447271Y-110143781D01*
X195407611Y-110137500D01*
X195234389Y-110137500D01*
X195194728Y-110143781D01*
X195063302Y-110164597D01*
X194898552Y-110218128D01*
X194744211Y-110296768D01*
X194664256Y-110354859D01*
X194604072Y-110398586D01*
X194604070Y-110398588D01*
X194604069Y-110398588D01*
X194481588Y-110521069D01*
X194481588Y-110521070D01*
X194481586Y-110521072D01*
X194437859Y-110581256D01*
X194379768Y-110661211D01*
X194301128Y-110815552D01*
X194247597Y-110980302D01*
X194220500Y-111151389D01*
X194220500Y-111324610D01*
X194247597Y-111495697D01*
X194301128Y-111660447D01*
X194379770Y-111814792D01*
X194423234Y-111874614D01*
X194446715Y-111940420D01*
X194430890Y-112008474D01*
X194380785Y-112057169D01*
X194322917Y-112071500D01*
X141823500Y-112071500D01*
X141756461Y-112051815D01*
X141710706Y-111999011D01*
X141699500Y-111947500D01*
X141699500Y-109965837D01*
X142240500Y-109965837D01*
X142240500Y-110194162D01*
X142276215Y-110419660D01*
X142346770Y-110636803D01*
X142450421Y-110840228D01*
X142584621Y-111024937D01*
X142746063Y-111186379D01*
X142930772Y-111320579D01*
X143026884Y-111369550D01*
X143134196Y-111424229D01*
X143134198Y-111424229D01*
X143134201Y-111424231D01*
X143250592Y-111462049D01*
X143351339Y-111494784D01*
X143576838Y-111530500D01*
X143576843Y-111530500D01*
X143805162Y-111530500D01*
X144030660Y-111494784D01*
X144247799Y-111424231D01*
X144451228Y-111320579D01*
X144635937Y-111186379D01*
X144797379Y-111024937D01*
X144931579Y-110840228D01*
X145035231Y-110636799D01*
X145105784Y-110419660D01*
X145141500Y-110194162D01*
X145141500Y-109965837D01*
X217240500Y-109965837D01*
X217240500Y-110194162D01*
X217276215Y-110419660D01*
X217346770Y-110636803D01*
X217450421Y-110840228D01*
X217584621Y-111024937D01*
X217746063Y-111186379D01*
X217930772Y-111320579D01*
X218026884Y-111369550D01*
X218134196Y-111424229D01*
X218134198Y-111424229D01*
X218134201Y-111424231D01*
X218250592Y-111462049D01*
X218351339Y-111494784D01*
X218576838Y-111530500D01*
X218576843Y-111530500D01*
X218805162Y-111530500D01*
X219030660Y-111494784D01*
X219247799Y-111424231D01*
X219451228Y-111320579D01*
X219635937Y-111186379D01*
X219797379Y-111024937D01*
X219931579Y-110840228D01*
X220035231Y-110636799D01*
X220105784Y-110419660D01*
X220141500Y-110194162D01*
X220141500Y-109965837D01*
X220105784Y-109740339D01*
X220035229Y-109523196D01*
X219976226Y-109407397D01*
X219931579Y-109319772D01*
X219797379Y-109135063D01*
X219635937Y-108973621D01*
X219451228Y-108839421D01*
X219369509Y-108797783D01*
X219247803Y-108735770D01*
X219030660Y-108665215D01*
X218805162Y-108629500D01*
X218805157Y-108629500D01*
X218576843Y-108629500D01*
X218576838Y-108629500D01*
X218351339Y-108665215D01*
X218134196Y-108735770D01*
X217930771Y-108839421D01*
X217746061Y-108973622D01*
X217584622Y-109135061D01*
X217450421Y-109319771D01*
X217346770Y-109523196D01*
X217276215Y-109740339D01*
X217240500Y-109965837D01*
X145141500Y-109965837D01*
X145105784Y-109740339D01*
X145035229Y-109523196D01*
X144976226Y-109407397D01*
X144931579Y-109319772D01*
X144797379Y-109135063D01*
X144635937Y-108973621D01*
X144451228Y-108839421D01*
X144369509Y-108797783D01*
X144247803Y-108735770D01*
X144030660Y-108665215D01*
X143815334Y-108631111D01*
X143805162Y-108629500D01*
X143805157Y-108629500D01*
X143576843Y-108629500D01*
X143576838Y-108629500D01*
X143351339Y-108665215D01*
X143134196Y-108735770D01*
X142930771Y-108839421D01*
X142746061Y-108973622D01*
X142584622Y-109135061D01*
X142450421Y-109319771D01*
X142346770Y-109523196D01*
X142276215Y-109740339D01*
X142240500Y-109965837D01*
X141699500Y-109965837D01*
X141699500Y-103131577D01*
X150090500Y-103131577D01*
X150090500Y-103328422D01*
X150121290Y-103522826D01*
X150182117Y-103710029D01*
X150248488Y-103840288D01*
X150271476Y-103885405D01*
X150387172Y-104044646D01*
X150526354Y-104183828D01*
X150685595Y-104299524D01*
X150777797Y-104346503D01*
X150862213Y-104389515D01*
X150913009Y-104437489D01*
X150929804Y-104505310D01*
X150907267Y-104571445D01*
X150862213Y-104610485D01*
X150685594Y-104700476D01*
X150652201Y-104724738D01*
X150526354Y-104816172D01*
X150526352Y-104816174D01*
X150526351Y-104816174D01*
X150387174Y-104955351D01*
X150387174Y-104955352D01*
X150387172Y-104955354D01*
X150384393Y-104959179D01*
X150271476Y-105114594D01*
X150182117Y-105289970D01*
X150121290Y-105477173D01*
X150090500Y-105671577D01*
X150090500Y-105868422D01*
X150121290Y-106062826D01*
X150182117Y-106250029D01*
X150257176Y-106397339D01*
X150271476Y-106425405D01*
X150387172Y-106584646D01*
X150526354Y-106723828D01*
X150685595Y-106839524D01*
X150775043Y-106885100D01*
X150785671Y-106890515D01*
X150836467Y-106938489D01*
X150853262Y-107006310D01*
X150830725Y-107072445D01*
X150776010Y-107115897D01*
X150729376Y-107125000D01*
X150608155Y-107125000D01*
X150548627Y-107131401D01*
X150548620Y-107131403D01*
X150413913Y-107181645D01*
X150413906Y-107181649D01*
X150298812Y-107267809D01*
X150298809Y-107267812D01*
X150212649Y-107382906D01*
X150212645Y-107382913D01*
X150162403Y-107517620D01*
X150162401Y-107517627D01*
X150156000Y-107577155D01*
X150156000Y-108060000D01*
X150896440Y-108060000D01*
X150865755Y-108113147D01*
X150831000Y-108242857D01*
X150831000Y-108377143D01*
X150865755Y-108506853D01*
X150896440Y-108560000D01*
X150156000Y-108560000D01*
X150156000Y-109042844D01*
X150162401Y-109102372D01*
X150162403Y-109102379D01*
X150212645Y-109237086D01*
X150212649Y-109237093D01*
X150298809Y-109352187D01*
X150298812Y-109352190D01*
X150413906Y-109438350D01*
X150413913Y-109438354D01*
X150548620Y-109488596D01*
X150548627Y-109488598D01*
X150608155Y-109494999D01*
X150608172Y-109495000D01*
X151091000Y-109495000D01*
X151091000Y-108754560D01*
X151144147Y-108785245D01*
X151273857Y-108820000D01*
X151408143Y-108820000D01*
X151537853Y-108785245D01*
X151591000Y-108754560D01*
X151591000Y-109495000D01*
X152073828Y-109495000D01*
X152073844Y-109494999D01*
X152133372Y-109488598D01*
X152133379Y-109488596D01*
X152268086Y-109438354D01*
X152268093Y-109438350D01*
X152383187Y-109352190D01*
X152469351Y-109237091D01*
X152469354Y-109237086D01*
X152519596Y-109102379D01*
X152519598Y-109102372D01*
X152525999Y-109042844D01*
X152526000Y-109042827D01*
X152526000Y-108920521D01*
X152545685Y-108853482D01*
X152598489Y-108807727D01*
X152667647Y-108797783D01*
X152731203Y-108826808D01*
X152760485Y-108864226D01*
X152811905Y-108965145D01*
X152837319Y-109000125D01*
X152837320Y-109000125D01*
X153389871Y-108447574D01*
X153405755Y-108506853D01*
X153472898Y-108623147D01*
X153567853Y-108718102D01*
X153684147Y-108785245D01*
X153743424Y-108801128D01*
X153190873Y-109353677D01*
X153190873Y-109353678D01*
X153225858Y-109379096D01*
X153401164Y-109468418D01*
X153588294Y-109529221D01*
X153782618Y-109560000D01*
X153979382Y-109560000D01*
X154173705Y-109529221D01*
X154360835Y-109468418D01*
X154536143Y-109379095D01*
X154571125Y-109353678D01*
X154571126Y-109353678D01*
X154018575Y-108801127D01*
X154077853Y-108785245D01*
X154194147Y-108718102D01*
X154289102Y-108623147D01*
X154356245Y-108506853D01*
X154372127Y-108447575D01*
X154924678Y-109000126D01*
X154924678Y-109000125D01*
X154950097Y-108965141D01*
X155040515Y-108787685D01*
X155088489Y-108736888D01*
X155156310Y-108720093D01*
X155222445Y-108742630D01*
X155261485Y-108787684D01*
X155351905Y-108965145D01*
X155377319Y-109000125D01*
X155377320Y-109000125D01*
X155929871Y-108447574D01*
X155945755Y-108506853D01*
X156012898Y-108623147D01*
X156107853Y-108718102D01*
X156224147Y-108785245D01*
X156283424Y-108801128D01*
X155730873Y-109353677D01*
X155730873Y-109353678D01*
X155765858Y-109379096D01*
X155941164Y-109468418D01*
X156128294Y-109529221D01*
X156322618Y-109560000D01*
X156519382Y-109560000D01*
X156713705Y-109529221D01*
X156900835Y-109468418D01*
X157076143Y-109379095D01*
X157111125Y-109353678D01*
X157111126Y-109353678D01*
X156558575Y-108801127D01*
X156617853Y-108785245D01*
X156734147Y-108718102D01*
X156829102Y-108623147D01*
X156896245Y-108506853D01*
X156912127Y-108447575D01*
X157464678Y-109000126D01*
X157464678Y-109000125D01*
X157490097Y-108965141D01*
X157580515Y-108787685D01*
X157628489Y-108736888D01*
X157696310Y-108720093D01*
X157762445Y-108742630D01*
X157801485Y-108787684D01*
X157891905Y-108965145D01*
X157917319Y-109000125D01*
X157917320Y-109000125D01*
X158469871Y-108447574D01*
X158485755Y-108506853D01*
X158552898Y-108623147D01*
X158647853Y-108718102D01*
X158764147Y-108785245D01*
X158823424Y-108801128D01*
X158270873Y-109353677D01*
X158270873Y-109353678D01*
X158305858Y-109379096D01*
X158481164Y-109468418D01*
X158668294Y-109529221D01*
X158862618Y-109560000D01*
X159059382Y-109560000D01*
X159253705Y-109529221D01*
X159440835Y-109468418D01*
X159616143Y-109379095D01*
X159651125Y-109353678D01*
X159651126Y-109353678D01*
X159098575Y-108801127D01*
X159157853Y-108785245D01*
X159274147Y-108718102D01*
X159369102Y-108623147D01*
X159436245Y-108506853D01*
X159452127Y-108447575D01*
X160004678Y-109000126D01*
X160004678Y-109000125D01*
X160030097Y-108965141D01*
X160120515Y-108787685D01*
X160168489Y-108736888D01*
X160236310Y-108720093D01*
X160302445Y-108742630D01*
X160341485Y-108787684D01*
X160431905Y-108965145D01*
X160457319Y-109000125D01*
X160457320Y-109000125D01*
X161009871Y-108447574D01*
X161025755Y-108506853D01*
X161092898Y-108623147D01*
X161187853Y-108718102D01*
X161304147Y-108785245D01*
X161363424Y-108801128D01*
X160810873Y-109353677D01*
X160810873Y-109353678D01*
X160845858Y-109379096D01*
X161021164Y-109468418D01*
X161208294Y-109529221D01*
X161402618Y-109560000D01*
X161599382Y-109560000D01*
X161793705Y-109529221D01*
X161980835Y-109468418D01*
X162156143Y-109379095D01*
X162191125Y-109353678D01*
X162191126Y-109353678D01*
X161638575Y-108801127D01*
X161697853Y-108785245D01*
X161814147Y-108718102D01*
X161909102Y-108623147D01*
X161976245Y-108506853D01*
X161992128Y-108447575D01*
X162544678Y-109000126D01*
X162544678Y-109000125D01*
X162570097Y-108965141D01*
X162660515Y-108787685D01*
X162708489Y-108736888D01*
X162776310Y-108720093D01*
X162842445Y-108742630D01*
X162881485Y-108787684D01*
X162971905Y-108965145D01*
X162997319Y-109000125D01*
X162997320Y-109000125D01*
X163549871Y-108447574D01*
X163565755Y-108506853D01*
X163632898Y-108623147D01*
X163727853Y-108718102D01*
X163844147Y-108785245D01*
X163903424Y-108801128D01*
X163350873Y-109353677D01*
X163350873Y-109353678D01*
X163385858Y-109379096D01*
X163561164Y-109468418D01*
X163748294Y-109529221D01*
X163942618Y-109560000D01*
X164139382Y-109560000D01*
X164333705Y-109529221D01*
X164520835Y-109468418D01*
X164696143Y-109379095D01*
X164731125Y-109353678D01*
X164731126Y-109353678D01*
X164178575Y-108801127D01*
X164237853Y-108785245D01*
X164354147Y-108718102D01*
X164449102Y-108623147D01*
X164516245Y-108506853D01*
X164532127Y-108447575D01*
X165084678Y-109000126D01*
X165084678Y-109000125D01*
X165110095Y-108965143D01*
X165199418Y-108789835D01*
X165260221Y-108602705D01*
X165291000Y-108408382D01*
X165291000Y-108211617D01*
X165260221Y-108017294D01*
X165199418Y-107830164D01*
X165110096Y-107654858D01*
X165084678Y-107619873D01*
X165084677Y-107619873D01*
X164532127Y-108172423D01*
X164516245Y-108113147D01*
X164449102Y-107996853D01*
X164354147Y-107901898D01*
X164237853Y-107834755D01*
X164178574Y-107818871D01*
X164731125Y-107266320D01*
X164731125Y-107266319D01*
X164696145Y-107240905D01*
X164519235Y-107150765D01*
X164468439Y-107102790D01*
X164451644Y-107034969D01*
X164474182Y-106968834D01*
X164519236Y-106929795D01*
X164521022Y-106928884D01*
X164521025Y-106928884D01*
X164696405Y-106839524D01*
X164855646Y-106723828D01*
X164994828Y-106584646D01*
X165110524Y-106425405D01*
X165199884Y-106250025D01*
X165260709Y-106062826D01*
X165277278Y-105958213D01*
X165291500Y-105868422D01*
X165291500Y-105671577D01*
X165260709Y-105477173D01*
X165230988Y-105385703D01*
X165199884Y-105289975D01*
X165199882Y-105289972D01*
X165199882Y-105289970D01*
X165113588Y-105120609D01*
X165110524Y-105114595D01*
X164994828Y-104955354D01*
X164855646Y-104816172D01*
X164729799Y-104724738D01*
X164696403Y-104700474D01*
X164519787Y-104610485D01*
X164468990Y-104562511D01*
X164452195Y-104494690D01*
X164474732Y-104428555D01*
X164519787Y-104389515D01*
X164696403Y-104299525D01*
X164696402Y-104299525D01*
X164696405Y-104299524D01*
X164855646Y-104183828D01*
X164994828Y-104044646D01*
X165110524Y-103885405D01*
X165199884Y-103710025D01*
X165260709Y-103522826D01*
X165272426Y-103448846D01*
X165291500Y-103328422D01*
X165291500Y-103251153D01*
X171390500Y-103251153D01*
X171390500Y-103408846D01*
X171421261Y-103563489D01*
X171421264Y-103563501D01*
X171481602Y-103709172D01*
X171481609Y-103709185D01*
X171569210Y-103840288D01*
X171569213Y-103840292D01*
X171680707Y-103951786D01*
X171680711Y-103951789D01*
X171811814Y-104039390D01*
X171811827Y-104039397D01*
X171957498Y-104099735D01*
X171957503Y-104099737D01*
X172112153Y-104130499D01*
X172112156Y-104130500D01*
X172112158Y-104130500D01*
X172269844Y-104130500D01*
X172269845Y-104130499D01*
X172424497Y-104099737D01*
X172557497Y-104044647D01*
X172570172Y-104039397D01*
X172570172Y-104039396D01*
X172570179Y-104039394D01*
X172641425Y-103991789D01*
X172701875Y-103951398D01*
X172768553Y-103930520D01*
X172770766Y-103930500D01*
X174361234Y-103930500D01*
X174428273Y-103950185D01*
X174430125Y-103951398D01*
X174561814Y-104039390D01*
X174561827Y-104039397D01*
X174707498Y-104099735D01*
X174707503Y-104099737D01*
X174862153Y-104130499D01*
X174862156Y-104130500D01*
X174862158Y-104130500D01*
X175019844Y-104130500D01*
X175019845Y-104130499D01*
X175174497Y-104099737D01*
X175307497Y-104044647D01*
X175320172Y-104039397D01*
X175320172Y-104039396D01*
X175320179Y-104039394D01*
X175451289Y-103951789D01*
X175562789Y-103840289D01*
X175650394Y-103709179D01*
X175654349Y-103699632D01*
X175672851Y-103654963D01*
X175710737Y-103563497D01*
X175741500Y-103408842D01*
X175741500Y-103251158D01*
X175741500Y-103251155D01*
X175741499Y-103251153D01*
X175717715Y-103131583D01*
X175710737Y-103096503D01*
X175654305Y-102960262D01*
X175650397Y-102950827D01*
X175650390Y-102950814D01*
X175562789Y-102819711D01*
X175562786Y-102819707D01*
X175451292Y-102708213D01*
X175451288Y-102708210D01*
X175320185Y-102620609D01*
X175320172Y-102620602D01*
X175174501Y-102560264D01*
X175174489Y-102560261D01*
X175019845Y-102529500D01*
X175019842Y-102529500D01*
X174862158Y-102529500D01*
X174862155Y-102529500D01*
X174707510Y-102560261D01*
X174707498Y-102560264D01*
X174561827Y-102620602D01*
X174561814Y-102620609D01*
X174430125Y-102708602D01*
X174363447Y-102729480D01*
X174361234Y-102729500D01*
X172770766Y-102729500D01*
X172703727Y-102709815D01*
X172701875Y-102708602D01*
X172570185Y-102620609D01*
X172570172Y-102620602D01*
X172424501Y-102560264D01*
X172424489Y-102560261D01*
X172269845Y-102529500D01*
X172269842Y-102529500D01*
X172112158Y-102529500D01*
X172112155Y-102529500D01*
X171957510Y-102560261D01*
X171957498Y-102560264D01*
X171811827Y-102620602D01*
X171811814Y-102620609D01*
X171680711Y-102708210D01*
X171680707Y-102708213D01*
X171569213Y-102819707D01*
X171569210Y-102819711D01*
X171481609Y-102950814D01*
X171481602Y-102950827D01*
X171421264Y-103096498D01*
X171421261Y-103096510D01*
X171390500Y-103251153D01*
X165291500Y-103251153D01*
X165291500Y-103131577D01*
X165260709Y-102937173D01*
X165232487Y-102850317D01*
X165199884Y-102749975D01*
X165199882Y-102749972D01*
X165199882Y-102749970D01*
X165133969Y-102620609D01*
X165110524Y-102574595D01*
X164994828Y-102415354D01*
X164855646Y-102276172D01*
X164696405Y-102160476D01*
X164665684Y-102144823D01*
X164521029Y-102071117D01*
X164333826Y-102010290D01*
X164139422Y-101979500D01*
X164139417Y-101979500D01*
X163942583Y-101979500D01*
X163942581Y-101979500D01*
X163913333Y-101984132D01*
X163844040Y-101975176D01*
X163790588Y-101930178D01*
X163769950Y-101863427D01*
X163788676Y-101796113D01*
X163806251Y-101773982D01*
X165079081Y-100501153D01*
X168390500Y-100501153D01*
X168390500Y-100658846D01*
X168421261Y-100813489D01*
X168421264Y-100813501D01*
X168481602Y-100959172D01*
X168481609Y-100959185D01*
X168569210Y-101090288D01*
X168569213Y-101090292D01*
X168680707Y-101201786D01*
X168680711Y-101201789D01*
X168811814Y-101289390D01*
X168811827Y-101289397D01*
X168957498Y-101349735D01*
X168957503Y-101349737D01*
X169112153Y-101380499D01*
X169112156Y-101380500D01*
X169112158Y-101380500D01*
X172269844Y-101380500D01*
X172269845Y-101380499D01*
X172424497Y-101349737D01*
X172570179Y-101289394D01*
X172701289Y-101201789D01*
X172812789Y-101090289D01*
X172900394Y-100959179D01*
X172960737Y-100813497D01*
X172991500Y-100658842D01*
X172991500Y-100501158D01*
X172991500Y-100501155D01*
X172991499Y-100501153D01*
X172960738Y-100346510D01*
X172960737Y-100346503D01*
X172924142Y-100258154D01*
X172900397Y-100200827D01*
X172900390Y-100200814D01*
X172812789Y-100069711D01*
X172812786Y-100069707D01*
X172701292Y-99958213D01*
X172701288Y-99958210D01*
X172570185Y-99870609D01*
X172570172Y-99870602D01*
X172424501Y-99810264D01*
X172424489Y-99810261D01*
X172269845Y-99779500D01*
X172269842Y-99779500D01*
X169112158Y-99779500D01*
X169112155Y-99779500D01*
X168957510Y-99810261D01*
X168957498Y-99810264D01*
X168811827Y-99870602D01*
X168811814Y-99870609D01*
X168680711Y-99958210D01*
X168680707Y-99958213D01*
X168569213Y-100069707D01*
X168569210Y-100069711D01*
X168481609Y-100200814D01*
X168481602Y-100200827D01*
X168421264Y-100346498D01*
X168421261Y-100346510D01*
X168390500Y-100501153D01*
X165079081Y-100501153D01*
X166363416Y-99216819D01*
X166424739Y-99183334D01*
X166451097Y-99180500D01*
X189111234Y-99180500D01*
X189127013Y-99184789D01*
X189141347Y-99184212D01*
X189167463Y-99195786D01*
X189174016Y-99197568D01*
X189180008Y-99201086D01*
X189180711Y-99201789D01*
X189311821Y-99289394D01*
X189374963Y-99315548D01*
X189382360Y-99319891D01*
X189400644Y-99339349D01*
X189421433Y-99356102D01*
X189424201Y-99364420D01*
X189430205Y-99370809D01*
X189435066Y-99397061D01*
X189443499Y-99422396D01*
X189441330Y-99430890D01*
X189442927Y-99439510D01*
X189432824Y-99464221D01*
X189426221Y-99490095D01*
X189417832Y-99500893D01*
X189416487Y-99504184D01*
X189413827Y-99506048D01*
X189407259Y-99514504D01*
X188978584Y-99943181D01*
X188917261Y-99976666D01*
X188890903Y-99979500D01*
X188770766Y-99979500D01*
X188703727Y-99959815D01*
X188701875Y-99958602D01*
X188570185Y-99870609D01*
X188570172Y-99870602D01*
X188424501Y-99810264D01*
X188424489Y-99810261D01*
X188269845Y-99779500D01*
X188269842Y-99779500D01*
X188112158Y-99779500D01*
X188112155Y-99779500D01*
X187957510Y-99810261D01*
X187957498Y-99810264D01*
X187811827Y-99870602D01*
X187811814Y-99870609D01*
X187680711Y-99958210D01*
X187680707Y-99958213D01*
X187569213Y-100069707D01*
X187533072Y-100123796D01*
X187479459Y-100168600D01*
X187410134Y-100177307D01*
X187347107Y-100147152D01*
X187342289Y-100142585D01*
X186958917Y-99759212D01*
X186958914Y-99759210D01*
X186827811Y-99671609D01*
X186827798Y-99671602D01*
X186682127Y-99611264D01*
X186682115Y-99611261D01*
X186527471Y-99580500D01*
X186527468Y-99580500D01*
X181468842Y-99580500D01*
X181311157Y-99580500D01*
X181311154Y-99580500D01*
X181156509Y-99611261D01*
X181156497Y-99611264D01*
X181113832Y-99628936D01*
X181113833Y-99628937D01*
X181010823Y-99671604D01*
X181010814Y-99671609D01*
X180879712Y-99759209D01*
X180879710Y-99759212D01*
X174613570Y-106025350D01*
X174552247Y-106058835D01*
X174506491Y-106060142D01*
X174356610Y-106036403D01*
X174313027Y-106029500D01*
X174068973Y-106029500D01*
X174025390Y-106036403D01*
X173827927Y-106067678D01*
X173595812Y-106143097D01*
X173378357Y-106253896D01*
X173180923Y-106397339D01*
X173180918Y-106397343D01*
X173008343Y-106569918D01*
X173008339Y-106569923D01*
X172864896Y-106767357D01*
X172754097Y-106984812D01*
X172678678Y-107216927D01*
X172651202Y-107390402D01*
X172640500Y-107457973D01*
X172640500Y-107702027D01*
X172649013Y-107755772D01*
X172676332Y-107928263D01*
X172678679Y-107943076D01*
X172754096Y-108175185D01*
X172859722Y-108382489D01*
X172864896Y-108392642D01*
X173008339Y-108590076D01*
X173008343Y-108590081D01*
X173180918Y-108762656D01*
X173180923Y-108762660D01*
X173305930Y-108853482D01*
X173378361Y-108906106D01*
X173595815Y-109016904D01*
X173827924Y-109092321D01*
X174068973Y-109130500D01*
X174068974Y-109130500D01*
X174313026Y-109130500D01*
X174313027Y-109130500D01*
X174554076Y-109092321D01*
X174786185Y-109016904D01*
X175003639Y-108906106D01*
X175201083Y-108762655D01*
X175373655Y-108590083D01*
X175517106Y-108392639D01*
X175627904Y-108175185D01*
X175703321Y-107943076D01*
X175741500Y-107702027D01*
X175741500Y-107457973D01*
X175710857Y-107264504D01*
X175719811Y-107195213D01*
X175745646Y-107157430D01*
X176420921Y-106482155D01*
X177641000Y-106482155D01*
X177641000Y-107330000D01*
X178590999Y-107330000D01*
X178565979Y-107390402D01*
X178541000Y-107515981D01*
X178541000Y-107644019D01*
X178565979Y-107769598D01*
X178590999Y-107830000D01*
X177641000Y-107830000D01*
X177641000Y-108677844D01*
X177647401Y-108737372D01*
X177647403Y-108737379D01*
X177697645Y-108872086D01*
X177697649Y-108872093D01*
X177783809Y-108987187D01*
X177783812Y-108987190D01*
X177898906Y-109073350D01*
X177898913Y-109073354D01*
X178033620Y-109123596D01*
X178033627Y-109123598D01*
X178093155Y-109129999D01*
X178093172Y-109130000D01*
X178941000Y-109130000D01*
X178941000Y-108180001D01*
X179001402Y-108205021D01*
X179126981Y-108230000D01*
X179255019Y-108230000D01*
X179380598Y-108205021D01*
X179441000Y-108180001D01*
X179441000Y-109130000D01*
X180288828Y-109130000D01*
X180288844Y-109129999D01*
X180348372Y-109123598D01*
X180348379Y-109123596D01*
X180483086Y-109073354D01*
X180483093Y-109073350D01*
X180598187Y-108987190D01*
X180598190Y-108987187D01*
X180684350Y-108872093D01*
X180684354Y-108872086D01*
X180729459Y-108751153D01*
X189890500Y-108751153D01*
X189890500Y-108908846D01*
X189921261Y-109063489D01*
X189921264Y-109063501D01*
X189981602Y-109209172D01*
X189981609Y-109209185D01*
X190069210Y-109340288D01*
X190069213Y-109340292D01*
X190180707Y-109451786D01*
X190180711Y-109451789D01*
X190311814Y-109539390D01*
X190311827Y-109539397D01*
X190457498Y-109599735D01*
X190457503Y-109599737D01*
X190612153Y-109630499D01*
X190612156Y-109630500D01*
X190612158Y-109630500D01*
X190769844Y-109630500D01*
X190769845Y-109630499D01*
X190924497Y-109599737D01*
X191070179Y-109539394D01*
X191094421Y-109523196D01*
X191201875Y-109451398D01*
X191268553Y-109430520D01*
X191270766Y-109430500D01*
X195604331Y-109430500D01*
X195604347Y-109430501D01*
X195611943Y-109430501D01*
X195770054Y-109430501D01*
X195770057Y-109430501D01*
X195922785Y-109389577D01*
X195993932Y-109348500D01*
X196051764Y-109315110D01*
X196113761Y-109298500D01*
X197361234Y-109298500D01*
X197428273Y-109318185D01*
X197430125Y-109319398D01*
X197561814Y-109407390D01*
X197561827Y-109407397D01*
X197707498Y-109467735D01*
X197707503Y-109467737D01*
X197862153Y-109498499D01*
X197862156Y-109498500D01*
X197862158Y-109498500D01*
X198019844Y-109498500D01*
X198019845Y-109498499D01*
X198174497Y-109467737D01*
X198320179Y-109407394D01*
X198451289Y-109319789D01*
X198562789Y-109208289D01*
X198650394Y-109077179D01*
X198710737Y-108931497D01*
X198741500Y-108776842D01*
X198741500Y-108619158D01*
X198741500Y-108619155D01*
X198741499Y-108619153D01*
X198710738Y-108464510D01*
X198710737Y-108464503D01*
X198705067Y-108450814D01*
X198650397Y-108318827D01*
X198650390Y-108318814D01*
X198562789Y-108187711D01*
X198562786Y-108187707D01*
X198451292Y-108076213D01*
X198451288Y-108076210D01*
X198320185Y-107988609D01*
X198320172Y-107988602D01*
X198174501Y-107928264D01*
X198174489Y-107928261D01*
X198019845Y-107897500D01*
X198019842Y-107897500D01*
X197862158Y-107897500D01*
X197862155Y-107897500D01*
X197707510Y-107928261D01*
X197707498Y-107928264D01*
X197561827Y-107988602D01*
X197561814Y-107988609D01*
X197430125Y-108076602D01*
X197363447Y-108097480D01*
X197361234Y-108097500D01*
X195902057Y-108097500D01*
X195743942Y-108097500D01*
X195591215Y-108138423D01*
X195591214Y-108138423D01*
X195591212Y-108138424D01*
X195591209Y-108138425D01*
X195541096Y-108167359D01*
X195541094Y-108167360D01*
X195462238Y-108212887D01*
X195400239Y-108229500D01*
X191270766Y-108229500D01*
X191203727Y-108209815D01*
X191201875Y-108208602D01*
X191070185Y-108120609D01*
X191070172Y-108120602D01*
X190924501Y-108060264D01*
X190924489Y-108060261D01*
X190769845Y-108029500D01*
X190769842Y-108029500D01*
X190612158Y-108029500D01*
X190612155Y-108029500D01*
X190457510Y-108060261D01*
X190457498Y-108060264D01*
X190311827Y-108120602D01*
X190311814Y-108120609D01*
X190180711Y-108208210D01*
X190180707Y-108208213D01*
X190069213Y-108319707D01*
X190069210Y-108319711D01*
X189981609Y-108450814D01*
X189981602Y-108450827D01*
X189921264Y-108596498D01*
X189921261Y-108596510D01*
X189890500Y-108751153D01*
X180729459Y-108751153D01*
X180734596Y-108737379D01*
X180734598Y-108737374D01*
X180735197Y-108731806D01*
X180735197Y-108731804D01*
X180740998Y-108677846D01*
X180741000Y-108677827D01*
X180741000Y-107830000D01*
X179791001Y-107830000D01*
X179816021Y-107769598D01*
X179841000Y-107644019D01*
X179841000Y-107515981D01*
X179816021Y-107390402D01*
X179791001Y-107330000D01*
X180741000Y-107330000D01*
X180741000Y-106482172D01*
X180740999Y-106482155D01*
X180734598Y-106422627D01*
X180734596Y-106422620D01*
X180684354Y-106287913D01*
X180684350Y-106287906D01*
X180598190Y-106172812D01*
X180598187Y-106172809D01*
X180483093Y-106086649D01*
X180483086Y-106086645D01*
X180348379Y-106036403D01*
X180348372Y-106036401D01*
X180288844Y-106030000D01*
X179441000Y-106030000D01*
X179441000Y-106979998D01*
X179380598Y-106954979D01*
X179255019Y-106930000D01*
X179126981Y-106930000D01*
X179001402Y-106954979D01*
X178941000Y-106979998D01*
X178941000Y-106030000D01*
X178093155Y-106030000D01*
X178033627Y-106036401D01*
X178033620Y-106036403D01*
X177898913Y-106086645D01*
X177898906Y-106086649D01*
X177783812Y-106172809D01*
X177783809Y-106172812D01*
X177697649Y-106287906D01*
X177697645Y-106287913D01*
X177647403Y-106422620D01*
X177647401Y-106422627D01*
X177641000Y-106482155D01*
X176420921Y-106482155D01*
X181147664Y-101755413D01*
X181208985Y-101721930D01*
X181278677Y-101726914D01*
X181334610Y-101768786D01*
X181356960Y-101818904D01*
X181366730Y-101868022D01*
X181366733Y-101868032D01*
X181427071Y-102013703D01*
X181427078Y-102013716D01*
X181514679Y-102144819D01*
X181514682Y-102144823D01*
X182199108Y-102829248D01*
X182232593Y-102890571D01*
X182227609Y-102960262D01*
X182225989Y-102964381D01*
X182171261Y-103096507D01*
X182171261Y-103096510D01*
X182140500Y-103251153D01*
X182140500Y-103408846D01*
X182171261Y-103563489D01*
X182171264Y-103563501D01*
X182231602Y-103709172D01*
X182231609Y-103709185D01*
X182319210Y-103840288D01*
X182319213Y-103840292D01*
X182430707Y-103951786D01*
X182430711Y-103951789D01*
X182561814Y-104039390D01*
X182561827Y-104039397D01*
X182707498Y-104099735D01*
X182707503Y-104099737D01*
X182862153Y-104130499D01*
X182862156Y-104130500D01*
X182862158Y-104130500D01*
X183019844Y-104130500D01*
X183019845Y-104130499D01*
X183174497Y-104099737D01*
X183319177Y-104039808D01*
X183388646Y-104032340D01*
X183451125Y-104063615D01*
X183486777Y-104123704D01*
X183484283Y-104193529D01*
X183481190Y-104201822D01*
X183421264Y-104346498D01*
X183421261Y-104346510D01*
X183390500Y-104501153D01*
X183390500Y-104658846D01*
X183421261Y-104813489D01*
X183421264Y-104813501D01*
X183481602Y-104959172D01*
X183481609Y-104959185D01*
X183569210Y-105090288D01*
X183569213Y-105090292D01*
X183680707Y-105201786D01*
X183680711Y-105201789D01*
X183811814Y-105289390D01*
X183811827Y-105289397D01*
X183957498Y-105349735D01*
X183957503Y-105349737D01*
X184112153Y-105380499D01*
X184112156Y-105380500D01*
X184112158Y-105380500D01*
X184269844Y-105380500D01*
X184269845Y-105380499D01*
X184424497Y-105349737D01*
X184565788Y-105291213D01*
X184570172Y-105289397D01*
X184570172Y-105289396D01*
X184570179Y-105289394D01*
X184659817Y-105229500D01*
X184701875Y-105201398D01*
X184768553Y-105180520D01*
X184770766Y-105180500D01*
X188691902Y-105180500D01*
X188758941Y-105200185D01*
X188804696Y-105252989D01*
X188814640Y-105322147D01*
X188785615Y-105385703D01*
X188779583Y-105392181D01*
X188426339Y-105745425D01*
X188365016Y-105778910D01*
X188362850Y-105779361D01*
X188207508Y-105810261D01*
X188207498Y-105810264D01*
X188061827Y-105870602D01*
X188061814Y-105870609D01*
X187930711Y-105958210D01*
X187930707Y-105958213D01*
X187819213Y-106069707D01*
X187819210Y-106069711D01*
X187731609Y-106200814D01*
X187731602Y-106200827D01*
X187671264Y-106346498D01*
X187671261Y-106346510D01*
X187640500Y-106501153D01*
X187640500Y-106658846D01*
X187671261Y-106813489D01*
X187671264Y-106813501D01*
X187731602Y-106959172D01*
X187731609Y-106959185D01*
X187819210Y-107090288D01*
X187819213Y-107090292D01*
X187930707Y-107201786D01*
X187930711Y-107201789D01*
X188061814Y-107289390D01*
X188061827Y-107289397D01*
X188159853Y-107330000D01*
X188207503Y-107349737D01*
X188362153Y-107380499D01*
X188362156Y-107380500D01*
X188362158Y-107380500D01*
X188519844Y-107380500D01*
X188519845Y-107380499D01*
X188674497Y-107349737D01*
X188820179Y-107289394D01*
X188951289Y-107201789D01*
X189062789Y-107090289D01*
X189150394Y-106959179D01*
X189210737Y-106813497D01*
X189230113Y-106716085D01*
X189241638Y-106658150D01*
X189250402Y-106641393D01*
X189254423Y-106622914D01*
X189273168Y-106597872D01*
X189274023Y-106596239D01*
X189275467Y-106594767D01*
X189403418Y-106466816D01*
X189464739Y-106433334D01*
X189491097Y-106430500D01*
X190111234Y-106430500D01*
X190178273Y-106450185D01*
X190180125Y-106451398D01*
X190311814Y-106539390D01*
X190311827Y-106539397D01*
X190449058Y-106596239D01*
X190457503Y-106599737D01*
X190574021Y-106622914D01*
X190612153Y-106630499D01*
X190612156Y-106630500D01*
X190612158Y-106630500D01*
X190769844Y-106630500D01*
X190769845Y-106630499D01*
X190924497Y-106599737D01*
X191070179Y-106539394D01*
X191201289Y-106451789D01*
X191312789Y-106340289D01*
X191400394Y-106209179D01*
X191403854Y-106200827D01*
X191458163Y-106069711D01*
X191460737Y-106063497D01*
X191491500Y-105908842D01*
X191491500Y-105751158D01*
X191491500Y-105751155D01*
X191491499Y-105751153D01*
X191460738Y-105596510D01*
X191460737Y-105596503D01*
X191411310Y-105477174D01*
X191400397Y-105450827D01*
X191400390Y-105450814D01*
X191312789Y-105319711D01*
X191312786Y-105319707D01*
X191201292Y-105208213D01*
X191201288Y-105208210D01*
X191070185Y-105120609D01*
X191070176Y-105120604D01*
X190982746Y-105084390D01*
X190928343Y-105040549D01*
X190906278Y-104974255D01*
X190915638Y-104922377D01*
X190960735Y-104813501D01*
X190960737Y-104813497D01*
X190991500Y-104658842D01*
X190991500Y-104501158D01*
X190991500Y-104501155D01*
X190991499Y-104501153D01*
X190977058Y-104428555D01*
X190960737Y-104346503D01*
X190941278Y-104299524D01*
X190900397Y-104200827D01*
X190900395Y-104200823D01*
X190900394Y-104200821D01*
X190880134Y-104170500D01*
X190848657Y-104123391D01*
X190827779Y-104056714D01*
X190846263Y-103989334D01*
X190898242Y-103942643D01*
X190951759Y-103930500D01*
X195636335Y-103930500D01*
X195668428Y-103934724D01*
X195801943Y-103970501D01*
X195801945Y-103970501D01*
X195967654Y-103970501D01*
X195967670Y-103970500D01*
X197851234Y-103970500D01*
X197918273Y-103990185D01*
X197920125Y-103991398D01*
X198051814Y-104079390D01*
X198051827Y-104079397D01*
X198197498Y-104139735D01*
X198197503Y-104139737D01*
X198352153Y-104170499D01*
X198352156Y-104170500D01*
X198352158Y-104170500D01*
X198509844Y-104170500D01*
X198509845Y-104170499D01*
X198664497Y-104139737D01*
X198810179Y-104079394D01*
X198941289Y-103991789D01*
X199052789Y-103880289D01*
X199140394Y-103749179D01*
X199200737Y-103603497D01*
X199231500Y-103448842D01*
X199231500Y-103353500D01*
X199251185Y-103286461D01*
X199303989Y-103240706D01*
X199355500Y-103229500D01*
X206407060Y-103229500D01*
X206474099Y-103249185D01*
X206494741Y-103265819D01*
X207805707Y-104576786D01*
X207805711Y-104576789D01*
X207936814Y-104664390D01*
X207936827Y-104664397D01*
X208023926Y-104700474D01*
X208082503Y-104724737D01*
X208237153Y-104755499D01*
X208237156Y-104755500D01*
X208237158Y-104755500D01*
X208394844Y-104755500D01*
X208394845Y-104755499D01*
X208549497Y-104724737D01*
X208695179Y-104664394D01*
X208826289Y-104576789D01*
X208937789Y-104465289D01*
X209025394Y-104334179D01*
X209085737Y-104188497D01*
X209116500Y-104033842D01*
X209116500Y-103876158D01*
X209116500Y-103876155D01*
X209116499Y-103876153D01*
X209091242Y-103749179D01*
X209085737Y-103721503D01*
X209061808Y-103663732D01*
X209025397Y-103575827D01*
X209025390Y-103575814D01*
X208937789Y-103444711D01*
X208937786Y-103444707D01*
X207300292Y-101807213D01*
X207300288Y-101807210D01*
X207169185Y-101719609D01*
X207169172Y-101719602D01*
X207023501Y-101659264D01*
X207023489Y-101659261D01*
X206868845Y-101628500D01*
X206868842Y-101628500D01*
X195073940Y-101628500D01*
X195006901Y-101608815D01*
X194961146Y-101556011D01*
X194951202Y-101486853D01*
X194980227Y-101423297D01*
X194986259Y-101416819D01*
X209479819Y-86923259D01*
X209541142Y-86889774D01*
X209610834Y-86894758D01*
X209666767Y-86936630D01*
X209691184Y-87002094D01*
X209691500Y-87010940D01*
X209691500Y-89178902D01*
X209671815Y-89245941D01*
X209655181Y-89266583D01*
X199176339Y-99745425D01*
X199115016Y-99778910D01*
X199112850Y-99779361D01*
X198957508Y-99810261D01*
X198957498Y-99810264D01*
X198811827Y-99870602D01*
X198811814Y-99870609D01*
X198680711Y-99958210D01*
X198680707Y-99958213D01*
X198569213Y-100069707D01*
X198569210Y-100069711D01*
X198481609Y-100200814D01*
X198481602Y-100200827D01*
X198421264Y-100346498D01*
X198421261Y-100346510D01*
X198390500Y-100501153D01*
X198390500Y-100658846D01*
X198421261Y-100813489D01*
X198421264Y-100813501D01*
X198481602Y-100959172D01*
X198481609Y-100959185D01*
X198569210Y-101090288D01*
X198569213Y-101090292D01*
X198680707Y-101201786D01*
X198680711Y-101201789D01*
X198811814Y-101289390D01*
X198811827Y-101289397D01*
X198957498Y-101349735D01*
X198957503Y-101349737D01*
X199112153Y-101380499D01*
X199112156Y-101380500D01*
X199112158Y-101380500D01*
X199269844Y-101380500D01*
X199269845Y-101380499D01*
X199424497Y-101349737D01*
X199570179Y-101289394D01*
X199701289Y-101201789D01*
X199812789Y-101090289D01*
X199900394Y-100959179D01*
X199960737Y-100813497D01*
X199980113Y-100716085D01*
X199991638Y-100658150D01*
X200024023Y-100596239D01*
X200025518Y-100594716D01*
X210772520Y-89847716D01*
X210851577Y-89710784D01*
X210892501Y-89558057D01*
X210892501Y-89399942D01*
X210892501Y-89392347D01*
X210892500Y-89392329D01*
X210892500Y-74670117D01*
X210892501Y-74670104D01*
X210892501Y-74502001D01*
X210892501Y-74502000D01*
X210851577Y-74349273D01*
X210851573Y-74349266D01*
X210772524Y-74212347D01*
X210772518Y-74212339D01*
X207154377Y-70594198D01*
X207071568Y-70511389D01*
X209460500Y-70511389D01*
X209460500Y-70684611D01*
X209487598Y-70855701D01*
X209541127Y-71020445D01*
X209619768Y-71174788D01*
X209721586Y-71314928D01*
X209844072Y-71437414D01*
X209984212Y-71539232D01*
X210138555Y-71617873D01*
X210303299Y-71671402D01*
X210474389Y-71698500D01*
X210474390Y-71698500D01*
X210647610Y-71698500D01*
X210647611Y-71698500D01*
X210818701Y-71671402D01*
X210983445Y-71617873D01*
X211137788Y-71539232D01*
X211277928Y-71437414D01*
X211400414Y-71314928D01*
X211502232Y-71174788D01*
X211580873Y-71020445D01*
X211634402Y-70855701D01*
X211661500Y-70684611D01*
X211661500Y-70511389D01*
X211634402Y-70340299D01*
X211580873Y-70175555D01*
X211502232Y-70021212D01*
X211400414Y-69881072D01*
X211277928Y-69758586D01*
X211137788Y-69656768D01*
X210983445Y-69578127D01*
X210818701Y-69524598D01*
X210818699Y-69524597D01*
X210818698Y-69524597D01*
X210687271Y-69503781D01*
X210647611Y-69497500D01*
X210474389Y-69497500D01*
X210434728Y-69503781D01*
X210303302Y-69524597D01*
X210138552Y-69578128D01*
X209984211Y-69656768D01*
X209904256Y-69714859D01*
X209844072Y-69758586D01*
X209844070Y-69758588D01*
X209844069Y-69758588D01*
X209721588Y-69881069D01*
X209721588Y-69881070D01*
X209721586Y-69881072D01*
X209677859Y-69941256D01*
X209619768Y-70021211D01*
X209541128Y-70175552D01*
X209487597Y-70340302D01*
X209479338Y-70392448D01*
X209460500Y-70511389D01*
X207071568Y-70511389D01*
X201608830Y-65048652D01*
X201526015Y-64965837D01*
X217240500Y-64965837D01*
X217240500Y-65194162D01*
X217276215Y-65419660D01*
X217346770Y-65636803D01*
X217416163Y-65772993D01*
X217450421Y-65840228D01*
X217584621Y-66024937D01*
X217746063Y-66186379D01*
X217930772Y-66320579D01*
X218026884Y-66369550D01*
X218134196Y-66424229D01*
X218134198Y-66424229D01*
X218134201Y-66424231D01*
X218242621Y-66459459D01*
X218351339Y-66494784D01*
X218576838Y-66530500D01*
X218576843Y-66530500D01*
X218805162Y-66530500D01*
X219030660Y-66494784D01*
X219062018Y-66484595D01*
X219247799Y-66424231D01*
X219451228Y-66320579D01*
X219635937Y-66186379D01*
X219797379Y-66024937D01*
X219931579Y-65840228D01*
X220035231Y-65636799D01*
X220105784Y-65419660D01*
X220129014Y-65272993D01*
X220141500Y-65194162D01*
X220141500Y-64965837D01*
X220105784Y-64740339D01*
X220044027Y-64550272D01*
X220035231Y-64523201D01*
X220035229Y-64523198D01*
X220035229Y-64523196D01*
X219958604Y-64372812D01*
X219931579Y-64319772D01*
X219797379Y-64135063D01*
X219635937Y-63973621D01*
X219451228Y-63839421D01*
X219429794Y-63828500D01*
X219247803Y-63735770D01*
X219030660Y-63665215D01*
X218805162Y-63629500D01*
X218805157Y-63629500D01*
X218576843Y-63629500D01*
X218576838Y-63629500D01*
X218351339Y-63665215D01*
X218134196Y-63735770D01*
X217930771Y-63839421D01*
X217746061Y-63973622D01*
X217584622Y-64135061D01*
X217450421Y-64319771D01*
X217346770Y-64523196D01*
X217276215Y-64740339D01*
X217240500Y-64965837D01*
X201526015Y-64965837D01*
X200627533Y-64067355D01*
X200627531Y-64067352D01*
X200508660Y-63948481D01*
X200508659Y-63948480D01*
X200421847Y-63898360D01*
X200421847Y-63898359D01*
X200421843Y-63898358D01*
X200371728Y-63869423D01*
X200219000Y-63828499D01*
X200060886Y-63828499D01*
X200053290Y-63828499D01*
X200053274Y-63828500D01*
X183798670Y-63828500D01*
X183798654Y-63828499D01*
X183791058Y-63828499D01*
X183632943Y-63828499D01*
X183525587Y-63857265D01*
X183480210Y-63869424D01*
X183480209Y-63869425D01*
X183430096Y-63898359D01*
X183430095Y-63898360D01*
X183386689Y-63923420D01*
X183343285Y-63948479D01*
X183343282Y-63948481D01*
X183231478Y-64060286D01*
X183045522Y-64246241D01*
X182984199Y-64279726D01*
X182919523Y-64276491D01*
X182877245Y-64262754D01*
X182737272Y-64240584D01*
X182667287Y-64229500D01*
X182454713Y-64229500D01*
X182406042Y-64237208D01*
X182244760Y-64262753D01*
X182244757Y-64262754D01*
X182069275Y-64319772D01*
X182042585Y-64328444D01*
X181853179Y-64424951D01*
X181681213Y-64549890D01*
X181530890Y-64700213D01*
X181405949Y-64872182D01*
X181401484Y-64880946D01*
X181353509Y-64931742D01*
X181285688Y-64948536D01*
X181219553Y-64925998D01*
X181180516Y-64880946D01*
X181176050Y-64872182D01*
X181051109Y-64700213D01*
X180900786Y-64549890D01*
X180728820Y-64424951D01*
X180539414Y-64328444D01*
X180539413Y-64328443D01*
X180539412Y-64328443D01*
X180337243Y-64262754D01*
X180337241Y-64262753D01*
X180337240Y-64262753D01*
X180175957Y-64237208D01*
X180127287Y-64229500D01*
X179914713Y-64229500D01*
X179866042Y-64237208D01*
X179704760Y-64262753D01*
X179704757Y-64262754D01*
X179529275Y-64319772D01*
X179502585Y-64328444D01*
X179313179Y-64424951D01*
X179141213Y-64549890D01*
X178990890Y-64700213D01*
X178865949Y-64872182D01*
X178861484Y-64880946D01*
X178813509Y-64931742D01*
X178745688Y-64948536D01*
X178679553Y-64925998D01*
X178640516Y-64880946D01*
X178636050Y-64872182D01*
X178511109Y-64700213D01*
X178360786Y-64549890D01*
X178188820Y-64424951D01*
X177999414Y-64328444D01*
X177999413Y-64328443D01*
X177999412Y-64328443D01*
X177797243Y-64262754D01*
X177797241Y-64262753D01*
X177797240Y-64262753D01*
X177635957Y-64237208D01*
X177587287Y-64229500D01*
X177374713Y-64229500D01*
X177326042Y-64237208D01*
X177164760Y-64262753D01*
X177164757Y-64262754D01*
X176989275Y-64319772D01*
X176962585Y-64328444D01*
X176773179Y-64424951D01*
X176601213Y-64549890D01*
X176450890Y-64700213D01*
X176325949Y-64872182D01*
X176321484Y-64880946D01*
X176273509Y-64931742D01*
X176205688Y-64948536D01*
X176139553Y-64925998D01*
X176100516Y-64880946D01*
X176096050Y-64872182D01*
X175971109Y-64700213D01*
X175820786Y-64549890D01*
X175648820Y-64424951D01*
X175459414Y-64328444D01*
X175459413Y-64328443D01*
X175459412Y-64328443D01*
X175257243Y-64262754D01*
X175257241Y-64262753D01*
X175257240Y-64262753D01*
X175095957Y-64237208D01*
X175047287Y-64229500D01*
X174834713Y-64229500D01*
X174786042Y-64237208D01*
X174624760Y-64262753D01*
X174624757Y-64262754D01*
X174449275Y-64319772D01*
X174422585Y-64328444D01*
X174233179Y-64424951D01*
X174061213Y-64549890D01*
X173910890Y-64700213D01*
X173785949Y-64872182D01*
X173781484Y-64880946D01*
X173733509Y-64931742D01*
X173665688Y-64948536D01*
X173599553Y-64925998D01*
X173560516Y-64880946D01*
X173556050Y-64872182D01*
X173431109Y-64700213D01*
X173280786Y-64549890D01*
X173108820Y-64424951D01*
X172919414Y-64328444D01*
X172919413Y-64328443D01*
X172919412Y-64328443D01*
X172717243Y-64262754D01*
X172717241Y-64262753D01*
X172717240Y-64262753D01*
X172555957Y-64237208D01*
X172507287Y-64229500D01*
X172294713Y-64229500D01*
X172246042Y-64237208D01*
X172084760Y-64262753D01*
X172084757Y-64262754D01*
X171909275Y-64319772D01*
X171882585Y-64328444D01*
X171693179Y-64424951D01*
X171521213Y-64549890D01*
X171370890Y-64700213D01*
X171245949Y-64872182D01*
X171241202Y-64881499D01*
X171193227Y-64932293D01*
X171125405Y-64949087D01*
X171059271Y-64926548D01*
X171020234Y-64881495D01*
X171015622Y-64872444D01*
X170890727Y-64700540D01*
X170890723Y-64700535D01*
X170740464Y-64550276D01*
X170740459Y-64550272D01*
X170568557Y-64425379D01*
X170379215Y-64328903D01*
X170177124Y-64263241D01*
X170111000Y-64252768D01*
X170111000Y-65146988D01*
X170053993Y-65114075D01*
X169926826Y-65080000D01*
X169795174Y-65080000D01*
X169668007Y-65114075D01*
X169611000Y-65146988D01*
X169611000Y-64252768D01*
X169610999Y-64252768D01*
X169544875Y-64263241D01*
X169342784Y-64328903D01*
X169153442Y-64425379D01*
X168981540Y-64550272D01*
X168981535Y-64550276D01*
X168831276Y-64700535D01*
X168831272Y-64700540D01*
X168706378Y-64872443D01*
X168701762Y-64881502D01*
X168653784Y-64932295D01*
X168585963Y-64949087D01*
X168519829Y-64926546D01*
X168480794Y-64881493D01*
X168476051Y-64872184D01*
X168476049Y-64872181D01*
X168476048Y-64872179D01*
X168351109Y-64700213D01*
X168200786Y-64549890D01*
X168028820Y-64424951D01*
X167839414Y-64328444D01*
X167839413Y-64328443D01*
X167839412Y-64328443D01*
X167637243Y-64262754D01*
X167637241Y-64262753D01*
X167637240Y-64262753D01*
X167475957Y-64237208D01*
X167427287Y-64229500D01*
X167214713Y-64229500D01*
X167166042Y-64237208D01*
X167004760Y-64262753D01*
X167004757Y-64262754D01*
X166829275Y-64319772D01*
X166802585Y-64328444D01*
X166613179Y-64424951D01*
X166441213Y-64549890D01*
X166290890Y-64700213D01*
X166165949Y-64872182D01*
X166161484Y-64880946D01*
X166113509Y-64931742D01*
X166045688Y-64948536D01*
X165979553Y-64925998D01*
X165940516Y-64880946D01*
X165936050Y-64872182D01*
X165811109Y-64700213D01*
X165660786Y-64549890D01*
X165488820Y-64424951D01*
X165299414Y-64328444D01*
X165299413Y-64328443D01*
X165299412Y-64328443D01*
X165097243Y-64262754D01*
X165097241Y-64262753D01*
X165097240Y-64262753D01*
X164935957Y-64237208D01*
X164887287Y-64229500D01*
X164674713Y-64229500D01*
X164626042Y-64237208D01*
X164464760Y-64262753D01*
X164464757Y-64262754D01*
X164289275Y-64319772D01*
X164262585Y-64328444D01*
X164073179Y-64424951D01*
X163901213Y-64549890D01*
X163750890Y-64700213D01*
X163625949Y-64872182D01*
X163621484Y-64880946D01*
X163573509Y-64931742D01*
X163505688Y-64948536D01*
X163439553Y-64925998D01*
X163400516Y-64880946D01*
X163396050Y-64872182D01*
X163271109Y-64700213D01*
X163120786Y-64549890D01*
X162948820Y-64424951D01*
X162759414Y-64328444D01*
X162759413Y-64328443D01*
X162759412Y-64328443D01*
X162557243Y-64262754D01*
X162557241Y-64262753D01*
X162557240Y-64262753D01*
X162395957Y-64237208D01*
X162347287Y-64229500D01*
X162134713Y-64229500D01*
X162086042Y-64237208D01*
X161924760Y-64262753D01*
X161924757Y-64262754D01*
X161749275Y-64319772D01*
X161722585Y-64328444D01*
X161533179Y-64424951D01*
X161361213Y-64549890D01*
X161210890Y-64700213D01*
X161085949Y-64872182D01*
X161081484Y-64880946D01*
X161033509Y-64931742D01*
X160965688Y-64948536D01*
X160899553Y-64925998D01*
X160860516Y-64880946D01*
X160856050Y-64872182D01*
X160731109Y-64700213D01*
X160580786Y-64549890D01*
X160408820Y-64424951D01*
X160219414Y-64328444D01*
X160219413Y-64328443D01*
X160219412Y-64328443D01*
X160017243Y-64262754D01*
X160017241Y-64262753D01*
X160017240Y-64262753D01*
X159855957Y-64237208D01*
X159807287Y-64229500D01*
X159594713Y-64229500D01*
X159546042Y-64237208D01*
X159384760Y-64262753D01*
X159384757Y-64262754D01*
X159209275Y-64319772D01*
X159182585Y-64328444D01*
X158993179Y-64424951D01*
X158821213Y-64549890D01*
X158670890Y-64700213D01*
X158545949Y-64872182D01*
X158541484Y-64880946D01*
X158493509Y-64931742D01*
X158425688Y-64948536D01*
X158359553Y-64925998D01*
X158320516Y-64880946D01*
X158316050Y-64872182D01*
X158191109Y-64700213D01*
X158040786Y-64549890D01*
X157868820Y-64424951D01*
X157679414Y-64328444D01*
X157679413Y-64328443D01*
X157679412Y-64328443D01*
X157477243Y-64262754D01*
X157477241Y-64262753D01*
X157477240Y-64262753D01*
X157315957Y-64237208D01*
X157267287Y-64229500D01*
X157054713Y-64229500D01*
X157006042Y-64237208D01*
X156844760Y-64262753D01*
X156844757Y-64262754D01*
X156669275Y-64319772D01*
X156642585Y-64328444D01*
X156453179Y-64424951D01*
X156281213Y-64549890D01*
X156130890Y-64700213D01*
X156005949Y-64872182D01*
X156001484Y-64880946D01*
X155953509Y-64931742D01*
X155885688Y-64948536D01*
X155819553Y-64925998D01*
X155780516Y-64880946D01*
X155776050Y-64872182D01*
X155651109Y-64700213D01*
X155500786Y-64549890D01*
X155328820Y-64424951D01*
X155139414Y-64328444D01*
X155139413Y-64328443D01*
X155139412Y-64328443D01*
X154937243Y-64262754D01*
X154937241Y-64262753D01*
X154937240Y-64262753D01*
X154775957Y-64237208D01*
X154727287Y-64229500D01*
X154514713Y-64229500D01*
X154466042Y-64237208D01*
X154304760Y-64262753D01*
X154304757Y-64262754D01*
X154129275Y-64319772D01*
X154102585Y-64328444D01*
X153913179Y-64424951D01*
X153741215Y-64549889D01*
X153627285Y-64663819D01*
X153565962Y-64697303D01*
X153496270Y-64692319D01*
X153440337Y-64650447D01*
X153423422Y-64619470D01*
X153374354Y-64487913D01*
X153374350Y-64487906D01*
X153288190Y-64372812D01*
X153288187Y-64372809D01*
X153173093Y-64286649D01*
X153173086Y-64286645D01*
X153038379Y-64236403D01*
X153038372Y-64236401D01*
X152978844Y-64230000D01*
X152331000Y-64230000D01*
X152331000Y-65146988D01*
X152273993Y-65114075D01*
X152146826Y-65080000D01*
X152015174Y-65080000D01*
X151888007Y-65114075D01*
X151831000Y-65146988D01*
X151831000Y-64230000D01*
X151183155Y-64230000D01*
X151123627Y-64236401D01*
X151123620Y-64236403D01*
X150988913Y-64286645D01*
X150988906Y-64286649D01*
X150873812Y-64372809D01*
X150873809Y-64372812D01*
X150787649Y-64487906D01*
X150787645Y-64487913D01*
X150737403Y-64622620D01*
X150737401Y-64622627D01*
X150731000Y-64682155D01*
X150731000Y-65330000D01*
X151647988Y-65330000D01*
X151615075Y-65387007D01*
X151581000Y-65514174D01*
X151581000Y-65645826D01*
X151615075Y-65772993D01*
X151647988Y-65830000D01*
X150731000Y-65830000D01*
X150731000Y-66477844D01*
X150737401Y-66537372D01*
X150737403Y-66537379D01*
X150787645Y-66672086D01*
X150787649Y-66672093D01*
X150873809Y-66787187D01*
X150873812Y-66787190D01*
X150988906Y-66873350D01*
X150988913Y-66873354D01*
X151123620Y-66923596D01*
X151123627Y-66923598D01*
X151183155Y-66929999D01*
X151183172Y-66930000D01*
X151831000Y-66930000D01*
X151831000Y-66013012D01*
X151888007Y-66045925D01*
X152015174Y-66080000D01*
X152146826Y-66080000D01*
X152273993Y-66045925D01*
X152331000Y-66013012D01*
X152331000Y-66930000D01*
X152978828Y-66930000D01*
X152978844Y-66929999D01*
X153038372Y-66923598D01*
X153038379Y-66923596D01*
X153173086Y-66873354D01*
X153173093Y-66873350D01*
X153288187Y-66787190D01*
X153288190Y-66787187D01*
X153374350Y-66672093D01*
X153374354Y-66672086D01*
X153423422Y-66540529D01*
X153465293Y-66484595D01*
X153530757Y-66460178D01*
X153599030Y-66475030D01*
X153627285Y-66496181D01*
X153741213Y-66610109D01*
X153913179Y-66735048D01*
X153913181Y-66735049D01*
X153913184Y-66735051D01*
X154102588Y-66831557D01*
X154304757Y-66897246D01*
X154514713Y-66930500D01*
X154514714Y-66930500D01*
X154727286Y-66930500D01*
X154727287Y-66930500D01*
X154937243Y-66897246D01*
X154979523Y-66883507D01*
X155049362Y-66881511D01*
X155105521Y-66913756D01*
X169532227Y-81340463D01*
X169532229Y-81340464D01*
X169532233Y-81340467D01*
X169669152Y-81419516D01*
X169669159Y-81419520D01*
X169821886Y-81460444D01*
X169821888Y-81460444D01*
X169987597Y-81460444D01*
X169987613Y-81460443D01*
X195363363Y-81460443D01*
X195430402Y-81480128D01*
X195476157Y-81532932D01*
X195486101Y-81602090D01*
X195484980Y-81608633D01*
X195484604Y-81610528D01*
X195480500Y-81631156D01*
X195480500Y-81788846D01*
X195511261Y-81943489D01*
X195511264Y-81943501D01*
X195571602Y-82089172D01*
X195571609Y-82089185D01*
X195659602Y-82220874D01*
X195680480Y-82287551D01*
X195680500Y-82289765D01*
X195680500Y-89173330D01*
X195680499Y-89173348D01*
X195680499Y-89339054D01*
X195680498Y-89339054D01*
X195685858Y-89359055D01*
X195721423Y-89491785D01*
X195726835Y-89501158D01*
X195726836Y-89501159D01*
X195726837Y-89501162D01*
X195800477Y-89628712D01*
X195800481Y-89628717D01*
X195919349Y-89747585D01*
X195919355Y-89747590D01*
X199416425Y-93244660D01*
X199449910Y-93305983D01*
X199450361Y-93308149D01*
X199481261Y-93463491D01*
X199481264Y-93463501D01*
X199541602Y-93609172D01*
X199541609Y-93609185D01*
X199629210Y-93740288D01*
X199629213Y-93740292D01*
X199740707Y-93851786D01*
X199740711Y-93851789D01*
X199871814Y-93939390D01*
X199871821Y-93939394D01*
X199932092Y-93964359D01*
X199986494Y-94008197D01*
X200008560Y-94074491D01*
X199991282Y-94142191D01*
X199972320Y-94166600D01*
X193344741Y-100794181D01*
X193283418Y-100827666D01*
X193257060Y-100830500D01*
X190089097Y-100830500D01*
X190022058Y-100810815D01*
X189976303Y-100758011D01*
X189966359Y-100688853D01*
X189995384Y-100625297D01*
X190001416Y-100618819D01*
X190362081Y-100258154D01*
X191559713Y-99060521D01*
X191559716Y-99060520D01*
X191671520Y-98948716D01*
X191721639Y-98861904D01*
X191750577Y-98811785D01*
X191791500Y-98659057D01*
X191791500Y-98500943D01*
X191791500Y-88159765D01*
X191811185Y-88092726D01*
X191812398Y-88090874D01*
X191900390Y-87959185D01*
X191900390Y-87959184D01*
X191900394Y-87959179D01*
X191960737Y-87813497D01*
X191991500Y-87658842D01*
X191991500Y-87501158D01*
X191991500Y-87501155D01*
X191991499Y-87501153D01*
X191971258Y-87399397D01*
X191960737Y-87346503D01*
X191937080Y-87289390D01*
X191900397Y-87200827D01*
X191900390Y-87200814D01*
X191812789Y-87069711D01*
X191812786Y-87069707D01*
X191701292Y-86958213D01*
X191701288Y-86958210D01*
X191570185Y-86870609D01*
X191570172Y-86870602D01*
X191424501Y-86810264D01*
X191424489Y-86810261D01*
X191269845Y-86779500D01*
X191269842Y-86779500D01*
X191112158Y-86779500D01*
X191112155Y-86779500D01*
X190957510Y-86810261D01*
X190957502Y-86810263D01*
X190910878Y-86829575D01*
X190841408Y-86837042D01*
X190778930Y-86805766D01*
X190743278Y-86745677D01*
X190745773Y-86675852D01*
X190775747Y-86627331D01*
X190812786Y-86590292D01*
X190812789Y-86590289D01*
X190900394Y-86459179D01*
X190960737Y-86313497D01*
X190991500Y-86158842D01*
X190991500Y-86001158D01*
X190991500Y-86001155D01*
X190991499Y-86001153D01*
X190979565Y-85941158D01*
X190960737Y-85846503D01*
X190956310Y-85835816D01*
X190900397Y-85700827D01*
X190900390Y-85700814D01*
X190812789Y-85569711D01*
X190812786Y-85569707D01*
X190701292Y-85458213D01*
X190701288Y-85458210D01*
X190570185Y-85370609D01*
X190570172Y-85370602D01*
X190424501Y-85310264D01*
X190424489Y-85310261D01*
X190269845Y-85279500D01*
X190269842Y-85279500D01*
X190112158Y-85279500D01*
X190112155Y-85279500D01*
X189957510Y-85310261D01*
X189957498Y-85310264D01*
X189811827Y-85370602D01*
X189811814Y-85370609D01*
X189680125Y-85458602D01*
X189613447Y-85479480D01*
X189611234Y-85479500D01*
X164777668Y-85479500D01*
X164770060Y-85479499D01*
X164770057Y-85479499D01*
X164690098Y-85479499D01*
X164623058Y-85459814D01*
X164577304Y-85407009D01*
X164567361Y-85337851D01*
X164593737Y-85280097D01*
X164596386Y-85274296D01*
X164602418Y-85267818D01*
X165903417Y-83966819D01*
X165964740Y-83933334D01*
X165991098Y-83930500D01*
X189611234Y-83930500D01*
X189678273Y-83950185D01*
X189680125Y-83951398D01*
X189811814Y-84039390D01*
X189811827Y-84039397D01*
X189886348Y-84070264D01*
X189957503Y-84099737D01*
X190112153Y-84130499D01*
X190112156Y-84130500D01*
X190112158Y-84130500D01*
X190269844Y-84130500D01*
X190269845Y-84130499D01*
X190424497Y-84099737D01*
X190570179Y-84039394D01*
X190701289Y-83951789D01*
X190812789Y-83840289D01*
X190900394Y-83709179D01*
X190960737Y-83563497D01*
X190991500Y-83408842D01*
X190991500Y-83251158D01*
X190991500Y-83251155D01*
X190991499Y-83251153D01*
X190979173Y-83189185D01*
X190960737Y-83096503D01*
X190949911Y-83070366D01*
X190900397Y-82950827D01*
X190900390Y-82950814D01*
X190812789Y-82819711D01*
X190812786Y-82819707D01*
X190701292Y-82708213D01*
X190701288Y-82708210D01*
X190570185Y-82620609D01*
X190570172Y-82620602D01*
X190424501Y-82560264D01*
X190424489Y-82560261D01*
X190269845Y-82529500D01*
X190269842Y-82529500D01*
X190112158Y-82529500D01*
X190112155Y-82529500D01*
X189957510Y-82560261D01*
X189957498Y-82560264D01*
X189811827Y-82620602D01*
X189811814Y-82620609D01*
X189680125Y-82708602D01*
X189613447Y-82729480D01*
X189611234Y-82729500D01*
X165777670Y-82729500D01*
X165777654Y-82729499D01*
X165770058Y-82729499D01*
X165611943Y-82729499D01*
X165535579Y-82749961D01*
X165459214Y-82770423D01*
X165459209Y-82770426D01*
X165322290Y-82849475D01*
X165322282Y-82849481D01*
X162120444Y-86051319D01*
X162059121Y-86084804D01*
X161989429Y-86079820D01*
X161933496Y-86037948D01*
X161909079Y-85972484D01*
X161918201Y-85916187D01*
X161960737Y-85813497D01*
X161991500Y-85658842D01*
X161991500Y-85501158D01*
X161991500Y-85501155D01*
X161991499Y-85501153D01*
X161982957Y-85458210D01*
X161960737Y-85346503D01*
X161916936Y-85240759D01*
X161909468Y-85171291D01*
X161940743Y-85108812D01*
X161969493Y-85085925D01*
X162000757Y-85067875D01*
X162105449Y-84987541D01*
X162198541Y-84894449D01*
X162278875Y-84789757D01*
X162344701Y-84675743D01*
X162395200Y-84553829D01*
X162429275Y-84426662D01*
X162446500Y-84295826D01*
X162446500Y-83730000D01*
X162445010Y-83709172D01*
X162441355Y-83658059D01*
X162430397Y-83620741D01*
X162426636Y-83568158D01*
X162427307Y-83563489D01*
X162446500Y-83430000D01*
X162446500Y-82864174D01*
X162429275Y-82733338D01*
X162395200Y-82606171D01*
X162344701Y-82484257D01*
X162344698Y-82484252D01*
X162344697Y-82484249D01*
X162344696Y-82484248D01*
X162278879Y-82370250D01*
X162278875Y-82370243D01*
X162260658Y-82346503D01*
X162198544Y-82265555D01*
X162198541Y-82265551D01*
X162105449Y-82172459D01*
X162086683Y-82158059D01*
X162000767Y-82092132D01*
X162000749Y-82092120D01*
X161886751Y-82026303D01*
X161886750Y-82026302D01*
X161764829Y-81975800D01*
X161699187Y-81958211D01*
X161637662Y-81941725D01*
X161637661Y-81941724D01*
X161637658Y-81941724D01*
X161506833Y-81924500D01*
X161506826Y-81924500D01*
X160875174Y-81924500D01*
X160875166Y-81924500D01*
X160744341Y-81941724D01*
X160617170Y-81975800D01*
X160495249Y-82026302D01*
X160495248Y-82026303D01*
X160381250Y-82092120D01*
X160381232Y-82092132D01*
X160276555Y-82172455D01*
X160276553Y-82172457D01*
X160183456Y-82265553D01*
X160171615Y-82280986D01*
X160115188Y-82322189D01*
X160073239Y-82329500D01*
X158036548Y-82329500D01*
X157969509Y-82309815D01*
X157923754Y-82257011D01*
X157921987Y-82252952D01*
X157917276Y-82241578D01*
X157900394Y-82200821D01*
X157900392Y-82200819D01*
X157900392Y-82200817D01*
X157812789Y-82069711D01*
X157812786Y-82069707D01*
X157701292Y-81958213D01*
X157701288Y-81958210D01*
X157570185Y-81870609D01*
X157570172Y-81870602D01*
X157424501Y-81810264D01*
X157424489Y-81810261D01*
X157269845Y-81779500D01*
X157269842Y-81779500D01*
X157112158Y-81779500D01*
X157112155Y-81779500D01*
X156957510Y-81810261D01*
X156957498Y-81810264D01*
X156811827Y-81870602D01*
X156811814Y-81870609D01*
X156680711Y-81958210D01*
X156680707Y-81958213D01*
X156569213Y-82069707D01*
X156569210Y-82069711D01*
X156481609Y-82200814D01*
X156481602Y-82200827D01*
X156421264Y-82346498D01*
X156421261Y-82346510D01*
X156390500Y-82501153D01*
X156390500Y-82658846D01*
X156421261Y-82813489D01*
X156421264Y-82813501D01*
X156481602Y-82959172D01*
X156481609Y-82959185D01*
X156569210Y-83090288D01*
X156569213Y-83090292D01*
X156591740Y-83112819D01*
X156625225Y-83174142D01*
X156620241Y-83243834D01*
X156578369Y-83299767D01*
X156512905Y-83324184D01*
X156504059Y-83324500D01*
X156475166Y-83324500D01*
X156344338Y-83341725D01*
X156261765Y-83363850D01*
X156249764Y-83363564D01*
X156238518Y-83367759D01*
X156215483Y-83362748D01*
X156191915Y-83362187D01*
X156180267Y-83355087D01*
X156170245Y-83352907D01*
X156141991Y-83331756D01*
X156078533Y-83268298D01*
X156078531Y-83268295D01*
X155959660Y-83149424D01*
X155959659Y-83149423D01*
X155857235Y-83090289D01*
X155857234Y-83090288D01*
X155822726Y-83070365D01*
X155766824Y-83055386D01*
X155670000Y-83029442D01*
X155511886Y-83029442D01*
X155504290Y-83029442D01*
X155504274Y-83029443D01*
X154970766Y-83029443D01*
X154903727Y-83009758D01*
X154901875Y-83008545D01*
X154770185Y-82920552D01*
X154770172Y-82920545D01*
X154624501Y-82860207D01*
X154624489Y-82860204D01*
X154469845Y-82829443D01*
X154469842Y-82829443D01*
X154312158Y-82829443D01*
X154312155Y-82829443D01*
X154157510Y-82860204D01*
X154157498Y-82860207D01*
X154011827Y-82920545D01*
X154011814Y-82920552D01*
X153880711Y-83008153D01*
X153880707Y-83008156D01*
X153769213Y-83119650D01*
X153769210Y-83119654D01*
X153681609Y-83250757D01*
X153681602Y-83250770D01*
X153621264Y-83396441D01*
X153621261Y-83396453D01*
X153590500Y-83551096D01*
X153590500Y-83708789D01*
X153621261Y-83863432D01*
X153621264Y-83863444D01*
X153681602Y-84009115D01*
X153681609Y-84009128D01*
X153769210Y-84140231D01*
X153769213Y-84140235D01*
X153880707Y-84251729D01*
X153880711Y-84251732D01*
X154011814Y-84339333D01*
X154011827Y-84339340D01*
X154157498Y-84399678D01*
X154157503Y-84399680D01*
X154278435Y-84423735D01*
X154312153Y-84430442D01*
X154312156Y-84430443D01*
X154312158Y-84430443D01*
X154469844Y-84430443D01*
X154469845Y-84430442D01*
X154624497Y-84399680D01*
X154770179Y-84339337D01*
X154784591Y-84329707D01*
X154901875Y-84251341D01*
X154968553Y-84230463D01*
X154970766Y-84230443D01*
X155290846Y-84230443D01*
X155320286Y-84239087D01*
X155350273Y-84245611D01*
X155355288Y-84249365D01*
X155357885Y-84250128D01*
X155378527Y-84266762D01*
X155499181Y-84387416D01*
X155532666Y-84448739D01*
X155535500Y-84475097D01*
X155535500Y-84681248D01*
X155515815Y-84748287D01*
X155463011Y-84794042D01*
X155393853Y-84803986D01*
X155387309Y-84802865D01*
X155269845Y-84779500D01*
X155269842Y-84779500D01*
X155112158Y-84779500D01*
X155112155Y-84779500D01*
X154957510Y-84810261D01*
X154957498Y-84810264D01*
X154811827Y-84870602D01*
X154811814Y-84870609D01*
X154680711Y-84958210D01*
X154680707Y-84958213D01*
X154569213Y-85069707D01*
X154569210Y-85069711D01*
X154481609Y-85200814D01*
X154481602Y-85200827D01*
X154421264Y-85346498D01*
X154421261Y-85346510D01*
X154390500Y-85501153D01*
X154390500Y-85658846D01*
X154421261Y-85813489D01*
X154421264Y-85813501D01*
X154481602Y-85959172D01*
X154481609Y-85959185D01*
X154569210Y-86090288D01*
X154569213Y-86090292D01*
X154680707Y-86201786D01*
X154680711Y-86201789D01*
X154811814Y-86289390D01*
X154811827Y-86289397D01*
X154938160Y-86341725D01*
X154957503Y-86349737D01*
X155022147Y-86362595D01*
X155112849Y-86380638D01*
X155174760Y-86413023D01*
X155176339Y-86414574D01*
X155353896Y-86592132D01*
X155387381Y-86653455D01*
X155382397Y-86723147D01*
X155364593Y-86755297D01*
X155353129Y-86770237D01*
X155353120Y-86770250D01*
X155287303Y-86884248D01*
X155287302Y-86884249D01*
X155236800Y-87006170D01*
X155202724Y-87133341D01*
X155185500Y-87264166D01*
X155185500Y-87895833D01*
X155202724Y-88026658D01*
X155236800Y-88153829D01*
X155287302Y-88275750D01*
X155287303Y-88275751D01*
X155353120Y-88389749D01*
X155353132Y-88389767D01*
X155415668Y-88471264D01*
X155433459Y-88494449D01*
X155526551Y-88587541D01*
X155526554Y-88587543D01*
X155526555Y-88587544D01*
X155631232Y-88667867D01*
X155631236Y-88667869D01*
X155631243Y-88667875D01*
X155631250Y-88667879D01*
X155745248Y-88733696D01*
X155745249Y-88733697D01*
X155745252Y-88733698D01*
X155745257Y-88733701D01*
X155867171Y-88784200D01*
X155994338Y-88818275D01*
X156125174Y-88835500D01*
X156125181Y-88835500D01*
X156504059Y-88835500D01*
X156571098Y-88855185D01*
X156616853Y-88907989D01*
X156626797Y-88977147D01*
X156597772Y-89040703D01*
X156591740Y-89047181D01*
X156569213Y-89069707D01*
X156569210Y-89069711D01*
X156481609Y-89200814D01*
X156481602Y-89200827D01*
X156421264Y-89346498D01*
X156421261Y-89346510D01*
X156390500Y-89501153D01*
X156390500Y-89658846D01*
X156421261Y-89813489D01*
X156421264Y-89813501D01*
X156481602Y-89959172D01*
X156481609Y-89959185D01*
X156569210Y-90090288D01*
X156569213Y-90090292D01*
X156680707Y-90201786D01*
X156680711Y-90201789D01*
X156811814Y-90289390D01*
X156811827Y-90289397D01*
X156957498Y-90349735D01*
X156957503Y-90349737D01*
X157112153Y-90380499D01*
X157112156Y-90380500D01*
X157112158Y-90380500D01*
X157269844Y-90380500D01*
X157269845Y-90380499D01*
X157424497Y-90349737D01*
X157527186Y-90307201D01*
X157596655Y-90299733D01*
X157659134Y-90331008D01*
X157694786Y-90391097D01*
X157692292Y-90460922D01*
X157662319Y-90509444D01*
X155322286Y-92849478D01*
X155210481Y-92961282D01*
X155210479Y-92961285D01*
X155187683Y-93000770D01*
X155176337Y-93020423D01*
X155164887Y-93040255D01*
X155164885Y-93040257D01*
X155131425Y-93098209D01*
X155131423Y-93098212D01*
X155118766Y-93145451D01*
X155090499Y-93250943D01*
X155090499Y-93250945D01*
X155090499Y-93419046D01*
X155090500Y-93419059D01*
X155090500Y-95000234D01*
X155070815Y-95067273D01*
X155069602Y-95069125D01*
X154981609Y-95200814D01*
X154981602Y-95200827D01*
X154921264Y-95346498D01*
X154921261Y-95346510D01*
X154890500Y-95501153D01*
X154890500Y-95658846D01*
X154921261Y-95813489D01*
X154921264Y-95813501D01*
X154981602Y-95959172D01*
X154981609Y-95959185D01*
X155069210Y-96090288D01*
X155069213Y-96090292D01*
X155180707Y-96201786D01*
X155180711Y-96201789D01*
X155311814Y-96289390D01*
X155311827Y-96289397D01*
X155457498Y-96349735D01*
X155457503Y-96349737D01*
X155612153Y-96380499D01*
X155612156Y-96380500D01*
X155612158Y-96380500D01*
X155769844Y-96380500D01*
X155769845Y-96380499D01*
X155924497Y-96349737D01*
X156070179Y-96289394D01*
X156201289Y-96201789D01*
X156312789Y-96090289D01*
X156400394Y-95959179D01*
X156460737Y-95813497D01*
X156491500Y-95658842D01*
X156491500Y-95501158D01*
X156491500Y-95501155D01*
X156491499Y-95501153D01*
X156465531Y-95370606D01*
X156460737Y-95346503D01*
X156460735Y-95346498D01*
X156400397Y-95200827D01*
X156400390Y-95200814D01*
X156312398Y-95069125D01*
X156291520Y-95002447D01*
X156291500Y-95000234D01*
X156291500Y-93630096D01*
X156311185Y-93563057D01*
X156327815Y-93542419D01*
X156696744Y-93173489D01*
X156758067Y-93140005D01*
X156827759Y-93144989D01*
X156883692Y-93186861D01*
X156906042Y-93236979D01*
X156921261Y-93313491D01*
X156921264Y-93313501D01*
X156981602Y-93459172D01*
X156981609Y-93459185D01*
X157069210Y-93590288D01*
X157069213Y-93590292D01*
X157180707Y-93701786D01*
X157180711Y-93701789D01*
X157311814Y-93789390D01*
X157311827Y-93789397D01*
X157457498Y-93849735D01*
X157457503Y-93849737D01*
X157612153Y-93880499D01*
X157612156Y-93880500D01*
X157612158Y-93880500D01*
X157769844Y-93880500D01*
X157769845Y-93880499D01*
X157924497Y-93849737D01*
X158070179Y-93789394D01*
X158201289Y-93701789D01*
X158312789Y-93590289D01*
X158400394Y-93459179D01*
X158460737Y-93313497D01*
X158485927Y-93186861D01*
X158491638Y-93158150D01*
X158524023Y-93096239D01*
X158525518Y-93094716D01*
X164903416Y-86716819D01*
X164964739Y-86683334D01*
X164991097Y-86680500D01*
X189611234Y-86680500D01*
X189678273Y-86700185D01*
X189680125Y-86701398D01*
X189811814Y-86789390D01*
X189811827Y-86789397D01*
X189892847Y-86822956D01*
X189957503Y-86849737D01*
X190112153Y-86880499D01*
X190112156Y-86880500D01*
X190112158Y-86880500D01*
X190269844Y-86880500D01*
X190269845Y-86880499D01*
X190424497Y-86849737D01*
X190471121Y-86830424D01*
X190540588Y-86822956D01*
X190603067Y-86854231D01*
X190638720Y-86914319D01*
X190636227Y-86984144D01*
X190606254Y-87032666D01*
X190569214Y-87069706D01*
X190569210Y-87069711D01*
X190481609Y-87200814D01*
X190481602Y-87200827D01*
X190421264Y-87346498D01*
X190421261Y-87346508D01*
X190392672Y-87490234D01*
X190360287Y-87552145D01*
X190299571Y-87586719D01*
X190229801Y-87582979D01*
X190223603Y-87580603D01*
X190174501Y-87560264D01*
X190174489Y-87560261D01*
X190019845Y-87529500D01*
X190019842Y-87529500D01*
X189862158Y-87529500D01*
X189862155Y-87529500D01*
X189707510Y-87560261D01*
X189707498Y-87560264D01*
X189561827Y-87620602D01*
X189561814Y-87620609D01*
X189430125Y-87708602D01*
X189363447Y-87729480D01*
X189361234Y-87729500D01*
X166320057Y-87729500D01*
X166161943Y-87729500D01*
X166009215Y-87770423D01*
X166009214Y-87770423D01*
X166009212Y-87770424D01*
X166009209Y-87770425D01*
X165959096Y-87799359D01*
X165959095Y-87799360D01*
X165934623Y-87813489D01*
X165872285Y-87849479D01*
X165872282Y-87849481D01*
X165760478Y-87961286D01*
X151745532Y-101976231D01*
X151684209Y-102009716D01*
X151638453Y-102011023D01*
X151439422Y-101979500D01*
X151439417Y-101979500D01*
X151242583Y-101979500D01*
X151242578Y-101979500D01*
X151048173Y-102010290D01*
X150860970Y-102071117D01*
X150685594Y-102160476D01*
X150594741Y-102226485D01*
X150526354Y-102276172D01*
X150526352Y-102276174D01*
X150526351Y-102276174D01*
X150387174Y-102415351D01*
X150387174Y-102415352D01*
X150387172Y-102415354D01*
X150337485Y-102483741D01*
X150271476Y-102574594D01*
X150182117Y-102749970D01*
X150121290Y-102937173D01*
X150090500Y-103131577D01*
X141699500Y-103131577D01*
X141699500Y-98462500D01*
X141719185Y-98395461D01*
X141771989Y-98349706D01*
X141823500Y-98338500D01*
X151257943Y-98338500D01*
X151257945Y-98338500D01*
X151387274Y-98303847D01*
X151503226Y-98236901D01*
X151597901Y-98142226D01*
X151664847Y-98026274D01*
X151699500Y-97896945D01*
X151699500Y-85763055D01*
X151664847Y-85633726D01*
X151597901Y-85517774D01*
X151503226Y-85423099D01*
X151387274Y-85356153D01*
X151257945Y-85321500D01*
X151257944Y-85321500D01*
X141823500Y-85321500D01*
X141756461Y-85301815D01*
X141710706Y-85249011D01*
X141699500Y-85197500D01*
X141699500Y-74864166D01*
X146935500Y-74864166D01*
X146935500Y-75430002D01*
X146940644Y-75501939D01*
X146951603Y-75539262D01*
X146955363Y-75591841D01*
X146935500Y-75729998D01*
X146935500Y-76295833D01*
X146952724Y-76426658D01*
X146986800Y-76553829D01*
X147037302Y-76675750D01*
X147037303Y-76675751D01*
X147103120Y-76789749D01*
X147103132Y-76789767D01*
X147160228Y-76864174D01*
X147183459Y-76894449D01*
X147276551Y-76987541D01*
X147341989Y-77037754D01*
X147383189Y-77094179D01*
X147390500Y-77136127D01*
X147390500Y-78658846D01*
X147421261Y-78813489D01*
X147421264Y-78813501D01*
X147481602Y-78959172D01*
X147481609Y-78959185D01*
X147569210Y-79090288D01*
X147569213Y-79090292D01*
X147680707Y-79201786D01*
X147680711Y-79201789D01*
X147811814Y-79289390D01*
X147811827Y-79289397D01*
X147957498Y-79349735D01*
X147957503Y-79349737D01*
X148112153Y-79380499D01*
X148112156Y-79380500D01*
X148112158Y-79380500D01*
X148269844Y-79380500D01*
X148269845Y-79380499D01*
X148424497Y-79349737D01*
X148570179Y-79289394D01*
X148701289Y-79201789D01*
X148812789Y-79090289D01*
X148900394Y-78959179D01*
X148960737Y-78813497D01*
X148991500Y-78658842D01*
X148991500Y-77136127D01*
X149011185Y-77069088D01*
X149040008Y-77037755D01*
X149105449Y-76987541D01*
X149198541Y-76894449D01*
X149221778Y-76864166D01*
X159935500Y-76864166D01*
X159935500Y-77430002D01*
X159940644Y-77501939D01*
X159951603Y-77539262D01*
X159955363Y-77591841D01*
X159935500Y-77729998D01*
X159935500Y-78295833D01*
X159952724Y-78426658D01*
X159986800Y-78553829D01*
X160037302Y-78675750D01*
X160037303Y-78675751D01*
X160103120Y-78789749D01*
X160103132Y-78789767D01*
X160164207Y-78869360D01*
X160183459Y-78894449D01*
X160276551Y-78987541D01*
X160276555Y-78987544D01*
X160381232Y-79067867D01*
X160381236Y-79067869D01*
X160381243Y-79067875D01*
X160381250Y-79067879D01*
X160495249Y-79133697D01*
X160495257Y-79133701D01*
X160513951Y-79141444D01*
X160568355Y-79185284D01*
X160590421Y-79251578D01*
X160590500Y-79256006D01*
X160590500Y-80000234D01*
X160570815Y-80067273D01*
X160569602Y-80069125D01*
X160481609Y-80200814D01*
X160481602Y-80200827D01*
X160421264Y-80346498D01*
X160421261Y-80346510D01*
X160390500Y-80501153D01*
X160390500Y-80658846D01*
X160421261Y-80813489D01*
X160421264Y-80813501D01*
X160481602Y-80959172D01*
X160481609Y-80959185D01*
X160569210Y-81090288D01*
X160569213Y-81090292D01*
X160680707Y-81201786D01*
X160680711Y-81201789D01*
X160811814Y-81289390D01*
X160811827Y-81289397D01*
X160935113Y-81340463D01*
X160957503Y-81349737D01*
X161112153Y-81380499D01*
X161112156Y-81380500D01*
X161112158Y-81380500D01*
X161269844Y-81380500D01*
X161269845Y-81380499D01*
X161424497Y-81349737D01*
X161570179Y-81289394D01*
X161701289Y-81201789D01*
X161812789Y-81090289D01*
X161900394Y-80959179D01*
X161960737Y-80813497D01*
X161991500Y-80658842D01*
X161991500Y-80501158D01*
X161991500Y-80501155D01*
X161991499Y-80501153D01*
X161960738Y-80346510D01*
X161960737Y-80346503D01*
X161924676Y-80259443D01*
X161900397Y-80200827D01*
X161900390Y-80200814D01*
X161812398Y-80069125D01*
X161791520Y-80002447D01*
X161791500Y-80000234D01*
X161791500Y-79256006D01*
X161811185Y-79188967D01*
X161863989Y-79143212D01*
X161868033Y-79141450D01*
X161886743Y-79133701D01*
X162000757Y-79067875D01*
X162105449Y-78987541D01*
X162198541Y-78894449D01*
X162278875Y-78789757D01*
X162344701Y-78675743D01*
X162395200Y-78553829D01*
X162429275Y-78426662D01*
X162446500Y-78295826D01*
X162446500Y-77730000D01*
X162441355Y-77658060D01*
X162430396Y-77620740D01*
X162426636Y-77568158D01*
X162430129Y-77543862D01*
X162446500Y-77430000D01*
X162446500Y-76864174D01*
X162445794Y-76858815D01*
X162436703Y-76789757D01*
X162429275Y-76733338D01*
X162395200Y-76606171D01*
X162344701Y-76484257D01*
X162344698Y-76484252D01*
X162344697Y-76484249D01*
X162344696Y-76484248D01*
X162278879Y-76370250D01*
X162278875Y-76370243D01*
X162254517Y-76338500D01*
X162198544Y-76265555D01*
X162198541Y-76265551D01*
X162105449Y-76172459D01*
X162105444Y-76172455D01*
X162000767Y-76092132D01*
X162000755Y-76092124D01*
X161969497Y-76074077D01*
X161921283Y-76023512D01*
X161908059Y-75954905D01*
X161916935Y-75919243D01*
X161960737Y-75813497D01*
X161991500Y-75658842D01*
X161991500Y-75501158D01*
X161991500Y-75501155D01*
X161991499Y-75501153D01*
X161960738Y-75346510D01*
X161960737Y-75346503D01*
X161960735Y-75346498D01*
X161900397Y-75200827D01*
X161900390Y-75200814D01*
X161812789Y-75069711D01*
X161812786Y-75069707D01*
X161701292Y-74958213D01*
X161701288Y-74958210D01*
X161570185Y-74870609D01*
X161570172Y-74870602D01*
X161424501Y-74810264D01*
X161424489Y-74810261D01*
X161269845Y-74779500D01*
X161269842Y-74779500D01*
X161112158Y-74779500D01*
X161112155Y-74779500D01*
X160957510Y-74810261D01*
X160957498Y-74810264D01*
X160811827Y-74870602D01*
X160811814Y-74870609D01*
X160680711Y-74958210D01*
X160680707Y-74958213D01*
X160569213Y-75069707D01*
X160569210Y-75069711D01*
X160481609Y-75200814D01*
X160481602Y-75200827D01*
X160421264Y-75346498D01*
X160421261Y-75346510D01*
X160390500Y-75501153D01*
X160390500Y-75658846D01*
X160421261Y-75813489D01*
X160421264Y-75813501D01*
X160465062Y-75919239D01*
X160472531Y-75988708D01*
X160441256Y-76051187D01*
X160412503Y-76074076D01*
X160412500Y-76074079D01*
X160381243Y-76092125D01*
X160381232Y-76092132D01*
X160276555Y-76172455D01*
X160276545Y-76172464D01*
X160183464Y-76265545D01*
X160183455Y-76265555D01*
X160103132Y-76370232D01*
X160103120Y-76370250D01*
X160037303Y-76484248D01*
X160037302Y-76484249D01*
X159986800Y-76606170D01*
X159952724Y-76733341D01*
X159935500Y-76864166D01*
X149221778Y-76864166D01*
X149278875Y-76789757D01*
X149344701Y-76675743D01*
X149395200Y-76553829D01*
X149429275Y-76426662D01*
X149446500Y-76295826D01*
X149446500Y-75854500D01*
X149466185Y-75787461D01*
X149518989Y-75741706D01*
X149570500Y-75730500D01*
X150919844Y-75730500D01*
X150919845Y-75730499D01*
X151074497Y-75699737D01*
X151220179Y-75639394D01*
X151351289Y-75551789D01*
X152701286Y-74201790D01*
X152701289Y-74201789D01*
X152812789Y-74090289D01*
X152900394Y-73959179D01*
X152960737Y-73813497D01*
X152991500Y-73658842D01*
X152991500Y-73501158D01*
X152991500Y-73501155D01*
X152991499Y-73501153D01*
X152960738Y-73346510D01*
X152960737Y-73346503D01*
X152960735Y-73346498D01*
X152900397Y-73200827D01*
X152900390Y-73200814D01*
X152812789Y-73069711D01*
X152812786Y-73069707D01*
X152701292Y-72958213D01*
X152701288Y-72958210D01*
X152570185Y-72870609D01*
X152570172Y-72870602D01*
X152424501Y-72810264D01*
X152424489Y-72810261D01*
X152269845Y-72779500D01*
X152269842Y-72779500D01*
X152112157Y-72779500D01*
X152112155Y-72779500D01*
X151957508Y-72810261D01*
X151957498Y-72810264D01*
X151811827Y-72870602D01*
X151811814Y-72870609D01*
X151680712Y-72958209D01*
X151624962Y-73013960D01*
X151569211Y-73069711D01*
X150545741Y-74093181D01*
X150484418Y-74126666D01*
X150458060Y-74129500D01*
X149091557Y-74129500D01*
X149024518Y-74109815D01*
X149016070Y-74103875D01*
X149000758Y-74092125D01*
X148886751Y-74026303D01*
X148886750Y-74026302D01*
X148764829Y-73975800D01*
X148637658Y-73941724D01*
X148506833Y-73924500D01*
X148506826Y-73924500D01*
X147875174Y-73924500D01*
X147875166Y-73924500D01*
X147744341Y-73941724D01*
X147617170Y-73975800D01*
X147495249Y-74026302D01*
X147495248Y-74026303D01*
X147381250Y-74092120D01*
X147381232Y-74092132D01*
X147276555Y-74172455D01*
X147276545Y-74172464D01*
X147183464Y-74265545D01*
X147183455Y-74265555D01*
X147103132Y-74370232D01*
X147103120Y-74370250D01*
X147037303Y-74484248D01*
X147037302Y-74484249D01*
X146986800Y-74606170D01*
X146952724Y-74733341D01*
X146935500Y-74864166D01*
X141699500Y-74864166D01*
X141699500Y-64965837D01*
X142240500Y-64965837D01*
X142240500Y-65194162D01*
X142276215Y-65419660D01*
X142346770Y-65636803D01*
X142416163Y-65772993D01*
X142450421Y-65840228D01*
X142584621Y-66024937D01*
X142746063Y-66186379D01*
X142930772Y-66320579D01*
X143026884Y-66369550D01*
X143134196Y-66424229D01*
X143134198Y-66424229D01*
X143134201Y-66424231D01*
X143242621Y-66459459D01*
X143351339Y-66494784D01*
X143576838Y-66530500D01*
X143576843Y-66530500D01*
X143805162Y-66530500D01*
X144030660Y-66494784D01*
X144062018Y-66484595D01*
X144247799Y-66424231D01*
X144451228Y-66320579D01*
X144635937Y-66186379D01*
X144797379Y-66024937D01*
X144931579Y-65840228D01*
X145035231Y-65636799D01*
X145105784Y-65419660D01*
X145129014Y-65272993D01*
X145141500Y-65194162D01*
X145141500Y-64965837D01*
X145120721Y-64834653D01*
X145105784Y-64740340D01*
X145105783Y-64740336D01*
X145105783Y-64740335D01*
X145098256Y-64717169D01*
X145035229Y-64523196D01*
X144958604Y-64372812D01*
X144931579Y-64319772D01*
X144797379Y-64135063D01*
X144635937Y-63973621D01*
X144451228Y-63839421D01*
X144429794Y-63828500D01*
X144247803Y-63735770D01*
X144030660Y-63665215D01*
X143805162Y-63629500D01*
X143805157Y-63629500D01*
X143576843Y-63629500D01*
X143576838Y-63629500D01*
X143351339Y-63665215D01*
X143134196Y-63735770D01*
X142930771Y-63839421D01*
X142746061Y-63973622D01*
X142584622Y-64135061D01*
X142450421Y-64319771D01*
X142346770Y-64523196D01*
X142276215Y-64740339D01*
X142240500Y-64965837D01*
X141699500Y-64965837D01*
X141699500Y-63212500D01*
X141719185Y-63145461D01*
X141771989Y-63099706D01*
X141823500Y-63088500D01*
X220558500Y-63088500D01*
X220625539Y-63108185D01*
G37*
G04 #@! TD.AperFunction*
M02*
