G04 #@! TF.GenerationSoftware,KiCad,Pcbnew,9.0.0*
G04 #@! TF.CreationDate,2025-04-06T11:42:04-04:00*
G04 #@! TF.ProjectId,combat-pcb,636f6d62-6174-42d7-9063-622e6b696361,rev?*
G04 #@! TF.SameCoordinates,Original*
G04 #@! TF.FileFunction,Soldermask,Bot*
G04 #@! TF.FilePolarity,Negative*
%FSLAX46Y46*%
G04 Gerber Fmt 4.6, Leading zero omitted, Abs format (unit mm)*
G04 Created by KiCad (PCBNEW 9.0.0) date 2025-04-06 11:42:04*
%MOMM*%
%LPD*%
G01*
G04 APERTURE LIST*
G04 Aperture macros list*
%AMRoundRect*
0 Rectangle with rounded corners*
0 $1 Rounding radius*
0 $2 $3 $4 $5 $6 $7 $8 $9 X,Y pos of 4 corners*
0 Add a 4 corners polygon primitive as box body*
4,1,4,$2,$3,$4,$5,$6,$7,$8,$9,$2,$3,0*
0 Add four circle primitives for the rounded corners*
1,1,$1+$1,$2,$3*
1,1,$1+$1,$4,$5*
1,1,$1+$1,$6,$7*
1,1,$1+$1,$8,$9*
0 Add four rect primitives between the rounded corners*
20,1,$1+$1,$2,$3,$4,$5,0*
20,1,$1+$1,$4,$5,$6,$7,0*
20,1,$1+$1,$6,$7,$8,$9,0*
20,1,$1+$1,$8,$9,$2,$3,0*%
%AMFreePoly0*
4,1,39,0.535921,0.785921,0.550800,0.750000,0.550800,-0.750000,0.535921,-0.785921,0.500000,-0.800800,0.000000,-0.800800,-0.010328,-0.796522,-0.065263,-0.796522,-0.078411,-0.794791,-0.204490,-0.761009,-0.216742,-0.755934,-0.329781,-0.690671,-0.340302,-0.682598,-0.432598,-0.590302,-0.440671,-0.579781,-0.505934,-0.466742,-0.511009,-0.454490,-0.544791,-0.328411,-0.546522,-0.315263,-0.546522,-0.260327,
-0.550800,-0.250000,-0.550800,0.250000,-0.546522,0.260327,-0.546522,0.315263,-0.544791,0.328411,-0.511009,0.454490,-0.505934,0.466742,-0.440671,0.579781,-0.432598,0.590302,-0.340302,0.682598,-0.329781,0.690671,-0.216742,0.755934,-0.204490,0.761009,-0.078411,0.794791,-0.065263,0.796522,-0.010328,0.796522,0.000000,0.800800,0.500000,0.800800,0.535921,0.785921,0.535921,0.785921,
$1*%
%AMFreePoly1*
4,1,39,0.010328,0.796522,0.065263,0.796522,0.078411,0.794791,0.204490,0.761009,0.216742,0.755934,0.329781,0.690671,0.340302,0.682598,0.432598,0.590302,0.440671,0.579781,0.505934,0.466742,0.511009,0.454490,0.544791,0.328411,0.546522,0.315263,0.546522,0.260327,0.550800,0.250000,0.550800,-0.250000,0.546522,-0.260327,0.546522,-0.315263,0.544791,-0.328411,0.511009,-0.454490,
0.505934,-0.466742,0.440671,-0.579781,0.432598,-0.590302,0.340302,-0.682598,0.329781,-0.690671,0.216742,-0.755934,0.204490,-0.761009,0.078411,-0.794791,0.065263,-0.796522,0.010328,-0.796522,0.000000,-0.800800,-0.500000,-0.800800,-0.535921,-0.785921,-0.550800,-0.750000,-0.550800,0.750000,-0.535921,0.785921,-0.500000,0.800800,0.000000,0.800800,0.010328,0.796522,0.010328,0.796522,
$1*%
G04 Aperture macros list end*
%ADD10C,2.601600*%
%ADD11RoundRect,0.050800X-0.685000X-0.685000X0.685000X-0.685000X0.685000X0.685000X-0.685000X0.685000X0*%
%ADD12C,1.601600*%
%ADD13C,1.901600*%
%ADD14RoundRect,0.050800X1.050000X1.050000X-1.050000X1.050000X-1.050000X-1.050000X1.050000X-1.050000X0*%
%ADD15C,2.201600*%
%ADD16RoundRect,0.050800X0.850000X-0.850000X0.850000X0.850000X-0.850000X0.850000X-0.850000X-0.850000X0*%
%ADD17O,1.801600X1.801600*%
%ADD18FreePoly0,180.000000*%
%ADD19FreePoly1,180.000000*%
%ADD20FreePoly0,270.000000*%
%ADD21FreePoly1,270.000000*%
G04 APERTURE END LIST*
G36*
X156991000Y-86830000D02*
G01*
X156691000Y-86830000D01*
X156691000Y-88330000D01*
X156991000Y-88330000D01*
X156991000Y-86830000D01*
G37*
G36*
X147441000Y-75430000D02*
G01*
X148941000Y-75430000D01*
X148941000Y-75730000D01*
X147441000Y-75730000D01*
X147441000Y-75430000D01*
G37*
G36*
X157341000Y-83830000D02*
G01*
X157041000Y-83830000D01*
X157041000Y-85330000D01*
X157341000Y-85330000D01*
X157341000Y-83830000D01*
G37*
G36*
X160441000Y-83430000D02*
G01*
X161941000Y-83430000D01*
X161941000Y-83730000D01*
X160441000Y-83730000D01*
X160441000Y-83430000D01*
G37*
G36*
X160441000Y-77430000D02*
G01*
X161941000Y-77430000D01*
X161941000Y-77730000D01*
X160441000Y-77730000D01*
X160441000Y-77430000D01*
G37*
D10*
X218691000Y-110080000D03*
D11*
X151341000Y-108310000D03*
D12*
X151341000Y-105770000D03*
X151341000Y-103230000D03*
X153881000Y-108310000D03*
X153881000Y-105770000D03*
X153881000Y-103230000D03*
X156421000Y-108310000D03*
X156421000Y-105770000D03*
X156421000Y-103230000D03*
X158961000Y-108310000D03*
X158961000Y-105770000D03*
X158961000Y-103230000D03*
X161501000Y-108310000D03*
X161501000Y-105770000D03*
X161501000Y-103230000D03*
X164041000Y-108310000D03*
X164041000Y-105770000D03*
X164041000Y-103230000D03*
D10*
X143691000Y-110080000D03*
D13*
X195321000Y-70598000D03*
X195321000Y-111238000D03*
X210561000Y-70598000D03*
X210561000Y-111238000D03*
D14*
X179191000Y-107580000D03*
D15*
X174191000Y-107580000D03*
D10*
X218691000Y-65080000D03*
X143691000Y-65080000D03*
D16*
X152081000Y-65580000D03*
D17*
X154621000Y-65580000D03*
X157161000Y-65580000D03*
X159701000Y-65580000D03*
X162241000Y-65580000D03*
X164781000Y-65580000D03*
X167321000Y-65580000D03*
X169861000Y-65580000D03*
X172401000Y-65580000D03*
X174941000Y-65580000D03*
X177481000Y-65580000D03*
X180021000Y-65580000D03*
X182561000Y-65580000D03*
X185101000Y-65580000D03*
X187641000Y-65580000D03*
X190181000Y-65580000D03*
D18*
X157491000Y-87580000D03*
D19*
X156191000Y-87580000D03*
D20*
X148191000Y-74930000D03*
D21*
X148191000Y-76230000D03*
D18*
X157841000Y-84580000D03*
D19*
X156541000Y-84580000D03*
D20*
X161191000Y-82930000D03*
D21*
X161191000Y-84230000D03*
D20*
X161191000Y-76930000D03*
D21*
X161191000Y-78230000D03*
M02*
