ISO-10303-21;
HEADER;
FILE_DESCRIPTION (( 'STEP AP214' ),
    '1' );
FILE_NAME ('P-1006-F - SERVICE CAP.STEP',
    '2025-04-29T20:33:20',
    ( '' ),
    ( '' ),
    'SwSTEP 2.0',
    'SolidWorks 2024',
    '' );
FILE_SCHEMA (( 'AUTOMOTIVE_DESIGN' ));
ENDSEC;

DATA;
#1 = AXIS2_PLACEMENT_3D ( 'NONE', #222, #138, #33 ) ;
#2 = LINE ( 'NONE', #195, #5 ) ;
#3 = CIRCLE ( 'NONE', #215, 109.0763400701890760 ) ;
#4 = DIRECTION ( 'NONE',  ( -1.516319472943648719E-16, 1.000000000000000000, -0.000000000000000000 ) ) ;
#5 = VECTOR ( 'NONE', #88, 1000.000000000000000 ) ;
#6 = EDGE_CURVE ( 'NONE', #135, #65, #171, .T. ) ;
#7 = CIRCLE ( 'NONE', #134, 73.62923049303543621 ) ;
#8 = ORIENTED_EDGE ( 'NONE', *, *, #90, .F. ) ;
#9 = VERTEX_POINT ( 'NONE', #98 ) ;
#10 = CARTESIAN_POINT ( 'NONE',  ( 75.14144542131371907, 91.52284894734846432, 9.202173061851740180E-15 ) ) ;
#11 = PRODUCT_DEFINITION ( 'UNKNOWN', '', #116, #16 ) ;
#12 = EDGE_LOOP ( 'NONE', ( #104, #44, #62, #148 ) ) ;
#13 = FACE_OUTER_BOUND ( 'NONE', #133, .T. ) ;
#14 =( NAMED_UNIT ( * ) PLANE_ANGLE_UNIT ( ) SI_UNIT ( $, .RADIAN. ) );
#15 = TOROIDAL_SURFACE ( 'NONE', #159, 74.14144542131374749, 1.000000000000000000 ) ;
#16 = PRODUCT_DEFINITION_CONTEXT ( 'detailed design', #126, 'design' ) ;
#17 = DIRECTION ( 'NONE',  ( 1.000000000000000000, 1.884820432712134803E-16, 0.000000000000000000 ) ) ;
#18 = DIRECTION ( 'NONE',  ( 1.516319472943648719E-16, -1.000000000000000000, 0.000000000000000000 ) ) ;
#19 = CYLINDRICAL_SURFACE ( 'NONE', #20, 75.14144542131374749 ) ;
#20 = AXIS2_PLACEMENT_3D ( 'NONE', #82, #224, #118 ) ;
#21 = FACE_OUTER_BOUND ( 'NONE', #12, .T. ) ;
#22 = CARTESIAN_POINT ( 'NONE',  ( -8.638353530736095924E-31, 91.52284894734843590, 0.000000000000000000 ) ) ;
#23 = SURFACE_SIDE_STYLE ('',( #37 ) ) ;
#24 = ADVANCED_FACE ( 'NONE', ( #205 ), #208, .T. ) ;
#25 = STYLED_ITEM ( 'NONE', ( #106 ), #137 ) ;
#26 = VERTEX_POINT ( 'NONE', #10 ) ;
#27 =( NAMED_UNIT ( * ) SI_UNIT ( $, .STERADIAN. ) SOLID_ANGLE_UNIT ( ) );
#28 = ORIENTED_EDGE ( 'NONE', *, *, #168, .F. ) ;
#29 = CIRCLE ( 'NONE', #157, 75.14144542131373328 ) ;
#30 = VERTEX_POINT ( 'NONE', #49 ) ;
#31 = TOROIDAL_SURFACE ( 'NONE', #219, 17.75870078712414113, 109.0763400701890617 ) ;
#32 = DIRECTION ( 'NONE',  ( 1.516319472943648719E-16, -1.000000000000000000, 0.000000000000000000 ) ) ;
#33 = DIRECTION ( 'NONE',  ( 1.000000000000000000, 1.846888588581508164E-16, 0.000000000000000000 ) ) ;
#34 = DIRECTION ( 'NONE',  ( 1.516319472943648719E-16, -1.000000000000000000, 0.000000000000000000 ) ) ;
#35 = DIRECTION ( 'NONE',  ( -1.000000000000000000, 0.000000000000000000, 0.000000000000000000 ) ) ;
#36 = DIRECTION ( 'NONE',  ( 1.516319472943648719E-16, -1.000000000000000000, 0.000000000000000000 ) ) ;
#37 = SURFACE_STYLE_FILL_AREA ( #184 ) ;
#38 = CARTESIAN_POINT ( 'NONE',  ( -75.14144542131376170, 76.91888312701902919, 0.000000000000000000 ) ) ;
#39 = EDGE_CURVE ( 'NONE', #9, #47, #3, .T. ) ;
#40 = ORIENTED_EDGE ( 'NONE', *, *, #226, .T. ) ;
#41 = CLOSED_SHELL ( 'NONE', ( #24, #114, #181, #69, #160, #83, #43, #56 ) ) ;
#42 = EDGE_LOOP ( 'NONE', ( #110, #221, #172, #188 ) ) ;
#43 = ADVANCED_FACE ( 'NONE', ( #96 ), #119, .T. ) ;
#44 = ORIENTED_EDGE ( 'NONE', *, *, #147, .T. ) ;
#45 = CARTESIAN_POINT ( 'NONE',  ( -3.252301313199808542E-14, 89.52284894734840748, 0.000000000000000000 ) ) ;
#46 = DIRECTION ( 'NONE',  ( 1.000000000000000000, 0.000000000000000000, 0.000000000000000000 ) ) ;
#47 = VERTEX_POINT ( 'NONE', #170 ) ;
#48 = VECTOR ( 'NONE', #196, 1000.000000000000000 ) ;
#49 = CARTESIAN_POINT ( 'NONE',  ( 38.20000000000000995, 89.52284894734840748, 6.847565458720375499E-15 ) ) ;
#50 = CIRCLE ( 'NONE', #131, 38.20000000000002416 ) ;
#51 = CARTESIAN_POINT ( 'NONE',  ( -1.126458872487699502E-14, 76.91888312701904340, 0.000000000000000000 ) ) ;
#52 = DIRECTION ( 'NONE',  ( -1.000000000000000000, -1.846888588581508164E-16, 0.000000000000000000 ) ) ;
#53 = DIRECTION ( 'NONE',  ( 1.516319472943648719E-16, -1.000000000000000000, 0.000000000000000000 ) ) ;
#54 = MECHANICAL_DESIGN_GEOMETRIC_PRESENTATION_REPRESENTATION (  '', ( #25 ), #94 ) ;
#55 = FACE_OUTER_BOUND ( 'NONE', #81, .T. ) ;
#56 = ADVANCED_FACE ( 'NONE', ( #13 ), #15, .T. ) ;
#57 =( NAMED_UNIT ( * ) PLANE_ANGLE_UNIT ( ) SI_UNIT ( $, .RADIAN. ) );
#58 = CARTESIAN_POINT ( 'NONE',  ( -1.166336003225756239E-14, 76.91888312701904340, 0.000000000000000000 ) ) ;
#59 = CARTESIAN_POINT ( 'NONE',  ( -75.14144542131374749, 91.52284894734843590, 0.000000000000000000 ) ) ;
#60 = AXIS2_PLACEMENT_3D ( 'NONE', #129, #109, #198 ) ;
#61 = SHAPE_DEFINITION_REPRESENTATION ( #151, #217 ) ;
#62 = ORIENTED_EDGE ( 'NONE', *, *, #39, .T. ) ;
#63 = ORIENTED_EDGE ( 'NONE', *, *, #185, .F. ) ;
#64 = APPLICATION_PROTOCOL_DEFINITION ( 'draft international standard', 'automotive_design', 1998, #126 ) ;
#65 = VERTEX_POINT ( 'NONE', #225 ) ;
#66 = ORIENTED_EDGE ( 'NONE', *, *, #6, .F. ) ;
#67 = CARTESIAN_POINT ( 'NONE',  ( -1.073558721216520180E-14, 76.06002582382548383, 0.000000000000000000 ) ) ;
#68 = DIRECTION ( 'NONE',  ( -1.000000000000000000, -1.846888588581508410E-16, 0.000000000000000000 ) ) ;
#69 = ADVANCED_FACE ( 'NONE', ( #143 ), #70, .F. ) ;
#70 = PLANE ( 'NONE',  #87 ) ;
#71 =( LENGTH_UNIT ( ) NAMED_UNIT ( * ) SI_UNIT ( .MILLI., .METRE. ) );
#72 = EDGE_CURVE ( 'NONE', #47, #30, #50, .T. ) ;
#73 =( LENGTH_UNIT ( ) NAMED_UNIT ( * ) SI_UNIT ( .MILLI., .METRE. ) );
#74 = PRODUCT_RELATED_PRODUCT_CATEGORY ( 'part', '', ( #214 ) ) ;
#75 = CIRCLE ( 'NONE', #204, 1.000000000000000888 ) ;
#76 = APPLICATION_CONTEXT ( 'automotive_design' ) ;
#77 = EDGE_LOOP ( 'NONE', ( #66, #223, #190, #63 ) ) ;
#78 = ORIENTED_EDGE ( 'NONE', *, *, #6, .T. ) ;
#79 = DIRECTION ( 'NONE',  ( 1.000000000000000000, 1.516319472943648719E-16, 0.000000000000000000 ) ) ;
#80 = CIRCLE ( 'NONE', #117, 75.14144542131374749 ) ;
#81 = EDGE_LOOP ( 'NONE', ( #150, #93, #40, #165 ) ) ;
#82 = CARTESIAN_POINT ( 'NONE',  ( -1.387778780781445676E-14, 91.52284894734843590, 0.000000000000000000 ) ) ;
#83 = ADVANCED_FACE ( 'NONE', ( #21 ), #31, .F. ) ;
#84 = FILL_AREA_STYLE_COLOUR ( '', #89 ) ;
#85 = LINE ( 'NONE', #128, #48 ) ;
#86 = DIRECTION ( 'NONE',  ( -1.516319472943648719E-16, 1.000000000000000000, -0.000000000000000000 ) ) ;
#87 = AXIS2_PLACEMENT_3D ( 'NONE', #22, #36, #180 ) ;
#88 = DIRECTION ( 'NONE',  ( -1.516319472943648719E-16, 1.000000000000000000, -0.000000000000000000 ) ) ;
#89 = COLOUR_RGB ( '',0.7921568627450980005, 0.8196078431372548767, 0.9333333333333333481 ) ;
#90 = EDGE_CURVE ( 'NONE', #65, #135, #80, .T. ) ;
#91 = VERTEX_POINT ( 'NONE', #142 ) ;
#92 = AXIS2_PLACEMENT_3D ( 'NONE', #174, #156, #144 ) ;
#93 = ORIENTED_EDGE ( 'NONE', *, *, #90, .T. ) ;
#94 =( GEOMETRIC_REPRESENTATION_CONTEXT ( 3 ) GLOBAL_UNCERTAINTY_ASSIGNED_CONTEXT ( ( #99 ) ) GLOBAL_UNIT_ASSIGNED_CONTEXT ( ( #73, #14, #27 ) ) REPRESENTATION_CONTEXT ( 'NONE', 'WORKASPACE' ) );
#95 = VERTEX_POINT ( 'NONE', #59 ) ;
#96 = FACE_OUTER_BOUND ( 'NONE', #202, .T. ) ;
#97 = AXIS2_PLACEMENT_3D ( 'NONE', #45, #189, #175 ) ;
#98 = CARTESIAN_POINT ( 'NONE',  ( -73.62923049303546463, 76.06002582382548383, 0.000000000000000000 ) ) ;
#99 = UNCERTAINTY_MEASURE_WITH_UNIT (LENGTH_MEASURE( 1.000000000000000082E-05 ), #73, 'distance_accuracy_value', 'NONE');
#100 = DIRECTION ( 'NONE',  ( -1.000000000000000000, 0.000000000000000000, 0.000000000000000000 ) ) ;
#101 = DIRECTION ( 'NONE',  ( 1.000000000000000000, 1.516319472943648719E-16, 0.000000000000000000 ) ) ;
#102 = APPLICATION_PROTOCOL_DEFINITION ( 'draft international standard', 'automotive_design', 1998, #76 ) ;
#103 = DIRECTION ( 'NONE',  ( -1.516319472943648719E-16, 1.000000000000000000, -0.000000000000000000 ) ) ;
#104 = ORIENTED_EDGE ( 'NONE', *, *, #177, .F. ) ;
#105 = CARTESIAN_POINT ( 'NONE',  ( 17.75870078712414468, -17.62098545107700431, 2.174813607596716392E-15 ) ) ;
#106 = PRESENTATION_STYLE_ASSIGNMENT (( #161 ) ) ;
#107 = EDGE_CURVE ( 'NONE', #65, #26, #2, .T. ) ;
#108 = CARTESIAN_POINT ( 'NONE',  ( -1.357452391322572366E-14, 89.52284894734840748, 0.000000000000000000 ) ) ;
#109 = DIRECTION ( 'NONE',  ( -1.516319472943648719E-16, 1.000000000000000000, -0.000000000000000000 ) ) ;
#110 = ORIENTED_EDGE ( 'NONE', *, *, #168, .T. ) ;
#111 = EDGE_CURVE ( 'NONE', #30, #47, #132, .T. ) ;
#112 = ORIENTED_EDGE ( 'NONE', *, *, #111, .F. ) ;
#113 = ORIENTED_EDGE ( 'NONE', *, *, #201, .F. ) ;
#114 = ADVANCED_FACE ( 'NONE', ( #124 ), #121, .F. ) ;
#115 = ORIENTED_EDGE ( 'NONE', *, *, #185, .T. ) ;
#116 = PRODUCT_DEFINITION_FORMATION_WITH_SPECIFIED_SOURCE ( 'ANY', '', #214, .NOT_KNOWN. ) ;
#117 = AXIS2_PLACEMENT_3D ( 'NONE', #58, #86, #127 ) ;
#118 = DIRECTION ( 'NONE',  ( -1.000000000000000000, -1.846888588581508164E-16, 0.000000000000000000 ) ) ;
#119 = PLANE ( 'NONE',  #97 ) ;
#120 = CARTESIAN_POINT ( 'NONE',  ( -1.073558721216520180E-14, 76.06002582382548383, 0.000000000000000000 ) ) ;
#121 = TOROIDAL_SURFACE ( 'NONE', #60, 17.75870078712414113, 109.0763400701890617 ) ;
#122 = CARTESIAN_POINT ( 'NONE',  ( 0.000000000000000000, 0.000000000000000000, 0.000000000000000000 ) ) ;
#123 = CYLINDRICAL_SURFACE ( 'NONE', #209, 75.14144542131374749 ) ;
#124 = FACE_OUTER_BOUND ( 'NONE', #42, .T. ) ;
#125 = FACE_OUTER_BOUND ( 'NONE', #203, .T. ) ;
#126 = APPLICATION_CONTEXT ( 'automotive_design' ) ;
#127 = DIRECTION ( 'NONE',  ( 1.000000000000000000, 1.846888588581508164E-16, 0.000000000000000000 ) ) ;
#128 = CARTESIAN_POINT ( 'NONE',  ( -75.14144542131376170, 91.52284894734842169, 0.000000000000000000 ) ) ;
#129 = CARTESIAN_POINT ( 'NONE',  ( 3.469446951953614189E-15, -17.62098545107700787, 0.000000000000000000 ) ) ;
#130 =( GEOMETRIC_REPRESENTATION_CONTEXT ( 3 ) GLOBAL_UNCERTAINTY_ASSIGNED_CONTEXT ( ( #152 ) ) GLOBAL_UNIT_ASSIGNED_CONTEXT ( ( #71, #57, #216 ) ) REPRESENTATION_CONTEXT ( 'NONE', 'WORKASPACE' ) );
#131 = AXIS2_PLACEMENT_3D ( 'NONE', #182, #145, #35 ) ;
#132 = CIRCLE ( 'NONE', #162, 38.20000000000002416 ) ;
#133 = EDGE_LOOP ( 'NONE', ( #113, #8, #115, #28 ) ) ;
#134 = AXIS2_PLACEMENT_3D ( 'NONE', #67, #18, #211 ) ;
#135 = VERTEX_POINT ( 'NONE', #38 ) ;
#136 = ORIENTED_EDGE ( 'NONE', *, *, #72, .F. ) ;
#137 = MANIFOLD_SOLID_BREP ( 'Fillet1', #41 ) ;
#138 = DIRECTION ( 'NONE',  ( -1.516319472943648719E-16, 1.000000000000000000, -0.000000000000000000 ) ) ;
#139 = CARTESIAN_POINT ( 'NONE',  ( -1.387778780781445676E-14, 91.52284894734843590, 0.000000000000000000 ) ) ;
#140 = EDGE_CURVE ( 'NONE', #95, #26, #200, .T. ) ;
#141 = CIRCLE ( 'NONE', #199, 109.0763400701890617 ) ;
#142 = CARTESIAN_POINT ( 'NONE',  ( 73.62923049303543621, 76.06002582382551225, 9.016980144697857610E-15 ) ) ;
#143 = FACE_OUTER_BOUND ( 'NONE', #154, .T. ) ;
#144 = DIRECTION ( 'NONE',  ( 1.000000000000000000, 0.000000000000000000, -1.224646799147349509E-16 ) ) ;
#145 = DIRECTION ( 'NONE',  ( -1.516319472943648719E-16, 1.000000000000000000, -0.000000000000000000 ) ) ;
#146 = DIRECTION ( 'NONE',  ( -1.516319472943648719E-16, 1.000000000000000000, -0.000000000000000000 ) ) ;
#147 = EDGE_CURVE ( 'NONE', #91, #9, #7, .T. ) ;
#148 = ORIENTED_EDGE ( 'NONE', *, *, #72, .T. ) ;
#149 = DIRECTION ( 'NONE',  ( 0.000000000000000000, -0.000000000000000000, -1.000000000000000000 ) ) ;
#150 = ORIENTED_EDGE ( 'NONE', *, *, #107, .F. ) ;
#151 = PRODUCT_DEFINITION_SHAPE ( 'NONE', 'NONE',  #11 ) ;
#152 = UNCERTAINTY_MEASURE_WITH_UNIT (LENGTH_MEASURE( 1.000000000000000082E-05 ), #71, 'distance_accuracy_value', 'NONE');
#153 = CARTESIAN_POINT ( 'NONE',  ( -1.387778780781445991E-14, 91.52284894734845011, 0.000000000000000000 ) ) ;
#154 = EDGE_LOOP ( 'NONE', ( #191, #169 ) ) ;
#155 = DIRECTION ( 'NONE',  ( -1.224646799147353207E-16, -1.856955789025240969E-32, 1.000000000000000000 ) ) ;
#156 = DIRECTION ( 'NONE',  ( 1.224646799147353207E-16, 1.856955789025240969E-32, 1.000000000000000000 ) ) ;
#157 = AXIS2_PLACEMENT_3D ( 'NONE', #228, #146, #179 ) ;
#158 = DIRECTION ( 'NONE',  ( -1.000000000000000000, -1.516319472943648719E-16, 0.000000000000000000 ) ) ;
#159 = AXIS2_PLACEMENT_3D ( 'NONE', #210, #53, #79 ) ;
#160 = ADVANCED_FACE ( 'NONE', ( #55 ), #123, .T. ) ;
#161 = SURFACE_STYLE_USAGE ( .BOTH. , #23 ) ;
#162 = AXIS2_PLACEMENT_3D ( 'NONE', #108, #197, #229 ) ;
#163 = CIRCLE ( 'NONE', #220, 73.62923049303543621 ) ;
#164 = ORIENTED_EDGE ( 'NONE', *, *, #140, .F. ) ;
#165 = ORIENTED_EDGE ( 'NONE', *, *, #212, .F. ) ;
#166 = ORIENTED_EDGE ( 'NONE', *, *, #107, .T. ) ;
#167 = AXIS2_PLACEMENT_3D ( 'NONE', #122, #193, #46 ) ;
#168 = EDGE_CURVE ( 'NONE', #9, #91, #163, .T. ) ;
#169 = ORIENTED_EDGE ( 'NONE', *, *, #212, .T. ) ;
#170 = CARTESIAN_POINT ( 'NONE',  ( -38.20000000000003837, 89.52284894734840748, 0.000000000000000000 ) ) ;
#171 = CIRCLE ( 'NONE', #1, 75.14144542131374749 ) ;
#172 = ORIENTED_EDGE ( 'NONE', *, *, #111, .T. ) ;
#173 = CARTESIAN_POINT ( 'NONE',  ( -17.75870078712413758, -17.62098545107701142, 0.000000000000000000 ) ) ;
#174 = CARTESIAN_POINT ( 'NONE',  ( -74.14144542131376170, 76.91888312701902919, 9.079708381937006609E-15 ) ) ;
#175 = DIRECTION ( 'NONE',  ( 1.000000000000000000, 1.516319472943648719E-16, 0.000000000000000000 ) ) ;
#176 = AXIS2_PLACEMENT_3D ( 'NONE', #153, #103, #68 ) ;
#177 = EDGE_CURVE ( 'NONE', #91, #30, #141, .T. ) ;
#178 = DIRECTION ( 'NONE',  ( 1.000000000000000000, 0.000000000000000000, 1.224646799147353207E-16 ) ) ;
#179 = DIRECTION ( 'NONE',  ( -1.000000000000000000, -1.846888588581508410E-16, 0.000000000000000000 ) ) ;
#180 = DIRECTION ( 'NONE',  ( 1.000000000000000000, 1.516319472943648719E-16, 0.000000000000000000 ) ) ;
#181 = ADVANCED_FACE ( 'NONE', ( #125 ), #19, .T. ) ;
#182 = CARTESIAN_POINT ( 'NONE',  ( -1.357452391322572366E-14, 89.52284894734840748, 0.000000000000000000 ) ) ;
#183 = AXIS2_PLACEMENT_3D ( 'NONE', #51, #32, #101 ) ;
#184 = FILL_AREA_STYLE ('',( #84 ) ) ;
#185 = EDGE_CURVE ( 'NONE', #65, #91, #75, .T. ) ;
#186 = PRESENTATION_LAYER_ASSIGNMENT (  '', '', ( #25 ) ) ;
#187 = ORIENTED_EDGE ( 'NONE', *, *, #226, .F. ) ;
#188 = ORIENTED_EDGE ( 'NONE', *, *, #39, .F. ) ;
#189 = DIRECTION ( 'NONE',  ( 1.516319472943648719E-16, -1.000000000000000000, 0.000000000000000000 ) ) ;
#190 = ORIENTED_EDGE ( 'NONE', *, *, #147, .F. ) ;
#191 = ORIENTED_EDGE ( 'NONE', *, *, #140, .T. ) ;
#192 = DIRECTION ( 'NONE',  ( 0.000000000000000000, 0.000000000000000000, -1.000000000000000000 ) ) ;
#193 = DIRECTION ( 'NONE',  ( 0.000000000000000000, 0.000000000000000000, 1.000000000000000000 ) ) ;
#194 = DIRECTION ( 'NONE',  ( -1.516319472943648719E-16, 1.000000000000000000, -0.000000000000000000 ) ) ;
#195 = CARTESIAN_POINT ( 'NONE',  ( 75.14144542131373328, 91.52284894734845011, 9.202173061851741757E-15 ) ) ;
#196 = DIRECTION ( 'NONE',  ( -1.516319472943648719E-16, 1.000000000000000000, -0.000000000000000000 ) ) ;
#197 = DIRECTION ( 'NONE',  ( -1.516319472943648719E-16, 1.000000000000000000, -0.000000000000000000 ) ) ;
#198 = DIRECTION ( 'NONE',  ( -1.000000000000000000, -1.516319472943648719E-16, 0.000000000000000000 ) ) ;
#199 = AXIS2_PLACEMENT_3D ( 'NONE', #105, #155, #178 ) ;
#200 = CIRCLE ( 'NONE', #176, 75.14144542131373328 ) ;
#201 = EDGE_CURVE ( 'NONE', #135, #9, #218, .T. ) ;
#202 = EDGE_LOOP ( 'NONE', ( #136, #112 ) ) ;
#203 = EDGE_LOOP ( 'NONE', ( #78, #166, #164, #187 ) ) ;
#204 = AXIS2_PLACEMENT_3D ( 'NONE', #206, #192, #100 ) ;
#205 = FACE_OUTER_BOUND ( 'NONE', #77, .T. ) ;
#206 = CARTESIAN_POINT ( 'NONE',  ( 74.14144542131373328, 76.91888312701905761, 0.000000000000000000 ) ) ;
#207 = DIRECTION ( 'NONE',  ( -1.000000000000000000, 0.000000000000000000, 0.000000000000000000 ) ) ;
#208 = TOROIDAL_SURFACE ( 'NONE', #183, 74.14144542131374749, 1.000000000000000000 ) ;
#209 = AXIS2_PLACEMENT_3D ( 'NONE', #139, #194, #52 ) ;
#210 = CARTESIAN_POINT ( 'NONE',  ( -1.126458872487699502E-14, 76.91888312701904340, 0.000000000000000000 ) ) ;
#211 = DIRECTION ( 'NONE',  ( 1.000000000000000000, 1.884820432712134803E-16, 0.000000000000000000 ) ) ;
#212 = EDGE_CURVE ( 'NONE', #26, #95, #29, .T. ) ;
#213 = PRODUCT_CONTEXT ( 'NONE', #76, 'mechanical' ) ;
#214 = PRODUCT ( 'P-1006-F - SERVICE CAP', 'P-1006-F - SERVICE CAP', '', ( #213 ) ) ;
#215 = AXIS2_PLACEMENT_3D ( 'NONE', #173, #149, #207 ) ;
#216 =( NAMED_UNIT ( * ) SI_UNIT ( $, .STERADIAN. ) SOLID_ANGLE_UNIT ( ) );
#217 = ADVANCED_BREP_SHAPE_REPRESENTATION ( 'P-1006-F - SERVICE CAP', ( #137, #167 ), #130 ) ;
#218 = CIRCLE ( 'NONE', #92, 1.000000000000000888 ) ;
#219 = AXIS2_PLACEMENT_3D ( 'NONE', #227, #4, #158 ) ;
#220 = AXIS2_PLACEMENT_3D ( 'NONE', #120, #34, #17 ) ;
#221 = ORIENTED_EDGE ( 'NONE', *, *, #177, .T. ) ;
#222 = CARTESIAN_POINT ( 'NONE',  ( -1.166336003225756239E-14, 76.91888312701904340, 0.000000000000000000 ) ) ;
#223 = ORIENTED_EDGE ( 'NONE', *, *, #201, .T. ) ;
#224 = DIRECTION ( 'NONE',  ( -1.516319472943648719E-16, 1.000000000000000000, -0.000000000000000000 ) ) ;
#225 = CARTESIAN_POINT ( 'NONE',  ( 75.14144542131373328, 76.91888312701905761, 9.202173061851741757E-15 ) ) ;
#226 = EDGE_CURVE ( 'NONE', #135, #95, #85, .T. ) ;
#227 = CARTESIAN_POINT ( 'NONE',  ( 3.469446951953614189E-15, -17.62098545107700787, 0.000000000000000000 ) ) ;
#228 = CARTESIAN_POINT ( 'NONE',  ( -1.387778780781445991E-14, 91.52284894734845011, 0.000000000000000000 ) ) ;
#229 = DIRECTION ( 'NONE',  ( -1.000000000000000000, 0.000000000000000000, 0.000000000000000000 ) ) ;
ENDSEC;
END-ISO-10303-21;
